<?xml version="1.0" encoding="UTF-8" ?>
<!DOCTYPE svg PUBLIC "-//W3C//DTD SVG 1.1//EN" "http://www.w3.org/Graphics/SVG/1.1/DTD/svg11.dtd">
<svg width="1024pt" height="1024pt" viewBox="0 0 1024 1024" version="1.1" xmlns="http://www.w3.org/2000/svg">
<g id="#ffffffff">
<path fill="#ffffff" stroke="#ffffff" stroke-width="0.09375" opacity="1.00" d=" M 0.00 0.00 L 1024.00 0.00 L 1024.00 1024.00 L 0.00 1024.00 L 0.00 0.00 M 678.01 323.00 C 677.99 449.00 678.00 575.00 678.01 701.00 C 685.66 701.00 693.32 700.99 700.99 701.00 C 701.01 575.00 701.00 449.00 700.99 323.00 C 693.33 322.99 685.66 322.99 678.01 323.00 M 323.01 354.01 C 322.98 372.00 322.98 389.99 323.01 407.99 C 355.33 408.03 387.66 407.96 419.99 408.01 C 420.02 496.34 419.98 584.66 420.01 672.99 C 442.33 673.02 464.66 673.02 486.99 672.98 C 487.02 584.66 486.98 496.33 487.01 408.01 C 520.00 407.97 552.99 408.03 585.99 407.99 C 586.02 390.00 586.01 372.00 585.99 354.01 C 498.33 353.99 410.67 354.00 323.01 354.01 Z" />
</g>
<g id="#63cccaff">
<path fill="#63ccca" stroke="#63ccca" stroke-width="0.09375" opacity="1.00" d=" M 678.01 323.00 C 685.66 322.99 693.33 322.99 700.99 323.00 C 701.00 449.00 701.01 575.00 700.99 701.00 C 693.32 700.99 685.66 701.00 678.01 701.00 C 678.00 575.00 677.99 449.00 678.01 323.00 Z" />
<path fill="#63ccca" stroke="#63ccca" stroke-width="0.09375" opacity="1.00" d=" M 323.01 354.01 C 410.67 354.00 498.33 353.99 585.99 354.01 C 586.01 372.00 586.02 390.00 585.99 407.99 C 552.99 408.03 520.00 407.97 487.01 408.01 C 486.98 496.33 487.02 584.66 486.99 672.98 C 464.66 673.02 442.33 673.02 420.01 672.99 C 419.98 584.66 420.02 496.34 419.99 408.01 C 387.66 407.96 355.33 408.03 323.01 407.99 C 322.98 389.99 322.98 372.00 323.01 354.01 Z" />
</g>
</svg>
