<svg id="eqps51g8bm2h1" xmlns="http://www.w3.org/2000/svg" xmlns:xlink="http://www.w3.org/1999/xlink" viewBox="0 0 1024 1024" shape-rendering="geometricPrecision" text-rendering="geometricPrecision"><style><![CDATA[#eqps51g8bm2h4 {animation: eqps51g8bm2h4_c_o 1000ms linear infinite normal forwards}@keyframes eqps51g8bm2h4_c_o { 0% {opacity: 0} 50% {opacity: 0;animation-timing-function: step-start} 100% {opacity: 1} }]]></style><g id="eqps51g8bm2h2"><path id="eqps51g8bm2h3" d="M0,0L1024,0L1024,1024L0,1024L0,0M678.010000,323C677.990000,449,678,575,678.010000,701C685.660000,701,693.320000,700.990000,700.990000,701C701.010000,575,701,449,700.990000,323C693.330000,322.990000,685.660000,322.990000,678.010000,323M323.010000,354.010000C322.980000,372,322.980000,389.990000,323.010000,407.990000C355.330000,408.030000,387.660000,407.960000,419.990000,408.010000C420.020000,496.340000,419.980000,584.660000,420.010000,672.990000C442.330000,673.020000,464.660000,673.020000,486.990000,672.980000C487.020000,584.660000,486.980000,496.330000,487.010000,408.010000C520,407.970000,552.990000,408.030000,585.990000,407.990000C586.020000,390,586.010000,372,585.990000,354.010000C498.330000,353.990000,410.670000,354,323.010000,354.010000Z" fill="rgb(255,255,255)" stroke="rgb(255,255,255)" stroke-width="0.093750"/></g><path id="eqps51g8bm2h4" d="M678.010000,323C685.660000,322.990000,693.330000,322.990000,700.990000,323C701,449,701.010000,575,700.990000,701C693.320000,700.990000,685.660000,701,678.010000,701C678,575,677.990000,449,678.010000,323Z" opacity="0" fill="rgb(99,204,202)" stroke="rgb(99,204,202)" stroke-width="0.093750"/><path id="eqps51g8bm2h5" d="M323.010000,354.010000C410.670000,354,498.330000,353.990000,585.990000,354.010000C586.010000,372,586.020000,390,585.990000,407.990000C552.990000,408.030000,520,407.970000,487.010000,408.010000C486.980000,496.330000,487.020000,584.660000,486.990000,672.980000C464.660000,673.020000,442.330000,673.020000,420.010000,672.990000C419.980000,584.660000,420.020000,496.340000,419.990000,408.010000C387.660000,407.960000,355.330000,408.030000,323.010000,407.990000C322.980000,389.990000,322.980000,372,323.010000,354.010000Z" fill="rgb(99,204,202)" stroke="rgb(99,204,202)" stroke-width="0.093750"/></svg>