<?xml version="1.0" encoding="UTF-8" ?>
<!DOCTYPE svg PUBLIC "-//W3C//DTD SVG 1.1//EN" "http://www.w3.org/Graphics/SVG/1.1/DTD/svg11.dtd">
<svg width="500pt" height="491pt" viewBox="0 0 500 491" version="1.1" xmlns="http://www.w3.org/2000/svg">
<g id="#ffffffff">
<path fill="#ffffff" stroke="#ffffff" stroke-width="0.09375" opacity="1.00" d=" M 198.57 99.06 C 202.36 95.53 206.22 91.99 210.86 89.61 C 212.07 90.42 213.30 91.21 214.51 92.03 C 208.56 94.41 203.51 98.67 199.49 103.61 C 199.57 102.02 199.62 100.38 198.57 99.06 L 198.57 99.06 Z" />
<path fill="#ffffff" stroke="#ffffff" stroke-width="0.09375" opacity="1.00" d=" M 412.00 140.32 C 414.63 146.41 410.04 152.66 404.77 155.42 C 404.05 152.03 407.89 150.92 409.27 148.44 C 410.70 146.91 409.66 144.86 409.21 143.16 C 410.12 142.21 411.05 141.26 412.00 140.32 Z" />
<path fill="#ffffff" stroke="#ffffff" stroke-width="0.09375" opacity="1.00" d=" M 402.45 144.23 C 403.76 144.52 405.79 144.13 405.82 146.04 C 406.47 150.26 402.39 152.80 398.99 154.06 C 394.45 155.88 393.79 161.29 389.99 163.90 C 389.07 164.63 388.13 165.32 387.21 166.03 C 387.16 165.36 387.06 164.01 387.01 163.34 C 390.15 161.13 393.70 157.85 391.75 153.60 C 392.56 152.66 393.41 151.75 394.26 150.83 C 394.65 151.55 395.42 153.00 395.81 153.72 C 399.01 151.26 399.36 146.81 402.45 144.23 M 402.22 147.97 C 400.86 148.72 400.78 149.41 401.99 150.06 C 403.35 149.31 403.43 148.61 402.22 147.97 Z" />
<path fill="#ffffff" stroke="#ffffff" stroke-width="0.09375" opacity="1.00" d=" M 392.66 147.29 C 393.17 147.36 394.18 147.51 394.68 147.58 C 393.99 148.77 393.28 149.95 392.59 151.13 C 392.00 150.69 391.42 150.25 390.84 149.82 C 391.29 149.19 392.21 147.93 392.66 147.29 Z" />
<path fill="#ffffff" stroke="#ffffff" stroke-width="0.09375" opacity="1.00" d=" M 371.34 168.06 C 374.70 165.59 374.68 160.09 378.98 158.70 C 381.38 158.70 381.31 161.44 380.92 163.14 C 379.56 167.93 373.53 167.94 370.65 171.50 C 369.39 175.42 366.23 178.19 362.86 180.34 C 362.22 176.98 365.81 175.50 367.61 173.32 C 366.31 173.58 365.01 173.84 363.72 174.09 C 363.56 170.18 365.37 164.55 370.10 164.64 C 370.61 165.74 371.02 166.88 371.34 168.06 M 376.47 164.72 C 376.94 164.64 377.88 164.48 378.35 164.40 C 378.41 163.88 378.52 162.84 378.58 162.31 C 377.25 161.18 375.51 163.53 376.47 164.72 M 367.09 168.48 C 365.54 171.47 370.37 168.63 367.09 168.48 Z" />
<path fill="#ffffff" stroke="#ffffff" stroke-width="0.09375" opacity="1.00" d=" M 356.98 164.55 C 359.32 165.25 359.91 161.37 362.29 162.92 C 361.26 164.86 360.12 166.98 357.36 166.08 C 358.52 166.77 359.73 167.78 361.24 166.92 C 364.81 174.25 357.10 181.04 350.40 182.23 C 347.09 185.11 343.42 188.01 339.04 188.90 C 336.10 188.85 336.77 185.13 337.21 183.21 C 338.03 182.59 338.89 182.01 339.78 181.48 C 339.88 182.49 340.08 184.52 340.18 185.53 C 343.29 184.56 346.24 182.94 348.61 180.67 C 349.79 178.71 350.39 176.33 352.52 175.10 C 352.48 176.33 352.44 177.56 352.40 178.80 C 353.94 177.95 355.55 177.21 357.11 176.37 C 356.47 176.11 355.19 175.59 354.55 175.33 C 354.98 172.64 355.97 170.09 357.59 167.89 C 357.03 167.88 355.90 167.87 355.34 167.86 C 355.87 166.75 356.42 165.65 356.98 164.55 M 357.59 172.60 C 359.00 172.77 359.48 172.17 359.05 170.82 C 357.65 170.63 357.17 171.22 357.59 172.60 Z" />
<path fill="#ffffff" stroke="#ffffff" stroke-width="0.09375" opacity="1.00" d=" M 343.36 176.75 C 345.09 176.01 346.79 175.21 348.61 174.70 C 348.01 175.70 347.39 176.69 346.76 177.68 C 344.92 178.33 343.45 180.00 341.36 179.75 C 342.01 178.74 342.67 177.74 343.36 176.75 Z" />
<path fill="#ffffff" stroke="#ffffff" stroke-width="0.09375" opacity="1.00" d=" M 331.22 187.21 C 330.56 184.83 332.79 183.19 334.60 182.17 C 335.28 184.49 333.93 187.39 331.22 187.21 Z" />
<path fill="#ffffff" stroke="#ffffff" stroke-width="0.09375" opacity="1.00" d=" M 330.55 194.33 C 330.41 192.45 332.79 187.73 334.70 190.31 C 334.53 192.56 332.68 193.98 330.55 194.33 Z" />
</g>
<g id="#54c6c1ff">
<path fill="#54c6c1" stroke="#54c6c1" stroke-width="0.09375" opacity="1.00" d=" M 395.18 0.00 L 396.40 0.00 C 397.89 0.77 399.37 1.58 400.78 2.50 C 394.11 5.75 387.85 9.73 381.37 13.33 C 367.05 21.67 352.62 29.84 338.31 38.20 C 335.06 40.23 331.68 42.08 328.09 43.45 C 327.48 41.57 326.89 39.68 326.35 37.78 C 326.50 38.26 326.80 39.20 326.95 39.67 C 349.49 26.11 372.59 13.49 395.18 0.00 Z" />
<path fill="#54c6c1" stroke="#54c6c1" stroke-width="0.09375" opacity="1.00" d=" M 316.81 29.88 C 318.95 28.28 321.14 30.53 323.06 31.44 C 312.44 38.05 301.23 43.67 290.75 50.51 C 289.13 49.82 287.50 49.14 285.87 48.47 C 288.82 45.70 292.50 43.93 295.98 41.94 C 302.97 37.99 309.85 33.86 316.81 29.88 Z" />
<path fill="#54c6c1" stroke="#54c6c1" stroke-width="0.09375" opacity="1.00" d=" M 116.48 170.57 C 119.62 168.87 122.51 166.52 126.03 165.66 C 128.43 165.87 130.39 167.45 132.27 168.81 C 130.95 169.69 129.64 170.59 128.31 171.44 C 92.64 192.23 56.70 212.55 21.12 233.49 C 18.82 232.35 16.48 231.28 14.13 230.23 C 17.54 227.47 21.40 225.38 25.21 223.25 C 36.96 216.56 48.59 209.65 60.37 203.01 C 64.22 200.80 68.04 198.55 71.85 196.29 C 72.81 195.72 73.77 195.17 74.73 194.63 C 75.26 194.33 76.33 193.73 76.86 193.43 C 90.10 185.86 103.27 178.19 116.48 170.57 Z" />
</g>
<g id="#02b3a7ff">
<path fill="#02b3a7" stroke="#02b3a7" stroke-width="0.09375" opacity="1.00" d=" M 381.37 13.33 C 387.85 9.73 394.11 5.75 400.78 2.50 L 401.69 3.25 C 401.96 30.18 401.69 57.13 401.83 84.06 C 401.98 86.64 401.50 89.63 398.87 90.81 C 363.17 111.52 327.34 132.01 291.67 152.76 C 289.45 151.21 285.25 150.45 285.60 147.05 C 285.60 116.03 285.63 85.00 285.59 53.98 C 285.61 52.14 285.70 50.30 285.87 48.47 C 287.50 49.14 289.13 49.82 290.75 50.51 C 301.23 43.67 312.44 38.05 323.06 31.44 C 325.20 32.89 325.63 35.50 326.35 37.78 C 326.89 39.68 327.48 41.57 328.09 43.45 C 331.68 42.08 335.06 40.23 338.31 38.20 C 352.62 29.84 367.05 21.67 381.37 13.33 Z" />
<path fill="#02b3a7" stroke="#02b3a7" stroke-width="0.09375" opacity="1.00" d=" M 128.31 171.44 C 129.64 170.59 130.95 169.69 132.27 168.81 C 132.58 170.51 132.81 172.24 132.81 173.97 C 132.77 197.64 132.79 221.31 132.80 244.98 C 132.76 248.23 133.01 251.50 132.58 254.73 C 132.31 256.81 130.18 257.75 128.64 258.79 C 111.38 268.76 94.08 278.65 76.88 288.71 C 76.41 288.98 75.45 289.53 74.98 289.81 C 73.84 290.45 72.70 291.07 71.56 291.73 C 67.87 293.91 64.14 296.04 60.38 298.10 C 50.24 304.08 40.01 309.91 29.81 315.80 C 26.93 317.42 24.20 319.47 20.98 320.39 C 18.41 320.46 16.50 318.32 14.31 317.27 C 13.85 288.27 14.20 259.24 14.13 230.23 C 16.48 231.28 18.82 232.35 21.12 233.49 C 56.70 212.55 92.64 192.23 128.31 171.44 Z" />
<path fill="#02b3a7" stroke="#02b3a7" stroke-width="0.09375" opacity="1.00" d=" M 403.89 234.77 C 405.79 233.86 407.68 231.74 409.92 232.98 C 410.28 235.86 409.93 239.43 407.01 240.89 C 382.36 255.33 357.46 269.35 332.82 283.82 C 331.33 284.78 329.61 285.28 327.91 285.73 C 328.12 283.28 327.25 280.29 329.19 278.32 C 331.77 275.92 335.14 274.63 338.11 272.78 C 360.01 260.07 382.00 247.51 403.89 234.77 Z" />
<path fill="#02b3a7" stroke="#02b3a7" stroke-width="0.09375" opacity="1.00" d=" M 379.24 329.29 C 392.59 317.31 402.30 301.83 409.45 285.50 C 413.38 288.64 418.53 287.33 423.13 287.51 C 423.33 287.84 423.72 288.48 423.92 288.81 C 420.51 288.92 417.10 288.99 413.70 289.20 C 422.02 296.78 434.74 297.02 444.66 292.67 C 447.32 291.42 451.41 290.15 450.82 286.44 C 452.03 287.40 454.44 287.87 454.12 289.90 C 453.59 305.61 453.04 321.33 452.47 337.04 C 452.51 354.58 447.11 371.78 439.30 387.34 C 437.48 384.38 435.82 381.32 433.84 378.46 C 431.58 376.94 429.20 375.63 426.88 374.24 C 424.30 379.86 421.55 385.40 418.86 390.96 C 419.20 391.18 419.89 391.62 420.23 391.85 C 423.60 395.75 427.12 399.51 430.64 403.26 C 425.25 411.48 419.33 419.41 412.41 426.40 C 408.38 430.58 402.16 430.19 396.86 429.71 C 391.32 429.20 386.22 426.73 381.57 423.82 L 381.53 423.64 C 381.45 423.26 381.29 422.50 381.20 422.12 C 371.22 414.80 367.32 401.83 366.94 389.95 C 367.65 381.26 365.34 372.70 366.03 364.01 C 366.60 355.35 364.22 346.67 365.93 338.07 C 370.63 335.58 375.28 332.87 379.24 329.29 Z" />
<path fill="#02b3a7" stroke="#02b3a7" stroke-width="0.09375" opacity="1.00" d=" M 79.99 388.97 C 93.24 379.62 108.44 373.34 121.50 363.68 C 122.00 365.39 122.45 367.15 122.38 368.96 C 122.34 381.63 122.30 394.29 122.41 406.96 C 122.51 409.34 121.05 411.61 119.04 412.80 C 106.81 419.94 94.48 426.91 82.30 434.14 C 81.30 433.56 80.30 432.98 79.30 432.41 C 78.94 424.61 79.19 416.80 79.14 409.00 C 79.26 402.32 78.54 395.56 79.99 388.97 M 101.41 382.40 C 96.76 384.66 93.70 389.93 94.10 395.09 C 94.29 397.50 96.89 399.51 99.22 398.35 C 104.18 396.17 107.52 390.39 106.77 384.99 C 106.47 382.54 103.55 380.96 101.41 382.40 M 88.58 421.25 C 96.99 418.74 104.69 414.06 111.33 408.37 C 115.89 404.83 111.84 395.42 105.90 397.28 C 95.75 400.23 87.31 410.36 88.58 421.25 Z" />
</g>
<g id="#24454eff">
<path fill="#24454e" stroke="#24454e" stroke-width="0.09375" opacity="1.00" d=" M 174.29 32.26 C 176.99 30.75 179.73 28.65 183.01 28.98 C 186.91 29.39 190.34 31.85 192.73 34.87 C 182.55 40.16 172.67 46.02 162.78 51.82 C 136.96 66.62 111.22 81.54 85.46 96.43 C 80.92 99.19 75.63 101.14 72.32 105.50 C 69.03 102.68 65.10 100.79 61.37 98.63 C 63.53 95.89 66.71 94.34 69.67 92.64 C 104.54 72.52 139.43 52.42 174.29 32.26 Z" />
<path fill="#24454e" stroke="#24454e" stroke-width="0.09375" opacity="1.00" d=" M 415.63 109.66 C 417.93 107.93 420.95 108.13 423.06 110.10 C 421.19 111.60 419.28 113.06 417.19 114.24 C 371.27 140.59 325.47 167.18 279.56 193.55 C 270.00 199.31 260.04 204.40 250.82 210.69 C 249.40 209.67 247.99 208.66 246.57 207.65 C 249.61 205.17 253.16 203.45 256.52 201.48 C 309.54 170.86 362.60 140.28 415.63 109.66 Z" />
<path fill="#24454e" stroke="#24454e" stroke-width="0.09375" opacity="1.00" d=" M 148.61 348.65 C 171.79 335.25 194.97 321.87 218.19 308.56 C 219.08 312.66 218.81 316.89 218.75 321.06 C 218.82 323.26 217.29 325.17 215.50 326.27 C 189.17 341.55 162.70 356.59 136.44 371.97 C 135.36 371.45 134.29 370.93 133.22 370.40 C 132.99 366.21 133.19 362.01 133.75 357.86 C 138.28 354.14 143.59 351.60 148.61 348.65 M 208.39 319.34 C 206.55 320.63 204.54 323.32 205.58 325.55 C 207.28 328.07 209.94 324.82 210.62 323.01 C 211.78 321.46 210.53 317.97 208.39 319.34 M 195.87 330.90 C 196.43 331.21 197.55 331.83 198.11 332.14 C 200.68 330.42 203.52 326.35 200.12 323.97 C 197.64 325.48 195.92 327.91 195.87 330.90 M 189.28 330.47 C 187.44 331.93 185.31 335.63 188.08 337.18 C 190.65 337.10 192.25 334.30 192.54 332.01 C 192.98 330.15 190.45 328.69 189.28 330.47 M 179.21 343.03 C 182.02 341.27 184.72 337.77 182.17 334.60 C 178.96 335.79 175.53 340.35 179.21 343.03 M 169.88 348.35 C 171.73 347.01 173.75 345.43 174.03 342.98 C 174.46 341.77 173.26 340.24 171.99 340.36 C 169.08 341.71 166.72 346.00 169.88 348.35 M 162.18 345.97 C 160.39 347.28 158.63 349.54 159.20 351.86 C 159.94 354.61 163.11 352.44 163.84 350.74 C 165.28 349.15 165.22 344.87 162.18 345.97 M 151.08 359.01 C 153.95 357.91 157.78 353.00 153.89 350.94 C 150.76 351.99 148.27 356.29 151.08 359.01 M 142.61 364.34 C 144.99 362.38 148.05 358.65 144.81 355.97 C 141.76 357.39 138.36 362.24 142.61 364.34 Z" />
<path fill="#24454e" stroke="#24454e" stroke-width="0.09375" opacity="1.00" d=" M 469.20 330.11 C 476.77 333.30 481.95 339.77 487.82 345.22 C 477.47 363.80 467.42 382.56 457.18 401.20 C 455.84 403.49 454.92 406.08 453.14 408.08 C 450.32 410.09 448.78 413.20 447.42 416.28 C 438.99 410.26 433.37 401.26 425.66 394.45 C 429.51 389.77 431.09 383.78 433.84 378.46 C 435.82 381.32 437.48 384.38 439.30 387.34 C 440.38 389.10 441.36 390.92 442.37 392.73 C 443.47 394.73 444.84 396.56 446.27 398.34 C 455.83 377.27 466.00 356.48 475.70 335.47 C 473.84 334.40 471.97 333.34 470.12 332.27 C 467.11 338.74 464.48 345.38 461.70 351.96 C 461.33 351.79 460.59 351.45 460.22 351.28 C 463.27 344.24 466.26 337.19 469.20 330.11 Z" />
<path fill="#24454e" stroke="#24454e" stroke-width="0.09375" opacity="1.00" d=" M 133.40 388.46 C 161.55 371.93 189.88 355.73 218.20 339.50 C 219.11 343.62 218.80 347.86 218.74 352.04 C 218.82 354.29 217.21 356.20 215.34 357.26 C 189.10 372.48 162.72 387.46 136.55 402.81 C 135.44 402.37 134.32 401.94 133.22 401.50 C 133.17 397.15 133.29 392.81 133.40 388.46 M 208.36 350.31 C 205.81 351.75 203.86 355.93 206.94 357.92 C 208.83 356.46 211.01 354.76 211.02 352.11 C 211.33 350.73 209.58 349.24 208.36 350.31 M 198.93 355.77 C 196.32 357.29 194.83 361.36 197.83 363.27 C 199.50 361.82 201.49 360.31 201.71 357.93 C 202.33 356.44 200.19 354.28 198.93 355.77 M 188.04 368.05 C 191.37 367.93 194.40 362.49 190.98 360.14 C 188.55 361.61 184.80 365.59 188.04 368.05 M 181.13 366.02 C 178.75 367.31 176.59 370.28 178.01 373.02 C 181.56 375.09 185.94 366.37 181.13 366.02 M 169.27 379.18 C 172.46 378.17 174.41 375.16 174.14 371.83 C 170.15 369.98 166.63 376.10 169.27 379.18 M 159.13 382.85 C 159.82 385.11 162.57 383.76 163.40 382.30 C 165.01 380.50 165.38 377.59 163.12 376.13 C 161.04 377.74 158.49 379.86 159.13 382.85 M 152.36 382.64 C 150.79 384.15 148.87 386.59 150.21 388.84 C 152.28 390.78 154.70 387.26 155.37 385.45 C 156.45 383.66 154.09 380.59 152.36 382.64 M 142.52 395.22 C 145.04 393.31 148.08 389.51 144.76 386.81 C 141.85 388.37 138.49 392.96 142.52 395.22 Z" />
</g>
<g id="#325863ff">
<path fill="#325863" stroke="#325863" stroke-width="0.09375" opacity="1.00" d=" M 192.73 34.87 C 193.77 38.14 193.58 41.61 193.57 45.00 C 193.45 55.49 193.69 65.98 193.46 76.47 C 191.43 77.45 189.44 78.51 187.54 79.70 C 187.54 75.17 187.94 70.62 187.46 66.11 C 187.01 63.43 184.31 64.86 182.88 65.70 C 149.29 85.16 115.63 104.51 82.00 123.93 C 79.69 125.07 78.21 127.22 76.83 129.31 C 76.51 129.71 75.85 130.52 75.53 130.93 C 74.55 152.12 75.98 173.43 74.73 194.63 C 73.77 195.17 72.81 195.72 71.85 196.29 C 71.65 193.51 71.47 190.73 71.46 187.94 C 71.51 165.30 71.47 142.66 71.49 120.02 C 71.54 115.17 70.97 110.23 72.32 105.50 C 75.63 101.14 80.92 99.19 85.46 96.43 C 111.22 81.54 136.96 66.62 162.78 51.82 C 172.67 46.02 182.55 40.16 192.73 34.87 M 133.29 75.40 C 130.48 76.13 128.68 80.33 130.63 82.68 C 133.10 82.56 134.66 80.17 135.22 77.98 C 135.94 76.77 134.82 74.54 133.29 75.40 M 142.78 78.80 C 137.17 82.22 131.47 85.51 125.76 88.77 C 123.76 89.60 122.72 91.46 122.57 93.58 C 124.06 93.13 125.56 92.64 126.89 91.80 C 132.96 88.18 139.12 84.73 145.20 81.14 C 146.84 80.39 147.39 78.61 148.08 77.10 C 146.18 77.19 144.36 77.75 142.78 78.80 M 118.01 97.07 C 120.02 96.04 121.07 94.20 121.06 91.94 C 118.48 92.07 116.39 94.67 118.01 97.07 Z" />
<path fill="#325863" stroke="#325863" stroke-width="0.09375" opacity="1.00" d=" M 423.06 110.10 C 424.06 114.00 423.63 118.05 423.68 122.03 C 423.66 162.71 423.70 203.39 423.66 244.07 C 423.83 246.38 422.07 248.12 420.21 249.16 C 415.55 251.89 410.78 254.44 406.20 257.31 C 354.57 286.80 303.24 316.81 251.63 346.32 C 251.16 344.55 250.55 342.80 250.51 340.96 C 250.56 302.62 250.52 264.28 250.54 225.95 C 250.48 220.86 250.45 215.77 250.82 210.69 C 260.04 204.40 270.00 199.31 279.56 193.55 C 325.47 167.18 371.27 140.59 417.19 114.24 C 419.28 113.06 421.19 111.60 423.06 110.10 M 412.00 140.32 C 411.05 141.26 410.12 142.21 409.21 143.16 C 409.66 144.86 410.70 146.91 409.27 148.44 C 407.89 150.92 404.05 152.03 404.77 155.42 C 410.04 152.66 414.63 146.41 412.00 140.32 M 402.45 144.23 C 399.36 146.81 399.01 151.26 395.81 153.72 C 395.42 153.00 394.65 151.55 394.26 150.83 C 393.41 151.75 392.56 152.66 391.75 153.60 C 393.70 157.85 390.15 161.13 387.01 163.34 C 387.06 164.01 387.16 165.36 387.21 166.03 C 388.13 165.32 389.07 164.63 389.99 163.90 C 393.79 161.29 394.45 155.88 398.99 154.06 C 402.39 152.80 406.47 150.26 405.82 146.04 C 405.79 144.13 403.76 144.52 402.45 144.23 M 392.66 147.29 C 392.21 147.93 391.29 149.19 390.84 149.82 C 391.42 150.25 392.00 150.69 392.59 151.13 C 393.28 149.95 393.99 148.77 394.68 147.58 C 394.18 147.51 393.17 147.36 392.66 147.29 M 371.34 168.06 C 371.02 166.88 370.61 165.74 370.10 164.64 C 365.37 164.55 363.56 170.18 363.72 174.09 C 365.01 173.84 366.31 173.58 367.61 173.32 C 365.81 175.50 362.22 176.98 362.86 180.34 C 366.23 178.19 369.39 175.42 370.65 171.50 C 373.53 167.94 379.56 167.93 380.92 163.14 C 381.31 161.44 381.38 158.70 378.98 158.70 C 374.68 160.09 374.70 165.59 371.34 168.06 M 356.98 164.55 C 356.42 165.65 355.87 166.75 355.34 167.86 C 355.90 167.87 357.03 167.88 357.59 167.89 C 355.97 170.09 354.98 172.64 354.55 175.33 C 355.19 175.59 356.47 176.11 357.11 176.37 C 355.55 177.21 353.94 177.95 352.40 178.80 C 352.44 177.56 352.48 176.33 352.52 175.10 C 350.39 176.33 349.79 178.71 348.61 180.67 C 346.24 182.94 343.29 184.56 340.18 185.53 C 340.08 184.52 339.88 182.49 339.78 181.48 C 338.89 182.01 338.03 182.59 337.21 183.21 C 336.77 185.13 336.10 188.85 339.04 188.90 C 343.42 188.01 347.09 185.11 350.40 182.23 C 357.10 181.04 364.81 174.25 361.24 166.92 C 359.73 167.78 358.52 166.77 357.36 166.08 C 360.12 166.98 361.26 164.86 362.29 162.92 C 359.91 161.37 359.32 165.25 356.98 164.55 M 406.45 167.51 C 399.20 171.93 391.66 175.89 384.41 180.33 C 382.40 181.47 380.85 183.57 381.02 185.97 C 380.94 197.98 381.06 209.99 380.97 222.00 C 381.09 223.50 380.71 225.16 381.39 226.57 C 382.83 227.72 384.34 226.36 385.68 225.73 C 393.40 221.06 401.34 216.74 409.10 212.14 C 411.25 210.90 412.98 208.64 412.72 206.05 C 412.73 194.02 412.68 182.00 412.74 169.97 C 412.79 168.25 412.47 166.55 411.97 164.91 C 410.05 165.60 408.19 166.44 406.45 167.51 M 343.36 176.75 C 342.67 177.74 342.01 178.74 341.36 179.75 C 343.45 180.00 344.92 178.33 346.76 177.68 C 347.39 176.69 348.01 175.70 348.61 174.70 C 346.79 175.21 345.09 176.01 343.36 176.75 M 331.22 187.21 C 333.93 187.39 335.28 184.49 334.60 182.17 C 332.79 183.19 330.56 184.83 331.22 187.21 M 369.72 188.75 C 361.90 193.28 354.11 197.85 346.25 202.30 C 343.73 203.51 341.88 206.10 342.10 208.97 C 342.08 220.97 342.14 232.98 342.08 244.98 C 342.29 246.65 341.47 249.36 343.88 249.64 C 352.46 245.09 360.73 239.96 369.20 235.18 C 371.55 233.96 373.99 231.96 373.81 229.02 C 373.83 215.35 374.06 201.67 373.68 188.00 C 372.30 187.90 370.87 187.90 369.72 188.75 M 330.55 194.33 C 332.68 193.98 334.53 192.56 334.70 190.31 C 332.79 187.73 330.41 192.45 330.55 194.33 M 331.72 210.78 C 323.41 215.38 315.29 220.32 307.02 224.99 C 304.87 226.15 303.10 228.37 303.28 230.92 C 303.32 243.94 303.23 256.97 303.32 269.99 C 302.87 271.83 305.24 272.54 306.43 271.43 C 314.55 266.90 322.49 262.08 330.59 257.51 C 333.04 256.27 335.22 253.94 334.94 250.99 C 334.96 237.56 334.95 224.12 334.93 210.69 C 333.86 210.49 332.69 209.97 331.72 210.78 M 268.35 247.36 C 265.84 248.58 264.05 251.14 264.31 254.00 C 264.29 265.33 264.36 276.65 264.29 287.98 C 264.33 290.34 263.90 292.96 265.59 294.89 C 274.51 290.06 283.16 284.77 292.02 279.84 C 294.52 278.56 296.37 275.94 296.06 273.05 C 296.03 260.34 296.11 247.63 296.03 234.93 C 296.35 233.30 294.48 231.88 293.11 233.08 C 284.83 237.78 276.58 242.56 268.35 247.36 M 403.89 234.77 C 382.00 247.51 360.01 260.07 338.11 272.78 C 335.14 274.63 331.77 275.92 329.19 278.32 C 327.25 280.29 328.12 283.28 327.91 285.73 C 329.61 285.28 331.33 284.78 332.82 283.82 C 357.46 269.35 382.36 255.33 407.01 240.89 C 409.93 239.43 410.28 235.86 409.92 232.98 C 407.68 231.74 405.79 233.86 403.89 234.77 Z" />
<path fill="#325863" stroke="#325863" stroke-width="0.09375" opacity="1.00" d=" M 376.47 164.72 C 375.51 163.53 377.25 161.18 378.58 162.31 C 378.52 162.84 378.41 163.88 378.35 164.40 C 377.88 164.48 376.94 164.64 376.47 164.72 Z" />
<path fill="#325863" stroke="#325863" stroke-width="0.09375" opacity="1.00" d=" M 357.59 172.60 C 357.17 171.22 357.65 170.63 359.05 170.82 C 359.48 172.17 359.00 172.77 357.59 172.60 Z" />
<path fill="#325863" stroke="#325863" stroke-width="0.09375" opacity="1.00" d=" M 188.49 207.83 C 189.81 207.08 191.11 206.29 192.43 205.52 L 193.59 204.84 C 193.45 211.92 193.71 219.01 193.42 226.09 C 191.36 229.38 192.00 233.32 191.98 236.99 C 192.03 251.66 192.02 266.33 191.96 280.99 C 191.97 283.56 192.33 286.12 192.80 288.65 C 190.90 292.49 186.63 293.97 183.21 296.10 C 147.89 316.44 112.59 336.81 77.29 357.20 C 75.85 357.99 74.37 358.70 72.84 359.32 C 72.01 356.96 71.31 354.52 71.42 351.99 C 71.60 331.90 71.36 311.81 71.56 291.73 C 72.70 291.07 73.84 290.45 74.98 289.81 C 75.49 301.20 75.09 312.61 75.16 324.01 C 75.07 325.69 75.64 327.31 76.79 328.56 C 77.17 329.03 77.91 329.99 78.29 330.46 C 82.28 329.03 85.82 326.67 89.47 324.57 C 116.81 308.91 143.95 292.89 171.41 277.47 C 175.99 276.80 179.67 273.78 183.61 271.60 C 186.36 270.09 188.92 267.49 188.61 264.10 C 188.50 248.05 188.63 232.01 188.51 215.97 C 188.48 213.09 188.94 210.24 189.37 207.40 L 188.49 207.83 M 134.29 305.36 C 129.55 306.70 126.51 312.22 127.11 316.97 C 127.18 319.04 129.43 320.21 131.26 319.48 C 135.95 317.54 138.81 312.03 137.84 307.08 C 137.14 305.86 135.73 304.89 134.29 305.36 Z" />
<path fill="#325863" stroke="#325863" stroke-width="0.09375" opacity="1.00" d=" M 204.68 306.66 C 206.67 305.61 208.66 304.05 211.06 304.32 C 213.89 304.74 216.16 306.67 218.19 308.56 C 194.97 321.87 171.79 335.25 148.61 348.65 C 143.59 351.60 138.28 354.14 133.75 357.86 C 130.96 356.33 128.30 354.59 125.75 352.69 C 129.93 349.35 134.87 347.17 139.39 344.34 C 141.70 343.05 143.85 341.40 146.40 340.63 C 148.48 340.17 150.52 339.46 152.32 338.30 C 156.76 335.57 161.34 333.09 165.86 330.50 L 165.12 329.56 C 178.25 321.83 191.52 314.34 204.68 306.66 Z" />
<path fill="#325863" stroke="#325863" stroke-width="0.09375" opacity="1.00" d=" M 470.12 332.27 C 471.97 333.34 473.84 334.40 475.70 335.47 C 466.00 356.48 455.83 377.27 446.27 398.34 C 444.84 396.56 443.47 394.73 442.37 392.73 C 448.73 379.09 454.15 365.04 460.22 351.28 C 460.59 351.45 461.33 351.79 461.70 351.96 C 464.48 345.38 467.11 338.74 470.12 332.27 Z" />
<path fill="#325863" stroke="#325863" stroke-width="0.09375" opacity="1.00" d=" M 207.05 336.21 C 211.01 333.63 215.44 336.59 218.20 339.50 C 189.88 355.73 161.55 371.93 133.40 388.46 C 130.76 387.02 128.22 385.41 125.74 383.71 C 128.78 381.00 132.48 379.27 135.95 377.22 C 159.65 363.54 183.35 349.88 207.05 336.21 Z" />
<path fill="#325863" stroke="#325863" stroke-width="0.09375" opacity="1.00" d=" M 418.86 390.96 C 421.55 385.40 424.30 379.86 426.88 374.24 C 429.20 375.63 431.58 376.94 433.84 378.46 C 431.09 383.78 429.51 389.77 425.66 394.45 C 423.93 393.43 422.07 392.64 420.23 391.85 C 419.89 391.62 419.20 391.18 418.86 390.96 Z" />
</g>
<g id="#f2f2f2ff">
<path fill="#f2f2f2" stroke="#f2f2f2" stroke-width="0.09375" opacity="1.00" d=" M 235.71 51.82 C 237.74 50.66 239.73 49.35 242.02 48.78 C 245.61 48.86 248.65 51.15 251.11 53.57 C 232.09 63.89 213.60 75.15 194.79 85.83 C 188.46 89.53 181.92 92.90 175.89 97.09 C 173.06 95.21 170.05 93.63 166.88 92.41 C 173.20 87.28 180.77 84.13 187.54 79.70 C 189.44 78.51 191.43 77.45 193.46 76.47 C 207.33 67.92 221.68 60.13 235.71 51.82 Z" />
<path fill="#f2f2f2" stroke="#f2f2f2" stroke-width="0.09375" opacity="1.00" d=" M 214.53 126.45 C 212.48 125.59 213.56 121.52 215.71 123.31 C 216.65 130.20 215.79 138.43 221.37 143.65 C 224.99 147.38 230.54 146.98 235.29 146.64 C 234.22 150.91 229.17 148.87 226.19 148.29 C 226.40 148.80 226.82 149.81 227.03 150.32 C 227.17 150.64 227.45 151.27 227.59 151.59 C 229.76 151.59 231.93 151.41 234.10 151.25 C 233.51 152.59 232.71 153.78 231.71 154.85 C 226.47 154.71 220.42 154.66 216.68 150.36 C 210.89 143.93 211.26 134.58 211.49 126.49 C 212.08 126.46 212.67 126.45 213.26 126.45 C 212.77 132.46 213.29 138.71 215.85 144.24 C 217.75 148.04 221.41 150.55 225.44 151.66 L 225.67 150.13 C 222.71 149.05 219.60 147.70 217.99 144.80 C 214.64 139.35 214.58 132.66 214.53 126.45 Z" />
<path fill="#f2f2f2" stroke="#f2f2f2" stroke-width="0.09375" opacity="1.00" d=" M 195.16 227.28 C 211.34 225.51 227.61 224.19 243.89 224.09 C 244.18 263.64 243.85 303.19 244.07 342.74 C 244.50 342.63 245.37 342.42 245.80 342.32 C 246.65 344.85 248.77 346.89 251.63 346.32 C 303.24 316.81 354.57 286.80 406.20 257.31 C 409.51 257.03 413.02 256.06 416.13 257.78 C 436.50 267.58 456.16 279.72 471.83 296.20 C 478.73 302.78 484.47 310.50 489.28 318.72 C 495.08 328.45 498.20 339.45 500.00 350.55 L 500.00 365.57 C 497.60 378.40 493.34 391.04 485.85 401.84 C 481.65 408.47 476.57 414.49 470.81 419.81 C 457.65 433.89 441.11 444.22 424.28 453.31 C 381.38 475.11 333.57 485.82 285.82 489.66 C 280.67 490.08 275.46 489.90 270.38 491.00 L 229.53 491.00 C 225.40 490.11 221.18 489.98 216.97 489.85 C 184.75 487.55 152.71 481.88 121.88 472.16 C 96.39 463.89 71.49 453.05 49.62 437.39 C 39.24 430.30 30.37 421.32 21.80 412.19 C 15.01 403.89 9.01 394.79 5.21 384.72 C 2.64 378.55 1.51 371.93 0.00 365.45 L 0.00 350.45 C 1.84 338.45 5.72 326.82 11.95 316.38 C 12.74 316.65 13.54 316.94 14.31 317.27 C 16.50 318.32 18.41 320.46 20.98 320.39 C 24.20 319.47 26.93 317.42 29.81 315.80 C 40.01 309.91 50.24 304.08 60.38 298.10 C 60.38 315.06 60.34 332.02 60.38 348.97 C 60.34 355.31 67.12 359.29 72.84 359.32 C 74.37 358.70 75.85 357.99 77.29 357.20 C 112.59 336.81 147.89 316.44 183.21 296.10 C 186.63 293.97 190.90 292.49 192.80 288.65 L 193.33 287.38 C 193.74 287.46 194.55 287.64 194.96 287.73 C 195.11 267.58 194.83 247.43 195.16 227.28 M 396.14 277.72 C 393.48 281.50 392.24 286.02 389.93 289.99 C 383.06 302.48 374.40 314.17 363.44 323.38 C 360.35 326.10 356.45 327.61 353.24 330.16 L 352.96 329.96 C 352.26 331.56 351.39 333.19 351.58 335.01 C 352.25 350.33 352.74 365.66 353.30 380.99 C 353.20 391.67 356.29 402.64 363.16 410.96 C 367.99 416.81 375.03 420.04 381.53 423.64 L 381.57 423.82 C 386.22 426.73 391.32 429.20 396.86 429.71 C 402.16 430.19 408.38 430.58 412.41 426.40 C 419.33 419.41 425.25 411.48 430.64 403.26 C 433.35 406.22 436.06 409.18 438.77 412.14 C 441.17 414.98 444.71 416.38 447.84 418.24 C 449.59 414.85 451.59 411.58 453.14 408.08 C 454.92 406.08 455.84 403.49 457.18 401.20 C 467.42 382.56 477.47 363.80 487.82 345.22 C 481.95 339.77 476.77 333.30 469.20 330.11 C 466.26 337.19 463.27 344.24 460.22 351.28 C 454.15 365.04 448.73 379.09 442.37 392.73 C 441.36 390.92 440.38 389.10 439.30 387.34 C 447.11 371.78 452.51 354.58 452.47 337.04 C 453.04 321.33 453.59 305.61 454.12 289.90 C 454.44 287.87 452.03 287.40 450.82 286.44 C 446.88 284.47 443.27 281.38 439.11 280.15 C 434.17 283.42 428.89 286.23 422.97 287.25 L 423.13 287.51 C 418.53 287.33 413.38 288.64 409.45 285.50 C 405.15 282.68 400.61 280.26 396.14 277.72 M 204.68 306.66 C 191.52 314.34 178.25 321.83 165.12 329.56 C 158.99 333.44 152.45 336.63 146.40 340.63 C 143.85 341.40 141.70 343.05 139.39 344.34 C 134.87 347.17 129.93 349.35 125.75 352.69 C 124.43 357.31 124.89 362.24 125.23 366.97 C 126.71 371.22 132.22 374.05 136.44 371.97 C 162.70 356.59 189.17 341.55 215.50 326.27 C 217.29 325.17 218.82 323.26 218.75 321.06 C 218.81 316.89 219.08 312.66 218.19 308.56 C 216.16 306.67 213.89 304.74 211.06 304.32 C 208.66 304.05 206.67 305.61 204.68 306.66 M 207.05 336.21 C 183.35 349.88 159.65 363.54 135.95 377.22 C 132.48 379.27 128.78 381.00 125.74 383.71 C 124.50 387.34 125.00 391.22 124.95 394.97 C 124.16 400.79 131.51 405.42 136.55 402.81 C 162.72 387.46 189.10 372.48 215.34 357.26 C 217.21 356.20 218.82 354.29 218.74 352.04 C 218.80 347.86 219.11 343.62 218.20 339.50 C 215.44 336.59 211.01 333.63 207.05 336.21 M 110.78 360.83 C 98.18 368.21 85.41 375.30 72.91 382.86 C 72.14 384.49 71.24 386.16 71.39 388.04 C 71.39 400.69 71.42 413.35 71.38 426.00 C 70.72 431.54 77.32 435.85 82.30 434.14 C 94.48 426.91 106.81 419.94 119.04 412.80 C 121.05 411.61 122.51 409.34 122.41 406.96 C 122.30 394.29 122.34 381.63 122.38 368.96 C 122.45 367.15 122.00 365.39 121.50 363.68 C 118.70 361.11 114.51 358.38 110.78 360.83 Z" />
</g>
<g id="#e6e7e6ff">
<path fill="#e6e7e6" stroke="#e6e7e6" stroke-width="0.09375" opacity="1.00" d=" M 194.79 85.83 C 213.60 75.15 232.09 63.89 251.11 53.57 C 251.39 55.38 251.57 57.20 251.62 59.02 C 251.57 95.35 251.67 131.68 251.61 168.00 C 251.97 171.01 249.40 172.83 247.09 174.10 C 228.81 184.46 210.72 195.18 192.43 205.52 C 191.11 206.29 189.81 207.08 188.49 207.83 L 187.78 208.20 C 183.10 210.02 179.39 214.95 174.04 214.46 C 174.41 214.25 175.16 213.83 175.53 213.62 C 175.45 179.99 175.47 146.36 175.50 112.74 C 175.55 107.52 175.16 102.28 175.89 97.09 C 181.92 92.90 188.46 89.53 194.79 85.83 M 217.91 86.68 C 223.01 85.43 228.03 87.13 232.63 89.22 C 231.02 85.62 226.42 85.32 223.03 84.80 C 221.22 84.83 218.27 84.30 217.91 86.68 M 202.02 94.00 C 200.56 95.43 198.40 96.72 198.57 99.06 L 198.57 99.06 C 199.62 100.38 199.57 102.02 199.49 103.61 C 186.41 119.68 183.67 142.37 189.36 161.92 C 192.16 171.33 198.68 180.13 208.15 183.55 C 208.40 183.36 208.90 182.97 209.16 182.78 C 200.76 179.27 194.19 172.13 191.33 163.50 C 185.66 146.63 186.84 127.27 195.62 111.65 C 199.75 104.38 205.65 97.88 213.21 94.12 C 218.49 91.40 225.42 92.14 229.89 96.10 C 233.93 99.56 236.03 104.86 236.34 110.08 C 236.54 111.50 236.22 113.28 237.70 114.13 C 238.24 107.28 236.21 99.83 230.88 95.21 C 226.55 91.21 220.02 90.28 214.51 92.03 C 213.30 91.21 212.07 90.42 210.86 89.61 C 212.63 88.44 215.20 88.17 216.14 86.03 C 210.84 87.37 206.19 90.56 202.02 94.00 M 211.01 98.93 C 208.73 100.57 205.61 102.01 204.98 105.02 C 209.50 101.85 213.80 97.52 219.72 97.42 L 219.66 96.67 C 222.50 98.02 226.05 98.42 227.78 101.42 C 229.36 103.13 229.34 106.42 231.91 107.00 C 230.78 103.34 228.94 99.63 225.56 97.56 C 221.08 94.73 215.23 96.31 211.01 98.93 M 211.56 103.59 C 201.52 109.77 196.40 121.59 194.88 132.89 C 193.93 142.66 194.33 153.13 198.96 162.00 C 203.23 170.06 212.11 174.18 220.75 175.64 C 220.74 175.25 220.73 174.46 220.72 174.07 C 211.04 173.05 201.47 167.04 198.37 157.47 C 193.85 143.25 194.82 126.74 202.99 113.99 C 206.50 108.67 211.57 103.70 218.07 102.57 C 221.90 101.92 225.37 104.79 226.79 108.16 C 229.30 112.80 228.44 118.45 230.92 123.09 C 232.27 125.70 235.48 126.66 238.22 126.02 C 236.26 124.19 232.62 124.80 231.74 121.79 C 229.47 115.87 230.28 108.46 225.30 103.76 C 221.70 99.82 215.60 101.01 211.56 103.59 M 194.58 119.08 C 193.87 121.59 191.71 124.34 193.20 126.93 C 195.18 121.61 196.85 116.07 200.21 111.40 C 201.46 109.31 203.55 107.58 203.92 105.06 C 199.45 108.61 196.98 114.03 194.58 119.08 M 204.69 115.17 C 206.81 115.53 207.61 113.07 209.03 112.00 C 212.14 108.66 217.71 105.98 221.86 109.11 C 225.51 111.99 225.57 117.08 226.46 121.27 C 228.41 120.12 227.03 117.67 226.89 115.95 C 226.21 112.02 224.10 107.83 219.98 106.67 C 213.62 105.23 207.88 110.13 204.69 115.17 M 232.61 117.05 C 233.18 119.13 236.15 122.48 238.09 119.95 C 232.34 118.99 233.24 112.04 231.83 107.79 C 230.00 110.59 232.05 114.12 232.61 117.05 M 211.12 113.18 C 205.72 117.01 203.64 123.84 202.73 130.10 C 201.97 138.67 202.25 147.83 206.34 155.60 C 209.50 161.69 216.15 165.59 222.96 165.72 C 224.61 165.52 227.38 166.67 227.90 164.39 C 222.96 164.62 217.71 164.30 213.48 161.46 C 208.14 158.09 205.48 151.87 204.46 145.86 C 203.28 138.62 203.31 131.04 205.40 123.96 C 206.97 119.26 209.95 114.25 215.02 112.83 C 218.18 111.74 221.02 114.53 221.82 117.37 C 223.22 122.41 222.13 128.22 225.20 132.75 C 227.92 136.53 233.15 136.79 237.29 135.64 C 236.44 133.92 234.48 134.89 233.04 134.74 C 230.41 135.04 227.52 134.05 226.13 131.70 C 222.56 126.13 225.63 118.36 220.97 113.29 C 218.43 110.31 213.96 111.10 211.12 113.18 M 202.98 117.87 C 197.90 128.41 197.56 140.74 200.00 152.03 C 200.54 153.84 200.54 156.45 202.83 156.95 C 198.80 143.95 198.76 129.24 204.97 116.90 C 204.59 115.11 203.16 117.26 202.98 117.87 M 211.36 117.45 L 211.75 117.61 C 208.61 120.42 206.95 124.48 206.47 128.60 C 205.80 135.40 205.91 142.43 208.20 148.94 C 208.53 148.76 209.19 148.40 209.52 148.22 C 207.72 143.71 207.33 138.79 207.41 133.98 C 207.49 128.56 208.24 122.32 212.73 118.67 C 214.43 117.02 217.76 117.49 218.46 119.93 C 219.77 123.83 218.97 128.09 219.96 132.06 C 220.75 136.56 223.96 141.32 228.89 141.61 C 231.41 141.59 234.78 142.49 236.58 140.19 C 233.07 140.09 229.24 141.14 225.99 139.37 C 222.35 136.81 220.84 132.23 220.74 127.93 C 220.29 124.47 221.12 120.27 218.43 117.54 C 216.57 115.39 213.65 117.30 211.36 117.45 M 210.06 127.90 C 209.60 134.88 209.82 142.41 213.49 148.59 C 216.04 153.08 221.00 155.81 226.09 156.15 C 228.39 156.17 231.14 156.82 232.94 154.93 L 231.71 154.85 C 232.71 153.78 233.51 152.59 234.10 151.25 L 234.67 151.21 C 233.28 148.51 229.48 150.71 227.03 150.32 C 226.82 149.81 226.40 148.80 226.19 148.29 C 229.17 148.87 234.22 150.91 235.29 146.64 C 235.36 146.24 235.52 145.43 235.60 145.03 C 231.16 145.42 225.92 146.06 222.43 142.63 C 217.77 138.08 217.76 131.07 217.53 125.01 C 217.73 123.39 216.41 122.28 215.60 121.06 C 212.39 121.66 210.17 124.71 210.06 127.90 M 226.54 123.45 C 226.65 126.47 227.83 129.95 230.88 131.15 C 233.11 132.18 235.55 131.33 237.77 130.70 C 237.56 130.43 237.13 129.88 236.91 129.60 C 234.85 130.04 232.40 130.99 230.57 129.43 C 228.84 128.38 228.43 126.31 227.94 124.51 C 227.47 124.15 227.00 123.80 226.54 123.45 M 191.56 128.68 C 190.15 135.11 189.99 141.88 190.91 148.40 C 191.27 148.54 191.99 148.82 192.34 148.95 C 191.35 141.88 192.02 134.76 192.89 127.72 C 192.56 127.96 191.89 128.44 191.56 128.68 M 208.90 149.85 C 212.14 157.99 221.95 161.93 230.16 160.29 C 230.41 160.05 230.90 159.59 231.14 159.35 C 225.73 159.35 219.85 159.36 215.35 155.85 C 212.73 154.34 211.82 150.89 208.90 149.85 M 191.34 152.10 C 192.27 157.73 194.11 163.29 197.18 168.12 C 197.27 167.67 197.45 166.77 197.54 166.32 C 195.01 161.46 193.39 156.25 192.33 150.90 C 192.09 151.20 191.59 151.80 191.34 152.10 M 202.60 159.45 C 203.81 162.25 206.03 164.53 208.42 166.39 C 210.18 167.59 212.01 169.21 214.33 168.73 C 212.49 167.17 210.29 166.12 208.37 164.67 C 206.21 163.02 204.93 160.57 203.28 158.47 C 202.45 158.35 202.22 158.68 202.60 159.45 M 185.73 166.63 C 186.56 170.03 188.29 173.13 190.24 176.01 C 190.82 177.07 191.83 177.74 193.04 177.90 C 191.71 175.57 190.05 173.44 188.89 171.01 C 188.02 169.42 187.48 167.50 185.73 166.63 M 214.91 168.27 C 215.03 168.61 215.27 169.29 215.39 169.64 C 218.16 170.59 222.10 172.53 224.59 170.21 C 221.33 169.73 218.10 169.10 214.91 168.27 M 198.51 168.28 C 199.30 171.99 202.89 174.12 205.77 176.18 C 208.72 177.77 211.67 180.19 215.19 180.00 C 212.42 177.89 209.05 176.78 206.18 174.84 C 203.29 173.06 201.16 170.35 198.51 168.28 M 193.06 178.83 C 193.92 182.43 197.68 184.38 200.81 185.77 C 199.09 182.73 195.70 181.02 193.06 178.83 Z" />
<path fill="#e6e7e6" stroke="#e6e7e6" stroke-width="0.09375" opacity="1.00" d=" M 406.45 167.51 C 408.19 166.44 410.05 165.60 411.97 164.91 C 412.47 166.55 412.79 168.25 412.74 169.97 C 412.68 182.00 412.73 194.02 412.72 206.05 C 412.98 208.64 411.25 210.90 409.10 212.14 C 401.34 216.74 393.40 221.06 385.68 225.73 C 384.34 226.36 382.83 227.72 381.39 226.57 C 380.71 225.16 381.09 223.50 380.97 222.00 C 381.06 209.99 380.94 197.98 381.02 185.97 C 380.85 183.57 382.40 181.47 384.41 180.33 C 391.66 175.89 399.20 171.93 406.45 167.51 Z" />
<path fill="#e6e7e6" stroke="#e6e7e6" stroke-width="0.09375" opacity="1.00" d=" M 369.72 188.75 C 370.87 187.90 372.30 187.90 373.68 188.00 C 374.06 201.67 373.83 215.35 373.81 229.02 C 373.99 231.96 371.55 233.96 369.20 235.18 C 360.73 239.96 352.46 245.09 343.88 249.64 C 341.47 249.36 342.29 246.65 342.08 244.98 C 342.14 232.98 342.08 220.97 342.10 208.97 C 341.88 206.10 343.73 203.51 346.25 202.30 C 354.11 197.85 361.90 193.28 369.72 188.75 Z" />
<path fill="#e6e7e6" stroke="#e6e7e6" stroke-width="0.09375" opacity="1.00" d=" M 331.72 210.78 C 332.69 209.97 333.86 210.49 334.93 210.69 C 334.95 224.12 334.96 237.56 334.94 250.99 C 335.22 253.94 333.04 256.27 330.59 257.51 C 322.49 262.08 314.55 266.90 306.43 271.43 C 305.24 272.54 302.87 271.83 303.32 269.99 C 303.23 256.97 303.32 243.94 303.28 230.92 C 303.10 228.37 304.87 226.15 307.02 224.99 C 315.29 220.32 323.41 215.38 331.72 210.78 Z" />
<path fill="#e6e7e6" stroke="#e6e7e6" stroke-width="0.09375" opacity="1.00" d=" M 268.35 247.36 C 276.58 242.56 284.83 237.78 293.11 233.08 C 294.48 231.88 296.35 233.30 296.03 234.93 C 296.11 247.63 296.03 260.34 296.06 273.05 C 296.37 275.94 294.52 278.56 292.02 279.84 C 283.16 284.77 274.51 290.06 265.59 294.89 C 263.90 292.96 264.33 290.34 264.29 287.98 C 264.36 276.65 264.29 265.33 264.31 254.00 C 264.05 251.14 265.84 248.58 268.35 247.36 Z" />
<path fill="#e6e7e6" stroke="#e6e7e6" stroke-width="0.09375" opacity="1.00" d=" M 208.39 319.34 C 210.53 317.97 211.78 321.46 210.62 323.01 C 209.94 324.82 207.28 328.07 205.58 325.55 C 204.54 323.32 206.55 320.63 208.39 319.34 Z" />
<path fill="#e6e7e6" stroke="#e6e7e6" stroke-width="0.09375" opacity="1.00" d=" M 195.87 330.90 C 195.92 327.91 197.64 325.48 200.12 323.97 C 203.52 326.35 200.68 330.42 198.11 332.14 C 197.55 331.83 196.43 331.21 195.87 330.90 Z" />
<path fill="#e6e7e6" stroke="#e6e7e6" stroke-width="0.09375" opacity="1.00" d=" M 189.28 330.47 C 190.45 328.69 192.98 330.15 192.54 332.01 C 192.25 334.30 190.65 337.10 188.08 337.18 C 185.31 335.63 187.44 331.93 189.28 330.47 Z" />
<path fill="#e6e7e6" stroke="#e6e7e6" stroke-width="0.09375" opacity="1.00" d=" M 179.21 343.03 C 175.53 340.35 178.96 335.79 182.17 334.60 C 184.72 337.77 182.02 341.27 179.21 343.03 Z" />
<path fill="#e6e7e6" stroke="#e6e7e6" stroke-width="0.09375" opacity="1.00" d=" M 169.88 348.35 C 166.72 346.00 169.08 341.71 171.99 340.36 C 173.26 340.24 174.46 341.77 174.03 342.98 C 173.75 345.43 171.73 347.01 169.88 348.35 Z" />
<path fill="#e6e7e6" stroke="#e6e7e6" stroke-width="0.09375" opacity="1.00" d=" M 162.18 345.97 C 165.22 344.87 165.28 349.15 163.84 350.74 C 163.11 352.44 159.94 354.61 159.20 351.86 C 158.63 349.54 160.39 347.28 162.18 345.97 Z" />
<path fill="#e6e7e6" stroke="#e6e7e6" stroke-width="0.09375" opacity="1.00" d=" M 208.36 350.31 C 209.58 349.24 211.33 350.73 211.02 352.11 C 211.01 354.76 208.83 356.46 206.94 357.92 C 203.86 355.93 205.81 351.75 208.36 350.31 Z" />
<path fill="#e6e7e6" stroke="#e6e7e6" stroke-width="0.09375" opacity="1.00" d=" M 151.08 359.01 C 148.27 356.29 150.76 351.99 153.89 350.94 C 157.78 353.00 153.95 357.91 151.08 359.01 Z" />
<path fill="#e6e7e6" stroke="#e6e7e6" stroke-width="0.09375" opacity="1.00" d=" M 198.93 355.77 C 200.19 354.28 202.33 356.44 201.71 357.93 C 201.49 360.31 199.50 361.82 197.83 363.27 C 194.83 361.36 196.32 357.29 198.93 355.77 Z" />
<path fill="#e6e7e6" stroke="#e6e7e6" stroke-width="0.09375" opacity="1.00" d=" M 142.61 364.34 C 138.36 362.24 141.76 357.39 144.81 355.97 C 148.05 358.65 144.99 362.38 142.61 364.34 Z" />
<path fill="#e6e7e6" stroke="#e6e7e6" stroke-width="0.09375" opacity="1.00" d=" M 188.04 368.05 C 184.80 365.59 188.55 361.61 190.98 360.14 C 194.40 362.49 191.37 367.93 188.04 368.05 Z" />
<path fill="#e6e7e6" stroke="#e6e7e6" stroke-width="0.09375" opacity="1.00" d=" M 181.13 366.02 C 185.94 366.37 181.56 375.09 178.01 373.02 C 176.59 370.28 178.75 367.31 181.13 366.02 Z" />
<path fill="#e6e7e6" stroke="#e6e7e6" stroke-width="0.09375" opacity="1.00" d=" M 169.27 379.18 C 166.63 376.10 170.15 369.98 174.14 371.83 C 174.41 375.16 172.46 378.17 169.27 379.18 Z" />
<path fill="#e6e7e6" stroke="#e6e7e6" stroke-width="0.09375" opacity="1.00" d=" M 152.36 382.64 C 154.09 380.59 156.45 383.66 155.37 385.45 C 154.70 387.26 152.28 390.78 150.21 388.84 C 148.87 386.59 150.79 384.15 152.36 382.64 Z" />
<path fill="#e6e7e6" stroke="#e6e7e6" stroke-width="0.09375" opacity="1.00" d=" M 142.52 395.22 C 138.49 392.96 141.85 388.37 144.76 386.81 C 148.08 389.51 145.04 393.31 142.52 395.22 Z" />
</g>
<g id="#f9f9faff">
<path fill="#f9f9fa" stroke="#f9f9fa" stroke-width="0.09375" opacity="1.00" d=" M 182.88 65.70 C 184.31 64.86 187.01 63.43 187.46 66.11 C 187.94 70.62 187.54 75.17 187.54 79.70 C 180.77 84.13 173.20 87.28 166.88 92.41 C 166.63 96.60 166.61 100.80 166.66 105.00 C 166.72 138.67 166.61 172.34 166.71 206.00 C 166.18 210.54 170.69 212.70 174.04 214.46 C 179.39 214.95 183.10 210.02 187.78 208.20 C 187.58 226.78 187.82 245.36 187.68 263.94 C 187.76 266.77 185.79 269.12 183.45 270.47 C 179.47 272.87 175.38 275.06 171.41 277.47 C 143.95 292.89 116.81 308.91 89.47 324.57 C 85.82 326.67 82.28 329.03 78.29 330.46 C 77.91 329.99 77.17 329.03 76.79 328.56 C 76.91 315.27 76.75 301.99 76.88 288.71 C 94.08 278.65 111.38 268.76 128.64 258.79 C 130.18 257.75 132.31 256.81 132.58 254.73 C 133.01 251.50 132.76 248.23 132.80 244.98 C 132.79 221.31 132.77 197.64 132.81 173.97 C 132.81 172.24 132.58 170.51 132.27 168.81 C 130.39 167.45 128.43 165.87 126.03 165.66 C 122.51 166.52 119.62 168.87 116.48 170.57 C 103.27 178.19 90.10 185.86 76.86 193.43 C 76.81 172.06 76.84 150.68 76.83 129.31 C 78.21 127.22 79.69 125.07 82.00 123.93 C 115.63 104.51 149.29 85.16 182.88 65.70 Z" />
<path fill="#f9f9fa" stroke="#f9f9fa" stroke-width="0.09375" opacity="1.00" d=" M 101.41 382.40 C 103.55 380.96 106.47 382.54 106.77 384.99 C 107.52 390.39 104.18 396.17 99.22 398.35 C 96.89 399.51 94.29 397.50 94.10 395.09 C 93.70 389.93 96.76 384.66 101.41 382.40 Z" />
<path fill="#f9f9fa" stroke="#f9f9fa" stroke-width="0.09375" opacity="1.00" d=" M 88.58 421.25 C 87.31 410.36 95.75 400.23 105.90 397.28 C 111.84 395.42 115.89 404.83 111.33 408.37 C 104.69 414.06 96.99 418.74 88.58 421.25 Z" />
</g>
<g id="#092830ff">
<path fill="#092830" stroke="#092830" stroke-width="0.09375" opacity="1.00" d=" M 133.29 75.40 C 134.82 74.54 135.94 76.77 135.22 77.98 C 134.66 80.17 133.10 82.56 130.63 82.68 C 128.68 80.33 130.48 76.13 133.29 75.40 Z" />
<path fill="#092830" stroke="#092830" stroke-width="0.09375" opacity="1.00" d=" M 142.78 78.80 C 144.36 77.75 146.18 77.19 148.08 77.10 C 147.39 78.61 146.84 80.39 145.20 81.14 C 139.12 84.73 132.96 88.18 126.89 91.80 C 125.56 92.64 124.06 93.13 122.57 93.58 C 122.72 91.46 123.76 89.60 125.76 88.77 C 131.47 85.51 137.17 82.22 142.78 78.80 Z" />
<path fill="#092830" stroke="#092830" stroke-width="0.09375" opacity="1.00" d=" M 202.02 94.00 C 206.19 90.56 210.84 87.37 216.14 86.03 C 215.20 88.17 212.63 88.44 210.86 89.61 C 206.22 91.99 202.36 95.53 198.57 99.06 C 198.40 96.72 200.56 95.43 202.02 94.00 Z" />
<path fill="#092830" stroke="#092830" stroke-width="0.09375" opacity="1.00" d=" M 214.51 92.03 C 220.02 90.28 226.55 91.21 230.88 95.21 C 236.21 99.83 238.24 107.28 237.70 114.13 C 236.22 113.28 236.54 111.50 236.34 110.08 C 236.03 104.86 233.93 99.56 229.89 96.10 C 225.42 92.14 218.49 91.40 213.21 94.12 C 205.65 97.88 199.75 104.38 195.62 111.65 C 186.84 127.27 185.66 146.63 191.33 163.50 C 194.19 172.13 200.76 179.27 209.16 182.78 C 208.90 182.97 208.40 183.36 208.15 183.55 C 198.68 180.13 192.16 171.33 189.36 161.92 C 183.67 142.37 186.41 119.68 199.49 103.61 C 203.51 98.67 208.56 94.41 214.51 92.03 Z" />
<path fill="#092830" stroke="#092830" stroke-width="0.09375" opacity="1.00" d=" M 211.01 98.93 C 215.23 96.31 221.08 94.73 225.56 97.56 C 228.94 99.63 230.78 103.34 231.91 107.00 C 229.34 106.42 229.36 103.13 227.78 101.42 C 226.05 98.42 222.50 98.02 219.66 96.67 L 219.72 97.42 C 213.80 97.52 209.50 101.85 204.98 105.02 C 205.61 102.01 208.73 100.57 211.01 98.93 Z" />
<path fill="#092830" stroke="#092830" stroke-width="0.09375" opacity="1.00" d=" M 61.37 98.63 C 65.10 100.79 69.03 102.68 72.32 105.50 C 70.97 110.23 71.54 115.17 71.49 120.02 C 71.47 142.66 71.51 165.30 71.46 187.94 C 71.47 190.73 71.65 193.51 71.85 196.29 C 68.04 198.55 64.22 200.80 60.37 203.01 C 60.43 170.00 60.35 137.00 60.41 103.99 C 60.42 102.16 60.81 100.37 61.37 98.63 Z" />
<path fill="#092830" stroke="#092830" stroke-width="0.09375" opacity="1.00" d=" M 211.56 103.59 C 215.60 101.01 221.70 99.82 225.30 103.76 C 230.28 108.46 229.47 115.87 231.74 121.79 C 232.62 124.80 236.26 124.19 238.22 126.02 C 235.48 126.66 232.27 125.70 230.92 123.09 C 228.44 118.45 229.30 112.80 226.79 108.16 C 225.37 104.79 221.90 101.92 218.07 102.57 C 211.57 103.70 206.50 108.67 202.99 113.99 C 194.82 126.74 193.85 143.25 198.37 157.47 C 201.47 167.04 211.04 173.05 220.72 174.07 C 220.73 174.46 220.74 175.25 220.75 175.64 C 212.11 174.18 203.23 170.06 198.96 162.00 C 194.33 153.13 193.93 142.66 194.88 132.89 C 196.40 121.59 201.52 109.77 211.56 103.59 Z" />
<path fill="#092830" stroke="#092830" stroke-width="0.09375" opacity="1.00" d=" M 194.58 119.08 C 196.98 114.03 199.45 108.61 203.92 105.06 C 203.55 107.58 201.46 109.31 200.21 111.40 C 196.85 116.07 195.18 121.61 193.20 126.93 C 191.71 124.34 193.87 121.59 194.58 119.08 Z" />
<path fill="#092830" stroke="#092830" stroke-width="0.09375" opacity="1.00" d=" M 204.69 115.17 C 207.88 110.13 213.62 105.23 219.98 106.67 C 224.10 107.83 226.21 112.02 226.89 115.95 C 227.03 117.67 228.41 120.12 226.46 121.27 C 225.57 117.08 225.51 111.99 221.86 109.11 C 217.71 105.98 212.14 108.66 209.03 112.00 C 207.61 113.07 206.81 115.53 204.69 115.17 Z" />
<path fill="#092830" stroke="#092830" stroke-width="0.09375" opacity="1.00" d=" M 232.61 117.05 C 232.05 114.12 230.00 110.59 231.83 107.79 C 233.24 112.04 232.34 118.99 238.09 119.95 C 236.15 122.48 233.18 119.13 232.61 117.05 Z" />
<path fill="#092830" stroke="#092830" stroke-width="0.09375" opacity="1.00" d=" M 211.12 113.18 C 213.96 111.10 218.43 110.31 220.97 113.29 C 225.63 118.36 222.56 126.13 226.13 131.70 C 227.52 134.05 230.41 135.04 233.04 134.74 C 234.48 134.89 236.44 133.92 237.29 135.64 C 233.15 136.79 227.92 136.53 225.20 132.75 C 222.13 128.22 223.22 122.41 221.82 117.37 C 221.02 114.53 218.18 111.74 215.02 112.83 C 209.95 114.25 206.97 119.26 205.40 123.96 C 203.31 131.04 203.28 138.62 204.46 145.86 C 205.48 151.87 208.14 158.09 213.48 161.46 C 217.71 164.30 222.96 164.62 227.90 164.39 C 227.38 166.67 224.61 165.52 222.96 165.72 C 216.15 165.59 209.50 161.69 206.34 155.60 C 202.25 147.83 201.97 138.67 202.73 130.10 C 203.64 123.84 205.72 117.01 211.12 113.18 Z" />
<path fill="#092830" stroke="#092830" stroke-width="0.09375" opacity="1.00" d=" M 211.36 117.45 C 213.65 117.30 216.57 115.39 218.43 117.54 C 221.12 120.27 220.29 124.47 220.74 127.93 C 220.84 132.23 222.35 136.81 225.99 139.37 C 229.24 141.14 233.07 140.09 236.58 140.19 C 234.78 142.49 231.41 141.59 228.89 141.61 C 223.96 141.32 220.75 136.56 219.96 132.06 C 218.97 128.09 219.77 123.83 218.46 119.93 C 217.76 117.49 214.43 117.02 212.73 118.67 C 208.24 122.32 207.49 128.56 207.41 133.98 C 207.33 138.79 207.72 143.71 209.52 148.22 C 209.19 148.40 208.53 148.76 208.20 148.94 C 205.91 142.43 205.80 135.40 206.47 128.60 C 206.95 124.48 208.61 120.42 211.75 117.61 L 211.36 117.45 Z" />
<path fill="#092830" stroke="#092830" stroke-width="0.09375" opacity="1.00" d=" M 226.54 123.45 C 227.00 123.80 227.47 124.15 227.94 124.51 C 228.43 126.31 228.84 128.38 230.57 129.43 C 232.40 130.99 234.85 130.04 236.91 129.60 C 237.13 129.88 237.56 130.43 237.77 130.70 C 235.55 131.33 233.11 132.18 230.88 131.15 C 227.83 129.95 226.65 126.47 226.54 123.45 Z" />
<path fill="#092830" stroke="#092830" stroke-width="0.09375" opacity="1.00" d=" M 208.90 149.85 C 211.82 150.89 212.73 154.34 215.35 155.85 C 219.85 159.36 225.73 159.35 231.14 159.35 C 230.90 159.59 230.41 160.05 230.16 160.29 C 221.95 161.93 212.14 157.99 208.90 149.85 Z" />
<path fill="#092830" stroke="#092830" stroke-width="0.09375" opacity="1.00" d=" M 227.03 150.32 C 229.48 150.71 233.28 148.51 234.67 151.21 L 234.10 151.25 C 231.93 151.41 229.76 151.59 227.59 151.59 C 227.45 151.27 227.17 150.64 227.03 150.32 Z" />
<path fill="#092830" stroke="#092830" stroke-width="0.09375" opacity="1.00" d=" M 191.34 152.10 C 191.59 151.80 192.09 151.20 192.33 150.90 C 193.39 156.25 195.01 161.46 197.54 166.32 C 197.45 166.77 197.27 167.67 197.18 168.12 C 194.11 163.29 192.27 157.73 191.34 152.10 Z" />
<path fill="#092830" stroke="#092830" stroke-width="0.09375" opacity="1.00" d=" M 202.60 159.45 C 202.22 158.68 202.45 158.35 203.28 158.47 C 204.93 160.57 206.21 163.02 208.37 164.67 C 210.29 166.12 212.49 167.17 214.33 168.73 C 212.01 169.21 210.18 167.59 208.42 166.39 C 206.03 164.53 203.81 162.25 202.60 159.45 Z" />
<path fill="#092830" stroke="#092830" stroke-width="0.09375" opacity="1.00" d=" M 185.73 166.63 C 187.48 167.50 188.02 169.42 188.89 171.01 C 190.05 173.44 191.71 175.57 193.04 177.90 C 191.83 177.74 190.82 177.07 190.24 176.01 C 188.29 173.13 186.56 170.03 185.73 166.63 Z" />
<path fill="#092830" stroke="#092830" stroke-width="0.09375" opacity="1.00" d=" M 198.51 168.28 C 201.16 170.35 203.29 173.06 206.18 174.84 C 209.05 176.78 212.42 177.89 215.19 180.00 C 211.67 180.19 208.72 177.77 205.77 176.18 C 202.89 174.12 199.30 171.99 198.51 168.28 Z" />
<path fill="#092830" stroke="#092830" stroke-width="0.09375" opacity="1.00" d=" M 193.06 178.83 C 195.70 181.02 199.09 182.73 200.81 185.77 C 197.68 184.38 193.92 182.43 193.06 178.83 Z" />
<path fill="#092830" stroke="#092830" stroke-width="0.09375" opacity="1.00" d=" M 187.78 208.20 L 188.49 207.83 L 189.37 207.40 C 188.94 210.24 188.48 213.09 188.51 215.97 C 188.63 232.01 188.50 248.05 188.61 264.10 C 188.92 267.49 186.36 270.09 183.61 271.60 C 179.67 273.78 175.99 276.80 171.41 277.47 C 175.38 275.06 179.47 272.87 183.45 270.47 C 185.79 269.12 187.76 266.77 187.68 263.94 C 187.82 245.36 187.58 226.78 187.78 208.20 Z" />
<path fill="#092830" stroke="#092830" stroke-width="0.09375" opacity="1.00" d=" M 246.57 207.65 C 247.99 208.66 249.40 209.67 250.82 210.69 C 250.45 215.77 250.48 220.86 250.54 225.95 C 250.52 264.28 250.56 302.62 250.51 340.96 C 250.55 342.80 251.16 344.55 251.63 346.32 C 248.77 346.89 246.65 344.85 245.80 342.32 C 245.87 300.56 245.74 258.79 245.87 217.03 C 245.84 213.90 245.76 210.71 246.57 207.65 Z" />
<path fill="#092830" stroke="#092830" stroke-width="0.09375" opacity="1.00" d=" M 60.38 298.10 C 64.14 296.04 67.87 293.91 71.56 291.73 C 71.36 311.81 71.60 331.90 71.42 351.99 C 71.31 354.52 72.01 356.96 72.84 359.32 C 67.12 359.29 60.34 355.31 60.38 348.97 C 60.34 332.02 60.38 315.06 60.38 298.10 Z" />
<path fill="#092830" stroke="#092830" stroke-width="0.09375" opacity="1.00" d=" M 134.29 305.36 C 135.73 304.89 137.14 305.86 137.84 307.08 C 138.81 312.03 135.95 317.54 131.26 319.48 C 129.43 320.21 127.18 319.04 127.11 316.97 C 126.51 312.22 129.55 306.70 134.29 305.36 Z" />
<path fill="#092830" stroke="#092830" stroke-width="0.09375" opacity="1.00" d=" M 146.40 340.63 C 152.45 336.63 158.99 333.44 165.12 329.56 L 165.86 330.50 C 161.34 333.09 156.76 335.57 152.32 338.30 C 150.52 339.46 148.48 340.17 146.40 340.63 Z" />
<path fill="#092830" stroke="#092830" stroke-width="0.09375" opacity="1.00" d=" M 125.75 352.69 C 128.30 354.59 130.96 356.33 133.75 357.86 C 133.19 362.01 132.99 366.21 133.22 370.40 C 134.29 370.93 135.36 371.45 136.44 371.97 C 132.22 374.05 126.71 371.22 125.23 366.97 C 124.89 362.24 124.43 357.31 125.75 352.69 Z" />
<path fill="#092830" stroke="#092830" stroke-width="0.09375" opacity="1.00" d=" M 125.74 383.71 C 128.22 385.41 130.76 387.02 133.40 388.46 C 133.29 392.81 133.17 397.15 133.22 401.50 C 134.32 401.94 135.44 402.37 136.55 402.81 C 131.51 405.42 124.16 400.79 124.95 394.97 C 125.00 391.22 124.50 387.34 125.74 383.71 Z" />
<path fill="#092830" stroke="#092830" stroke-width="0.09375" opacity="1.00" d=" M 420.23 391.85 C 422.07 392.64 423.93 393.43 425.66 394.45 C 433.37 401.26 438.99 410.26 447.42 416.28 C 448.78 413.20 450.32 410.09 453.14 408.08 C 451.59 411.58 449.59 414.85 447.84 418.24 C 444.71 416.38 441.17 414.98 438.77 412.14 C 436.06 409.18 433.35 406.22 430.64 403.26 C 427.12 399.51 423.60 395.75 420.23 391.85 Z" />
</g>
<g id="#1c404aff">
<path fill="#1c404a" stroke="#1c404a" stroke-width="0.09375" opacity="1.00" d=" M 217.91 86.68 C 218.27 84.30 221.22 84.83 223.03 84.80 C 226.42 85.32 231.02 85.62 232.63 89.22 C 228.03 87.13 223.01 85.43 217.91 86.68 Z" />
<path fill="#1c404a" stroke="#1c404a" stroke-width="0.09375" opacity="1.00" d=" M 202.98 117.87 C 203.16 117.26 204.59 115.11 204.97 116.90 C 198.76 129.24 198.80 143.95 202.83 156.95 C 200.54 156.45 200.54 153.84 200.00 152.03 C 197.56 140.74 197.90 128.41 202.98 117.87 Z" />
<path fill="#1c404a" stroke="#1c404a" stroke-width="0.09375" opacity="1.00" d=" M 210.06 127.90 C 210.17 124.71 212.39 121.66 215.60 121.06 C 216.41 122.28 217.73 123.39 217.53 125.01 C 217.76 131.07 217.77 138.08 222.43 142.63 C 225.92 146.06 231.16 145.42 235.60 145.03 C 235.52 145.43 235.36 146.24 235.29 146.64 C 230.54 146.98 224.99 147.38 221.37 143.65 C 215.79 138.43 216.65 130.20 215.71 123.31 C 213.56 121.52 212.48 125.59 214.53 126.45 C 214.58 132.66 214.64 139.35 217.99 144.80 C 219.60 147.70 222.71 149.05 225.67 150.13 L 225.44 151.66 C 221.41 150.55 217.75 148.04 215.85 144.24 C 213.29 138.71 212.77 132.46 213.26 126.45 C 212.67 126.45 212.08 126.46 211.49 126.49 C 211.26 134.58 210.89 143.93 216.68 150.36 C 220.42 154.66 226.47 154.71 231.71 154.85 L 232.94 154.93 C 231.14 156.82 228.39 156.17 226.09 156.15 C 221.00 155.81 216.04 153.08 213.49 148.59 C 209.82 142.41 209.60 134.88 210.06 127.90 Z" />
<path fill="#1c404a" stroke="#1c404a" stroke-width="0.09375" opacity="1.00" d=" M 191.56 128.68 C 191.89 128.44 192.56 127.96 192.89 127.72 C 192.02 134.76 191.35 141.88 192.34 148.95 C 191.99 148.82 191.27 148.54 190.91 148.40 C 189.99 141.88 190.15 135.11 191.56 128.68 Z" />
<path fill="#1c404a" stroke="#1c404a" stroke-width="0.09375" opacity="1.00" d=" M 75.53 130.93 C 75.85 130.52 76.51 129.71 76.83 129.31 C 76.84 150.68 76.81 172.06 76.86 193.43 C 76.33 193.73 75.26 194.33 74.73 194.63 C 75.98 173.43 74.55 152.12 75.53 130.93 Z" />
<path fill="#1c404a" stroke="#1c404a" stroke-width="0.09375" opacity="1.00" d=" M 214.91 168.27 C 218.10 169.10 221.33 169.73 224.59 170.21 C 222.10 172.53 218.16 170.59 215.39 169.64 C 215.27 169.29 215.03 168.61 214.91 168.27 Z" />
<path fill="#1c404a" stroke="#1c404a" stroke-width="0.09375" opacity="1.00" d=" M 74.98 289.81 C 75.45 289.53 76.41 288.98 76.88 288.71 C 76.75 301.99 76.91 315.27 76.79 328.56 C 75.64 327.31 75.07 325.69 75.16 324.01 C 75.09 312.61 75.49 301.20 74.98 289.81 Z" />
</g>
<g id="#12343eff">
<path fill="#12343e" stroke="#12343e" stroke-width="0.09375" opacity="1.00" d=" M 118.01 97.07 C 116.39 94.67 118.48 92.07 121.06 91.94 C 121.07 94.20 120.02 96.04 118.01 97.07 Z" />
</g>
<g id="#d4d7d8ff">
<path fill="#d4d7d8" stroke="#d4d7d8" stroke-width="0.09375" opacity="1.00" d=" M 166.88 92.41 C 170.05 93.63 173.06 95.21 175.89 97.09 C 175.16 102.28 175.55 107.52 175.50 112.74 C 175.47 146.36 175.45 179.99 175.53 213.62 C 175.16 213.83 174.41 214.25 174.04 214.46 C 170.69 212.70 166.18 210.54 166.71 206.00 C 166.61 172.34 166.72 138.67 166.66 105.00 C 166.61 100.80 166.63 96.60 166.88 92.41 Z" />
</g>
<g id="#68838aff">
<path fill="#68838a" stroke="#68838a" stroke-width="0.09375" opacity="1.00" d=" M 402.22 147.97 C 403.43 148.61 403.35 149.31 401.99 150.06 C 400.78 149.41 400.86 148.72 402.22 147.97 Z" />
</g>
<g id="#627e86ff">
<path fill="#627e86" stroke="#627e86" stroke-width="0.09375" opacity="1.00" d=" M 367.09 168.48 C 370.37 168.63 365.54 171.47 367.09 168.48 Z" />
</g>
<g id="#0d3743ff">
<path fill="#0d3743" stroke="#0d3743" stroke-width="0.09375" opacity="1.00" d=" M 191.98 236.99 C 192.00 233.32 191.36 229.38 193.42 226.09 C 193.41 246.52 193.62 266.96 193.33 287.38 L 192.80 288.65 C 192.33 286.12 191.97 283.56 191.96 280.99 C 192.02 266.33 192.03 251.66 191.98 236.99 Z" />
</g>
<g id="#67cac8ff">
<path fill="#67cac8" stroke="#67cac8" stroke-width="0.09375" opacity="1.00" d=" M 396.14 277.72 C 400.61 280.26 405.15 282.68 409.45 285.50 C 402.30 301.83 392.59 317.31 379.24 329.29 C 375.28 332.87 370.63 335.58 365.93 338.07 C 361.71 335.41 357.23 333.16 353.24 330.16 C 356.45 327.61 360.35 326.10 363.44 323.38 C 374.40 314.17 383.06 302.48 389.93 289.99 C 392.24 286.02 393.48 281.50 396.14 277.72 Z" />
</g>
<g id="#20bcb6ff">
<path fill="#20bcb6" stroke="#20bcb6" stroke-width="0.09375" opacity="1.00" d=" M 422.97 287.25 C 428.89 286.23 434.17 283.42 439.11 280.15 C 443.27 281.38 446.88 284.47 450.82 286.44 C 451.41 290.15 447.32 291.42 444.66 292.67 C 434.74 297.02 422.02 296.78 413.70 289.20 C 417.10 288.99 420.51 288.92 423.92 288.81 C 423.72 288.48 423.33 287.84 423.13 287.51 L 422.97 287.25 Z" />
<path fill="#20bcb6" stroke="#20bcb6" stroke-width="0.09375" opacity="1.00" d=" M 110.78 360.83 C 114.51 358.38 118.70 361.11 121.50 363.68 C 108.44 373.34 93.24 379.62 79.99 388.97 C 77.23 387.44 74.61 385.57 72.91 382.86 C 85.41 375.30 98.18 368.21 110.78 360.83 Z" />
</g>
<g id="#01b0a0ff">
<path fill="#01b0a0" stroke="#01b0a0" stroke-width="0.09375" opacity="1.00" d=" M 352.96 329.96 L 353.24 330.16 C 357.23 333.16 361.71 335.41 365.93 338.07 C 364.22 346.67 366.60 355.35 366.03 364.01 C 365.34 372.70 367.65 381.26 366.94 389.95 C 367.32 401.83 371.22 414.80 381.20 422.12 C 381.29 422.50 381.45 423.26 381.53 423.64 C 375.03 420.04 367.99 416.81 363.16 410.96 C 356.29 402.64 353.20 391.67 353.30 380.99 C 352.74 365.66 352.25 350.33 351.58 335.01 C 351.39 333.19 352.26 331.56 352.96 329.96 Z" />
</g>
<g id="#e9eae9ff">
<path fill="#e9eae9" stroke="#e9eae9" stroke-width="0.09375" opacity="1.00" d=" M 159.13 382.85 C 158.49 379.86 161.04 377.74 163.12 376.13 C 165.38 377.59 165.01 380.50 163.40 382.30 C 162.57 383.76 159.82 385.11 159.13 382.85 Z" />
</g>
<g id="#00aa99ff">
<path fill="#00aa99" stroke="#00aa99" stroke-width="0.09375" opacity="1.00" d=" M 71.39 388.04 C 71.24 386.16 72.14 384.49 72.91 382.86 C 74.61 385.57 77.23 387.44 79.99 388.97 C 78.54 395.56 79.26 402.32 79.14 409.00 C 79.19 416.80 78.94 424.61 79.30 432.41 C 80.30 432.98 81.30 433.56 82.30 434.14 C 77.32 435.85 70.72 431.54 71.38 426.00 C 71.42 413.35 71.39 400.69 71.39 388.04 Z" />
</g>
</svg>
