<svg xmlns="http://www.w3.org/2000/svg" width="1066.667" height="1066.667" viewBox="0 0 800 800" xmlns:v="https://vecta.io/nano"><style><![CDATA[.B{stroke-width:.094}]]></style><path d="M0 0h800v800H0V0m326.94 240.17c-4.56 2.36-8.9 6.42-9.37 11.83-.57 3.57 1.55 7.08 4.53 8.93 5.28 3.4 12.03 3.26 17.94 1.88 6.53-1.5 11.48-6.64 18.03-8.05 4.5-1.25 7.46 3.8 11.82 3.94 8.08 1.46 15.63-3.82 23.7-2.17 1.13.12 1.85 1 2.53 1.8-7.5 1.98-10.35 10.92-8.24 17.74 1.62 3.8 5.6 5.65 9.26 6.97-.98 4.98-2.22 9.92-2.92 14.95-1.4.74-1.94 2.32-2.65 3.63-5.52 11.25-9.3 23.28-12.13 35.46-3.62 14.6-4.63 29.7-3.65 44.67-1.94 10.1-3.36 20.28-5.24 30.4-15.8-1.28-31.68-1.4-47.54-1.32-7.9-.08-15.8.44-23.65-.7l-4.03-30.6 4-.34c3.4 4.54 6.86 9.06 10.68 13.26 3.68-4.76 7.66-9.27 11.38-14 2.52 1.4 5.56 2.38 7.17 4.95 2.24 3.12 4.12 6.7 7.46 8.8.1-1.9-.04-3.77-.26-5.62 3.74-.3 7.4.7 11.1.95-1.93-4.15-6.65-5.76-10.4-7.83-4-1.47-6.77-4.8-9.52-7.86l.94-1.06c-16.65-13.6-31.53-29.72-42.1-48.53-1.66-2.9-2.87-6.04-4.95-8.67-.25-2.58-.27-5.16-.5-7.73l-2-.3c-.52-4.12-1-8.24-1.74-12.32 3.14.9 6.04 3.1 9.43 2.84 2.93-.3 3.4-3.83 4.07-6.1 1.2-6.7.6-13.75-1.93-20.07-.38-3.55-3.84-5.78-7.15-6.08-5.75-.8-12.66-.34-16.43 4.7-4.2 6.28-1.13 14.94 4.17 19.58-.84 5.26-2.4 10.37-3.04 15.66-5.2 4.15-8.6 10.24-12.7 15.43-4.26-6.74-8.75-13.46-14.6-18.92a78.85 78.85 0 0 1-.04-2.65l-2.7-.6c-.16-3.73-.9-7.4-1.46-11.07 3.6 1.42 7.2 3.45 11.23 2.62 3.94-6.62 3.16-14.8 1.72-22.04 2.5-5.23 1.95-12.15-2.4-16.26-6.67-6.63-17.4-7.25-25.95-4.47-9.2 2.9-15.53 12.6-14.4 22.2.82 10.44 11.33 18.66 21.65 17.25l-.73.3c-.75 3.3-1.34 6.6-1.87 9.94-4.2-.08-8.3-1.08-12.4-1.97-3.57-.78-7.78-.63-10.58 1.98-1.84 2-2.05 5.02-1.38 7.56 1.1 4.64 3.65 9.8 8.9 10.57-3.9 5.7-7.32 11.68-10.34 17.87-2.6-2.82-4.96-5.84-7.4-8.8l-.01-.3c-2.32-5.77-1.12-12.12-1.7-18.14-1.33-1.9-4.4-1.27-6.48-1.46-.47-3.24-1-6.47-1.58-9.7 3.57 1.24 7.9 4.28 11.57 2.03 3.9-7.4 3.17-16.65.37-24.3-.75-1.56-1.4-3.3-3.02-4.17-5.3-3.08-12.17-2.6-17.5.2-3.63 1.88-5.67 6.17-5.3 10.17.5 4.63 2.3 9.35 6.16 12.22-1.44 4.37-1.94 8.98-3.1 13.43-3.33-.18-3.33 3.65-3.2 6.03-22.34 19.87-36.18 48.6-38.8 78.3-.73 4.8 1.9 9.02 3.84 13.17-1.56 6.75-8.48 9.88-13.3 14.07-1.24.74-.85 2.32-1.08 3.5 1.9.6 3.82 1.3 5.84 1.08 4.1-.3 7.02-3.8 10.96-4.58 3.18-.43 4.32 4.1 7.7 3.44-2.42-4.9-4.7-10.5-2.06-15.8l.5.08c2.8-3.06 6.95-5.1 8.4-9.22 1.55-4.87 2.16-10.02 4.1-14.77.1 2.45-.38 5 .22 7.4-1.02 16.55-1.8 33.16-4.35 49.6-11.92 8.57-22.2 19.8-27.97 33.42-1.9 6.64-4.2 13.5-3.15 20.5.93 10.64 5.3 20.73 11.4 29.4 4.85 6.7 11.08 12.18 16.88 18.03 13.52 11.4 29.56 19.06 45.4 26.6 8.97 3.56 18.13 6.66 27.35 9.52 15.13 5.2 30.94 7.8 46.64 10.63 11.32 1.5 22.6 3.8 34.06 3.95 14.26 1.38 28.6 2.1 42.95 1.9 9.66-.2 19.36.46 29-.7 8-.4 16.06.13 24.02-1.08 13.38-.3 26.62-2.4 39.97-3.22 11.4-.8 22.66-3.1 34.04-4.14 33.76-5.12 67.14-12.58 100.05-21.68 25-7.92 50.08-16.26 73.18-28.88 8.75-4.02 16.67-9.67 24.13-15.72 6.54-4.54 11.75-11.1 14.5-18.6l-.7-1.37a19.13 19.13 0 0 0 1.18-2.61c7.45-1.04 15.06-1.84 22.24-4.16l.24-2.8c-7.58-1.02-15.07 1.87-22.6 2.62l-.6-2.5c8.16-.8 16.07-3.1 24.2-4.16l-.46-4.43c-8.3.62-16.13-2.4-24.05-4.33l-.3-1.15 2.3-.63c-1.17-13.42-.38-26.92-1.34-40.36-.8-7.23-.48-14.64-2.44-21.7-1.04-3.6-3.46-7.58-7.62-7.83-9.7-.42-19.36 1.14-29.06 1.05-2.3-.18-4.58.08-6.8.7-3.5.04-7 .2-10.5.34.3-4.56-1.8-8.67-2.33-13.1 14.27-4.7 26.65-13.93 37.2-24.42-1.65-3.62-3.65-7.07-6.1-10.2 4.83-4.17 11.76-7.7 12.44-14.78.03-2 .85-5.57-1.85-6.1-3.68 1.2-4.83 6.4-8.92 7-2.36-.5-.58-5.6-3.66-3.8-1.4 3.3-.3 7.92-3.64 10.13-1.1.25-2.22.5-3.16 1.16-9.4 6.28-19.16 12.42-29.98 15.93-1.96.16-4.96 2.16-6.16-.23 7.58-3.9 13.67-10.38 17.87-17.73 1-1.3-.02-2.74-.92-3.73 3.38-3.18 7.52-5.37 11.1-8.3l.68-2.15-5.12-.3c.2-3.64 1.95-7.38.5-10.94-4.82 5-6.83 11.9-11.64 16.86l-.8-.8c-5.44 6.26-12.25 11.26-19.9 14.5-4.54-6.76-8.74-13.82-11.56-21.48-1.58.2-3.17.4-4.7.9l-2.63-5.37c3.2.17 6.54.32 9.67-.55 1.2-1.18.4-3.06.53-4.53l-3.54-.22c1.78-2.12 4.35-4.1 3.65-7.23-.26.12-.8.35-1.07.47-1.18-5.32-3.46-10.92-7.73-14.45-.2-1.5-.36-2.97-.5-4.46-2-.5-4-1.15-6.06-.96-13.3-1.03-26.68-.3-39.98.44l1.07 1.23c-1.56 2.82.27 6.2-.06 9.27 3.56.7 7.13 1.26 10.72 1.8l-8.8 1.93-.05 2.4c2.1.56 4.23 1.17 6.43 1.17 1.3.75 2.72 1.22 4.16 1.65.4 5.07-.12 10.17.3 15.24 2.03.15 4.06.37 6.07.73-3.96 2.02-9.06.2-12.5 3.32-4.36.4-10.9-1.27-13.03 3.8-1.38 4.94-.26 10.2-.68 15.25l-1.9 2.12-.2 36.96c-3.02 5.1-1.65 11.17-1.76 16.8 3.93 4.7 1.46 11.23 2.05 16.74a71.05 71.05 0 0 1 4.12 1.2c-2.42 1.77-5.75.52-8 2.58-6.77-.67-13.38-2.4-20.15-3.1-11.38-1.1-22.66-3.06-34.03-4.2-7.5-.6-14.97-1.68-22.45-2.52-1.7-.25-3.43.04-5.1.47-7.4-17.22-15.18-34.27-23.44-51.1l8.94-.03c-1.7-5.97-3.7-11.84-5.38-17.8 8.38 4.84 17.36 8.55 26.5 11.65 2.4.98 3.43-2.15 4.94-3.38 3.96 2.52 6.43 6.68 10.26 9.36.64-1.74.23-3.58-.1-5.33 2.94-.02 5.9.13 8.83-.14l.96-1.28c-3.75-3.12-8.73-3.94-13.1-5.82-1.22-.37-1.75-1.57-2.4-2.52-11.84-8.08-22.7-17.56-32.52-28 13.67-3.38 25.96-10.55 37.85-17.87 2.13-1.12.3-3.97.4-5.82 4.2-3 10.4-.12 14.16-3.78l-3.5-2.3c.95-3.35 4.06-5.45 5.1-8.76-6.64.65-11 6.46-17.16 8.45l-.3-1.13c-18.1 6.36-37.64 6.52-56.6 5.72-.38-3.37-.97-6.72-1.07-10.1 2.85 1.1 5.65 3.2 8.86 2.62 2.43-.4 3.03-3.24 3.63-5.23.97-6.5.8-13.3-1.7-19.44-.16-1.24.16-2.76-1.08-3.53-4.56-4.28-11.16-4.02-16.98-4.08-.93-3.47-1.5-7.17-3.65-10.15-3.3-4.75-9.24-7.24-14.95-6.9-7.94-.23-14.97 4.98-22.96 4.14-6.33-.2-10.68-5.63-16.6-7.1-4.2-1.55-8.7-.01-12.5 1.87zM203.4 386.8l2.33-2c-.02 3.35-.1 6.7-.42 10.04l-.5 1.07c-.4-3.05-.8-6.1-1.4-9.1z" fill="#c54d59" stroke="#c54d59" class="B"/><path d="M326.94 240.17c3.8-1.88 8.3-3.42 12.5-1.87 5.93 1.47 10.28 6.9 16.6 7.1 8 .84 15.02-4.37 22.96-4.14 5.7-.33 11.64 2.16 14.95 6.9 2.14 2.98 2.72 6.68 3.65 10.15 5.82.06 12.42-.2 16.98 4.08 1.24.77.92 2.3 1.08 3.53-4.6 1.43-7.52 5.47-11.56 7.85-1.63-.9-3.8-3.08-5.53-1.2-2.36 2.52.58 5.68 1 8.4-.8.7-1.6 1.4-2.44 2.05-3.65-1.32-7.64-3.17-9.26-6.97-2.1-6.82.74-15.76 8.24-17.74-.68-.8-1.4-1.7-2.53-1.8-8.07-1.65-15.62 3.63-23.7 2.17-4.36-.15-7.3-5.2-11.82-3.94-6.55 1.4-11.5 6.56-18.03 8.05-5.9 1.38-12.66 1.52-17.94-1.88-2.98-1.85-5.1-5.36-4.53-8.93.46-5.4 4.8-9.47 9.37-11.83zM662.9 479.02c2-1.07 4.05-1.97 6.1-2.88l.74.13c4.65.67 9.22 3.2 10.9 7.8l.6 2.5c.14 1.44.16 2.9.1 4.35a19.13 19.13 0 0 1-1.18 2.61c-2.9 4.95-9.28 7.83-14.7 5.25-4.36-1.7-6.56-6.12-7.34-10.5.42-1.98.94-3.93 1.62-5.84.97-1.2 2-2.37 3.13-3.44z" fill="#1a1849" stroke="#1a1849" class="B"/><path d="M218.8 245.8c8.55-2.78 19.28-2.16 25.95 4.47 4.35 4.1 4.9 11.03 2.4 16.26-2.5 2.23-6 2.9-8.5 5.1-4.14 4.56-6.14 11.67-12.6 13.62-10.32 1.4-20.83-6.8-21.65-17.25-1.12-9.6 5.2-19.3 14.4-22.2zm10.2 50.27l5.58.7 1.1.26 2.7.6.04 2.65c.32 10.85 3.27 21.4 7.07 31.5-2.05 3.96-4 7.98-5.78 12.06-2.7-16.1-6.16-32.1-10.7-47.78z" fill="#fff" stroke="#fff" class="B"/><path fill="#191847" stroke="#191847" d="M264.58 268.53c3.77-5.04 10.68-5.5 16.43-4.7 3.3.3 6.77 2.53 7.15 6.08-6.28 1.43-12.74.56-19.06 1.4 2.63.57 5.3.9 8 1.1l1.58 2.86c-1.63 1.1-3.2 2.24-4.74 3.46-2.13-.2-3.9.8-5.42 2.2.7 1.7 1.5 3.33 2.12 5.05a42.28 42.28 0 0 1-1.89 2.13c-5.3-4.64-8.36-13.3-4.17-19.58z" class="B"/><path d="M171.93 266.85c5.32-2.8 12.2-3.27 17.5-.2 1.6.86 2.27 2.6 3.02 4.17l-.36-.02c-5.86-1.78-12.02-.37-18.02-.6l3.07 1.94a58.95 58.95 0 0 0-4.02.6c2.7.42 5.42.67 8.14.86l1.25 3.17a57.21 57.21 0 0 0-4.63 3.08c-1.53.15-3.47-.1-4.33 1.52-1.6 1.94.3 4 1.3 5.67a70.69 70.69 0 0 0-2.07 2.17c-3.85-2.87-5.66-7.6-6.16-12.22-.36-4 1.68-8.3 5.3-10.17zM562.48 420.2c7.8-3.02 16.34-3.6 24.6-2.55 14.42 2.2 27.5 11.4 34.65 24.1 1.34 2.36 2.45 4.85 3.44 7.4 5.07 13.6 3.48 29.47-4.3 41.75-6.28 10.5-16.82 18.3-28.6 21.53-8.9 2.12-18.44 2.32-27.22-.47-12.3-3.8-22.98-12.7-28.77-24.22-6.1-11.33-6.94-25.1-3.03-37.3 2.6-7.36 6.88-14.04 12.33-19.62 4.93-4.5 10.57-8.32 16.9-10.6m12.84 6.18c.57 7.7 2.46 15.26 4.07 22.8.33 3.2.82 6.37 1.45 9.52 2.98-3.22 5.18-7.04 7.6-10.67 3.85-5.5 8.04-10.82 11.42-16.64-7.5-3.9-16.05-6.34-24.55-5.02m-10.96 2.7c-6.2 2.56-11.7 6.68-15.98 11.83l12.67 8.85.33-.03c4.6 3.6 9.6 6.7 14.32 10.14-.16-3.1-.7-6.17-1.5-9.17-1.96-7.8-2.34-15.9-4.38-23.68-1.85.65-3.67 1.34-5.47 2.06m39.17 6.03c-2.1 3.74-5.07 6.98-6.64 11-4.82 4.42-7.58 10.68-11.68 15.77 10.9-1.67 21.66-4.1 32.58-5.63-1.02-4.57-2.74-9.08-5.63-12.8-2.37-3.2-4.66-7-8.63-8.34M540.75 457c-.63 4.18-.54 8.44-1.06 12.64 4.3-.04 8.5-1.04 12.72-1.8 6.78-.9 13.43-2.7 20.2-3.68-2.76-2.1-5.45-4.45-8.65-5.84-5.76-4.88-12.43-8.55-18.37-13.2-2.06 3.76-3.8 7.72-4.85 11.9m46.52 9.78c-.6 1.2 1.02 1.6 1.65 2.3l21.93 15.18c.9.5 1.7 1.45 2.82 1.43 4.45-7.3 5.87-16.04 5.1-24.48l-31.5 5.57m-26.23 4.95c-6.68 1.25-13.55 1.67-20.04 3.77a43.85 43.85 0 0 0 13.34 20.86c1.15-.86 2.2-1.86 2.98-3.1l16.36-23.77c-4.32.03-8.4 1.6-12.64 2.23m22.55-.1c.4 8.25 2.9 16.18 4.13 24.3.57 2.58.4 5.37 1.4 7.84 8.5-1.5 16.1-7 21.43-13.68-9.15-5.9-17.9-12.45-26.96-18.47m-24.4 27.66c7.1 4.93 16.25 6.53 24.75 5.56-.62-6.7-2.7-13.14-3.56-19.8-.7-4.23-1.04-8.53-2.28-12.65-6.5 8.82-12.53 17.98-18.9 26.9z" fill="#181847" stroke="#181847" class="B"/><path fill="#b38b68" stroke="#b38b68" d="M404.1 273.78c4.04-2.38 6.97-6.42 11.56-7.85 2.5 6.15 2.67 12.94 1.7 19.44-.6 2-1.2 4.82-3.63 5.23-3.2.6-6-1.52-8.86-2.62.1 3.4.7 6.74 1.07 10.1-3.9-.17-7.83-.33-11.73-.1.7-5.03 1.94-9.97 2.92-14.95.83-.66 1.64-1.34 2.44-2.05-.42-2.73-3.36-5.9-1-8.4 1.73-1.9 3.9.3 5.53 1.2z" class="B"/><path fill="#363636" stroke="#363636" d="M238.65 271.63c2.5-2.2 6-2.87 8.5-5.1 1.44 7.23 2.22 15.42-1.72 22.04-4.04.83-7.62-1.2-11.23-2.62.55 3.68 1.3 7.34 1.46 11.07l-1.1-.26c-3.53-1.5-7.4-1.1-11.13-1.28.53-3.33 1.12-6.65 1.87-9.94l.73-.3c6.47-1.95 8.47-9.06 12.6-13.62z" class="B"/><path fill="#0c0c3c" stroke="#0c0c3c" d="M174.06 270.22c6 .22 12.16-1.2 18.02.6-4.87 1.34-9.95 1.18-14.95 1.35l-3.07-1.94z" class="B"/><path d="M269.1 271.32c6.32-.85 12.78.02 19.06-1.4 2.54 6.32 3.14 13.38 1.93 20.07-.66 2.27-1.14 5.8-4.07 6.1-3.4.27-6.3-1.95-9.43-2.84.73 4.08 1.22 8.2 1.74 12.32-2.26-.38-4.47-.94-6.7-1.4-1.95-.32-3.94-.38-5.9-.38.63-5.3 2.2-10.4 3.04-15.66a42.28 42.28 0 0 0 1.89-2.13c-.62-1.72-1.43-3.36-2.12-5.05 1.5-1.4 3.3-2.4 5.42-2.2 1.53-1.22 3.1-2.37 4.74-3.46l-1.58-2.86c-2.7-.2-5.37-.52-8-1.1zm-91.97.84c5-.17 10.08-.01 14.95-1.35l.36.02c2.8 7.66 3.54 16.92-.37 24.3-3.68 2.25-8-.8-11.57-2.03a311.02 311.02 0 0 1 1.58 9.7c-4.14.1-8.28-.1-12.4-.13 1.17-4.45 1.67-9.06 3.1-13.43a70.69 70.69 0 0 1 2.07-2.17c-1-1.67-2.9-3.73-1.3-5.67.86-1.6 2.8-1.37 4.33-1.52 1.5-1.1 3.04-2.13 4.63-3.08l-1.25-3.17c-2.72-.2-5.44-.44-8.14-.86a49.3 49.3 0 0 1 4.02-.6zm18.77 221.32c4-.66 8.06-.2 12.1-.2l-.24 2.28c.06 1.43.15 2.86.27 4.3-3.64 1.04-7.42 1.7-11.18.98-.27-2.46-.6-4.9-.94-7.36z" fill="#c9c9c9" stroke="#c9c9c9" class="B"/><path fill="#b28c66" stroke="#b28c66" d="M462.85 293.5c6.15-2 10.52-7.8 17.16-8.45-1.04 3.3-4.15 5.4-5.1 8.76l3.5 2.3c-3.75 3.66-9.96.78-14.16 3.78-.37-2.16-.82-4.3-1.4-6.4z" class="B"/><path fill="#cd6771" stroke="#cd6771" d="M536.3 293.14c13.3-.74 26.68-1.47 39.98-.44-3.93.3-8.27.4-11.32 3.27-4.64 3.7-3.82 10.27-3.55 15.52-5.26-.48-10.54-.76-15.8-.56-2.2 0-4.33-.6-6.43-1.17l.05-2.4 8.8-1.93c-3.6-.54-7.16-1.1-10.72-1.8.33-3.06-1.5-6.45.06-9.27-.37-.4-.72-.82-1.07-1.23z" class="B"/><path d="M200.47 295.5c2.8-2.6 7-2.76 10.58-1.98 4.08.9 8.18 1.9 12.4 1.97 3.72.2 7.6-.22 11.13 1.28l-5.58-.7c4.54 15.7 8 31.68 10.7 47.78-2.54 6.02-4.92 12.1-6.98 18.3-11.72-10.17-24.7-19.02-35.06-30.67 3.02-6.2 6.45-12.18 10.34-17.87-5.25-.77-7.8-5.93-8.9-10.57-.67-2.54-.46-5.55 1.38-7.56zM274 317.96c-.04-1.64.46-3.2.9-4.75.8 8.24 1.32 16.55 1.8 24.83l-1.2 2.96c-.6-7.67-1.43-15.34-1.5-23.04z" fill="#0c0c0c" stroke="#0c0c0c" class="B"/><path fill="#4ecdc4" stroke="#4ecdc4" d="M405.95 298.1c18.95.8 38.5.64 56.6-5.72l.3 1.13c.6 2.1 1.04 4.24 1.4 6.4-.12 1.85 1.72 4.7-.4 5.82-11.9 7.32-24.18 14.5-37.85 17.87-3.08.68-6.22 1.1-9.35 1.45l.23 3.06-.86-2.93-5.6-.1c2.97 13.73 5.53 27.82 3.94 41.9-1.02 4.25-2.04 8.88-5.4 11.96-2.63 2.57-6.5 3-10 2.93-7.73-.1-15.46.05-23.18-.12-.98-14.97.03-30.08 3.65-44.67 2.84-12.18 6.6-24.2 12.13-35.46.7-1.3 1.25-2.9 2.65-3.63 3.9-.24 7.82-.08 11.73.1z" class="B"/><path d="M564.96 295.97c3.05-2.87 7.4-2.97 11.32-3.27 2.07-.2 4.07.47 6.06.96.13 1.5.28 2.97.5 4.46-2.05 1.28-4.3 2.13-6.43 3.26-1.3 1.05-1.63 2.83-2.32 4.27 2.52 3.37 3.4 7.8 6.47 10.76 3.9 1.24 6.7-2.6 10-3.84l1.07-.47c.7 3.14-1.87 5.1-3.65 7.23l3.54.22c-.13 1.47.67 3.35-.53 4.53-3.13.87-6.46.72-9.67.55-1.42-.75-2.96-1.58-3.6-3.13-2-4.26-3.3-8.8-4.75-13.27-1.36 1.15-3.87 1.7-3.8 3.86.36 2.8 2.35 5.5.8 8.32l-.68 1.62c-3.9-2.35-6.85-6.07-7.87-10.54-.27-5.25-1.1-11.82 3.55-15.52zM273.03 307.4c1.77 1.85 3.34 4.06 3.46 6.72l1.84 22.67-1.62 1.24c-.47-8.28-.98-16.6-1.8-24.83-.54-1.96-1.23-3.88-1.9-5.8zm6.1 54.67l1.46-1.9c.16 5 .75 9.95 1.53 14.9 4.63-.17 10.8 2.14 14.07-2.23l1.3 3.02c-2.7.66-5.5.4-8.23.43l-8.75.06-1.38-14.28z" fill="#feffff" stroke="#feffff" class="B"/><path fill="#b28b66" stroke="#b28b66" d="M582.83 298.12c4.27 3.53 6.55 9.13 7.73 14.45-3.32 1.25-6.12 5.08-10 3.84-3.08-2.97-3.95-7.4-6.47-10.76.7-1.44 1.02-3.22 2.32-4.27 2.12-1.13 4.38-1.98 6.43-3.26z" class="B"/><path fill="#181918" stroke="#181918" d="M238.4 300.28c5.86 5.46 10.35 12.18 14.6 18.92-2.97 3.9-5.2 8.3-7.54 12.6-3.8-10.1-6.75-20.66-7.07-31.5z" class="B"/><path d="M166.48 308.7c-.14-2.38-.14-6.2 3.2-6.03 4.13.03 8.27.22 12.4.13 2.08.2 5.15-.45 6.48 1.46.57 6.02-.63 12.37 1.7 18.14l.01.3c.53 13.2 7.3 25.13 13.98 36.2 2.88 4.15 5.22 8.68 6.34 13.64-.25 4.5-1.44 9.14-4.85 12.3a43.92 43.92 0 0 1-2.33 2c-4.52 3.57-9.47 6.54-14.7 8.93-1.9.74-2.82 2.6-3.74 4.26l-.02-2.7c-7.4 2.13-15.48 4.52-23.05 1.87-5.9-2-5.78-9.4-9.1-13.8-.6-2.4-.13-4.95-.22-7.4-1.94 4.75-2.55 9.9-4.1 14.77-1.45 4.1-5.6 6.16-8.4 9.22l-.5-.08c-2.72-.46-5.4-1.07-8.07-1.7-1.94-4.15-4.57-8.38-3.84-13.17 2.62-29.7 16.46-58.43 38.8-78.3zm83.38 81.15l2.2-.13c-.6 13.7-1.06 27.46-2.53 41.1-2.44 9.57-6.37 18.72-9.33 28.15-.1-2.74-.58-5.44-1.27-8.08-2.8-10.66-5.2-21.43-7.85-32.13l1.2-3.9c1.57 1.4 3.15 3.06 5.44 2.87-1.4-3.47-3.56-6.87-3.43-10.73.34-3.4 1.9-6.53 3-9.72 4.2.07 8.4.07 12.6-.07-.05-2.46-.1-4.93-.01-7.38z" fill="#4f4f4f" stroke="#4f4f4f" class="B"/><path fill="#252525" stroke="#252525" d="M265.7 303.77c1.97 0 3.96.06 5.9.38l1.4 3.26 1.9 5.8c-.45 1.54-.95 3.1-.9 4.75.07 7.7.9 15.37 1.5 23.04l1.2-2.96c1.02 8 1.43 16.04 2.4 24.03l1.38 14.28 8.75-.06-.9 3.66c-.93-3.52-5.32-1.6-7.9-1.87.57 3.85 1.06 7.7 1.42 11.6-9.94-.03-19.87-.1-29.8.05l-2.2.13c-.08 2.45-.04 4.92.01 7.38-4.2.14-8.4.14-12.6.07-3.17-.04-6.33.02-9.5.17l-.54 3.15c-2.5-5.43.2-11.54.67-17.18.95-7.23 3.03-14.23 4.8-21.28 2.06-6.2 4.44-12.3 6.98-18.3 1.8-4.08 3.73-8.1 5.78-12.06 2.35-4.3 4.57-8.68 7.54-12.6 4.1-5.2 7.5-11.28 12.7-15.43m-7.88 66c4.94.27 9.9.06 14.84.04l.1-6.8c-5.24 1.6-10.12 4.22-14.94 6.77z" class="B"/><path fill="#dee3e9" stroke="#dee3e9" d="M271.62 304.15l6.7 1.4 2 .3.5 7.73c2.2 20.37 8.2 40.1 15.36 59.24-3.27 4.37-9.44 2.06-14.07 2.23-.78-4.94-1.37-9.9-1.53-14.9l-1.46 1.9c-.98-8-1.4-16.04-2.4-24.03l1.62-1.24c-.77-7.54-1.3-15.1-1.84-22.67-.12-2.66-1.7-4.87-3.46-6.72l-1.4-3.26z" class="B"/><path fill="#b28b65" stroke="#b28b65" d="M569.17 312.1c-.07-2.17 2.44-2.7 3.8-3.86 1.44 4.47 2.74 9 4.75 13.27.64 1.55 2.18 2.38 3.6 3.13l2.63 5.37c-3.65 1.23-7.38 2.2-11.1 3.17l-.13-1.07c-.5-3.98-1.4-7.92-2.76-11.7 1.56-2.82-.43-5.53-.8-8.32z" class="B"/><path fill="#c1585b" stroke="#c1585b" d="M545.6 310.93c5.27-.2 10.55.08 15.8.56 1.02 4.47 3.96 8.2 7.87 10.54l.68-1.62c1.37 3.77 2.25 7.7 2.76 11.7l-2.22.08c-8.9-1.03-17.92-.02-26.88-.3 3.44-3.12 8.54-1.3 12.5-3.32-2-.36-4.04-.58-6.07-.73-.4-5.07.1-10.17-.3-15.24-1.44-.43-2.87-.9-4.16-1.65z" class="B"/><path d="M280.82 313.6c2.08 2.63 3.3 5.78 4.95 8.67 10.58 18.8 25.46 34.92 42.1 48.53l-.94 1.06c-1.9 2.16-3.74 4.37-5.54 6.6-3.72 4.72-7.7 9.23-11.38 14-3.82-4.2-7.28-8.72-10.68-13.26-.65-1.1-1.3-2.2-1.86-3.33l-1.3-3.02c-7.15-19.13-13.17-38.87-15.36-59.24zm-57.2 187.93l1.1-.7c4.6-.07 9.4-.55 13.8 1.05 5.88 3.36 12.06 6.16 18.53 8.18 2.04.84 5.08 1 5.32 3.8-9.97.03-19.98.62-29.9-.45-3.17-.13-6.34.98-9.48.14l.48-7.34.15-4.7zm73.53 12.6c.07-4.43.32-8.84.6-13.25 4.34.07 8.7-.15 13.05.03 6.2 3.54 12.6 6.8 19.47 8.88 2.33.95 5.67 1.1 6.3 4.08-8.85.2-17.75.38-26.6-.12-4.28-.8-8.56.18-12.84.38z" stroke="#000" class="B"/><path d="M632.54 320.03c1.45 3.56-.3 7.3-.5 10.94l5.12.3-.68 2.15c-3.58 2.92-7.72 5.1-11.1 8.3-1.4-1.7-2.93-3.28-4.48-4.82 4.8-4.95 6.82-11.87 11.64-16.86zm22.5 19.94c4.1-.6 5.24-5.8 8.92-7 2.7.52 1.88 4.08 1.85 6.1-.68 7.1-7.6 10.6-12.44 14.78l-5.63-7.53c3.35-2.2 2.25-6.83 3.64-10.13 3.08-1.82 1.3 3.3 3.66 3.8z" fill="#987759" stroke="#987759" class="B"/><path fill="#3c3c3c" stroke="#3c3c3c" d="M204.24 358.88c-6.67-11.06-13.45-23-13.98-36.2 2.43 2.96 4.8 5.98 7.4 8.8 10.37 11.65 23.34 20.5 35.06 30.67-1.78 7.05-3.86 14.05-4.8 21.28-3.13.04-6.33-.46-8.78-2.57-2-1.68-3.86-3.53-5.67-5.4l-2.87-2.94c-1.12-4.96-3.46-9.5-6.34-13.64z" class="B"/><path fill="#35a29c" stroke="#35a29c" d="M416.65 325.04l9.35-1.45c9.8 10.43 20.68 19.9 32.52 28-1.34 2.02-2.84 3.9-4.44 5.73-1.5 1.23-2.53 4.36-4.94 3.38-9.15-3.1-18.13-6.8-26.5-11.65-2.07-6.94-3.97-13.93-5.75-20.94l-.23-3.06z" class="B"/><path fill="#f3f3f2" stroke="#f3f3f2" d="M410.43 325.08l5.6.1.86 2.93c1.78 7 3.68 14 5.75 20.94 1.7 5.97 3.7 11.84 5.38 17.8l-8.94.03-3.23.04-1.47.07c1.6-14.1-.97-28.18-3.94-41.9z" class="B"/><path d="M583.95 330c1.52-.5 3.1-.7 4.7-.9 2.82 7.66 7.02 14.72 11.56 21.48 2.92 4.07 5.75 8.22 8.23 12.6 1.2 2.4 4.2.4 6.16.23 10.82-3.5 20.57-9.65 29.98-15.93.94-.65 2.06-.9 3.16-1.16 1.8 2.56 3.75 5.02 5.63 7.53 2.46 3.13 4.46 6.58 6.1 10.2-10.56 10.5-22.94 19.72-37.2 24.42.52 4.43 2.64 8.54 2.33 13.1l10.5-.34-65.64 11.7c-1.12-5.57-1.3-11.28-.76-16.92.5-5.77 1.52-11.7-.2-17.38-3.14-11.24-1.76-23.04-.27-34.42.6-3.52 1.6-6.94 2.6-10.35l2.02-.68c3.72-.98 7.45-1.94 11.1-3.17zm54.9 108.66l9.13-1.8c2.4 6.18 4.43 12.5 6.82 18.7-2.16 6.06-4.34 12.14-5.87 18.4l-4.75-.7-10.22-1.74-2-.4c.94-6.64 2.85-13.08 4.2-19.64l2.7-12.78z" fill="#2029d0" stroke="#2029d0" class="B"/><path fill="#b94a60" stroke="#b94a60" d="M543.62 331.87c8.96.3 17.97-.72 26.88.3-9.26 1.2-18.68.25-27.9 1.77 1.8 8.4-1.8 16.65-1.38 25.07.23 6.03-1.4 11.95-1.1 18 .2 6.33.1 12.7-.98 18.96-.87 4.4-.2 9.24-2.66 13.2l6.58 2.28c-1.56.52-3.08 1.15-4.6 1.76l1 2.34-3.17 1.6c-.2 2.62-.55 5.25-1.43 7.74l1.17 1.35-2.78 1.13c2.42.67 4.8 1.48 7.17 2.36l-7.6-.35c-2.86-.74-5.7-1.52-8.6-2.06 2.24-2.06 5.57-.8 8-2.58-1.37-.44-2.75-.83-4.12-1.2-.6-5.5 1.88-12.05-2.05-16.74.1-5.63-1.26-11.7 1.76-16.8.33-12.3.06-24.64.2-36.96l1.9-2.12c.42-5.06-.7-10.3.68-15.25 2.14-5.08 8.67-3.4 13.03-3.8z" class="B"/><path fill="#a6466d" stroke="#a6466d" d="M570.5 332.18l2.22-.08.13 1.07-2.02.68c-1 3.4-2.02 6.83-2.6 10.35-1.5 11.38-2.87 23.18.27 34.42 1.73 5.67.7 11.6.2 17.38-.55 5.64-.36 11.35.76 16.92-8.73-1.23-17.62-.5-26.4-1.47-2.22-.7-4.4-1.5-6.58-2.28 2.45-3.96 1.8-8.8 2.66-13.2 1.08-6.27 1.2-12.63.98-18.96-.32-6.04 1.32-11.96 1.1-18-.4-8.42 3.17-16.66 1.38-25.07 9.22-1.52 18.64-.56 27.9-1.77z" class="B"/><path fill="#1f26a2" stroke="#1f26a2" d="M600.2 350.58c7.64-3.23 14.45-8.23 19.9-14.5l.8.8c1.55 1.54 3.07 3.13 4.48 4.82.9 1 1.92 2.42.92 3.73-4.2 7.35-10.3 13.84-17.87 17.73-2.48-4.37-5.3-8.52-8.23-12.6z" class="B"/><path fill="#b18c67" stroke="#b18c67" d="M458.52 351.58c.66.95 1.2 2.15 2.4 2.52 4.38 1.88 9.36 2.7 13.1 5.82l-.96 1.28c-2.94.27-5.9.12-8.83.14.32 1.75.73 3.6.1 5.33-3.83-2.68-6.3-6.84-10.26-9.36 1.6-1.82 3.1-3.7 4.44-5.73z" class="B"/><path fill="#545454" stroke="#545454" d="M257.83 369.76c4.82-2.55 9.7-5.17 14.94-6.77l-.1 6.8c-4.95.02-9.9.23-14.84-.04z" class="B"/><path fill="#c7f465" stroke="#c7f465" d="M408.97 378.95c3.36-3.08 4.38-7.7 5.4-11.96l1.47-.07c-3.52 16.67-7.23 33.33-12.14 49.66-2.88 9-5.67 18.23-10.9 26.2-3.95 5.87-11.35 7.6-17.87 8.8-14.62 2-29.47 1.1-44.13.03-.88-3.04-1.85-6.04-2.77-9.05.4-.98.9-1.98 2.05-2.18 10.72-3.88 21.47-7.73 31.98-12.17 2-.95 4.22-1.7 5.8-3.3 1.5-4.1 1.77-8.5 2.7-12.73l5.24-30.4c7.72.17 15.45.03 23.18.12 3.5.07 7.37-.36 10-2.93z" class="B"/><path fill="#a6cf4d" stroke="#a6cf4d" d="M415.84 366.92l3.23-.04c8.26 16.82 16.04 33.87 23.44 51.1 8.55 20.3 16.38 40.9 23.8 61.65 1.38 3.85 3 7.66 3.56 11.74l-2.27.72-8.2 2.36-3.36.93c-19.46-24.84-37.6-50.84-52.34-78.8 4.9-16.33 8.62-33 12.14-49.66z" class="B"/><path fill="#c9caca" stroke="#c9caca" d="M321.4 378.46l5.54-6.6c2.75 3.07 5.53 6.4 9.52 7.86 3.76 2.07 8.48 3.68 10.4 7.83-3.7-.25-7.36-1.24-11.1-.95.22 1.85.35 3.73.26 5.62-3.34-2.12-5.22-5.7-7.46-8.8-1.6-2.57-4.65-3.54-7.17-4.95z" class="B"/><path fill="#2e2e2e" stroke="#2e2e2e" d="M210.58 372.52l2.87 2.94c-.18 1.53-.56 3.28.5 4.6 1.07 1.9 3.47.88 5.16.8 2.45 2.1 5.65 2.6 8.78 2.57-.46 5.64-3.17 11.75-.67 17.18-1.55 7.05-9.3 9.84-13.97 14.54-.38 1.45.08 3.12 1.78 3.28 4.97 1.92 9.2-1.87 13.46-3.75 1.2-.75 2.58-.37 3.76.2l-1.2 3.9c-6.14 20.22-12.28 40.5-20.35 60.04-.32-2.25-.57-4.52-.6-6.8-.15-18.84-.8-37.7-2.63-56.44-.62-6.92-2-13.77-2.17-20.73.33-3.34.4-6.7.42-10.04 3.4-3.15 4.6-7.8 4.85-12.3z" class="B"/><path fill="#212121" stroke="#212121" d="M297.48 375.86l1.86 3.33-4 .34 4.03 30.6 11.46 90.8c-4.35-.18-8.7.04-13.05-.03-.26-3.6-1.5-7-2.43-10.44l-19.63-69.42c1.5-6.6 3.92-12.9 5.88-19.37 2.3-7.22 4.2-14.56 6.75-21.7l.9-3.66c2.74-.03 5.53.23 8.23-.43z" class="B"/><path fill="#111" stroke="#111" d="M213.96 380.07c-1.07-1.33-.7-3.08-.5-4.6l5.67 5.4c-1.7.08-4.1 1.1-5.16-.8z" class="B"/><path fill="#383838" stroke="#383838" d="M280.43 378.08c2.6.27 6.98-1.65 7.9 1.87-2.55 7.14-4.46 14.48-6.75 21.7-1.96 6.46-4.4 12.78-5.88 19.37-3.53 9.14-7.66 18-12 26.78L246 483.87c-2.43 5.48-5.26 10.78-7.82 16.2l.36 1.8c-4.4-1.6-9.2-1.12-13.8-1.05l.2-.4 15.25-41.46c2.96-9.43 6.9-18.58 9.33-28.15 1.47-13.65 1.92-27.4 2.53-41.1l29.8-.05c-.36-3.88-.85-7.74-1.42-11.6z" class="B"/><path fill="#5b5b5b" stroke="#5b5b5b" d="M152.8 385.37c3.3 4.4 3.18 11.8 9.1 13.8 7.57 2.65 15.66.26 23.05-1.87l.02 2.7c-2.62 8.6-4.77 17.32-7.67 25.83-6.33 22.95-14.04 45.55-23.02 67.6l-2.42.24c-4.6.24-9.2-.14-13.78.5-.48-1.2-.87-2.46-.43-3.72 4.45-18.3 8.44-36.78 10.8-55.5 2.54-16.43 3.33-33.04 4.35-49.6z" class="B"/><path fill="#494949" stroke="#494949" d="M188.7 395.74c5.23-2.4 10.18-5.36 14.7-8.93.62 3 1.02 6.06 1.4 9.1.13-.26.37-.8.5-1.07.16 6.96 1.55 13.8 2.17 20.73 1.84 18.75 2.48 37.6 2.63 56.44.04 2.27.3 4.54.6 6.8-.9 4.58-.37 9.27-.9 13.88l-1.83.6c-4.03 0-8.1-.46-12.1.2l-.55.1-3.18-4.85c-2-3.6-1.1-7.9-2.26-11.73l-12.6-51.17c2.9-8.5 5.05-17.24 7.67-25.83.92-1.66 1.85-3.52 3.74-4.26z" class="B"/><path fill="#cacaca" stroke="#cacaca" d="M227.77 397.47l9.5-.17c-1.1 3.2-2.66 6.3-3 9.72-.13 3.86 2.03 7.26 3.43 10.73-2.3.2-3.87-1.48-5.44-2.87-1.18-.56-2.56-.94-3.76-.2-4.25 1.88-8.5 5.67-13.46 3.75-1.7-.16-2.16-1.83-1.78-3.28 4.68-4.7 12.42-7.5 13.97-14.54l.54-3.15z" class="B"/><path fill="#c9c9ca" stroke="#c9c9ca" d="M131.52 400.17l8.07 1.7c-2.65 5.32-.36 10.92 2.06 15.8-3.38.67-4.52-3.87-7.7-3.44-3.94.78-6.86 4.3-10.96 4.58-2.02.23-3.95-.47-5.84-1.08.23-1.2-.16-2.77 1.08-3.5 4.8-4.2 11.73-7.32 13.3-14.07z" class="B"/><path fill="#3a41f1" stroke="#3a41f1" d="M641.9 400.53c9.7.1 19.36-1.47 29.06-1.05 4.16.25 6.58 4.22 7.62 7.83 1.96 7.07 1.64 14.48 2.44 21.7.96 13.44.17 26.94 1.34 40.36l-2.3.63-.68.2c-3.9.6-7.8.96-11.7 1.53-1.3-3.7-2.83-7.32-3.85-11.1-1.73-8.14-1.6-16.52-2.8-24.73-.44-5.23-1.05-10.44-1.58-15.65-3.2.42-6.3 1.28-9.34 2.3-2.5-7.42-5-14.86-8.2-22z" class="B"/><path fill="#303575" stroke="#303575" d="M635.1 401.22c2.2-.6 4.5-.87 6.8-.7 3.2 7.14 5.7 14.58 8.2 22 2.77 7.27 4.83 14.83 8.27 21.82 1.07 5.4 3.76 10.34 4.54 15.8l.9.47c1.02 3.8 2.55 7.4 3.85 11.1.48 1.46.92 2.93 1.36 4.4-2.06.9-4.12 1.8-6.1 2.88-2.5-7.9-5.36-15.67-8.1-23.48-2.4-6.2-4.43-12.5-6.82-18.7-3.07.52-6.1 1.13-9.13 1.8-5.67 1.25-11.46 1.83-17.13 3.08-7.14-12.7-20.23-21.9-34.65-24.1-8.26-1.04-16.8-.47-24.6 2.55.58-1.85.5-4.27 2.3-5.45 1.4-.95 3.07-1.37 4.68-1.83l65.64-11.7z" class="B"/><path d="M299.36 410.12c7.84 1.15 15.76.63 23.65.7 15.86-.1 31.73.04 47.54 1.32-.92 4.23-1.2 8.64-2.7 12.73-1.6 1.6-3.8 2.36-5.8 3.3-10.5 4.44-21.26 8.3-31.98 12.17-1.16.2-1.65 1.2-2.05 2.18-3.23 1.1-6.6 2.8-10.1 1.97-3.27-1.22-6.67-.63-9.9.42l6.08 34.2c1.65-.47 4.54-.52 4.12-3.04-.13-7.36 2.5-14.32 4.28-21.36l-3.5-1.68c3.84-1.02 7.8-1.63 11.8-1.46 14.66 1.07 29.5 1.97 44.13-.03 6.52-1.2 13.92-2.92 17.87-8.8 5.24-7.96 8.03-17.2 10.9-26.2 14.73 27.95 32.88 53.95 52.34 78.8l3.36-.93c1.65 2.13 2.78 4.6 3.5 7.18-3.72 1.76-2.23 6.6-2.38 9.88 11.75-.02 23.52.36 35.27-.18-.23-1.37-.62-2.67-1.17-3.92-2.5-1.1-5.33-1.02-7.83-2.07-4.94-1.95-9.58-4.6-14.62-6.28l-.73 1.56c-1.46-2.76-2.8-5.58-3.83-8.53l2.27-.72c-.55-4.08-2.18-7.9-3.56-11.74-7.43-20.74-15.26-41.34-23.8-61.65 1.66-.43 3.38-.72 5.1-.47 7.48.84 14.94 1.93 22.45 2.52 11.37 1.15 22.65 3.12 34.03 4.2 6.77.68 13.38 2.42 20.15 3.1 2.9.54 5.75 1.32 8.6 2.06-1.37.63-2.7 1.3-4.05 1.98 1.1 4.33 2.73 8.78 1.92 13.3-.55 2.3 1.5 3.96 2.55 5.75-3.9 12.2-3.06 25.97 3.03 37.3 5.8 11.53 16.47 20.4 28.77 24.22 8.78 2.8 18.32 2.6 27.22.47 11.77-3.23 22.3-11.04 28.6-21.53 7.78-12.28 9.37-28.16 4.3-41.75 3.7.5 7.3 1.6 10.98 2.3-1.34 6.56-3.25 13-4.2 19.64l2 .4-.3 5.28c-2.04-.5-2.2 1.77-2.62 3.18-.6 2.22-.2 4.52.01 6.77 9.04.52 18.06 1.38 27.1 1.6.78 4.37 2.98 8.78 7.34 10.5 5.4 2.58 11.8-.3 14.7-5.25a58.64 58.64 0 0 0 .7 1.37c-2.74 7.5-7.95 14.05-14.5 18.6-7.46 6.05-15.38 11.7-24.13 15.72-23.1 12.62-48.18 20.96-73.18 28.88-32.9 9.1-66.3 16.56-100.05 21.68-11.38 1.05-22.63 3.33-34.04 4.14-13.35.83-26.6 2.92-39.97 3.22-7.96 1.2-16.02.67-24.02 1.08-9.63 1.15-19.33.5-29 .7-14.35.2-28.7-.52-42.95-1.9-11.46-.14-22.74-2.44-34.06-3.95-15.7-2.84-31.5-5.44-46.64-10.63-9.22-2.86-18.38-5.96-27.35-9.52-15.84-7.55-31.88-15.22-45.4-26.6-5.8-5.85-12.03-11.32-16.88-18.03-6.1-8.67-10.48-18.76-11.4-29.4-1.06-7 1.26-13.85 3.15-20.5 5.76-13.63 16.05-24.85 27.97-33.42-2.37 18.72-6.36 37.2-10.8 55.5-.44 1.26-.05 2.52.43 3.72.6 2.4-.6 4.7-1.44 6.9l-1.2.4c-.27 3.17-.8 6.34-.56 9.53.48 2.33 3.34 1.92 5.12 2 10.82-.47 21.65.18 32.46-.4l.45-4.25c-8.35-1.6-16.57-4.32-23.85-8.77l2.8-5.92 2.42-.24c8.98-22.06 16.7-44.66 23.02-67.6L189.9 477c1.17 3.84.26 8.12 2.26 11.73l-2.17 4.5c-1.83 3.26-1.8 7.18-1.2 10.77 1.08 2.35 3.96 1.23 6 1.5-.08 2.14-.13 4.32.2 6.46 3 1.85 6.7.75 10.02.9 6 .1 12.07-.67 17.98.67 3.14.84 6.3-.27 9.48-.14 9.93 1.07 19.94.48 29.9.45-.24-2.8-3.28-2.97-5.32-3.8-6.47-2.02-12.65-4.82-18.53-8.18l-.36-1.8c2.56-5.43 5.4-10.73 7.82-16.2l3.27 2.73c.45 2.14.82 4.32.98 6.52-2.46 3.3-1.6 7.6-2 11.42 1.8.82 3.72 1.34 5.7 1.23l31.9-.08.93-4.3c-5.45-1.22-10.87-2.65-16-4.9-3.1-1.22-5.9-3.2-9.2-3.8l-.35-6.26 2.4-.82.06-37.8c4.33-8.78 8.46-17.64 12-26.78l19.63 69.42c.92 3.44 2.17 6.85 2.43 10.44-.3 4.4-.54 8.82-.6 13.25 4.28-.2 8.56-1.2 12.84-.38 8.84.5 17.74.32 26.6.12-.63-3-3.97-3.13-6.3-4.08-6.86-2.1-13.27-5.34-19.47-8.88l-11.46-90.8zm-68.3 8.65l7.85 32.13c.7 2.64 1.18 5.34 1.27 8.08l-15.25 41.46c-6.08-.13-11.52-3.1-17.2-4.88l.24-2.28 1.83-.6c.54-4.6.01-9.3.9-13.88 8.07-19.54 14.2-39.82 20.35-60.04zM596.9 446.1c5.05-1.08 10.2-1.7 15.27-2.66 2.9 3.72 4.6 8.23 5.63 12.8-10.92 1.54-21.68 3.96-32.58 5.63 4.1-5.1 6.86-11.35 11.68-15.77zm-13.3 25.52c9.07 6.02 17.8 12.56 26.96 18.47-5.33 6.7-12.92 12.2-21.43 13.68-1-2.47-.83-5.26-1.4-7.84-1.24-8.13-3.73-16.06-4.13-24.3zm-24.42 27.66l18.9-26.9c1.24 4.12 1.6 8.42 2.28 12.65.85 6.66 2.94 13.1 3.56 19.8-8.5.97-17.64-.63-24.75-5.56z" fill="#c85d67" stroke="#c85d67" class="B"/><path fill="#ac4756" stroke="#ac4756" d="M543.07 411.45c8.77.96 17.66.24 26.4 1.47-1.6.46-3.28.88-4.68 1.83-1.8 1.18-1.72 3.6-2.3 5.45-6.32 2.28-11.96 6.1-16.9 10.6l-5.16-1.07c-2.37-.88-4.75-1.7-7.17-2.36l2.78-1.13-1.17-1.35c.88-2.5 1.24-5.12 1.43-7.74l3.17-1.6-1-2.34c1.52-.6 3.04-1.24 4.6-1.76z" class="B"/><path fill="#1f28cf" stroke="#1f28cf" d="M650.1 422.53c3.04-1 6.15-1.87 9.34-2.3L661 435.9c-.74 2.86-1.76 5.64-2.65 8.46-3.44-7-5.5-14.55-8.27-21.82z" class="B"/><path fill="#2f3675" stroke="#2f3675" d="M575.32 426.38c8.5-1.32 17.05 1.1 24.55 5.02-3.38 5.82-7.57 11.13-11.42 16.64-3.04.28-6.06.64-9.06 1.15-1.6-7.55-3.5-15.1-4.07-22.8z" class="B"/><path fill="#2e3677" stroke="#2e3677" d="M564.36 429.08l5.47-2.06c2.04 7.78 2.42 15.88 4.38 23.68-2.16-.18-4.94.77-6.3-1.47-.54-6.83-2.7-13.38-3.56-20.15z" class="B"/><path fill="#bb5764" stroke="#bb5764" d="M532.84 429.38l7.6.35 5.16 1.07c-5.45 5.58-9.72 12.26-12.33 19.62-1.05-1.8-3.1-3.46-2.55-5.75.8-4.53-.83-8.98-1.92-13.3l4.05-1.98z" class="B"/><path fill="#ab5160" stroke="#ab5160" d="M548.38 440.9c4.28-5.15 9.78-9.27 15.98-11.83.87 6.77 3.02 13.32 3.56 20.15-2.2.12-4.37.3-6.54.5l-.33.03-12.67-8.85z" class="B"/><path fill="#2e3678" stroke="#2e3678" d="M603.53 435.1c3.97 1.34 6.26 5.14 8.63 8.34-5.08.97-10.22 1.58-15.27 2.66 1.57-4.02 4.54-7.26 6.64-11z" class="B"/><path fill="#c64f52" stroke="#c64f52" d="M658.36 444.35l2.65-8.46c1.2 8.2 1.07 16.6 2.8 24.73l-.9-.47c-.78-5.46-3.47-10.4-4.54-15.8z" class="B"/><path fill="#c64d57" stroke="#c64d57" d="M621.73 441.74c5.67-1.25 11.46-1.83 17.13-3.08-.78 4.3-1.78 8.53-2.7 12.78-3.67-.7-7.27-1.8-10.98-2.3-1-2.54-2.1-5.03-3.44-7.4z" class="B"/><path fill="#b18b67" stroke="#b18b67" d="M317.92 444.5c3.5.83 6.87-.87 10.1-1.97l2.77 9.05c-3.98-.17-7.95.44-11.8 1.46-1.88-2.5-1.85-5.63-1.08-8.54z" class="B"/><path fill="#e4e5e5" stroke="#e4e5e5" d="M308.03 444.93c3.22-1.05 6.62-1.64 9.9-.42-.77 2.9-.8 6.03 1.08 8.54l3.5 1.68c-1.8 7.04-4.4 14-4.28 21.36.42 2.52-2.47 2.57-4.12 3.04l-6.08-34.2z" class="B"/><path fill="#c75c65" stroke="#c75c65" d="M540.75 457c1.04-4.17 2.8-8.13 4.85-11.9 5.94 4.66 12.6 8.33 18.37 13.2-7.34-.65-14.65.55-21.98.78.17 1.68-.2 3.55.66 5.1 3.07 1.64 6.44 2.63 9.76 3.64-4.2.76-8.42 1.76-12.72 1.8.52-4.2.43-8.46 1.06-12.64z" class="B"/><path fill="#4f4f50" stroke="#4f4f50" d="M246 483.87c6.22-11.87 11.66-24.12 17.72-36.07l-.06 37.8-2.4.82c-3.97-.8-8.06-.88-11.98.18l-3.27-2.73z" class="B"/><path fill="#cd5c67" stroke="#cd5c67" d="M579.4 449.2l9.06-1.15c-2.43 3.63-4.63 7.45-7.6 10.67-.63-3.15-1.12-6.33-1.45-9.52z" class="B"/><path fill="#ce5c66" stroke="#ce5c66" d="M561.38 449.73l6.54-.5c1.35 2.24 4.13 1.3 6.3 1.47.78 3 1.33 6.06 1.5 9.17-4.73-3.45-9.7-6.54-14.32-10.14z" class="B"/><path fill="#ca5c65" stroke="#ca5c65" d="M648.94 473.93c1.53-6.25 3.7-12.33 5.87-18.4l8.1 23.48c-1.12 1.07-2.16 2.23-3.13 3.44l-15.68-8.16.1-1.08 4.75.7z" class="B"/><path fill="#b95664" stroke="#b95664" d="M542 459.1c7.33-.23 14.64-1.43 21.98-.78 3.2 1.4 5.9 3.73 8.65 5.84-6.78 1-13.43 2.8-20.2 3.68-3.32-1-6.7-2-9.76-3.64-.85-1.55-.5-3.42-.66-5.1z" class="B"/><path fill="#c95c67" stroke="#c95c67" d="M587.27 466.78l31.5-5.57c.77 8.44-.65 17.18-5.1 24.48-1.12.02-1.92-.92-2.82-1.43l-21.93-15.18c-.63-.7-2.24-1.1-1.65-2.3z" class="B"/><path fill="#c85c67" stroke="#c85c67" d="M561.04 471.73c4.24-.62 8.32-2.2 12.64-2.23l-16.36 23.77c-.77 1.23-1.83 2.23-2.98 3.1A43.85 43.85 0 0 1 541 475.5c6.5-2.1 13.36-2.52 20.04-3.77z" class="B"/><path fill="#b68c61" stroke="#b68c61" d="M667.66 471.73l11.7-1.53c-.77 1.83-1.02 4.16-2.9 5.27-1.94 1.46-4.5.97-6.7.8l-.74-.13-1.36-4.4z" class="B"/><path fill="#3d4a73" stroke="#3d4a73" d="M679.36 470.2l.68-.2.3 1.15c7.92 1.92 15.76 4.95 24.05 4.33l.46 4.43c-8.12 1.05-16.03 3.36-24.2 4.16-1.7-4.62-6.26-7.14-10.9-7.8 2.22.17 4.77.66 6.7-.8 1.87-1.1 2.12-3.44 2.9-5.27z" class="B"/><path fill="#b18d65" stroke="#b18d65" d="M633.97 471.48c3.4.67 6.8 1.18 10.22 1.74l-.1 1.08c-1.65 4.38-6.9 4.45-10.44 2.46l.3-5.28z" class="B"/><path fill="#3e4a73" stroke="#3e4a73" d="M633.66 476.76c3.53 2 8.8 1.92 10.44-2.46 5.16 2.83 10.46 5.42 15.68 8.16-.68 1.9-1.2 3.86-1.62 5.84-9.05-.2-18.07-1.07-27.1-1.6-.22-2.25-.6-4.55-.01-6.77.4-1.4.58-3.67 2.62-3.18z" class="B"/><path fill="#2c3678" stroke="#2c3678" d="M681.26 486.58c7.52-.75 15-3.64 22.6-2.62l-.24 2.8c-7.18 2.32-14.8 3.12-22.24 4.16.05-1.46.03-2.9-.1-4.35z" class="B"/><path fill="#383938" stroke="#383938" d="M249.27 486.6c3.92-1.06 8-.98 11.98-.18l.35 6.26c-3.7.82-7.72 2.27-11.35.44-.16-2.2-.53-4.38-.98-6.52z" class="B"/><path fill="#403737" stroke="#403737" d="M192.16 488.73l3.18 4.85c-1.8.57-3.6.28-5.35-.34l2.17-4.5z" class="B"/><path fill="#98785a" stroke="#98785a" d="M459.4 494.44l8.2-2.36c1.03 2.95 2.37 5.77 3.83 8.53l-.64 1.47c-2.6 1.06-5.64 1.62-7.9-.46-.72-2.6-1.85-5.05-3.5-7.18z" class="B"/><path fill="#6a6a69" stroke="#6a6a69" d="M188.8 504c-.62-3.6-.64-7.5 1.2-10.77 1.74.62 3.56.9 5.35.34l.55-.1.94 7.36c-2.16.4-1.52 3.13-2.04 4.68-2.03-.28-4.9.84-6-1.5z" class="B"/><path fill="#6a6a6a" stroke="#6a6a6a" d="M250.25 493.12c3.63 1.83 7.65.38 11.35-.44 3.3.62 6.12 2.6 9.2 3.8 5.13 2.26 10.55 3.7 16 4.9l-.93 4.3c-10.64-.01-21.28-.05-31.9.08-2 .1-3.92-.4-5.7-1.23.38-3.83-.47-8.13 2-11.42z" class="B"/><path fill="#cac9cb" stroke="#cac9cb" d="M138.07 494.18c4.57-.64 9.18-.26 13.78-.5l-2.8 5.92c-4 1.34-8.22 1.82-12.42 1.48.83-2.2 2.03-4.5 1.44-6.9z" class="B"/><path fill="#676a6a" stroke="#676a6a" d="M207.74 495.56c5.68 1.8 11.12 4.75 17.2 4.88l-.2.4-1.1.7-.15 4.7c-5.47-1.4-10.03-5-15.47-6.36-.12-1.44-.2-2.87-.27-4.3z" class="B"/><path fill="#e4e4e5" stroke="#e4e4e5" d="M472.17 499.05c5.04 1.67 9.68 4.33 14.62 6.28 2.5 1.05 5.34.98 7.83 2.07.55 1.25.94 2.55 1.17 3.92-11.75.54-23.52.16-35.27.18.15-3.27-1.34-8.12 2.38-9.88 2.26 2.08 5.3 1.52 7.9.46l.64-1.47c.2-.4.55-1.17.73-1.56z" class="B"/><path d="M136.63 501.08c4.2.34 8.42-.14 12.42-1.48 7.28 4.45 15.5 7.18 23.85 8.77l-.45 4.25c-10.8.58-21.64-.07-32.46.4-1.78-.08-4.64.33-5.12-2-.25-3.2.3-6.36.56-9.53l1.2-.4zm60.2-.24c3.76.72 7.54.06 11.18-.98 5.44 1.35 10 4.97 15.47 6.36-.1 2.45-.3 4.9-.48 7.34-5.9-1.34-12-.57-17.98-.67-3.3-.16-7.03.94-10.02-.9-.34-2.14-.3-4.32-.2-6.46.52-1.55-.12-4.27 2.04-4.68z" fill="#464646" stroke="#464646" class="B"/></svg>