<svg xmlns="http://www.w3.org/2000/svg" width="1333.333" height="1333.333" viewBox="0 0 1000 1000" xmlns:v="https://vecta.io/nano"><style><![CDATA[.B{stroke-width:.094}]]></style><path d="M0 0h1000v1000H0V0m652.88 204.94c-1.82.15-3.3-1.16-4.82-1.92-.12 1.78 1.22 4.3-.36 5.66-2.46.45-4.96.4-7.44.53l-.5 6.6c-5.27.07-10.43 1.56-15.7 1.22-2.6-.1-5.2-.04-7.8.15l-.45 6.58c-5.2.25-10.34 1.3-15.56 1.47l-.4 6.62-7.4.35-.88 3.6-7.2.44-.75 3.32-3.07.97c-2 2.18-4.64 4.1-5.04 7.27-2.46.22-4.9.35-7.36.43l-.3 8.57-7.7.4c-.38 4.84.14 9.7-.35 14.54l-6.63.54-.32 7.56-8.7.28c-.72 4.02.6 7.93.86 11.9-.4 3.92-1.2 7.8-1.27 11.75l-6.6.43c-.7 7.94.68 16.02-.74 23.87-1.9-1.78-5.62-3.47-7.57-1.04a59.63 59.63 0 0 0 2.96 1.58c.54 6.32-.22 12.67.42 19l3.4.77c1.78 5.34 1.53 11.06 1.3 16.6-.5 3.58-1.3 7.18-.73 10.82l8.7.27c.4 5.25-.15 10.5.27 15.75l6.72.32c.25 5.2-.01 10.42.25 15.63l8.67.42a213.55 213.55 0 0 1 .37 7.6l6.63.43.42 7.6 7.65.3.3 7.7 7.56.38.5 6.58c2.45.17 5.04-.22 7.4.6.6 2.77.4 5.62.5 8.43 5.23.4 10.48-.02 15.72.28l.4 6.66c5.22.22 10.37 1.25 15.6 1.5l.37 7.6c5 .68 9.85-1.26 14.86-.9 6.03.3 12.14-.62 18.1.72 3.14.7 6.37.32 9.52-.14l.53 3.6c.2 8.32.62 16.76 2.87 24.83 2.08 6.82 4.4 13.9 9.5 19.14-2.64 2.32-6.23 2.54-9.5 3.2-10.2 1.84-20.47 4.84-30.94 3.53-3-.45-5.04-2.9-7.25-4.75-6.15-5.14-13.74-9.12-21.9-9.26-4.9-.85-9.34-3.3-14.04-4.83-8.07-4.26-16.84-6.9-25.12-10.66-14.77-4.97-29.45-10.43-44.72-13.68-8.1-2.43-16.62-2.84-24.95-4.1-8-1.23-16.1-.2-24.12-.66-1.77-1.52-2.73-3.82-4.68-5.14-3.8-2.63-7.9-4.8-11.68-7.46-1.05-.87-2.63-1.68-2.48-3.27-.14-7.66 0-15.33.04-22.98.04-1.55-.24-3.1-.98-4.45.1-3.35.54-6.8-.48-10.06 1.12-8.1.32-16.34.62-24.5-.03-3.16.08-7.64-3.5-8.97-4.2-.85-2.87-6.92-6.94-7.92-6.33-.56-12.7-.1-19.06-.3-2.5.14-5.56-.45-7.37 1.7-2.56 2.83-1.72 7-1.88 10.5.38 9.82-.34 19.7.58 29.48-1.54 9.2.4 18.74-.65 28.05-.5 2.5-2.36 4.4-3.9 6.32-1.7 2.13-3.33 4.34-5.43 6.12-.47-13 .35-26.03.01-39.03l-.6-3.36c.08-1.36.03-2.73-.01-4.08l-6.22-1.07c-.14-4.03-.01-8.06.05-12.08-2.6-.14-5.32-.56-7.86.24-2.24.78-3.16 3.2-3.36 5.4-.55 5.74.3 11.5-.22 17.26-2.63 2.62-8.8-.12-9.2 4.66l.1 33.07c-.08 3.1 1.22 6.5-.57 9.34l-7.67 13.34c-1.9 3.4-5.8 5.53-9.68 5.34-15.93-.07-31.88.23-47.8-.23.05-4.05.34-8.42-1.84-12.02-4.7-7.2-8.3-15.08-12.87-22.38-1.7-3.2-4.12-6.02-5.3-9.44-.44-8.66.26-17.37-.25-26.02-1.13-4.22-3.5-8-4.82-12.17-.3-9.2.7-18.42-.2-27.58-2.57-.03-5.17-.24-7.72.16-1.64.8-.8 2.83-.86 4.26-1.3 6.72-.3 13.6-.58 20.4-.14 8.96.8 17.97-.01 26.9-2.22 3.9-4.58 7.8-7.55 11.2-1.07-10.48.9-21.12-.7-31.52.5-12.5.12-25.07.53-37.6.12-2.43-.08-4.85-.5-7.23-4.05-3.13-9.84-4.06-12.6-8.7-2.7-3.62-4.56-7.94-7.82-11.1-3.1-1.03-6.56-.66-9.78-.4-5.07 2.6-8.13 7.9-13 10.8-3 .43-6.06.35-9.06.78-.01 4.53-.62 9.04-.62 13.58-.87 3.67-.75 7.47-.95 11.22l-1.6 28.66c-2.53 3.45-.4 8.14-1.5 12.07-2.47 2.55-7.32 2.62-8.27 6.55-2.67 9.24-5 18.64-8.64 27.55-4.7.7-10.75-1.54-14.04 2.95-3.97 4.3-9 7.85-11.8 13.07 10.2-3.17 20.9-1.74 31.25-.17 3.85.82 8-.37 11.62 1.55 5.1-.5 10.1.7 14.96 2.13 12.94 2.08 26.05 3.2 39 5.07 2.42 1.67 5.32 1.82 8.16 1.7l2.25 1.87 6.97.18-.6.58.08 2.77c-1.7.46-3.47.9-4.7 2.25 2.97.26 5.96.37 8.95.5.15 2.46.17 4.93.02 7.4l-3.68.7-.37 7.43-6.8.6 6.98 2.08c-4.22 1.26-8.63 1.43-13 1.67l-32.92 4.1c-5.34.83-10.8.64-16.07 1.94-5.7.75-11.38 1.84-17.13 1.77l-1.47 2.76-7.57.64 4 1.2c.72 5.08-1.5 10-.72 15.08l3.72.8c.02 2.28.83 4.84-.53 6.9-1.77 2.42-1.4 5.5-1.52 8.33l-4.9 1c2.94.67 5.96.4 8.9-.14.1 2.35.24 4.7.44 7.07l3.74.98c-4.27.95-8.6 1.7-13 1.4-5.04-.32-9.94 1.27-14.97 1.1-4.3-.37-7.74 3.02-12.02 2.9-2.87-.01-6.05.7-7.76 3.2-.88 7.48-1.86 14.98-1.1 22.52l3.7.76c.6 3.9-.6 7.72-.94 11.58-.37 2.94 2.55 5.08 2.06 8.1-.4 2.24.66 3.87 2.8 4.62.52 6.4.06 12.82.25 19.23-.12 2.35.5 5.14-1.4 6.96l-1.17-2.9c-2.57 2.02-.26 4.76 2.05 5.72l-1.16 3.33c.7-.5 1.4-.96 2.1-1.43.92.93 1.86 1.87 3.2 2.2 1.13 3.27 1.9 6.7 1.85 10.18-2.1-3.26-4.16-6.6-6.75-9.5l-1.16.01c2.9 2.5 4.2 6.38 4.82 10.04-2.14-2.23-4-4.75-6.47-6.63l4.9 11.56c-3.33 1.6-7.2 1.92-10.1 4.4a109.37 109.37 0 0 0-2.83 6.22c2.74 2.17 5.33 5.56 9.17 5.3 4.95-.13 10.44 1.02 14.56-2.47 1.7 2.45 3.2 5.1 5.33 7.24 1.7.8 3.63.9 5.47 1.1l-.1 2.92c-2.25 5.15-3.56 10.65-5.54 15.9 6.1 4.2 12.85 7.4 19.04 11.48 1.34.57 2.7 1.28 4.2 1.2l25.8-.02-.03-.56 2.63-.95-.17 1.8c-6.47 2.22-13.44.2-20.12 1.14a64.48 64.48 0 0 0 .01 7.74c6.54.4 13.1-.26 19.64.23l.4 7.45 3.62.77a160.63 160.63 0 0 0 .44 7.24l3.42.83.77 3.33c2.16.17 4.35.5 6.5.16.94-.88 1.5-2.07 2.25-3.1 2.78 3.37 7.18 6.15 7.2 11 5.07.6 10.17-.1 15.24.37l.86 3.5 3.38.74c.07 2.4-.04 4.84.4 7.23 1.1.45 2.26.53 3.5.24l.58-3.75c5-.2 10-.3 15 .1 1.02 4 5.47 2.5 8.5 2.93l.35 9.67c4-.04 7.9.84 11.86 1.18 5.65.12 11.3-.13 16.95-.02 1.88-.1 3.32 1.3 5.04 1.85 1.9.3 3.86.3 5.8.4l.4 7.46c4.64.15 9.2 1.27 13.85 1.35l36.97-.01c4.27-.1 8.43-1.7 12.74-.92.1 2.16.1 4.35.62 6.48 2.4.86 5.1.3 7.62.4l111.04.02 48.72-.26.54-6.63c4.93-.57 9.74 1.03 14.66.9l36.1-.01c4.27-.2 8.44-1.34 12.74-1.22l.4-7.58c3.42.08 6.75-.57 9.8-2.1 7.45-.6 15 .6 22.4-.7 2.48-.38 5-.52 7.5-.6l.24-9.63a207.08 207.08 0 0 0 7.43-.46l.92-2.53c5.02-.3 10.05-.33 15.08-.02l.75 3.7 3.5-.07.3-7.44 3.44-.8.83-3.34c5.08-.48 10.17.03 15.25-.36-.23-4.96 4.57-7.56 7.18-11.15.73 1.02 1.2 2.3 2.25 3.1 2.16.43 4.38.14 6.57.06l.68-3.58 3.48-.7.4-7.23 3.57-.72.45-7.46c3.28-.1 6.6-.35 9.72-1.55-1.84-1.06-3.7-2.05-5.57-3 .4-.47.82-.93 1.25-1.38-2.37-.3-4.67-.92-6.78-2.02-4.27 2.87-9.87 3.76-14.63 1.58l19.9-4.48-.32 1.44c6.9 3.48 13.53 7.47 20.53 10.75 1.86 1 3.98.34 5.94.06 7.63-.04 15.26-.38 22.86-1.06l19.33-7.32c-.86-4.48-2.07-8.88-2.78-13.37 4.84 3.34 10.8 1.44 16.25 2.2 7.22 1.05 12.62-4.84 18.86-7.38-.16-4.3-.58-8.57-1.12-12.82l-.5.2c-3.12-2.2-6.58-4-10.23-5.06-8.62-1.03-17.4-1.84-26-.06-2.75 1.03-4.78 3.28-7 5.1l-2.26 7.2c-5.16-3.8-11.85-2.34-17.78-3.3-6.53-1.1-12.8 1.9-19.3 1.52 1.94-4.1 3.4-8.42 4.92-12.7l3.87-2.42 1.12 1 1.6-1c-.83 2.75-2.8 5.32-2.05 8.33 2.18.13 4.35.62 6 2.15l1.95-1.63c3.43 1.12 7.02.6 10.4-.44-.4-2.77-.56-5.57-.3-8.36l3.63-.72.5-7.26 3.48-.8c.2-2.42.34-4.84.4-7.26l3.73-.66c.4-5.1-.12-10.2.2-15.3l3.67-.8a252.94 252.94 0 0 0 .4-7.3l3.6-.63c.63-7.7-.14-15.44.44-23.14 2.36-.44 3.06-2.4 2.8-4.58-.47-3 2.7-5.07 2-8.04-.6-4.22-1.17-8.45-1.24-12.72-10.25-.44-20.4-3.5-30.7-1.9-4.6.76-9.47 1.37-13.9-.46l2.72-2.62a195.16 195.16 0 0 0-5.54-1.7l1.73-1.57c.28-3.14-.12-6.3-2.12-8.8l7.9-.27c.05-1.92.32-3.87-.04-5.76-.6-1.23-2.17-1.52-3.28-2.07 4.1-.64 8.22-1 12.36-1.2.65-12.87.02-25.78.34-38.66 4.05-1.05 8.37-1.6 11.92-3.98 4.3-2.93 8.53-6.16 11.6-10.4 9.2-12.48 13.55-27.7 16.48-42.72.57-4 1.63-8.1.95-12.16-.68-3.56-5.04-5.66-8.3-4.17-2.73.72-3.9 3.7-4.16 6.24-1.84 14-5 28.2-12.3 40.47-2.74 4.77-6.7 8.83-11.53 11.5-1.56 1-3.45.72-5.18.74.9-18.78.1-37.6.5-56.4 5.37-1.13 10.42-3.74 14.12-7.84 6.4-7.2 9.24-16.98 9.57-26.46.1-5.2-6.84-7.93-10.5-4.5-2.87 3.15-1.96 7.78-3.18 11.58-1.6 5.26-4.16 11.3-9.93 13l.02-73.02c-.13-3.96.65-8.34-1.63-11.85-1.63-2.7-4.93-4.14-8.03-3.87-1.1-2.68-.9-5.57-.27-8.33l.93 3.9a83.04 83.04 0 0 0 5.69 0c.26-2.93-2.47-5-2.12-7.92-.05-3.65.1-7.3.1-10.94l2.2-2.46c-2.5-1.33-4.65.93-7 1.56-.53-5.3-.05-10.63-.43-15.93l-6.57-.4c-.05-4.97-1.48-9.82-1.28-14.8a95.42 95.42 0 0 0-.15-8.79l-6.58-.38c-.22-5.26-1.33-10.45-1.48-15.72l-7.57-.3c-.18-2.55-.3-5.1-.37-7.64l-6.64-.37c-.45-5.22-.04-10.45-.33-15.67-5.22-.33-10.46-.04-15.68-.25-.1-2.53-.04-5.08-.55-7.56-2.45-.5-4.97-.43-7.45-.53l-.38-7.7c-2.54-.07-5.07-.2-7.6-.34l-.35-6.6c-5.25-.01-10.37-1.32-15.6-1.44l-.46-6.6c-5.15-.42-10.3.1-15.46-.33l-.7-4.7a58.46 58.46 0 0 0-7.25 0l-.8 3.67c-2.4.01-5 .78-7.26-.17-.5-2.1-.5-4.28-.6-6.42-5.37-.13-10.8-.75-16.12.35-2.5.5-5.02.44-7.53.3-.74-1.87-.48-3.83.12-5.7l7.7-.34-.02-3.7-6.87-.2c-1.2 1.8-2.25 3.84-4.15 5zm7.52 96.5c7.4-.53 14.85 1.56 21.44 4.83 6.98 4.93 13.33 11.5 15.93 19.82 3.36 8.62 2.46 18.4-.86 26.9-4.86 10-13.8 18.47-24.96 20.7-16.8 4.82-36.03-5-42.62-21-4.9-11.22-3.83-25.1 3.32-35.12 6.14-9.3 16.68-15.23 27.75-16.1zm-69.6 307.63c1.86-2.3 3.86-5.26 7.22-5.03 2.8-.32 6.73 1.8 6.82 4.75-3.03 4.5-10.92 5.03-14.04.28zM442.1 632c2.9.45 5.66 1.55 8.25 2.94l-1.64 4.8c-3.6.17-7.22-.1-10.72-.97-.44-3.14 1.75-5.16 4.1-6.77z" fill="#fff" stroke="#fff" class="B"/><path fill="#fbfbfb" stroke="#fbfbfb" d="M652.88 204.94c1.9-1.17 2.95-3.2 4.15-5l6.87.2.02 3.7-7.7.34c-.6 1.87-.86 3.83-.12 5.7 2.5.15 5.04.2 7.53-.3 5.3-1.1 10.75-.48 16.12-.35.1 2.14.08 4.32.6 6.42 2.27.95 4.87.18 7.26.17l.8-3.67a58.46 58.46 0 0 1 7.25 0l.7 4.7c5.15.44 10.3-.1 15.46.33l.46 6.6c5.22.12 10.34 1.43 15.6 1.44l.35 6.6 7.6.34.38 7.7c2.48.1 5 .03 7.45.53.5 2.48.45 5.03.55 7.56 5.22.2 10.46-.08 15.68.25.3 5.22-.12 10.45.33 15.67l6.64.37c.07 2.54.2 5.1.37 7.64l7.57.3c.15 5.27 1.26 10.46 1.48 15.72l6.58.38a95.42 95.42 0 0 1 .15 8.79c-.2 4.98 1.23 9.83 1.28 14.8l6.57.4c.38 5.3-.1 10.63.43 15.93 2.34-.63 4.5-2.9 7-1.56l-2.2 2.46-.1 10.94c-.35 2.9 2.38 5 2.12 7.92a83.04 83.04 0 0 1-5.69 0l-.93-3.9c-.62 2.76-.83 5.65.27 8.33-4.7.6-8.5 4.8-8 9.64l.3 135.48c-.94-.22-1.86-.47-2.76-.73 2.62-2.12 1.5-5.56.83-8.32 1.24-4.7.8-9.6.8-14.4l-.07-90.98c-.2-7.72.32-15.46-.3-23.17-1.56 16.03.38 32.24-.97 48.3-1.63-8.04-1.08-16.27-2.1-24.35-1.3 12.4.3 24.94-.82 37.36-1.87-7.2.97-14.9-1.7-21.93-.9 2.77-1.12 5.7-1.17 8.6l-8.47.32-.6 7.48-6.46.64-.5 7.44-7.5.5-.52 7.5-7.44.52-.6 6.54-7.43.35-.5 7.56-15.3 1.6c-.6 2.72-1.35 5.42-2 8.14-1.1 3.96.67 8-.01 12-1.05 6.6.12 13.27-.8 19.87-1.2-6.72-.28-13.58-.6-20.36-.3-6.43.72-12.95-.6-19.3-1.1 7.5.22 15.12-.78 22.64-1.2-5.36-.2-10.87-.75-16.28-.4-4.36-1.52-8.63-1.53-13.02-.17-4.44.5-9.02-.9-13.33-1.75-3.97-6.07-6.98-10.52-5.97-4.35.65-7.44 4.92-7.1 9.25l.36 68c.01 2.23-.33 4.44-.75 6.63-7.18-2.64-10.26-10.17-12.1-16.98-2.2-7.7-2.25-15.73-2.54-23.66.2-4.04-4.5-7.16-8.14-5.34-2.9.83-3.77 3.96-4.42 6.54l-.53-3.6c-3.15.46-6.38.84-9.52.14-5.96-1.34-12.07-.42-18.1-.72-5-.35-9.86 1.6-14.86.9l-.37-7.6c-5.22-.24-10.37-1.27-15.6-1.5l-.4-6.66c-5.24-.3-10.5.12-15.72-.28-.1-2.8.08-5.66-.5-8.43-2.35-.83-4.94-.44-7.4-.6l-.5-6.58-7.56-.38-.3-7.7-7.65-.3c-.18-2.54-.3-5.08-.42-7.6l-6.63-.43a213.55 213.55 0 0 0-.37-7.6l-8.67-.42c-.26-5.2 0-10.43-.25-15.63l-6.72-.32c-.42-5.24.13-10.5-.27-15.75l-8.7-.27c-.57-3.64.22-7.24.73-10.82.23-5.55.48-11.27-1.3-16.6l-3.4-.77c-.64-6.32.12-12.67-.42-19a59.63 59.63 0 0 1-2.96-1.58c1.95-2.43 5.68-.74 7.57 1.04 1.42-7.85.03-15.93.74-23.87l6.6-.43c.07-3.95.88-7.83 1.27-11.75-.27-3.98-1.58-7.9-.86-11.9l8.7-.28.32-7.56 6.63-.54c.5-4.84-.03-9.7.35-14.54l7.7-.4.3-8.57c2.45-.08 4.9-.2 7.36-.43.4-3.17 3.03-5.1 5.04-7.27l3.07-.97.75-3.32 7.2-.44.88-3.6 7.4-.35.4-6.62c5.22-.17 10.35-1.22 15.56-1.47l.45-6.58c2.6-.2 5.2-.25 7.8-.15 5.28.34 10.44-1.15 15.7-1.22l.5-6.6c2.48-.12 4.98-.08 7.44-.53 1.58-1.35.24-3.88.36-5.66 1.53.76 3 2.07 4.82 1.92m11.48 67.52c-8.07 1.1-16.26.05-24.37.5-2.54-.16-3.45 2.6-4.9 4.14-1.37 2.3-4.3 2.35-6.44 3.52-1.26 1-2.08 2.65-3.75 3-1.53.7-3.94.7-4.37 2.73-.85 1.7-.65 4.5-2.94 5.03-1.47.62-3.15.8-4.44 1.8-1.33 1.6-1.1 4-2.38 5.64-2.15 1.56-5.93 1.1-6.78 4.17-.5 3.54.3 7.15-.35 10.67-1.1 1.23-2.53 2.16-3.48 3.52-1.35 3.2-1.16 6.78-1.53 10.2-4.1 1.06-4.12 8.34.06 9.3.25 2.27.25 4.57.1 6.85l-2.64.92c-.23 2.93-1.4 7.28 2.53 8.17.23 2.95-.1 6.24 2.1 8.58.08 1.93.1 3.86.13 5.8 2.26 1.72 4.58 3.44 6.38 5.68 1.66 4.52 4.84 8.87 9.28 10.93l-1.1.95c4.1 1 4.9 6.17 9.12 6.94-.43.4-.86.8-1.27 1.2 3.5.45 4.67 3.96 7 6.05 2.7.8 5.63.26 8.43.5 2.3 2.24 5.57 1.95 8.53 2.2.77.92 1.1 2.85 2.67 2.63 7.68.2 15.37-.06 23.05.07 2.8-.12 6.87.98 7.63-2.8l7.14-.4.52-4.72c3.1-.24 6.35.33 9.37-.5 2.1-2.9 5.3-4.23 8.55-5.4 1.88-2.23 3.32-5.08 6.47-5.68l-1.15-1.12c4.2-1 5.06-6.23 9.35-7.17l-4.9-.6c.45-4.57 6.95-2.6 7.95-6.72.3-2.84.16-5.7.26-8.52l2.66-.77a142.12 142.12 0 0 0 .33-6.5l1.8-2.27c.14-2.3-.24-4.83 1.08-6.88 1.34-2.17 1.65-5.15.3-7.37-3.16-5.1.45-11.56-2.07-16.86-.3 2.76-.44 5.54-.84 8.3-.73-5.15.02-10.35-.68-15.5-2.67-1.7-5.33-3.7-6.93-6.47-.62-1 .13-1.96.57-2.83-3.77-.86-4.95-5-8.04-6.92l4.1-1.2c-1.5-3.8-7.3-2.27-8.17-6.28-.6-1.88-1.12-4.4-3.4-4.85-2.76-.26-5.53-.13-8.28-.23l-1.33-2.95c-2.23-1.1-4.07-2.75-5.58-4.7-3.08-.2-6.16-.3-9.24-.43l-.8-2.62c-2.44-.17-4.88-.3-7.3-.35l-.7-3.77c-3.04-.17-4.3 3.4-7.3 3.47z" class="B"/><path fill="#f3f3f3" stroke="#f3f3f3" d="M664.36 272.46c3-.06 4.26-3.64 7.3-3.47l.7 3.77 7.3.35.8 2.62 9.24.43c1.5 1.95 3.35 3.6 5.58 4.7l1.33 2.95 8.28.23c2.3.45 2.8 2.97 3.4 4.85.88 4 6.66 2.47 8.17 6.28a134.66 134.66 0 0 1-4.1 1.2c3.1 1.9 4.27 6.06 8.04 6.92-.44.87-1.2 1.82-.57 2.83 1.6 2.77 4.26 4.76 6.93 6.47.7 5.14-.05 10.34.68 15.5.4-2.75.54-5.53.84-8.3 2.52 5.3-1.1 11.76 2.07 16.86 1.35 2.22 1.04 5.2-.3 7.37-1.32 2.05-.94 4.57-1.08 6.88l-1.8 2.27a142.12 142.12 0 0 1-.33 6.5l-2.66.77c-.1 2.83.03 5.68-.26 8.52-1 4.1-7.5 2.15-7.95 6.72l4.9.6c-4.3.94-5.15 6.18-9.35 7.17l1.15 1.12c-3.15.6-4.6 3.45-6.47 5.68-3.26 1.17-6.44 2.5-8.55 5.4-3.02.84-6.27.27-9.37.5-.2 1.57-.33 3.15-.52 4.72l-7.14.4c-.76 3.78-4.82 2.68-7.63 2.8-7.68-.13-15.37.12-23.05-.07-1.58.22-1.9-1.7-2.67-2.63-2.96-.25-6.24.04-8.53-2.2-2.8-.23-5.73.3-8.43-.5-2.33-2.1-3.5-5.6-7-6.05.4-.4.84-.8 1.27-1.2-4.2-.77-5-5.94-9.12-6.94l1.1-.95c-4.44-2.06-7.62-6.4-9.28-10.93-1.8-2.24-4.12-3.96-6.38-5.68l-.13-5.8c-2.2-2.34-1.86-5.63-2.1-8.58-3.94-.9-2.76-5.24-2.53-8.17l2.64-.92c.15-2.28.15-4.58-.1-6.85-4.18-.95-4.16-8.23-.06-9.3.37-3.4.18-6.98 1.53-10.2.95-1.36 2.38-2.3 3.48-3.52.65-3.52-.14-7.13.35-10.67.85-3.08 4.63-2.6 6.78-4.17 1.27-1.65 1.05-4.03 2.38-5.64 1.3-.98 2.97-1.17 4.44-1.8 2.3-.52 2.1-3.33 2.94-5.03.43-2.02 2.84-2.03 4.37-2.73 1.67-.36 2.5-2 3.75-3 2.14-1.17 5.07-1.2 6.44-3.52 1.44-1.55 2.35-4.3 4.9-4.14 8.1-.44 16.3.6 24.37-.5m-3.95 29c-11.07.87-21.6 6.8-27.75 16.1-7.15 10.03-8.2 23.9-3.32 35.12 6.6 16.02 25.83 25.83 42.62 21 11.15-2.22 20.1-10.68 24.96-20.7 3.32-8.48 4.22-18.27.86-26.9-2.6-8.33-8.95-14.9-15.93-19.82-6.6-3.27-14.04-5.36-21.44-4.83z" class="B"/><path d="M243.37 342.56c3.22-.27 6.68-.64 9.78.4 3.26 3.16 5.1 7.48 7.82 11.1 2.75 4.64 8.54 5.57 12.6 8.7l-.8 2.77-1.96-1.24-5.4 2.64c-2.14-1.58-4.73-2.1-7.35-1.9-11.14.32-22.3-.32-33.43.25l-1.1 2.4-1.24-2.56c0 3.7-.18 7.4-.7 11.08-.36-2.82-.7-5.64-.87-8.47 0-4.54.6-9.05.62-13.58 3-.43 6.06-.35 9.06-.78 4.86-2.9 7.92-8.2 13-10.8zm64.18 279.98c3.94-1.08 7.5-3.25 11.5-4.16 2.22 1.1 4 3.4 6.74 3.13 6.1 3.8 11.65 8.73 18.6 10.97 8.65 2.74 18 2.85 26.9 1.33 1.9.54 3.8 1.13 5.68 1.75l-1.33.97-3.54-.16c-1.43 2.05-3.76 3.02-6.18 3.3-7.95 1.14-15.87 3.4-23.97 2.63-11.9-.28-24.25-.93-35.26-5.95-2.83-2.1-4.3-5.7-7.54-7.42 3.07-1.82 4.78-5.55 8.42-6.4z" fill="#e3e3e3" stroke="#e3e3e3" class="B"/><path fill="#e6e6e6" stroke="#e6e6e6" d="M791.72 352.34c3.1-.27 6.4 1.16 8.03 3.87 2.28 3.5 1.5 7.9 1.63 11.85l-.02 73.02c5.77-1.7 8.32-7.73 9.93-13 1.22-3.8.3-8.43 3.18-11.58 3.67-3.44 10.6-.7 10.5 4.5-.33 9.48-3.18 19.25-9.57 26.46-3.7 4.1-8.75 6.7-14.12 7.84-.4 18.8.38 37.63-.5 56.4-3.53-.04-7.05.25-10.56.5l-.78 7.93c-.22-2.63-.3-5.27-.78-7.85-2.5-1.76-3 1.95-2.82 3.68-.47 4.24 1.62 9.43-1.7 12.9-.25-5.84-.2-11.7-.34-17.53-7.38-2-14.02-6.62-18-13.2-8.52-13.65-10.8-30.28-10.64-46.1-.2-5.8 8.98-7.88 11.43-2.66 1.67 5.68.6 11.74 1.67 17.54 1.66 10.7 3.93 22.75 12.98 29.82.9.26 1.82.5 2.76.73l-.3-135.48c-.5-4.85 3.3-9.03 8-9.64z" class="B"/><path fill="#fefefe" stroke="#fefefe" d="M781.54 408.16c1.35-16.05-.6-32.26.97-48.3.63 7.7.12 15.45.3 23.17l.07 90.98c-.02 4.8.43 9.7-.8 14.4.67 2.76 1.8 6.2-.83 8.32-9.05-7.07-11.32-19.1-12.98-29.82-1.06-5.8 0-11.86-1.67-17.54-2.45-5.22-11.63-3.13-11.43 2.66-.17 15.8 2.12 32.44 10.64 46.1 3.98 6.6 10.62 11.2 18 13.2l.34 17.53c-.28 2.87-.4 5.76-.53 8.65-1.7 10.16-.1 20.53-.9 30.77l-2.3-2.75-1.17 2.35-1.6-.88c-7.9.17-15.75 1.1-23.64 1.27-6.56 1.42-13.1-.48-19.68-.52-2.14-2.2-5.16-2.7-7.98-3.48-2.56-1.2-4.82-2.96-6.94-4.8-1.25-5.17.45-10.63-1-15.8-.85 6.12-.16 12.3-.54 18.46-1.2-.34-2.9-.17-3.23-1.73-1.73-5.85.74-12.3-2.06-17.97a60.15 60.15 0 0 1-.15-1.81c2.74-.64 5.48-1.37 8.02-2.6 8.4-3.58 13.57-11.9 16.1-20.35 1.87-6.68 2.53-13.7 2.08-20.62-.22-3.98-4.92-7.02-8.55-5.07-2.9 1-3.9 4.2-3.76 7 0 7.52-.8 15.28-4.34 22.05-1.9 3.55-5.73 5.56-9.64 5.92l.12-98.28c1.4 4.3.72 8.9.9 13.33.01 4.4 1.12 8.66 1.53 13.02.55 5.4-.46 10.92.75 16.28 1-7.52-.32-15.13.78-22.64 1.3 6.35.28 12.87.6 19.3.32 6.78-.6 13.64.6 20.36.93-6.6-.24-13.28.8-19.87.68-4-1.1-8.05.01-12l2-8.14 15.3-1.6.5-7.56 7.43-.35.6-6.54 7.44-.52.52-7.5 7.5-.5.5-7.44 6.46-.64.6-7.48 8.47-.32c.05-2.9.27-5.83 1.17-8.6 2.68 7.02-.16 14.72 1.7 21.93 1.13-12.42-.47-24.95.82-37.36 1.02 8.08.47 16.3 2.1 24.35z" class="B"/><path d="M273.56 362.75c.4 2.38.6 4.8.5 7.23-.4 12.53-.03 25.1-.53 37.6-.98 5.45-.66 11-1.02 16.5-.46-3.64-.66-7.3-.7-10.95-8.27-.3-16.53-.01-24.8-.17-8 .1-16.07-.46-24.04.58l-2.55-1.65-.6 5.78 3.23-1.3-.22 3.2-4.6.1c.64-4 .7-8.1-.07-12.1.25-9.55 1.07-19.1 1.6-28.66.2-3.75.08-7.55.95-11.22.18 2.83.5 5.65.87 8.47.5-3.67.7-7.38.7-11.08l1.24 2.56 1.1-2.4c11.13-.57 22.3.07 33.43-.25 2.62-.22 5.2.3 7.35 1.9 1.82-.84 3.62-1.74 5.4-2.64l1.96 1.24.8-2.77zm9.66 13.6c2.55-.4 5.15-.2 7.72-.16.9 9.16-.1 18.4.2 27.58-.16 1.5-.34 3.02-.57 4.53-1-2.66-1.7-5.43-2.17-8.22l-.6 5.8-1.42-2.73-.45 4.5-1.54-1.1-1.12 2.5c-.53-9.48.1-19-.9-28.45.06-1.43-.78-3.45.86-4.26zm550.74 76.4c3.25-1.5 7.6.6 8.3 4.17.68 4.06-.38 8.15-.95 12.16-2.93 15.02-7.27 30.24-16.48 42.72-3.07 4.25-7.3 7.48-11.6 10.4-3.55 2.4-7.87 2.93-11.92 3.98-.32 12.88.3 25.8-.34 38.66-4.14.2-8.27.55-12.36 1.2l-4.3-.3c-.5-9.4.47-18.87-.67-28.25.13-2.9.25-5.78.53-8.65 3.3-3.46 1.22-8.65 1.7-12.9-.17-1.73.3-5.44 2.82-3.68.48 2.58.56 5.22.78 7.85a308.15 308.15 0 0 0 .78-7.93c3.5-.25 7.03-.54 10.56-.5 1.73-.02 3.62.26 5.18-.74 4.82-2.67 8.8-6.73 11.53-11.5 7.3-12.26 10.47-26.46 12.3-40.47.26-2.54 1.43-5.52 4.16-6.24z" fill="#ebebeb" stroke="#ebebeb" class="B"/><path fill="#e5e5e5" stroke="#e5e5e5" d="M420.55 376.55c1.8-2.16 4.88-1.57 7.37-1.7 6.35.2 12.73-.25 19.06.3 4.07 1 2.75 7.07 6.94 7.92 3.57 1.33 3.46 5.8 3.5 8.97-.3 8.16.5 16.4-.62 24.5-.73-2.4-1.1-4.88-1.35-7.36-10.3-.08-20.63-.2-30.94.02l-1 2.53-2.02-3.44c-.48 2.8-1.22 5.57-2.23 8.24-.92-9.8-.2-19.66-.58-29.48.16-3.5-.68-7.67 1.88-10.5z" class="B"/><path fill="#f6f6f6" stroke="#f6f6f6" d="M282.36 380.62c1 9.45.38 18.97.9 28.45l1.12-2.5 1.54 1.1.45-4.5 1.42 2.73.6-5.8c.48 2.8 1.16 5.56 2.17 8.22.23-1.5.4-3.02.57-4.53 1.32 4.17 3.7 7.95 4.82 12.17.5 8.65-.2 17.36.25 26.02 1.2 3.42 3.6 6.25 5.3 9.44 4.56 7.3 8.16 15.18 12.87 22.38l-.83 3.6c-6.02 2.57-12.37.14-18.58.5-2.94-.04-4.88 2.44-6.87 4.23l-6.97-.18-2.25-1.87c-2.84.13-5.74-.02-8.16-1.7-12.95-1.88-26.06-3-39-5.07-4.87-1.44-9.85-2.64-14.96-2.13-3.6-1.92-7.77-.73-11.62-1.55-10.34-1.57-21.05-3-31.25.17 2.8-5.22 7.83-8.78 11.8-13.07 3.3-4.5 9.34-2.25 14.04-2.95 3.65-8.9 5.97-18.3 8.64-27.55.95-3.93 5.8-4 8.27-6.55 1.1-3.93-1.03-8.62 1.5-12.07.76 4 .7 8.08.07 12.1l4.6-.1.22-3.2-3.23 1.3.6-5.78 2.55 1.65c7.97-1.04 16.03-.5 24.04-.58 8.27.16 16.53-.14 24.8.17.03 3.66.23 7.3.7 10.95.36-5.5.04-11.06 1.02-16.5 1.6 10.4-.37 21.04.7 31.52 2.97-3.4 5.33-7.3 7.55-11.2.82-8.92-.13-17.93.01-26.9.27-6.8-.73-13.68.58-20.4z" class="B"/><path fill="#eaeaea" stroke="#eaeaea" d="M394.63 397.64c2.54-.8 5.25-.38 7.86-.24-.06 4.02-.2 8.05-.05 12.08l6.22 1.07c.04 1.35.1 2.72.01 4.08-.6 5.3-.44 10.65-.8 15.97l-3.1-9.66-2.2 4.8-1.77-3.06c-5.63 1.84-11.65 1.84-17.46 1 2.38-.9 4.94-1.07 7.47-1.2l.25-2.2c.53-5.75-.33-11.52.22-17.26.2-2.18 1.12-4.6 3.36-5.4z" class="B"/><path d="M421.48 408.3l2.02 3.44 1-2.53c10.3-.23 20.63-.1 30.94-.02.24 2.48.62 4.96 1.35 7.36 1.02 3.26.57 6.7.48 10.06-.73 10.15-.22 20.34-.6 30.5l-1.17-4.97c-13-.06-26.03-.2-39.04.05l-1.04 3.88-.73-5.16c1.55-1.92 3.4-3.82 3.9-6.32 1.06-9.3-.9-18.84.65-28.05 1-2.67 1.75-5.43 2.23-8.24zm-16.7 12.64c1.1 3.2 2.1 6.43 3.1 9.66.2 4.46.1 8.92-.1 13.38-7.85.43-15.7-.07-23.56.23.02 4.02 0 8.06-.7 12.03-.64-6.08-.3-12.2-.4-18.3.01-4.76-.4-9.54.2-14.27 5.8.85 11.83.85 17.46-1l1.77 3.06 2.2-4.8z" fill="#f0f0f0" stroke="#f0f0f0" class="B"/><g fill="#f9f9f9" stroke="#f9f9f9" class="B"><path d="M407.88 430.6c.35-5.32.2-10.66.8-15.97l.6 3.36c.34 13-.48 26.04-.01 39.03 2.1-1.78 3.72-4 5.43-6.12l.73 5.16 1.04-3.88c13-.24 26.03-.1 39.04-.05l1.17 4.97c.38-10.16-.13-20.35.6-30.5.74 1.36 1.02 2.9.98 4.45l-.04 22.98c-.15 1.6 1.43 2.4 2.48 3.27 3.78 2.66 7.88 4.83 11.68 7.46 1.95 1.32 2.9 3.62 4.68 5.14 8.03.46 16.13-.57 24.12.66 8.33 1.26 16.84 1.67 24.95 4.1 15.27 3.25 29.95 8.7 44.72 13.68 8.28 3.77 17.05 6.4 25.12 10.66 4.7 1.54 9.15 3.98 14.04 4.83 8.17.14 15.76 4.12 21.9 9.26 2.2 1.84 4.24 4.3 7.25 4.75 10.47 1.3 20.73-1.7 30.94-3.53 3.28-.66 6.87-.88 9.5-3.2 4.1 4.45 9.54 7.28 15.28 9 .01 12.08-.08 24.2.52 36.25 3 .66 5.93 1.58 8.8 2.66-1.83-.01-3.64.07-5.44.13 1.28 3 1.44 6.3 1.5 9.53l3.6 2.82c-2.1 1.03-4.2 2.73-6.67 2.13-3.07-.44-6.17-.73-9.27-.6 1.73 4.2 2.26 8.78 3.77 13.07 1 2.55.08 5.23-.54 7.75l-3.9-1.13c.07-1.7.24-3.4.32-5.1l-4.25-.24c-1.63-2.54-3.53-5.57-6.84-5.9-3.66-.83-7.44-.68-11.06.2-1.54 6.88 4.06 12.6 8.97 16.56-8.1 1.93-16.3.1-24.42-.28-6.37.23-12.64-1.24-19-1.1-10.5-.17-20.9-2.7-31.42-1.85-3.13-.13-6.24-.52-9.33-1.04 4.43-1.65 9.2-.94 13.8-.96 5.98.1 11.97-.4 17.93.26 2 .23 4 .05 5.96-.26.1-2.84.08-5.68-.08-8.5l-3.64-.97c-.28-3.13-.28-6.27-.03-9.4 5.2-.26 10.42-.04 15.63-.3.34-4.44.32-8.9-.06-13.34l-3.62-.98a151.55 151.55 0 0 1-.14-7.68c2.82-.58 4.14 1.5 4.76 3.92 2.3-.04 5.22 1.12 6.95-.95 2-2.57 5.57-1.74 8.4-2.24-2.6-1.4-5.38-2.48-8.2-3.3l5-1.97c-5.45-3.9-12.4-4.58-18.82-5.56-14-1.3-27.9-4.5-42.05-3.7-6.72.4-13.34-1.5-20.06-1.03-5.37.27-10.36 2.44-15.58 3.52-7.32 1.84-14.86 2.8-22.4 2.47-19.6 1.97-39.35.36-59 1.2-8.94 1.24-17.96.6-26.95.8-9.7.07-19.28-2.68-28.95-1.94-4.37.33-2.85 5.68-3.33 8.65-2.68.15-5.34.36-8 .67 2.4.45 4.83.77 7.26 1.1.94.83 1.54 2.44 3.02 2.43 7.33 1.02 14.6-.9 21.95-.9.98 4.8-2.9 8.06-5.9 11.1-1.67 1.45-3.97 1.74-5.98 2.46-.01 2.73-1.53 7.42 2.5 7.8 1.2-1.38 2.12-3.66 4.36-3.28 6.95-.16 13.9-.02 20.87.06l.03 2.46-3.9.78 3.84 1.06c-.4 1.38-.85 2.82-.58 4.28l-5.6.55c-12.3-1.96-24.36-4.97-36.6-7.2.25 2.96.45 5.94.6 8.92-.72-3.15-1.6-6.25-2.48-9.34-1.58-4.1-.03-8.05 1.84-11.7-1.73.1-2.55 1.57-3.4 2.85-.6-2.6-1.3-5.17-2-7.74l-2.03.57c5.34 16 6.07 34.64-2.24 49.76-5.9 11-16.9 18.36-28.5 22.22-8.98 3.03-18.73 2.4-27.85.37 2.87-.04 5.75.02 8.62.06 10.28 1.16 21.33-1.3 29.23-8.25 5.6-4.2 8.38-10.9 13.44-15.6 5.65-5.52 9-13.23 9.37-21.1.9-13.3-5.73-26.16-15.33-35 .67-2.76 1.3-5.53 1.67-8.34-2.88.74-2.45 4.3-3.28 6.53-2.28-1.32-4.48-2.76-6.55-4.37.45-2.1.83-4.2 1.1-6.3-2.15 1-2.5 3.32-3.1 5.36-3.9-1.64-7.85-3.43-12.16-3.48.65 1.28 1.68 2.06 3.1 2.33 13.98 3.48 25.4 14.7 30.3 28.1l-.56 1.5c-1.25-.1-2.5-.28-3.73-.42-.75.38-1.5.77-2.22 1.18l-.97.57c.56-2.8.98-5.62 1.3-8.45-1.62.88-2.25 2.6-2.96 4.2l-3.65-4c-.68-3.82-1.02-7.72-2.13-11.45l-1.8-1.67c.12 3.85 1.02 7.6 1.7 11.38-2.2-.1-4.66-.9-6.7.35 2.24.55 4.5 1 6.77 1.45l-.63 5.03c-2.37-1.55-5.08-2.48-7.93-2.05-.3-2.86-1-5.65-1.64-8.44-.67-3.75 2.4-7.38 1.5-10.85-2.4.24-1.9 3.98-3.12 5.6l-1.2-4.9c-2.88-2.35-4.63-6.42-8.64-7.02 1.75 2.7 4 5.02 6.25 7.3-10.58 7.03-21.03 14.88-28.02 25.7-2.1 3.63-6.42 5.1-10.37 5.6 1.62-4.46 4.1-8.54 6.57-12.57 1.7.64 3.4 1.35 5.14 1.93-.8-1.5-2.13-2.53-3.57-3.35 5.46-9.16 16-14.5 26.4-15.6l-1.44-2.02c-1.87-2.7-4.2-5.2-7.33-6.38-9.5-3.9-20.87-1.3-28.54 5.28-6.93 5.8-12.2 13.6-15 22.2-1.46 4.4-4.47 8.17-5.4 12.77-.17 1.1-.33 2.18-.46 3.3-.36 1.92-.23 3.9.04 5.83l-.9 2.76c-3.08-15.6.32-32.75 10.4-45.22 8.1-9.9 20.84-14.77 33.35-15.5 9.1-1.04 18.1 1.1 27.07 2.25-1.07-1.03-2.15-2.2-3.7-2.37-4.2-.95-8.48-1.37-12.75-1.73 1.83-1.55 3.58-3.2 4.9-5.2-4.2.2-6.04 5.47-10.4 4.94-8.67.1-17.35 1.54-25.33 5-.4-2.7-.84-5.42-1.46-8.08-2.74 2.2-.38 6.1-.37 9.04-11.5 6.1-19.33 17.5-22.7 29.9-2.02-2.2-4.35-4.27-7.4-4.78 1.45 3.5 6.82 4.55 6.3 8.96-1.34 7.8-1.55 15.8.52 23.5-2.78-.46-5.56-.82-8.37-.9 1.9 3.02 6 2.23 9 3.07 1.48 3.7 3.14 7.36 5.38 10.68-5.4 2.88-11.44 4.6-17.57 4.82-1.44 1.52-2.75 3.2-4.46 4.44-2 .88-4.27.84-6.27 1.74-1.6 1-1.94 3.03-2.84 4.56-.8 2-2.8 3.23-3.6 5.2 1.34 2.36 3.47 4.17 5.15 6.3l2.85-3.04.16 7.77c3.4-.33 6.84-.65 10.28-.62-1.44.54-2.92 1-4.38 1.46 5.35 1.46 10.4 4.37 16.07 4.33 4.85.05 9.2 2.6 14.02 2.9 3.16.18 5.92 1.78 8.6 3.33l-.01 3.6a71.19 71.19 0 0 1 2.97-.27l.9-3.56c6-.1 12.13-.8 18.05.5-3.48 1.43-7.3 1.23-10.97 1.58 1.18 1.17 2.7 1.86 4.24 2.4.34 5.08.07 10.18.28 15.26l3.8-.03.38-7.86c2.5-.04 4.97-.04 7.46.01l.5 7.4 3.56 1 .42 7.43c5.2.12 10.38-.04 15.57.2l.25 6.76 3.06 2.24-.2 6.53c-2.4.17-4.77.44-7.1.94 5.44.68 10.97.82 16.4-.08l-8.25-1.13c6.65-.62 13.46-.86 19.98.88l.06 7.14-3.92 1.3c9.2.7 18.92 3.3 27.7-.87l.48 8.03c9.07.52 18.16-.2 27.23.37l1.04 3.48 6.85.57c.9 4 3.7 7.1 6.56 9.9 2.1 2.16 5.37 1.75 8.1 1.9l36.03-.14c2.38-.1 4.73.43 6.96 1.23l1-.84 1.27.9 2.25-1.17-.42 2.98c1.27-1.03 2.83-1.52 4.43-1.68-.65 1.47-1.23 3-1.82 4.5 3.23 2.06 6.27 4.88 10.25 5.27 2.88.33 5.85.9 8.74.37 2.85-1.15 5.4-2.93 8.12-4.33-.64-2.18-1.35-4.35-2.46-6.33l-.87-1.2c3.77-1.2 7.64-.18 11.45.23 3.46.4 6.88-.48 10.14-1.57l.75 1.74 2.4-1.56c-2.44-2.05-5.63-.9-8.5-.87 1.93-1.08 3.9-2.1 5.87-3.1l-1.35-2.5 1.57-.03c4.3 1.8 7.88 4.85 11.86 7.2 7.32.67 14.73.42 22.08.16 5-2.24 9.8-4.96 14.77-7.3l-1.23-7.64c4.62.07 9.25.25 13.87-.07 4.36-1.35 8.53-3.22 12.82-4.75 1.54 5.04 1.35 10.37 2.54 15.48 2.45.8 4.83 1.96 7.42 2.17 3.46-.56 6.8-1.7 10.07-2.98 2.7-.73 1.88-4.12 2.32-6.2 7.26 2.4 14.4 5.24 21.76 7.34 7.95.62 15.96.05 23.93.24 6.68-.2 13.4.42 20.05-.35 2.73-.4 5.44-.96 8.17-1.45 4.76 2.18 10.36 1.3 14.63-1.58 2.1 1.1 4.4 1.73 6.78 2.02-.43.45-.85.9-1.25 1.38 1.87.95 3.73 1.94 5.57 3-3.1 1.2-6.44 1.44-9.72 1.55l-.45 7.46-3.57.72-.4 7.23-3.48.7-.68 3.58c-2.2.08-4.4.37-6.57-.06-1.04-.8-1.52-2.1-2.25-3.1-2.6 3.6-7.4 6.2-7.18 11.15-5.08.4-10.17-.12-15.25.36l-.83 3.34-3.44.8-.3 7.44-3.5.07-.75-3.7c-5.03-.3-10.06-.28-15.08.02l-.92 2.53a207.08 207.08 0 0 1-7.43.46c-.14 3.2-.2 6.4-.24 9.63-2.5.1-5.03.23-7.5.6-7.4 1.3-14.96.1-22.4.7-3.06 1.53-6.4 2.18-9.8 2.1l-.4 7.58c-4.3-.12-8.47 1-12.74 1.22-12.03-.01-24.06-.08-36.1.01-4.92.13-9.73-1.47-14.66-.9l-.54 6.63c-16.23.55-32.48.08-48.72.26L424 795.04c-2.53-.12-5.2.45-7.62-.4-.52-2.13-.5-4.32-.62-6.48-4.3-.8-8.47.82-12.74.92-12.32-.12-24.65-.01-36.97.01-4.65-.08-9.2-1.2-13.85-1.35l-.4-7.46c-1.94-.1-3.9-.1-5.8-.4-1.72-.54-3.16-1.95-5.04-1.85-5.65-.1-11.3.14-16.95.02-3.96-.34-7.87-1.22-11.86-1.18l-.35-9.67c-3.03-.44-7.48 1.07-8.5-2.93-5-.4-10-.3-15-.1l-.58 3.75c-1.23.3-2.4.2-3.5-.24-.45-2.4-.34-4.83-.4-7.23l-3.38-.74-.86-3.5c-5.07-.48-10.17.22-15.24-.37-.02-4.84-4.42-7.62-7.2-11-.74 1.03-1.3 2.22-2.25 3.1-2.16.34-4.35.01-6.5-.16l-.77-3.33-3.42-.83a160.63 160.63 0 0 1-.44-7.24l-3.62-.77-.4-7.45c-6.54-.5-13.1.18-19.64-.23a64.48 64.48 0 0 1-.01-7.74c6.68-.93 13.65 1.08 20.12-1.14.05-.45.13-1.36.17-1.8 5.57-3.5 11.58-6.24 17.02-9.94-.5-2-.95-3.98-1.33-5.98 6.74-.1 13.5.2 20.22-.12 4.98-2.26 9.8-4.84 14.7-7.27-.72-4.36-.74-9.06-3.06-12.95-3.77-2.07-7.52-4.6-11.9-5.06-7.06-1.07-14.2-.48-21.3-.43.26-3.73.5-7.47.32-11.2-2.1-2.54-4.14-5.44-7.2-6.85-5.3-1.48-10.8-1.9-16.18-3.04-4.5-.7-9.05-2.35-13.6-1.22-7.67 1.77-15.7 2.76-22.62 6.82-2.9 2.8-4.86 6.4-7.34 9.55.08-5.5 2.55-10.47 3.98-15.67-1.9 2.26-3.7 4.6-5.58 6.87l.35-3.98a47.3 47.3 0 0 1 4.62-10.1c-3.9 3.1-6.18 7.56-8.22 11.98-1.3-5.2.7-10.46.42-15.7-1.5 3.85-2.73 7.8-4.08 11.7-1.64-2.96-3.18-5.97-5.1-8.76l1.1 3.92c-1.33-.32-2.27-1.26-3.2-2.2l-2.1 1.43 1.16-3.33c-2.3-.96-4.62-3.7-2.05-5.72l1.17 2.9c1.9-1.82 1.27-4.6 1.4-6.96-.2-6.4.27-12.83-.25-19.23-2.14-.75-3.2-2.38-2.8-4.62.5-3.02-2.43-5.16-2.06-8.1.35-3.86 1.54-7.68.94-11.58l-3.7-.76c-.76-7.54.22-15.04 1.1-22.52 1.7-2.5 4.9-3.22 7.76-3.2 4.28.13 7.72-3.26 12.02-2.9 5.03.18 9.93-1.4 14.97-1.1 4.4.32 8.73-.44 13-1.4l-3.74-.98c-.2-2.36-.34-4.72-.44-7.07-2.93.54-5.95.8-8.9.14 1.62-.37 3.26-.68 4.9-1 .12-2.83-.25-5.9 1.52-8.33 1.36-2.06.55-4.62.53-6.9l-3.72-.8c-.78-5.07 1.44-10 .72-15.08l-4-1.2 7.57-.64 1.47-2.76c5.75.07 11.44-1.02 17.13-1.77 5.27-1.3 10.73-1.1 16.07-1.94l32.92-4.1c4.37-.24 8.78-.4 13-1.67l-6.98-2.08 6.8-.6.37-7.43 3.68-.7c.15-2.47.13-4.94-.02-7.4-3-.13-5.98-.24-8.95-.5 1.23-1.35 3-1.8 4.7-2.25l-.08-2.77.6-.58c2-1.8 3.93-4.27 6.87-4.23 6.2-.37 12.56 2.06 18.58-.5l.83-3.6c2.18 3.6 1.9 7.97 1.84 12.02 15.92.46 31.87.16 47.8.23 3.9.2 7.77-1.94 9.68-5.34l7.67-13.34c1.8-2.84.5-6.24.57-9.34-.23-11.02-.18-22.05-.1-33.07.4-4.78 6.56-2.04 9.2-4.66l-.25 2.2c-2.53.13-5.1.3-7.47 1.2-.6 4.73-.18 9.5-.2 14.27.1 6.1-.24 12.2.4 18.3.7-3.97.7-8 .7-12.03 7.85-.3 15.7.2 23.56-.23.2-4.46.3-8.92.1-13.38m-124.1 284.45c-.78 2.05-1.64 4.07-2.5 6.1 2.57 1.64 4.95 3.63 7.7 4.97 3.68.4 7.4.13 11.08.07 2.58-1.2 5.14-2.43 7.55-3.95a251.95 251.95 0 0 1-1.41-7.58l-.73.3c-2.48-3.22-6.83-2.96-10.46-3.43-3.96-.17-8.76-.12-11.23 3.53z"/><path d="M314.37 580.72c.24 3.9.27 7.8.7 11.7.62 4.15 1.78 8.23 3.67 12 2.5 5.57 5.76 10.76 9.03 15.9-2.5-2.67-4.88-5.42-7.45-8.02-4.6-7.87-8.8-16.7-7.42-26.08.43-1.86.93-3.68 1.47-5.5z"/></g><path fill="#e7e7e7" stroke="#e7e7e7" d="M694.83 431.95c-.33-4.33 2.76-8.6 7.1-9.25 4.45-1 8.77 2 10.52 5.97l-.12 98.28c3.9-.36 7.74-2.37 9.64-5.92 3.53-6.77 4.34-14.53 4.34-22.05-.13-2.8.87-6 3.76-7 3.63-1.95 8.33 1.1 8.55 5.07.45 6.9-.2 13.94-2.08 20.62-2.53 8.44-7.7 16.77-16.1 20.35-2.8.2-5.57.45-8.33.9l2.73-1.8c-6.04-1.98-12.42-.94-18.63-1.3l-.01-7.45c2.67-.2 5.35-.47 8.02-.85-2.58-.44-5.18-.68-7.8-.8-.18-2.1-.34-4.2-.64-6.26l-.9-.37c-5.74-1.7-11.18-4.54-15.28-9-5.1-5.23-7.43-12.32-9.5-19.14-2.25-8.07-2.68-16.5-2.87-24.83.65-2.58 1.52-5.7 4.42-6.54 3.63-1.82 8.34 1.3 8.14 5.34.3 7.93.33 15.97 2.54 23.66 1.85 6.8 4.93 14.34 12.1 16.98.42-2.2.76-4.4.75-6.63l-.36-68z" class="B"/><path fill="#ececec" stroke="#ececec" d="M694.9 520.1l.9.37.64 6.26c2.6.13 5.2.37 7.8.8l-8.02.85.01 7.45c6.2.35 12.6-.7 18.63 1.3l-2.73 1.8c2.76-.44 5.54-.68 8.33-.9-2.54 1.22-5.28 1.95-8.02 2.6l.15 1.8c-.73 6.17-.2 12.38-.64 18.56-2.6-.56-5.18-1.2-7.72-1.98-2.88-1.08-5.8-2-8.8-2.66-.6-12.06-.5-24.17-.52-36.25z" class="B"/><path fill="#bd8b59" stroke="#bd8b59" d="M359.05 532.86c4.35.53 6.2-4.73 10.4-4.94-1.33 2-3.08 3.66-4.9 5.2 4.27.36 8.56.78 12.75 1.73 1.55.18 2.63 1.34 3.7 2.37-8.98-1.15-17.96-3.3-27.07-2.25-12.5.74-25.26 5.62-33.35 15.5-10.1 12.47-13.5 29.62-10.4 45.22 1.46 6.4 5.34 12.2 10.17 16.58 2.57 2.6 4.96 5.35 7.45 8.02-3.27-5.15-6.52-10.34-9.03-15.9.35-6.05-.1-12.1-.01-18.16.38-4.64 1.8-9.07 3.47-13.4.65-1.67 1.3-3.33 2.04-4.96 2.53-4.06 4.2-9.22 8.6-11.63-1 3.46-3.43 6.16-5.13 9.26-.43.8-.83 1.65-1.2 2.5-4.2 7.96-6.62 16.97-6.23 26 .24 8.8 3.66 17.4 9.13 24.27.82 1.08 1.73 2.08 2.64 3.1-.33-3.56-.87-7.1-1.64-10.57-1.2-6.36-.97-12.9-.16-19.27.17-1.37.07-2.77.06-4.13 2.9-6.4 4.82-13.3 9.05-19.04.45-.68.92-1.35 1.4-2 1.85-2.67 4.5-4.68 6.23-7.43.84-2.96 1-6.06 1.7-9.05 2.8 1.56.53 5.15.66 7.6 4.9-3.55 10.52-5.9 16.44-7.1l1.95-.5 1.44 2.02c-10.4 1.1-20.94 6.44-26.4 15.6 1.44.82 2.77 1.85 3.57 3.35-1.74-.58-3.43-1.3-5.14-1.93-2.47 4.03-4.95 8.1-6.57 12.57l-.8 3.54c-.45 1.38-1 2.73-1.5 4.1 1.74-1.46 3.5-2.9 5.33-4.25-.3 4.28-5.37 5.88-5.9 10-.8 6.03-.15 12.13.66 18.13.3 2.65 1.13 5.2 2.04 7.7.92-1.82 1.4-3.8 1.4-5.83.73-6.9 3.14-13.4 5.54-19.85.3-.93.64-1.84.98-2.74 2.37-4.02 4.45-8.2 7.1-12.06.48-.72 1-1.42 1.5-2.1 3.23-3.57 5.7-8.94 10.67-10.13l-.6 1.13c-2.27 3.02-5.13 5.53-7.43 8.52a35.52 35.52 0 0 0-1.44 1.97c-8.78 12.3-13.74 26.94-15.58 41.86-.05 1.02-.03 2.02-.01 3.07 1-.75 2.05-1.45 3.03-2.23 12.6-10 20.32-24.64 26.9-39l.8-1.77c1.73-4.2 3.4-8.4 5-12.64l1.3-3.57c1.02-2.86 1.97-5.78 2.22-8.82l.74-1.74c1.22-1.63.73-5.37 3.12-5.6.9 3.47-2.17 7.1-1.5 10.85a36.22 36.22 0 0 0-1.51 2.29c-.75 1.76-1.4 3.57-2.04 5.4l-1.27 3.5c-1.45 3.96-2.92 7.92-4.64 11.78l-.68 1.6c-2.1 4.66-4.43 9.2-6.9 13.68l6-1.9.57 1.87c-3.05 1.24-7.2 1.24-9.06 4.37-3.15 4.88-6.2 9.9-10.42 13.97-1.54 1.55-2.62 3.46-3.64 5.37-1.5.92-3.02 1.77-4.56 2.62l4.16-.52c2.33-.07 4.72-.1 6.97-.85 14.37-4.2 26.08-14.92 33.3-27.82 2.1-3.93 4.88-7.84 4.98-12.47.17-5.83-.15-11.68-1.06-17.44-2.27-.45-4.53-.9-6.77-1.45 2.03-1.24 4.48-.44 6.7-.35-.67-3.78-1.57-7.53-1.7-11.38l1.8 1.67c1.1 3.73 1.45 7.63 2.13 11.45l3.65 4c.7-1.6 1.34-3.3 2.96-4.2-.33 2.83-.75 5.65-1.3 8.45l-.54 1.45c-1.68 4.86-4.06 9.58-4.5 14.8a68.81 68.81 0 0 1-2.12 11.46c2.07-1.54 4.3-2.95 6.82-3.6-1.9 3.97-7.26 4.7-8.74 8.95-1.42 3.24-3.15 6.33-4.95 9.37l-1.14 2.06c-5.33 4.1-10.5 8.73-17.25 10.35-2.7.63-5.3 1.55-7.9 2.47l-8.62-.06c9.12 2.03 18.87 2.66 27.85-.37 11.62-3.86 22.6-11.22 28.5-22.22 8.3-15.12 7.58-33.76 2.24-49.76l2.03-.57c.7 2.57 1.4 5.14 2 7.74.85-1.28 1.67-2.74 3.4-2.85-1.87 3.65-3.42 7.6-1.84 11.7.6 8.8.22 17.72-2.34 26.2 1.68-1.26 3.37-2.57 5.4-3.24-1.38 3.93-6.02 5.07-7.68 8.8-3.34 6.93-8.25 13.1-14.5 17.63 2.23.74 7.1-.24 6.7 3.36-3.98-1.26-8.5-1.8-12.3.3-4.86 2.52-9.88 4.74-15.2 6.1-8.9 1.52-18.25 1.4-26.9-1.33-6.94-2.24-12.5-7.17-18.6-10.97-4.17-3.65-8.06-7.65-11.18-12.25-2.24-3.32-3.9-6.98-5.38-10.68-3-.84-7.1-.05-9-3.07 2.8.07 5.6.43 8.37.9-2.07-7.7-1.86-15.7-.52-23.5.53-4.4-4.84-5.46-6.3-8.96 3.06.5 5.4 2.58 7.4 4.78 3.37-12.4 11.2-23.8 22.7-29.9-.01-2.95-2.37-6.83.37-9.04.62 2.66 1.06 5.37 1.46 8.08 7.98-3.47 16.66-4.9 25.33-5m32.15 34.64c.04 3.92.13 7.85.33 11.77 2.37-3.57 3.27-8.67-.33-11.77m-31.66 54.97c-2.4.92-4.5 2.62-7.08 3.07-3.88.77-7.85 1.03-11.65 2.17 7.28 1.54 15.03 1.42 22.13-.93 3.8-1.27 7.95-2.5 10.6-5.72-2.1.36-4.13.88-6.13 1.56l-.02-1.74c4.35-.78 9.5-1.37 12.28-5.27 5.3-6.8 7.95-15.27 9.06-23.7-6.48 12.77-16.35 23.96-29.2 30.57z" class="B"/><path d="M556.4 540.55c5.22-1.08 10.2-3.25 15.58-3.52 6.72-.48 13.34 1.44 20.06 1.03 14.14-.82 28.04 2.4 42.05 3.7 6.43.98 13.37 1.67 18.82 5.56l-5 1.97c2.83.83 5.6 1.9 8.2 3.3-2.83.5-6.4-.33-8.4 2.24-1.73 2.07-4.66.9-6.95.95-.62-2.4-1.94-4.5-4.76-3.92a151.55 151.55 0 0 0 .14 7.68l3.62.98c.38 4.44.4 8.9.06 13.34-5.2.26-10.42.04-15.63.3-.25 3.13-.25 6.27.03 9.4l3.64.97c.16 2.82.18 5.66.08 8.5-1.97.3-3.97.5-5.96.26-5.96-.67-11.95-.16-17.93-.26-4.6.02-9.37-.7-13.8.96-9.1.74-18.12-1.44-27.22-1-9.95-.26-19.92.4-29.85-.36-7.14-1.18-14.4-.13-21.55-1.14-20.83-1.8-41.5-5.2-62-9.2l5.6-.55c-.27-1.46.18-2.9.58-4.28l-3.84-1.06 3.9-.78-.03-2.46-20.87-.06c-2.24-.38-3.15 1.9-4.36 3.28-4.04-.4-2.52-5.08-2.5-7.8 2-.72 4.3-1 5.98-2.46 3-3.03 6.9-6.3 5.9-11.1-7.34-.02-14.62 1.9-21.95.9-1.48.01-2.08-1.6-3.02-2.43-2.43-.32-4.86-.64-7.26-1.1 2.66-.3 5.32-.52 8-.67.48-2.97-1.04-8.32 3.33-8.65 9.67-.74 19.26 2 28.95 1.94 9-.18 18 .45 26.95-.8 19.65-.84 39.4.77 59-1.2 7.55.32 15.1-.63 22.4-2.47zm-227.83 67c-1.18-5.3-1.4-11.27 1.7-16-.8 6.38-1.03 12.9.16 19.27-.9-.9-1.63-2-1.85-3.28z" fill="#f4f4f4" stroke="#f4f4f4" class="B"/><path fill="#fafafa" stroke="#fafafa" d="M782.72 568.28c.8-10.24-.8-20.6.9-30.77 1.14 9.38.18 18.84.67 28.25l4.3.3c1.1.55 2.7.84 3.28 2.07.36 1.9.1 3.84.04 5.76l-7.9.27c2 2.52 2.4 5.67 2.12 8.8l-1.73 1.57 5.54 1.7c-.92.86-1.82 1.74-2.72 2.62 4.44 1.83 9.3 1.22 13.9.46 10.28-1.6 20.44 1.47 30.7 1.9.07 4.27.65 8.5 1.24 12.72.7 2.97-2.47 5.04-2 8.04.25 2.2-.45 4.14-2.8 4.58-.58 7.7.2 15.44-.44 23.14l-3.6.63-.4 7.3-3.67.8c-.33 5.1.18 10.2-.2 15.3l-3.73.66c-.07 2.42-.22 4.84-.4 7.26l-3.48.8-.5 7.26-3.63.72c-.27 2.8-.1 5.6.3 8.36-3.4 1.05-6.98 1.56-10.4.44-.66.53-1.3 1.08-1.95 1.63-1.66-1.53-3.83-2.02-6-2.15-.76-3 1.22-5.58 2.05-8.33l-1.6 1-1.12-1-3.87 2.42c1.4-4.27 3.28-8.36 4.72-12.6 1.48-4.85 2.08-10 1.9-15.06-4-6.53-9.5-12.04-14.02-18.23l-16.7-21.37c-1.86-2.55-5.3-2.44-8.08-3.07-13.63-2.2-27.05-5.63-40.77-7.17-5.35-2.28-10.82-4.3-16.5-5.54-3.9-.97-8.48-1.24-11.05-4.76l-.07-.12c-.46-2.5-.94-5-1.64-7.45l4.25.24c-.08 1.7-.25 3.4-.32 5.1l3.9 1.13c.62-2.52 1.53-5.2.54-7.75-1.5-4.3-2.04-8.86-3.77-13.07 3.1-.14 6.2.15 9.27.6 2.48.6 4.58-1.1 6.67-2.13l-3.6-2.82c-.06-3.23-.22-6.52-1.5-9.53 1.8-.06 3.6-.14 5.44-.13 2.54.77 5.12 1.42 7.72 1.98.43-6.18-.1-12.4.64-18.56 2.8 5.67.33 12.12 2.06 17.97.32 1.56 2.02 1.4 3.23 1.73.38-6.15-.3-12.34.54-18.46 1.45 5.18-.25 10.64 1 15.8 2.12 1.83 4.38 3.6 6.94 4.8 2.82.77 5.84 1.27 7.98 3.48 6.58.04 13.12 1.94 19.68.52 7.9-.18 15.75-1.1 23.64-1.27l1.6.88 1.17-2.35 2.3 2.75z" class="B"/><path d="M382.16 543.96c.58-2.04.94-4.36 3.1-5.36l-1.1 6.3c2.07 1.6 4.27 3.05 6.55 4.37.83-2.24.4-5.8 3.28-6.53-.37 2.8-1 5.58-1.67 8.34 9.6 8.85 16.24 21.72 15.33 35-.36 7.87-3.72 15.58-9.37 21.1-5.06 4.7-7.84 11.4-13.44 15.6-7.9 6.94-18.95 9.4-29.23 8.25 2.6-.92 5.2-1.84 7.9-2.47 10.58.36 20.56-5.82 26.53-14.3l-9.28 3.95 1.14-2.06c4.13-2.48 9.08-4.16 11.98-8.2 5.74-9.9 5.3-22.26 1.5-32.77l.54-1.45.97-.57 1.94 6.35 2.83.1c-1.36 3.28-1.7 6.83-1.45 10.36.33 4.96-1.07 9.75-2.17 14.53 8.3-8.88 9.5-22.53 5.36-33.6-4.9-13.4-16.32-24.62-30.3-28.1-1.4-.27-2.44-1.05-3.1-2.33 4.3.05 8.26 1.84 12.16 3.48zm-24.04 34.48c.93-1.2 2-2.3 3.1-3.36l.08 3.92 6.07 2.62-.8 1.77-6.4-2.56c-4.93 14.73-13.02 28.06-20.5 41.57-.98.78-2.02 1.48-3.03 2.23-.02-1.05-.04-2.05.01-3.07 2.2-2.23 3.96-4.8 5.47-7.54 6.18-10.8 12.17-21.84 16.08-33.7l-5.97-.62a35.52 35.52 0 0 1 1.44-1.97l4.46.7z" fill="#e2b37e" stroke="#e2b37e" class="B"/><path fill="#e5b280" stroke="#e5b280" d="M331.87 548.85c7.67-6.58 19.05-9.18 28.54-5.28 3.13 1.17 5.46 3.7 7.33 6.38l-1.95.5c-4.78-7.22-14.33-7.3-22-6.27l2.9 3.06c-3.32.25-6.73-.18-9.98.6-8.37 4.92-13.9 13.52-17.47 22.35l5-2.3c-.73 1.63-1.4 3.3-2.04 4.96l-.23-1.92c-1.77 1.82-4.14 3.43-4.7 6.05-.94 4.2-.86 8.57-.5 12.85l-1.7 2.58c-.43-3.9-.46-7.8-.7-11.7-.54 1.8-1.04 3.63-1.47 5.5l-1.44-2.38c.93-4.6 3.94-8.36 5.4-12.77 2.8-8.6 8.08-16.4 15-22.2z" class="B"/><path d="M366.78 542.94c4 .6 5.76 4.67 8.64 7.02l1.2 4.9-.74 1.74c-.78-1.5-1.58-2.98-2.44-4.42-10.8 6.9-20.82 15.38-27.94 26.16l5.5-.12c-.5.68-1.02 1.38-1.5 2.1-1.67.02-3.34-.06-4.98.26-3.24 4.14-4.93 9.24-6.68 14.15l4.57-2.35c-.34.9-.67 1.8-.98 2.74-1.4.64-2.98 1.08-4.03 2.26-1.12 1.94-1.2 4.26-1.6 6.43-.45 3.7-1.42 7.56.08 11.16.01 2.03-.48 4-1.4 5.83-.9-2.5-1.74-5.06-2.04-7.7 1.54-4.9 1.12-10.17 2.55-15.1 1.3-5.74 3.97-11 6.1-16.46-2.47 1.07-4.88 2.3-7.25 3.58l.8-3.54c3.95-.5 8.26-1.97 10.37-5.6 7-10.83 17.44-18.68 28.02-25.7-2.25-2.3-4.5-4.6-6.25-7.3zm-5.1 25.14c1.1-1.82 1.95-4.48 4.4-4.78 2.78-.77 5.3.75 7.6 2.1l-1.3 3.57-.06-2.1c-1.8-1.1-3.9-3.1-6.12-1.76-2.4.67-1.87 3.5-2.05 5.4l4.1 2.08c-2.9 2.4-5.3-1.6-7.15-3.38l.6-1.13z" fill="#e3ac6f" stroke="#e3ac6f" class="B"/><path fill="#f6f7f9" stroke="#f6f7f9" d="M343.8 544.17c7.67-1.02 17.22-.95 22 6.27-5.92 1.2-11.55 3.55-16.44 7.1-.13-2.46 2.14-6.05-.66-7.6-.68 3-.85 6.1-1.7 9.05-1.72 2.75-4.38 4.76-6.23 7.43l-7.06-1.17c2.15-2.82 5.9-3.4 8.6-5.53-1.8-.2-3.6-.02-5.38.25 2.3-2.7 4.5-5.46 6.43-8.42-1.37.48-2.98.7-3.87 2-3.17 3.67-5.66 7.86-8.14 12l-3.62-.02c1.7-3.1 4.14-5.8 5.13-9.26-4.42 2.4-6.08 7.57-8.6 11.63l-5 2.3c3.57-8.83 9.1-17.43 17.47-22.35 3.25-.78 6.66-.35 9.98-.6l-2.9-3.06z" class="B"/><path d="M339.48 553.53c.9-1.3 2.5-1.5 3.87-2-1.93 2.96-4.14 5.73-6.43 8.42 1.78-.27 3.58-.44 5.38-.25-2.7 2.14-6.44 2.7-8.6 5.53l7.06 1.17a33.69 33.69 0 0 0-1.4 2 78.28 78.28 0 0 0-6.62-1.15c-3.75 8.1-6.4 16.8-6.32 25.82l3.9-5.63c.01 1.36.1 2.76-.06 4.13-3.1 4.72-2.87 10.7-1.7 16 .22 1.27.95 2.37 1.85 3.28.77 3.48 1.3 7 1.64 10.57-.9-1.03-1.82-2.03-2.64-3.1-3.28-7.72-4.13-16.1-4.86-24.36-.56-9.1 2.17-18 5.7-26.28l-3.75.36c.37-.85.77-1.7 1.2-2.5l3.62.02c2.48-4.15 4.97-8.34 8.14-12zM311 587.12l.46-3.3 1.44 2.38c-1.38 9.4 2.8 18.2 7.42 26.08-4.83-4.37-8.7-10.2-10.17-16.58l.9-2.76c1.57-1.66 1.9-4.3-.04-5.83z" fill="#e0b884" stroke="#e0b884" class="B"/><path fill="#f3f5f7" stroke="#f3f5f7" d="M345.5 578.33c7.12-10.78 17.13-19.25 27.94-26.16.86 1.44 1.66 2.92 2.44 4.42-.25 3.04-1.2 5.96-2.22 8.82-2.3-1.36-4.82-2.88-7.6-2.1-2.44.3-3.3 2.96-4.4 4.78-4.98 1.2-7.44 6.56-10.67 10.13l-5.5.12z" class="B"/><path fill="#e5b079" stroke="#e5b079" d="M376.74 562.38l1.5-2.3 1.64 8.44c.28 3.04.35 6.1.28 9.15 1.34-.93 2.75-1.74 4.27-2.33-3.92 5.2-6.8 11.1-8.16 17.5.02 3.26 3.04 7.6-.13 10.08-.34-2.5-.3-5.17-1.6-7.4-2.46 7.2-5.62 14.44-11.45 19.58-3.4 3.52-8.13 5.14-11.86 8.2-2.25.74-4.64.78-6.97.85 4.7-3.14 10.32-4.6 14.75-8.16 5.47-3.98 9.47-9.66 11.9-15.93-7.42 8.7-16.18 16.5-26.26 22 1.02-1.9 2.1-3.82 3.64-5.37 2.93-.25 4.98-2.53 7.17-4.22 7.15-5.74 14.12-12.2 18.28-20.5-1.65-2.6-3.63-4.96-5.64-7.27l.68-1.6c1.82 1.7 3.6 3.47 5.38 5.24.33-5.68.82-11.47-.74-17.02l1.27-3.5c2.08 6 1.6 12.37 1.82 18.6 2.66-7.7 2.02-16.17.22-24z" class="B"/><path fill="#eef9f5" stroke="#eef9f5" d="M376.74 562.38c1.8 7.83 2.44 16.3-.22 24-.2-6.24.26-12.6-1.82-18.6.64-1.82 1.3-3.63 2.04-5.4z" class="B"/><path fill="#f0f1f2" stroke="#f0f1f2" d="M366.18 565.12c2.2-1.35 4.32.65 6.12 1.76l.06 2.1c-1.6 4.24-3.26 8.45-5 12.64L361.3 579l-.08-3.92c-1.1 1.05-2.17 2.15-3.1 3.36l-4.46-.7c2.3-3 5.16-5.5 7.43-8.52 1.85 1.8 4.24 5.78 7.15 3.38a131.86 131.86 0 0 0-4.11-2.08c.18-1.9-.34-4.72 2.05-5.4z" class="B"/><path fill="#f0f0f2" stroke="#f0f0f2" d="M388.45 565.55c.9 5.76 1.23 11.6 1.06 17.44-.1 4.63-2.87 8.54-4.98 12.47-7.22 12.9-18.93 23.63-33.3 27.82 3.73-3.05 8.47-4.67 11.86-8.2 5.83-5.14 9-12.4 11.45-19.58 1.32 2.24 1.27 4.9 1.6 7.4 3.17-2.47.15-6.82.13-10.08 1.35-6.38 4.24-12.3 8.16-17.5-1.52.6-2.93 1.4-4.27 2.33.07-3.06 0-6.1-.28-9.15 2.85-.43 5.56.5 7.93 2.05l.63-5.03z" class="B"/><path fill="#f1f4f5" stroke="#f1f4f5" d="M332.75 567.25l6.62 1.15c-4.23 5.74-6.16 12.63-9.05 19.04-1.26 1.9-2.57 3.77-3.9 5.63-.08-9 2.57-17.72 6.32-25.82z" class="B"/><path fill="#f4f6f9" stroke="#f4f6f9" d="M326.52 568.02l3.75-.36c-3.54 8.28-6.27 17.18-5.7 26.28.73 8.26 1.58 16.64 4.86 24.36-5.47-6.88-8.9-15.46-9.13-24.27-.4-9.04 2.03-18.05 6.23-26z" class="B"/><path d="M391.2 567.5c3.6 3.1 2.7 8.2.33 11.77-.2-3.92-.3-7.85-.33-11.77zm-73.94 9.48c.57-2.62 2.94-4.23 4.7-6.05l.23 1.92c-1.66 4.32-3.1 8.75-3.47 13.4l-.88.6a26.93 26.93 0 0 1-.2 8.5c-.35-1.84-.67-3.67-.9-5.5-.36-4.28-.44-8.64.5-12.85z" fill="#f9fbf9" stroke="#f9fbf9" class="B"/><path fill="#eef0f2" stroke="#eef0f2" d="M403.4 570.9c4.15 11.07 2.95 24.72-5.36 33.6 1.1-4.78 2.5-9.57 2.17-14.53-.26-3.53.1-7.08 1.45-10.36a90.22 90.22 0 0 0-2.83-.1l-1.94-6.35c.73-.4 1.47-.8 2.22-1.18l3.73.42.56-1.5z" class="B"/><path fill="#eaf2f4" stroke="#eaf2f4" d="M373.43 571.28c1.56 5.55 1.07 11.34.74 17.02l-5.38-5.24c1.72-3.86 3.2-7.82 4.64-11.78z" class="B"/><path fill="#ededed" stroke="#ededed" d="M411.17 574.66l2.48 9.34-.6-8.92c12.23 2.24 24.3 5.25 36.6 7.2 20.5 4.02 41.16 7.4 62 9.2 7.15 1 14.4-.04 21.55 1.14 9.93.76 19.9.1 29.85.36 9.1-.45 18.1 1.73 27.22 1 3.1.52 6.2.9 9.33 1.04 1.52.52 3 1.13 4.5 1.77-6.6 1.7-13.3-1.08-20-.7 1.76.8 3.53 1.65 5.25 2.57-6.85.88-13.77-.13-20.62.7 5.64 1.34 11.47-.1 17.14.85 4.03 3.55 3.25 9.75.64 13.95-.32-1.9-.6-3.82-.86-5.73-5.22-.4-10.48-.77-15.7-.3-1 .05-1.74.55-2.22 1.5 2.7.25 5.4.4 8.1.53l.12 3.53c-5.73-.16-10.85 3.2-16.64 2.48l-.57 7.7c-5.2.26-10.4.1-15.6.28a152.51 152.51 0 0 0-.01 7.41l4.68.86c.4 5.24.32 10.5.05 15.75-2.96-.7-5.8-2.42-8.9-2.02-3.44.36-6.87.88-10.3 1.15.43 5.6.9 11.3-.2 16.88-.33-2.68-.56-5.36-.74-8.04-5.5-.27-10.98-.2-16.47-.01l-.5 7.77c-7.2.27-14.42.3-21.62-.08l-.36-7.65c-5.5-.27-11-.23-16.48.03-.04 2.73-.2 5.5-.93 8.14-.8-5.67-.46-11.42.07-17.1-3.48-.24-6.94-.74-10.4-1.15-3.16-.47-6 1.47-9 2.14-.23-3.77.43-7.5.8-11.22-.7-.86-1.62-1.46-2.5-2.08-2.6-1.4-5.34-2.5-8.25-2.94l-3.06-.4c-1.25-5.38 3.07-9.97 1.85-15.37-5.8.6-10.98-2.74-16.75-2.4l-.08-3.64c2.94-.07 5.9-.3 8.72-1.22-6.44-2-13.34-.25-19.92-1.68l1.6-1.75-2.23-1.96c2.08-1.48 4.08-3.56 6.8-3.6 4.76-.23 9.54.27 14.28-.34-2.6-2.24-6.17-1.52-9.32-1.6-3.26.12-6.5-.5-9.75-.4-2.03.67-3.72 1.98-5.4 3.24 2.56-8.5 2.95-17.4 2.34-26.2z" class="B"/><path fill="#eff0f2" stroke="#eff0f2" d="M395.37 575.2c3.8 10.5 4.24 22.87-1.5 32.77-2.9 4.05-7.85 5.73-11.98 8.2 1.8-3.04 3.53-6.13 4.95-9.37 1.48-4.25 6.83-4.98 8.74-8.95-2.53.64-4.75 2.05-6.82 3.6a68.81 68.81 0 0 0 2.12-11.46c.43-5.2 2.8-9.93 4.5-14.8z" class="B"/><path fill="#f2f5fc" stroke="#f2f5fc" d="M344.53 580.57c1.64-.32 3.3-.24 4.98-.26-2.64 3.85-4.72 8.04-7.1 12.06l-4.57 2.35c1.75-4.9 3.44-10 6.68-14.15z" class="B"/><path fill="#f2f2f3" stroke="#f2f2f3" d="M352.22 579.7l5.97.62c-3.9 11.86-9.9 22.9-16.08 33.7-1.5 2.73-3.28 5.3-5.47 7.54 1.84-14.92 6.8-29.57 15.58-41.86z" class="B"/><path d="M360.16 580.83l6.4 2.56c-6.6 14.37-14.3 29-26.9 39 7.48-13.5 15.57-26.84 20.5-41.57zm1.06 17.5c2.46-4.48 4.8-9.02 6.9-13.68 2 2.3 4 4.67 5.64 7.27-4.16 8.3-11.13 14.77-18.28 20.5-2.2 1.7-4.24 3.97-7.17 4.22 4.23-4.06 7.27-9.1 10.42-13.97 1.87-3.13 6-3.13 9.06-4.37l-.57-1.87-6 1.9z" fill="#f0f2f1" stroke="#f0f2f1" class="B"/><path fill="#76c772" stroke="#76c772" d="M665.44 581.7c3.62-.9 7.4-1.04 11.06-.2-3.7.2-7.38.42-11.06.2z" class="B"/><path fill="#f7f6fe" stroke="#f7f6fe" d="M333.85 585.1l7.25-3.58c-2.12 5.45-4.8 10.72-6.1 16.46-1.43 4.93-1 10.2-2.55 15.1-.8-6-1.45-12.1-.66-18.13.52-4.12 5.6-5.72 5.9-10-1.83 1.35-3.6 2.8-5.33 4.25.5-1.37 1.04-2.72 1.5-4.1z" class="B"/><path d="M674.4 598.26c-4.9-3.96-10.5-9.68-8.97-16.56 3.68.2 7.37 0 11.06-.2 3.3.33 5.2 3.36 6.84 5.9.7 2.44 1.18 4.95 1.64 7.45-2.6-2.72-2.98-6.68-5.2-9.62-1.1-1.6-3.12-1.87-4.9-2.08-.86.26-1.67.66-2.47 1.06-1.65-.93-3.57-1.03-5.4-1.2.28 2.43.25 5.1 1.8 7.14 3 4.25 7.46 7.18 10.67 11.27.72 1.03 1.93 2.26.87 3.63l-3.17-3.75c-.87-1.08-1.8-2.1-2.8-3.02zm61.46 41.42l1.86-.23c4.7 2.98 8.74 7.2 14.2 8.94l-1.54-1.8.38-1.62c5.7 4.16 12.77 6.4 17.75 11.54 4.73 5.1 4.62 12.67 2.97 19-1.77 6.4-5.3 12.23-6.17 18.88-.17-1.54-.75-2.95-1.46-4.27 1.15-4.27 2.84-8.35 4.36-12.5 1.78-4.24 2.03-8.93 1.28-13.43-1.24-6-7.18-9-12.2-11.42-7.64-3.48-15.22-7.36-21.43-13.1z" fill="#34ae83" stroke="#34ae83" class="B"/><path fill="#49b2ab" stroke="#49b2ab" d="M667.03 583c1.83.18 3.75.28 5.4 1.2l1.77.94-1.42 2.64 2.4 1.66 3.34-2.45-3.62-3.85c1.77.2 3.78.47 4.9 2.08 2.2 2.94 2.6 6.9 5.2 9.62l.07.12.94 2.28c2.84 1.6 6 2.36 9.18 2.97 10.08 1.98 20 6.05 27.64 13.04 4.25 4.78 6.7 10.82 10.07 16.2.78 1.22 2.08 1.96 3.18 2.88a25.21 25.21 0 0 1 .53.47c2.6 2.24 4.9 4.84 7.46 7.14-.75 2.12 1.33 3.65 3.28 2.84l3.42 2.2a76.79 76.79 0 0 0-.38 1.62l1.54 1.8c-5.45-1.75-9.48-5.96-14.2-8.94l-1.86.23c-.1-.1-.3-.27-.42-.36-2.02-4.34-5.8-7.36-9.1-10.68-2-2.1-4.63-3.3-7.22-4.4-3.43-5.95-10.3-9.9-17.2-9.1-1.73-.04-2.83 1.28-3.63 2.65-1.4-1.08-3-1.88-4.66-2.4l-1.28-.4c-1.56-.52-3.13-1.02-4.7-1.47-.47-3.12.33-7.5-3.4-8.78l-2.84 1.52-1.03-1.2c1.06-1.37-.15-2.6-.87-3.63-3.2-4.1-7.66-7.02-10.67-11.27-1.56-2.05-1.53-4.7-1.8-7.14z" class="B"/><path fill="#367d1e" stroke="#367d1e" d="M672.43 584.2c.8-.4 1.6-.8 2.47-1.06l3.62 3.85-3.34 2.45-2.4-1.66 1.42-2.64-1.77-.94z" class="B"/><path fill="#dcb992" stroke="#dcb992" d="M317.85 586.83l.88-.6c-.08 6.05.36 12.1.01 18.16-1.9-3.76-3.05-7.84-3.67-12l1.7-2.58c.23 1.84.55 3.67.9 5.5.5-2.8.57-5.68.2-8.5z" class="B"/><path fill="#e0ad70" stroke="#e0ad70" d="M311 587.12c1.93 1.54 1.6 4.17.04 5.83-.27-1.94-.4-3.9-.04-5.83z" class="B"/><path fill="#f1f0f2" stroke="#f1f0f2" d="M359.54 622.47c12.85-6.6 22.72-17.8 29.2-30.57-1.1 8.44-3.77 16.92-9.06 23.7-2.78 3.9-7.93 4.5-12.28 5.27-2.64.42-5.28.9-7.86 1.6z" class="B"/><path fill="#f7fcff" stroke="#f7fcff" d="M337.4 597.37c1.05-1.18 2.64-1.62 4.03-2.26-2.4 6.44-4.8 12.96-5.54 19.85-1.5-3.6-.53-7.47-.08-11.16.4-2.17.47-4.5 1.6-6.43z" class="B"/><path fill="#f2f2f2" stroke="#f2f2f2" d="M599.57 595.03c10.52-.85 20.92 1.68 31.42 1.85 6.36-.14 12.63 1.33 19 1.1 8.13.4 16.32 2.2 24.42.28 1 .92 1.93 1.94 2.8 3.02l-.03 1.72c-6.2 2.35-12.63 4-18.82 6.36-4.53 1.76-8 5.3-11.92 8.06-3.34 2.66-7.14 4.8-10.14 7.87-.54 4.96.28 9.95.43 14.93.77 12.7.84 25.46 1.6 38.2-5.15-.35-10.26-1.04-15.38-1.7-5.43-.86-10.68 1.16-15.92 2.25-4.13.83-8.03 2.54-11.53 4.86.2 5.13 1.76 10.08 2.75 15.1l-.06 2.35c-4.83.63-9.76.4-14.54 1.37-3.1 1.12-5.2 3.95-7.3 6.36-1.36 2.97-2.44 6.06-3.63 9.1l1.1 1.9a82.21 82.21 0 0 0-1.57.03l1.35 2.5c-1.98 1-3.94 2-5.87 3.1 2.86-.02 6.05-1.18 8.5.87l-2.4 1.56-.75-1.74c-3.26 1.1-6.68 1.97-10.14 1.57-3.8-.4-7.68-1.43-11.45-.23-4.13-3.33-9.73-2.84-14.62-2.04-2.53.4-4.78 1.7-6.75 3.27-.15.12-.44.38-.6.5-1.6.16-3.16.65-4.43 1.68l.42-2.98-2.25 1.17-1.27-.9-1 .84c-2.23-.8-4.58-1.32-6.96-1.23-12 .2-24.02-.06-36.03.14-2.74-.16-6.02.25-8.1-1.9-2.87-2.78-5.65-5.9-6.56-9.9l-6.85-.57-1.04-3.48c-9.07-.57-18.16.15-27.23-.37l-.48-8.03c-8.8 4.16-18.5 1.58-27.7.87l3.92-1.3-.06-7.14c-6.52-1.74-13.33-1.5-19.98-.88l8.25 1.13c-5.42.9-10.95.76-16.4.08 2.34-.5 4.72-.77 7.1-.94l.2-6.53-3.06-2.24-.25-6.76c-5.2-.25-10.38-.1-15.57-.2l-.42-7.43-3.56-1-.5-7.4c-2.5-.05-4.97-.05-7.46-.01l-.38 7.86-3.8.03c-.2-5.08.06-10.18-.28-15.26-1.55-.55-3.06-1.24-4.24-2.4 3.68-.35 7.5-.15 10.97-1.58-5.92-1.3-12.04-.62-18.05-.5l-.9 3.56a71.19 71.19 0 0 0-2.97.27l.01-3.6c-2.67-1.55-5.43-3.15-8.6-3.33-4.82-.32-9.17-2.86-14.02-2.9-5.68.04-10.72-2.87-16.07-4.33 1.46-.47 2.94-.92 4.38-1.46-3.44-.03-6.87.3-10.28.62-.1-2.6-.14-5.18-.16-7.77l-2.85 3.04c-1.68-2.13-3.8-3.94-5.15-6.3.8-1.97 2.8-3.2 3.6-5.2.9-1.53 1.24-3.56 2.84-4.56 2-.9 4.27-.86 6.27-1.74 1.7-1.24 3.02-2.92 4.46-4.44 6.13-.22 12.16-1.94 17.57-4.82 3.12 4.6 7 8.6 11.18 12.25-2.73.26-4.52-2.02-6.74-3.13-4 .9-7.55 3.08-11.5 4.16-3.64.85-5.35 4.58-8.42 6.4 3.24 1.72 4.7 5.3 7.54 7.42 11 5.02 23.35 5.67 35.26 5.95 8.1.78 16.02-1.5 23.97-2.63 2.42-.3 4.75-1.26 6.18-3.3l3.54.16c.34-.24 1-.73 1.33-.97-1.9-.62-3.78-1.2-5.68-1.75 5.3-1.36 10.33-3.58 15.2-6.1 3.8-2.1 8.32-1.56 12.3-.3.4-3.6-4.48-2.62-6.7-3.36 6.25-4.53 11.16-10.7 14.5-17.63 1.66-3.72 6.3-4.86 7.68-8.8 3.25-.1 6.5.52 9.75.4 3.15.1 6.7-.63 9.32 1.6-4.74.6-9.52.1-14.28.34-2.72.05-4.72 2.13-6.8 3.6l2.23 1.96-1.6 1.75c6.58 1.43 13.48-.33 19.92 1.68-2.82.93-5.78 1.15-8.72 1.22l.08 3.64c5.77-.35 10.95 3 16.75 2.4 1.22 5.4-3.1 10-1.85 15.37l3.06.4c-2.36 1.6-4.55 3.63-4.1 6.77 3.5.88 7.12 1.14 10.72.97l1.64-4.8c.87.62 1.8 1.22 2.5 2.08-.37 3.73-1.03 7.45-.8 11.22 3-.67 5.83-2.6 9-2.14 3.46.4 6.92.9 10.4 1.15-.53 5.67-.87 11.42-.07 17.1.74-2.65.9-5.4.93-8.14 5.5-.26 11-.3 16.48-.03l.36 7.65c7.2.38 14.42.35 21.62.08l.5-7.77c5.5-.18 10.98-.26 16.47.01.18 2.68.4 5.36.74 8.04 1.1-5.57.62-11.27.2-16.88 3.44-.27 6.87-.8 10.3-1.15 3.1-.4 5.94 1.32 8.9 2.02.27-5.25.34-10.5-.05-15.75l-4.68-.86a152.51 152.51 0 0 1 .01-7.41c5.2-.18 10.4-.02 15.6-.28l.57-7.7c5.8.73 10.9-2.64 16.64-2.48l-.12-3.53-8.1-.53c.48-.94 1.22-1.44 2.22-1.5 5.22-.46 10.48-.1 15.7.3l.86 5.73c2.6-4.2 3.4-10.4-.64-13.95-5.67-.96-11.5.5-17.14-.85 6.85-.84 13.77.17 20.62-.7-1.72-.92-3.5-1.76-5.25-2.57 6.7-.38 13.4 2.4 20 .7-1.5-.64-3-1.25-4.5-1.77m-8.77 14.05c3.12 4.75 11 4.23 14.04-.28-.1-2.95-4.02-5.07-6.82-4.75-3.36-.23-5.36 2.74-7.22 5.03z" class="B"/><path d="M685.05 594.96c2.57 3.52 7.16 3.8 11.05 4.76 5.7 1.23 11.16 3.26 16.5 5.54 3.46 2.3 7.05 4.4 10.62 6.53 4.43 2.7 7.2 7.24 9.53 11.74 2.33-1 4.72-2.5 7.38-1.86-.44 3.95-4.97 4.37-7.95 5.4 1.2 1.8 2.46 3.6 3.87 5.26-1.1-.92-2.4-1.66-3.18-2.88-3.38-5.38-5.82-11.42-10.07-16.2-7.65-7-17.56-11.06-27.64-13.04-3.18-.6-6.34-1.38-9.18-2.97l-.94-2.28zm59 44.98c1.23.76 2.35 1.7 3.28 2.84-1.95.8-4.03-.72-3.28-2.84z" fill="#488a26" stroke="#488a26" class="B"/><path fill="#eaf1fb" stroke="#eaf1fb" d="M344.66 622.03c10.08-5.5 18.84-13.28 26.26-22-2.44 6.27-6.44 11.95-11.9 15.93-4.43 3.56-10.06 5.02-14.75 8.16l-4.16.52c1.54-.85 3.07-1.7 4.56-2.62z" class="B"/><path d="M677.2 601.28l3.17 3.75 1.03 1.2c-.38 7.17 2.12 14.3.46 21.44l-3.9-.1-1.93 1.5.76 2.45c1.28 2.58 3.62 4.62 6.58 4.94 4.07.5 7.85 2.06 11.74 3.27 8.56.96 17.24-.76 25.8.54 5.26.85 9.77 3.83 14.3 6.44 7.46 4.18 15.62 6.84 23.7 9.53 4.37 1.37 7.1 5.3 10.6 7.98.75 4.5.5 9.2-1.28 13.43-6.42 1.78-12.1 5.47-18.53 7.24l-41.34-3.93-52.67-30.64c-6.6-7.8-12.5-16.18-18.53-24.44-.78 4.74-.4 9.56-.4 14.35-.15-4.98-.97-9.97-.43-14.93 3-3.07 6.8-5.2 10.14-7.87 3.92-2.76 7.4-6.3 11.92-8.06 6.2-2.37 12.63-4 18.82-6.36l.03-1.72zm35.4 3.98c13.72 1.54 27.14 4.97 40.77 7.17 2.77.63 6.22.52 8.08 3.07l16.7 21.37c4.52 6.2 10 11.7 14.02 18.23.18 5.06-.42 10.2-1.9 15.06l-.3-2.02c-6.3 2.13-12.2 5.3-18.5 7.38 1.65-6.34 1.76-13.92-2.97-19-4.98-5.15-12.04-7.38-17.75-11.54l-3.42-2.2c-.93-1.14-2.05-2.08-3.28-2.84-2.57-2.3-4.85-4.9-7.46-7.14 2.6-3.05 5.7-6.94 3.55-11.13-2.66-.63-5.05.86-7.38 1.86-2.32-4.5-5.1-9.03-9.53-11.74-3.57-2.14-7.16-4.23-10.62-6.53zM195.47 660c6.9-4.06 14.95-5.05 22.62-6.82 4.56-1.13 9.12.5 13.6 1.22 5.37 1.14 10.9 1.56 16.18 3.04 3.06 1.4 5.1 4.3 7.2 6.85-6.38 1.06-11.63 5.3-17.9 6.75-8.33-.06-16.76.6-25.04-.32-5.84-3.06-11.24-6.97-16.66-10.72zm51.73 21.82c.77-3.57 4.06-5.92 7.57-6.34 7.1-.05 14.23-.64 21.3.43 4.38.47 8.13 3 11.9 5.06-3.7 2.18-7.67 3.87-11.77 5.13-4.7.34-9.45.3-14.17.22-5.3.04-9.97-2.76-14.82-4.5zm359.82-2.87c5.24-1.1 10.5-3.1 15.92-2.25 5.12.67 10.23 1.36 15.38 1.7 4.16 1.78 7.12 5.37 10.85 7.85l.96 2.74-3.94 2.05-.95.44-2.6 1.03-1.34-1.46.58 1.8c-1.7.9-3.48 1.7-5.34 2.18-8.5-.15-17.06.6-25.5-.35-5.5-3.1-10.6-6.98-15.54-10.9 3.5-2.32 7.4-4.03 11.53-4.86zm-401.56 4.45c6.45-1.28 12.88-4 19.57-2.85 4.64.75 9.32 1.18 14 1.72 1.67.7 3.27 1.57 4.83 2.5l9.65 6.16c-6.16 3.12-12.28 7.56-19.5 7.28-8.43-.22-16.85.1-25.27-.2-4.34-3.54-8.73-7.02-13.47-9.98l-.98 2.14.1-2.92c3.8-.9 7.36-2.6 11.05-3.85zm575.18 12.06c6.5.4 12.77-2.62 19.3-1.52 5.93.95 12.62-.5 17.78 3.3l10.5 6.13c-3.54 2.75-7.77 4.33-11.8 6.17-5.75 2.73-12.28 1.2-18.4 1.57-4.48-.18-9.45 1-13.44-1.6l-15-9.25c3.67-1.64 7.27-3.46 11.07-4.8zm-182.4 3.44l1 2.6c6.53-.34 12.95 1.07 18.98 3.5l.4 1.77c-3.74 1.67-7.3 3.66-10.9 5.64a148.66 148.66 0 0 1-18.28.04c-4.36-1.2-8.7-2.5-13.1-3.48 2.1-2.4 4.2-5.24 7.3-6.36 4.78-.98 9.7-.74 14.54-1.37l.06-2.35zm-314.47 16.15c2.47-3.65 7.27-3.7 11.23-3.53 3.63.47 7.98.2 10.46 3.43-4.84 2.52-10.4 2.2-15.7 2.26-2.1-.4-4.03-1.35-6-2.16z" fill="#d7ccc8" stroke="#d7ccc8" class="B"/><path fill="#54c22a" stroke="#54c22a" d="M681.4 606.23l2.84-1.52c3.72 1.3 2.92 5.66 3.4 8.78l4.7 1.47-4.7-.34c-.87 5.1-.4 10.85-4.2 14.95-1.9 1.44-4.3 1.8-6.64 1.94l-.76-2.45 1.93-1.5 3.9.1c1.66-7.14-.84-14.27-.46-21.44z" class="B"/><path fill="#eaeeef" stroke="#eaeeef" d="M380.75 618.23l9.28-3.95c-5.97 8.48-15.95 14.66-26.53 14.3 6.75-1.62 11.92-6.24 17.25-10.35z" class="B"/><path fill="#dccccb" stroke="#dccccb" d="M683.43 629.57c3.8-4.1 3.34-9.84 4.2-14.95l4.7.34 1.28.4-.33 6.22c-1.9.1-5.14.1-4.76 2.87 2.47 2.63 6.23 3.1 9.35 4.6-4.3 2.3-10.12 2.86-14.46.5z" class="B"/><path fill="#419121" stroke="#419121" d="M693.63 615.36c1.67.53 3.26 1.33 4.66 2.4l.37.9-1.8-.67c-.37 1.83-.8 3.66-1.4 5.45l-3.32 1.98-3.6-.98c-.38-2.76 2.87-2.77 4.76-2.87l.33-6.22z" class="B"/><path fill="#59c12f" stroke="#59c12f" d="M698.3 617.77c.8-1.37 1.9-2.7 3.63-2.65 6.92-.8 13.78 3.16 17.2 9.1l-2.84 3.02-2.37.15c1.23 1.46 2.53 2.9 3.5 4.57.86 2.58-2.46 3.15-4.2 3.54-5.96.8-12.02.92-18 .43l.23-2.7c4.88-1.2 9.98-.44 14.9-1.44-2.76-2.57-5.75-4.87-8.58-7.33-1.3-1.8-2.32-3.75-3.1-5.8-.1-.23-.28-.67-.37-.9z" class="B"/><path fill="#e2cfd1" stroke="#e2cfd1" d="M696.85 618l1.8.67c.77 2.06 1.8 4 3.1 5.8-2.12-.2-4.23-.58-6.3-1.03.6-1.8 1.03-3.62 1.4-5.45z" class="B"/><path fill="#ded6d4" stroke="#ded6d4" d="M359.54 622.47c2.58-.7 5.22-1.17 7.86-1.6l.02 1.74c2-.68 4.04-1.2 6.13-1.56-2.66 3.23-6.8 4.45-10.6 5.72-7.1 2.35-14.85 2.47-22.13.93 3.8-1.14 7.77-1.4 11.65-2.17 2.58-.45 4.67-2.15 7.08-3.07z" class="B"/><path fill="#c2b5b6" stroke="#c2b5b6" d="M740.14 621.67c2.16 4.2-.94 8.08-3.55 11.13a25.21 25.21 0 0 0-.53-.47c-1.4-1.66-2.68-3.45-3.87-5.26 2.98-1.03 7.5-1.45 7.95-5.4z" class="B"/><path fill="#c2b6b5" stroke="#c2b6b5" d="M692.13 625.43l3.32-1.98c2.07.45 4.18.82 6.3 1.03 2.83 2.46 5.82 4.76 8.58 7.33-4.92 1-10.02.23-14.9 1.44l-.23 2.7c6 .5 12.05.36 18-.43 1.75-.4 5.07-.96 4.2-3.54-.97-1.68-2.27-3.1-3.5-4.57l2.37-.15c1.88-.12 3.76-.4 5.66-.57 4.43 4.28 8.56 8.9 13.5 12.64.1.1.3.27.42.36 6.2 5.75 13.8 9.63 21.43 13.1 5 2.43 10.95 5.42 12.2 11.42-3.5-2.7-6.22-6.6-10.6-7.98-8.07-2.7-16.23-5.35-23.7-9.53-4.53-2.6-9.04-5.6-14.3-6.44-8.55-1.3-17.23.42-25.8-.54-3.9-1.2-7.67-2.77-11.74-3.27-2.96-.32-5.3-2.36-6.58-4.94 2.33-.15 4.73-.5 6.64-1.94 4.34 2.35 10.16 1.78 14.46-.5-3.12-1.52-6.88-1.98-9.35-4.6l3.6.98z" class="B"/><path fill="#46ae6f" stroke="#46ae6f" d="M716.3 627.25l2.84-3.02c2.6 1.1 5.23 2.32 7.22 4.4 3.28 3.32 7.07 6.34 9.1 10.68-4.93-3.73-9.06-8.36-13.5-12.64-1.9.17-3.78.45-5.66.57z" class="B"/><path d="M636.73 640.22c.01-4.8-.38-9.6.4-14.35 6.02 8.26 11.94 16.63 18.53 24.44-1.35 6.83-.28 13.8-.6 20.7-.38 6.9 1.77 13.92-.3 20.7-2.22-4.66-4.4-9.46-7.95-13.3.65 2.64 1.44 5.25 2.35 7.83-3.73-2.48-6.7-6.07-10.85-7.85-.75-12.73-.82-25.48-1.6-38.2zm-448.6 29.32c2.48-3.16 4.44-6.74 7.34-9.55 5.42 3.75 10.82 7.66 16.66 10.72 8.28.9 16.7.26 25.04.32l.16.8c-8.58.66-17.28-.47-25.8.64-2.15 3.56-4.2 7.2-6.07 10.93-3.7 1.26-7.24 2.95-11.05 3.85-1.84-.2-3.78-.3-5.47-1.1-2.14-2.13-3.63-4.8-5.33-7.24-4.12 3.5-9.6 2.34-14.56 2.47-3.84.26-6.43-3.13-9.17-5.3.88-2.1 1.83-4.18 2.83-6.22 6.56 3.6 14.96 3.52 21.7.43l1.8 1.87 1.92-2.62zm520.2 11.4c13.73 1.7 27.55 2.76 41.34 3.93-2.12 7.17-5.26 14-7.76 21.03-2 5.78-5.13 11.23-5.83 17.4-1.63-.68-3.32-1.33-5.1-1.27-12.37-.13-24.75.23-37.1-.16.9-6.57 4.08-12.48 6.43-18.6 3.2-7.26 5.7-14.78 8.03-22.33zm-513.05 7.07c4.74 2.96 9.13 6.44 13.47 9.98l.14.82c.85 4.76 1.33 9.58 1.48 14.42.07 1.8-1.7 2.9-2.57 4.3-6.2-4.1-12.94-7.28-19.04-11.48 1.98-5.26 3.3-10.76 5.54-15.9l.98-2.14zm624.7 2c6.03 1.93 11.82 5.1 18.3 5.12-1.38.35-2.75.77-4.1 1.2-.3 4.16-.33 8.34-.15 12.5 5.46.83 11.04 1.23 16.5.04.8-4.6 1.85-9.93-1.2-13.93 4.98-.46 9.3-3.15 13.88-4.9l.5-.2c.54 4.25.96 8.53 1.12 12.82-6.24 2.54-11.64 8.43-18.86 7.38-5.44-.75-11.4 1.15-16.25-2.2.7 4.5 1.92 8.9 2.78 13.37l-19.33 7.32c-1.23-5.4-.5-10.94-.58-16.4a237.99 237.99 0 0 0-25.34.02c-.22 5.6-1.45 11.05-2.23 16.57l5.3.88c-1.96.28-4.08.95-5.94-.06-7-3.28-13.63-7.27-20.53-10.75l.32-1.44 4.18-16.58 1.23-.53c4.9 3.22 10 6.17 15 9.25 4 2.6 8.96 1.4 13.44 1.6 6.1-.36 12.64 1.16 18.4-1.57 4.03-1.84 8.26-3.42 11.8-6.17l-10.5-6.13 2.26-7.2zm-201.78 15l1.5.57c.75 2.22 1.2 4.52 1.6 6.83l1.23 7.64c-4.97 2.34-9.76 5.06-14.77 7.3-.32-4.97.3-9.95-.04-14.93 3.58-1.98 7.15-3.97 10.9-5.64l-.4-1.77zM576.34 709c4.4.97 8.74 2.27 13.1 3.48-.66 4.26-2.1 8.37-2.52 12.67l-1.24 2.06c-3.98-2.36-7.57-5.4-11.86-7.2l-1.1-1.9c1.2-3.05 2.27-6.14 3.63-9.1z" fill="#bdaaa4" stroke="#bdaaa4" class="B"/><path fill="#ffda80" stroke="#ffda80" d="M183.7 642.93c.3 5.25-1.72 10.5-.42 15.7-1.2 2.73-3.1 5.4-2.8 8.52-2.4-.34-4.8-.52-7.22-.7-.1-.25-.34-.75-.46-1l-4.9-11.56c2.48 1.88 4.33 4.4 6.47 6.63-.62-3.66-1.9-7.55-4.82-10.04.3-.01.87-.01 1.16-.01 2.6 2.9 4.64 6.23 6.75 9.5.05-3.5-.72-6.9-1.85-10.18a143.48 143.48 0 0 1-1.1-3.92c1.93 2.8 3.47 5.8 5.1 8.76 1.35-3.9 2.6-7.85 4.08-11.7z" class="B"/><path fill="#ffcb64" stroke="#ffcb64" d="M183.28 658.64c2.04-4.42 4.33-8.9 8.22-11.98a47.3 47.3 0 0 0-4.62 10.1c-1.9 3.8-.8 8.77-4.42 11.68l-1.97-1.28c-.3-3.13 1.6-5.8 2.8-8.52z" class="B"/><path d="M655.07 671c.3-6.9-.76-13.87.6-20.7l52.67 30.64c-2.34 7.55-4.84 15.07-8.03 22.33-2.35 6.1-5.54 12.02-6.43 18.6 12.36.4 24.74.03 37.1.16 1.78-.06 3.47.6 5.1 1.27-6.66.77-13.37.15-20.05.35-7.97-.2-15.98.38-23.93-.24-7.36-2.1-14.5-4.93-21.76-7.34.42-8.8 3.3-17.3 7.53-25-4.3 3.76-6.96 8.88-10.08 13.57.9-6.14 2.82-12.07 5.58-17.62-.17-.22-.52-.64-.7-.86-3.9 5.75-6.97 11.97-9.85 18.27.04-8.92.8-17.85 2.73-26.55-3.86 6.34-6 13.53-7.9 20.66-.9-2.3-1.9-4.57-2.9-6.83 2.07-6.8-.08-13.8.3-20.7zm-443.54 1.46c8.52-1.1 17.22.02 25.8-.64.73 3.44 1.26 6.93 1.7 10.44-4.68-.54-9.36-.97-14-1.72-6.7-1.14-13.12 1.57-19.57 2.85 1.86-3.73 3.92-7.37 6.07-10.93zm32.33 12.3l3.33-2.95c4.85 1.74 9.5 4.54 14.82 4.5 4.72.07 9.46.12 14.17-.22l.13 15.1c-6.73.32-13.48.03-20.22.12-.64-3.5-1.13-7.1-2.58-10.38-3.18-2.12-6.43-4.1-9.65-6.16zm354.38 14.13c-1-5.02-2.54-9.97-2.75-15.1 4.95 3.9 10.04 7.8 15.54 10.9 8.44.94 17 .2 25.5.35.78 5.8-1.05 11.5-1.36 17.3-4.62.32-9.25.14-13.87.07-.4-2.3-.84-4.6-1.6-6.83l-1.5-.57c-6.03-2.43-12.45-3.84-18.98-3.5a76.73 76.73 0 0 1-.99-2.61zm240.04-3.75c3.68-.1 7.37.04 11.05-.18 3.05 4 2 9.34 1.2 13.93-5.46 1.2-11.04.8-16.5-.04-.18-4.17-.14-8.35.15-12.5 1.35-.43 2.72-.85 4.1-1.2zm-627.9 18.1c-.15-4.84-.63-9.66-1.48-14.42 9.56.42 19.14-.23 28.7.36.1 6.33-.23 12.67.18 19l.03.56-25.8.02c-1.5.07-2.87-.64-4.2-1.2.86-1.4 2.64-2.5 2.57-4.3zm576.88-1.07c8.43-.46 16.9-.46 25.34-.02.07 5.47-.65 11 .58 16.4-7.6.68-15.23 1.02-22.86 1.06-1.78-.24-3.54-.58-5.3-.88.78-5.52 2-10.98 2.23-16.57z" fill="#b7a09a" stroke="#b7a09a" class="B"/><path fill="#ffd07f" stroke="#ffd07f" d="M186.53 660.74l5.58-6.87c-1.43 5.2-3.9 10.17-3.98 15.67l-1.92 2.62-1.8-1.87c-.63-.65-1.28-1.26-1.95-1.85 3.6-2.9 2.52-7.88 4.42-11.68l-.35 3.98z" class="B"/><path d="M237.17 671.03c6.28-1.46 11.53-5.7 17.9-6.75.2 3.73-.06 7.47-.32 11.2-3.5.42-6.8 2.77-7.57 6.34l-3.33 2.95c-1.56-.94-3.16-1.8-4.83-2.5-.44-3.5-.97-7-1.7-10.44l-.16-.8zm534.3 4.5c6.3-2.1 12.2-5.25 18.5-7.38l.3 2.02c-1.44 4.25-3.32 8.34-4.72 12.6-1.52 4.27-2.98 8.58-4.92 12.7-3.8 1.34-7.4 3.16-11.07 4.8l-1.23.53-4.18 16.58c-6.68 1.3-13.3 2.93-19.9 4.48-2.73.5-5.44 1.06-8.17 1.45.7-6.16 3.84-11.6 5.83-17.4 2.5-7.04 5.64-13.86 7.76-21.03 6.43-1.77 12.1-5.46 18.53-7.24-1.52 4.14-3.2 8.22-4.36 12.5l-.14.52c-.63 2.73-.7 5.6-1.7 8.24-1.28 2.02-3.4 3.3-5.13 4.93 4.1-.4 7.7-3.53 8.1-7.72l.33-1.7c.86-6.65 4.4-12.5 6.17-18.88zm-483.52 5.45c2.32 3.9 2.34 8.6 3.06 12.95-4.9 2.43-9.72 5-14.7 7.27l-.13-15.1c4.1-1.26 8.08-2.95 11.77-5.13zm-34.45 9.96c1.45 3.28 1.94 6.87 2.58 10.38.38 2 .84 4 1.33 5.98-5.44 3.7-11.45 6.45-17.02 9.94l-2.63.95c-.4-6.33-.08-12.67-.18-19-9.56-.6-19.14.06-28.7-.36l-.14-.82c8.42.3 16.84-.01 25.27.2 7.2.28 13.33-4.16 19.5-7.28z" fill="#ccbdb8" stroke="#ccbdb8" class="B"/><path fill="#d6ccc9" stroke="#d6ccc9" d="M172.8 665.46l.46 1 7.22.7 1.97 1.28 1.95 1.85c-6.74 3.1-15.14 3.17-21.7-.43 2.9-2.48 6.77-2.8 10.1-4.4z" class="B"/><path fill="#ffe282" stroke="#ffe282" d="M657.67 698.55c1.9-7.13 4.03-14.32 7.9-20.66-1.93 8.7-2.7 17.63-2.73 26.55-.62 1.74-1.26 3.48-1.8 5.26-1.53-3.6-2.72-7.3-3.35-11.15z" class="B"/><path fill="#ffd380" stroke="#ffd380" d="M646.82 678.43c3.54 3.83 5.73 8.63 7.95 13.3l2.9 6.83c.63 3.84 1.82 7.56 3.35 11.15.46 4.43.84 8.9.68 13.36l2.96-.18c-.83-6.27.37-12.56 3.13-18.23 3.12-4.7 5.77-9.8 10.08-13.57-4.22 7.68-7.1 16.18-7.53 25-.44 2.08.37 5.47-2.32 6.2-3.26 1.3-6.6 2.42-10.07 2.98-2.6-.2-4.97-1.38-7.42-2.17-1.2-5.1-1-10.44-2.54-15.48-1.24-5.22-3.45-10.1-6.12-14.73l-.58-1.8 1.34 1.46c3.13 3.54 5.23 7.84 8.2 11.5-1.22-4.43-2.97-8.74-5.58-12.54l.95-.44c2.8 4.4 5.22 9 8.26 13.25-1.37-5.12-2.64-10.27-4.32-15.3l-.96-2.74c-.9-2.58-1.7-5.2-2.35-7.83z" class="B"/><path fill="#d6ccc8" stroke="#d6ccc8" d="M827 684.94c8.58-1.78 17.37-.97 26 .06 3.65 1.07 7.1 2.87 10.23 5.06-4.58 1.76-8.9 4.45-13.88 4.9-3.68.22-7.37.1-11.05.18-6.48-.03-12.27-3.2-18.3-5.12 2.23-1.8 4.26-4.06 7-5.1z" class="B"/><path fill="#ffcb63" stroke="#ffcb63" d="M672.68 686.17l.7.86c-2.76 5.55-4.7 11.48-5.58 17.62-2.76 5.67-3.96 11.96-3.13 18.23l-2.96.18c.16-4.47-.22-8.93-.68-13.36.55-1.78 1.2-3.52 1.8-5.26 2.88-6.3 5.96-12.52 9.85-18.27z" class="B"/><path fill="#b9a9ac" stroke="#b9a9ac" d="M646.2 691.05l3.94-2.05c1.68 5.03 2.95 10.18 4.32 15.3-3.04-4.24-5.46-8.86-8.26-13.25z" class="B"/><path fill="#3faf95" stroke="#3faf95" d="M763.84 690.13c.7 1.32 1.3 2.73 1.46 4.27l-.33 1.7c-1.63-1.33-1.54-3.6-1.27-5.45l.14-.52z" class="B"/><path fill="#76b27d" stroke="#76b27d" d="M762 698.9c.98-2.64 1.06-5.5 1.7-8.24-.27 1.86-.36 4.12 1.27 5.45-.38 4.2-4 7.33-8.1 7.72 1.72-1.63 3.85-2.9 5.13-4.93z" class="B"/><path fill="#ccb19c" stroke="#ccb19c" d="M642.63 692.52l2.6-1.03c2.6 3.8 4.36 8.1 5.58 12.54-2.96-3.67-5.06-7.97-8.2-11.5z" class="B"/><path fill="#bcaaa5" stroke="#bcaaa5" d="M641.87 692.87c2.67 4.62 4.88 9.5 6.12 14.73-4.3 1.53-8.46 3.4-12.82 4.75.3-5.8 2.14-11.5 1.36-17.3 1.86-.5 3.63-1.27 5.34-2.18z" class="B"/><path fill="#b79f9a" stroke="#b79f9a" d="M589.44 712.47a148.66 148.66 0 0 0 18.28-.04c.35 4.98-.28 9.96.04 14.93-7.35.26-14.76.5-22.08-.16l1.24-2.06c.4-4.3 1.86-8.4 2.52-12.67z" class="B"/><path fill="#b8a29b" stroke="#b8a29b" d="M283.77 715.05c1.96.8 3.9 1.75 6 2.16 3 .44 6.06.56 9.1.78l1.2 8.2c-3.7.06-7.4.34-11.08-.07-2.76-1.34-5.14-3.33-7.7-4.97.87-2.02 1.73-4.04 2.5-6.1z" class="B"/><path fill="#cdbcb8" stroke="#cdbcb8" d="M289.76 717.2c5.3-.06 10.86.26 15.7-2.26l.73-.3 1.4 7.58c-2.4 1.52-4.97 2.76-7.55 3.95l-1.2-8.2c-3.03-.22-6.08-.34-9.1-.78z" class="B"/><path fill="#d7ccc7" stroke="#d7ccc7" d="M536.86 725.6c4.9-.8 10.5-1.3 14.62 2.04l.87 1.2c-6.8 3.36-15.54 3.77-22.24.02 1.97-1.58 4.22-2.87 6.75-3.27z" class="B"/><path fill="#b7a19c" stroke="#b7a19c" d="M530.1 728.88c6.7 3.75 15.45 3.34 22.24-.02 1.1 1.98 1.82 4.15 2.46 6.33-2.73 1.4-5.27 3.18-8.12 4.33-2.9.54-5.86-.04-8.74-.37-3.98-.4-7.02-3.2-10.25-5.27.6-1.5 1.17-3.02 1.82-4.5l.6-.5z" class="B"/></svg>