<?xml version="1.0" encoding="UTF-8" ?>
<!DOCTYPE svg PUBLIC "-//W3C//DTD SVG 1.1//EN" "http://www.w3.org/Graphics/SVG/1.1/DTD/svg11.dtd">
<svg width="961pt" height="1500pt" viewBox="0 0 961 1500" version="1.1" xmlns="http://www.w3.org/2000/svg">
<g id="#0f0b19ff">
<path fill="#0f0b19" stroke="#0f0b19" stroke-width="0.09375" opacity="1.00" d=" M 0.00 0.00 L 961.00 0.00 L 961.00 652.14 C 802.11 652.15 643.23 652.14 484.34 652.15 C 484.22 684.25 484.37 716.36 484.25 748.46 C 493.93 750.09 503.17 754.98 509.08 762.96 C 517.47 773.72 518.64 789.00 513.17 801.34 C 517.52 802.61 521.86 803.89 526.18 805.23 C 527.27 813.80 527.32 823.44 521.70 830.58 C 517.56 836.15 510.63 838.26 504.17 839.75 C 505.26 853.23 506.85 866.66 508.81 880.04 C 509.36 885.25 512.69 889.71 512.97 894.97 C 513.22 898.71 513.51 902.50 514.98 906.00 C 521.10 922.14 526.00 938.82 528.54 955.92 C 530.82 970.51 530.73 985.34 530.04 1000.05 C 528.96 1017.28 525.30 1034.62 517.03 1049.90 C 512.45 1058.12 511.83 1067.77 512.74 1076.96 C 515.21 1114.00 526.43 1149.63 536.44 1185.15 C 538.20 1195.42 540.84 1205.56 541.76 1215.96 C 546.17 1260.54 548.74 1305.28 551.95 1349.95 C 552.02 1363.94 552.94 1377.93 552.25 1391.92 C 551.64 1402.96 552.49 1414.04 551.60 1425.07 C 550.57 1433.86 551.43 1442.74 550.25 1451.53 C 549.81 1467.76 548.04 1483.92 545.76 1500.00 L 536.04 1500.00 C 537.73 1490.71 538.48 1481.26 539.80 1471.91 C 541.07 1459.58 543.14 1447.31 543.27 1434.90 C 544.33 1409.96 543.80 1384.99 543.06 1360.06 C 543.04 1351.34 543.09 1342.62 542.45 1333.92 C 541.73 1326.64 542.32 1319.32 541.70 1312.04 C 540.70 1303.74 541.33 1295.36 540.15 1287.08 C 539.11 1257.95 533.55 1229.23 530.47 1200.30 C 529.31 1196.19 527.79 1192.19 527.02 1187.99 C 520.05 1151.80 510.90 1115.89 507.99 1079.05 C 507.71 1072.33 506.83 1065.54 507.98 1058.87 C 509.13 1052.24 513.22 1046.70 515.47 1040.47 C 520.77 1026.26 522.69 1011.05 523.66 995.99 C 525.00 966.14 522.02 935.57 510.66 907.70 C 509.06 910.00 507.53 912.34 505.99 914.69 C 507.91 922.36 510.50 930.04 510.49 938.03 C 510.52 943.08 508.17 947.69 505.24 951.65 C 506.31 956.72 507.00 962.08 505.45 967.13 C 503.64 973.27 499.63 978.47 495.17 982.95 C 500.18 987.17 504.38 992.51 506.36 998.82 C 508.29 1004.37 508.44 1010.29 508.86 1016.09 C 507.52 1008.91 506.06 1001.41 501.60 995.41 C 498.94 991.52 495.14 988.64 491.18 986.19 C 488.11 988.04 484.93 989.70 481.71 991.28 C 482.71 992.31 483.73 993.30 484.77 994.33 C 480.58 991.78 475.86 990.18 470.93 990.07 C 470.31 991.87 469.70 993.68 469.07 995.49 C 469.03 990.81 470.31 984.93 467.09 981.14 C 461.06 981.36 455.01 981.41 449.02 980.45 C 456.70 979.36 464.63 978.50 471.59 974.81 C 477.58 971.83 482.45 967.15 487.28 962.62 C 485.23 966.64 482.87 970.50 480.03 974.01 C 482.02 974.97 484.03 975.95 486.03 976.92 C 483.47 976.47 480.92 975.97 478.40 975.40 C 476.19 976.93 473.90 978.32 471.54 979.59 C 471.68 982.24 471.67 984.90 471.52 987.56 C 474.40 988.05 477.22 988.84 479.94 989.93 C 486.71 985.16 493.55 979.95 497.67 972.58 C 501.76 965.33 503.19 956.06 499.73 948.30 C 496.75 942.79 492.67 937.99 488.98 932.97 C 486.11 928.89 482.33 924.83 477.08 924.29 C 467.89 923.38 458.76 926.05 450.20 929.15 C 439.92 933.07 430.33 938.48 420.75 943.84 C 415.85 946.65 410.24 948.13 404.59 948.15 C 409.16 946.72 413.95 945.71 418.06 943.13 C 421.73 940.82 425.21 938.23 428.88 935.91 C 442.39 927.10 457.93 920.98 474.10 919.77 C 478.53 919.38 483.28 920.20 486.70 923.25 C 493.88 929.49 498.26 938.12 503.38 945.97 C 507.64 940.49 505.82 933.12 504.65 926.90 C 503.02 920.42 502.45 913.30 498.22 907.84 C 493.71 902.01 489.09 896.27 484.35 890.64 C 481.22 887.01 478.27 882.70 473.43 881.29 C 466.05 878.72 458.29 881.17 451.14 883.31 C 431.67 889.41 414.74 901.33 399.05 914.05 C 394.39 917.68 390.45 922.18 385.45 925.38 C 381.48 927.99 376.98 930.14 374.14 934.09 C 370.03 939.68 369.40 947.17 371.17 953.72 C 372.97 960.32 376.80 966.08 380.02 972.05 C 385.80 981.92 388.40 993.22 393.73 1003.31 C 398.95 1014.49 406.82 1024.33 411.00 1036.00 C 414.37 1047.54 415.71 1059.55 416.86 1071.48 C 418.78 1097.63 417.30 1123.88 415.11 1149.96 C 413.71 1165.32 412.53 1180.72 410.09 1195.96 C 406.68 1216.53 404.18 1237.23 401.95 1257.96 C 399.32 1281.94 396.60 1305.92 394.95 1329.99 C 393.66 1344.65 393.15 1359.36 392.07 1374.05 C 392.06 1385.06 390.60 1396.01 390.91 1407.04 C 390.10 1418.01 390.36 1429.01 390.93 1439.99 C 390.65 1455.34 392.18 1470.65 391.94 1486.01 C 391.84 1490.70 392.51 1495.35 393.11 1500.00 L 384.22 1500.00 C 381.45 1487.53 380.42 1474.75 379.15 1462.07 C 379.00 1450.35 377.19 1438.63 378.62 1426.92 C 379.42 1401.54 382.35 1376.29 384.11 1350.97 C 386.11 1326.60 388.09 1302.22 390.39 1277.87 C 393.00 1251.48 395.28 1225.00 400.15 1198.90 C 407.55 1151.72 415.98 1103.74 409.99 1055.90 C 408.68 1046.73 406.36 1037.54 401.54 1029.54 C 395.49 1019.35 389.31 1009.16 384.95 998.10 C 382.06 991.05 379.78 983.69 375.90 977.10 C 372.65 971.49 369.02 965.99 367.23 959.71 C 366.21 956.41 365.98 952.93 364.95 949.65 C 363.44 946.10 360.79 943.19 359.16 939.69 C 354.49 930.41 354.98 919.15 358.96 909.72 C 360.49 905.94 363.47 903.04 365.45 899.53 C 366.57 894.84 366.46 889.84 368.38 885.34 C 372.51 875.24 381.35 868.17 386.57 858.72 C 393.19 846.96 399.87 835.23 406.54 823.50 C 408.80 819.57 410.82 815.34 414.31 812.32 C 418.06 809.00 422.81 807.20 427.42 805.41 C 433.27 803.17 439.06 800.75 444.88 798.42 C 441.65 788.76 441.82 777.80 446.62 768.68 C 451.91 757.83 462.83 750.46 474.63 748.53 C 474.70 716.43 474.63 684.34 474.65 652.25 C 316.43 652.01 158.22 652.21 0.00 652.15 L 0.00 0.00 M 477.97 652.14 C 477.75 652.65 477.30 653.69 477.08 654.20 C 477.95 654.20 478.93 654.03 479.75 654.49 C 478.44 655.65 477.46 657.06 476.81 658.71 C 477.86 658.53 478.93 658.41 480.00 658.37 C 478.24 660.00 477.30 662.01 477.18 664.40 C 479.11 662.81 480.92 661.05 482.16 658.85 C 481.28 658.33 480.41 657.83 479.56 657.29 C 480.83 656.30 481.77 655.04 482.40 653.52 C 480.92 653.03 479.47 652.50 477.97 652.14 M 477.24 669.05 C 479.44 667.24 482.16 665.38 481.74 662.13 C 479.51 663.91 476.76 665.74 477.24 669.05 M 477.54 670.36 C 477.54 671.22 477.54 672.93 477.54 673.78 C 479.58 671.90 481.88 669.98 481.96 666.97 C 480.42 668.02 478.98 669.20 477.54 670.36 M 477.09 676.27 L 477.10 676.94 C 477.49 677.63 477.91 678.31 478.37 678.98 C 477.79 680.30 477.40 681.69 477.18 683.14 C 479.34 681.41 481.76 679.61 482.08 676.62 L 479.97 677.22 L 480.40 678.45 C 479.70 678.03 479.01 677.61 478.33 677.20 C 480.45 675.88 482.12 674.10 481.84 671.37 C 480.09 672.81 478.20 674.22 477.09 676.27 M 477.27 687.83 C 479.47 685.98 481.94 684.01 481.96 680.86 C 479.53 682.55 476.72 684.40 477.27 687.83 M 477.49 689.29 C 477.49 690.09 477.49 691.69 477.50 692.49 C 479.50 690.54 482.16 688.77 481.86 685.55 C 480.35 686.73 478.91 688.00 477.49 689.29 M 477.24 697.25 C 479.45 695.43 482.18 693.57 481.77 690.31 C 479.53 692.08 476.76 693.93 477.24 697.25 M 477.23 701.95 C 479.50 700.20 482.05 698.26 481.84 695.06 C 479.53 696.78 476.81 698.62 477.23 701.95 M 476.92 705.12 C 477.78 705.63 478.65 706.18 479.51 706.75 C 479.02 707.20 478.04 708.10 477.55 708.55 L 477.35 711.44 C 479.18 709.80 480.97 708.06 482.14 705.86 C 481.23 705.33 480.34 704.81 479.46 704.26 C 479.97 703.75 480.98 702.73 481.49 702.22 L 481.72 699.60 C 479.79 701.13 477.94 702.83 476.92 705.12 M 477.27 715.94 C 479.43 714.10 482.06 712.21 481.83 709.01 C 479.49 710.72 476.76 712.61 477.27 715.94 M 477.62 717.26 C 477.57 717.84 477.46 718.99 477.41 719.56 C 478.14 719.95 478.87 720.36 479.60 720.78 L 477.98 721.62 C 477.82 722.57 477.51 724.47 477.35 725.41 C 479.20 723.78 480.98 722.03 482.16 719.84 C 481.23 719.31 480.33 718.78 479.44 718.23 L 480.96 717.35 C 481.19 716.46 481.66 714.67 481.90 713.77 C 480.43 714.88 479.02 716.07 477.62 717.26 M 477.48 726.84 C 477.49 727.66 477.52 729.29 477.53 730.10 C 479.50 728.14 481.99 726.32 481.91 723.22 C 480.37 724.35 478.92 725.59 477.48 726.84 M 481.80 727.73 C 480.36 728.88 478.98 730.10 477.59 731.32 C 477.55 731.88 477.47 733.01 477.43 733.57 C 478.14 733.94 478.85 734.32 479.56 734.73 C 477.40 735.48 477.38 737.50 477.36 739.43 C 479.24 737.85 481.01 736.10 482.15 733.90 C 481.24 733.34 480.35 732.80 479.48 732.23 C 481.70 731.73 481.43 729.39 481.80 727.73 M 477.16 743.98 C 478.62 742.79 480.05 741.57 481.47 740.34 C 481.50 739.25 481.53 738.18 481.57 737.12 C 479.44 738.95 476.84 740.75 477.16 743.98 M 477.48 745.57 C 477.49 746.55 477.51 747.53 477.56 748.52 C 478.35 747.82 479.92 746.41 480.70 745.71 C 480.50 746.55 480.09 748.24 479.89 749.08 C 482.75 747.70 481.29 744.36 481.57 741.97 C 480.17 743.13 478.84 744.37 477.48 745.57 M 455.20 760.61 C 462.81 756.28 470.99 751.87 480.03 752.26 C 488.80 752.05 496.60 756.51 504.08 760.51 C 498.50 753.16 488.82 750.15 479.91 749.84 C 470.82 750.03 460.80 752.98 455.20 760.61 M 455.98 774.04 C 452.74 780.41 452.95 787.90 454.86 794.63 C 457.46 793.35 457.94 790.40 458.99 788.01 C 460.47 784.17 462.81 780.64 465.92 777.93 C 474.20 770.78 488.03 771.56 495.55 779.47 C 500.21 784.21 501.53 790.97 502.71 797.27 C 505.72 791.72 506.69 785.09 504.99 778.99 C 502.41 768.13 492.22 759.66 481.06 759.21 C 470.71 758.46 460.37 764.68 455.98 774.04 M 472.78 778.80 C 467.50 780.86 464.39 786.04 462.64 791.18 C 474.87 787.94 486.48 794.12 498.14 796.85 C 497.68 791.45 495.91 785.86 491.90 782.04 C 486.85 777.42 479.07 776.49 472.78 778.80 M 461.99 796.51 C 450.76 800.94 439.76 805.93 428.60 810.51 C 422.77 812.83 417.43 816.69 414.17 822.14 C 405.51 836.60 398.12 851.82 389.03 866.03 C 383.45 875.11 373.78 882.28 372.67 893.57 C 388.78 883.49 401.79 869.48 415.70 856.72 C 422.82 850.35 430.05 843.87 438.58 839.47 C 446.60 835.35 456.44 834.43 464.74 838.30 C 467.68 840.22 469.92 836.58 472.25 835.24 C 471.19 833.19 470.19 831.11 469.33 828.98 C 471.35 830.81 473.31 832.89 476.02 833.68 C 484.42 836.34 493.38 837.69 502.18 836.61 C 508.48 835.73 515.05 833.32 518.93 828.00 C 522.87 822.79 523.09 815.91 522.30 809.69 C 514.78 807.39 507.27 805.02 499.69 802.92 C 499.53 805.54 499.05 808.34 500.22 810.83 C 501.73 814.47 505.17 816.63 508.14 818.97 C 504.11 817.31 499.47 815.72 497.25 811.66 C 495.43 808.65 495.51 805.01 495.75 801.64 C 484.79 798.70 473.53 792.91 461.99 796.51 M 470.20 841.02 C 472.28 842.51 474.20 844.69 476.93 844.89 C 481.47 845.60 486.06 845.96 490.63 846.47 C 486.84 846.88 483.03 847.03 479.24 847.39 C 483.29 851.44 487.73 855.10 491.40 859.53 C 496.05 864.52 499.62 870.38 504.17 875.45 C 503.26 863.66 501.74 851.91 501.01 840.10 C 492.34 840.41 483.69 839.22 475.30 837.08 C 473.60 838.40 471.89 839.69 470.20 841.02 M 420.44 859.38 C 407.96 870.26 396.15 881.91 383.18 892.24 C 376.62 897.87 368.93 902.70 364.53 910.39 C 359.59 919.39 360.12 931.01 365.55 939.69 C 367.04 935.98 368.22 932.00 371.00 929.01 C 375.44 924.18 381.63 921.64 387.01 918.10 C 392.73 914.26 397.74 909.52 403.07 905.18 C 417.50 893.65 433.56 883.85 451.22 878.16 C 459.15 875.48 468.07 873.60 476.14 876.78 C 481.91 878.84 485.65 883.94 489.40 888.48 C 494.61 894.73 499.45 901.26 504.12 907.93 C 506.90 904.29 508.85 899.63 507.52 895.02 C 507.08 889.45 503.71 884.89 500.69 880.43 C 492.16 867.86 481.37 856.98 469.78 847.24 C 464.30 842.67 456.90 840.23 449.80 841.65 C 438.09 843.58 429.11 851.94 420.44 859.38 Z" />
</g>
<g id="#c54d59ff">
<path fill="#c54d59" stroke="#c54d59" stroke-width="0.09375" opacity="1.00" d=" M 0.00 652.15 C 158.22 652.21 316.43 652.01 474.65 652.25 C 474.63 684.34 474.70 716.43 474.63 748.53 C 462.83 750.46 451.91 757.83 446.62 768.68 C 441.82 777.80 441.65 788.76 444.88 798.42 C 439.06 800.75 433.27 803.17 427.42 805.41 C 422.81 807.20 418.06 809.00 414.31 812.32 C 410.82 815.34 408.80 819.57 406.54 823.50 C 399.87 835.23 393.19 846.96 386.57 858.72 C 381.35 868.17 372.51 875.24 368.38 885.34 C 366.46 889.84 366.57 894.84 365.45 899.53 C 363.47 903.04 360.49 905.94 358.96 909.72 C 354.98 919.15 354.49 930.41 359.16 939.69 C 360.79 943.19 363.44 946.10 364.95 949.65 C 365.98 952.93 366.21 956.41 367.23 959.71 C 369.02 965.99 372.65 971.49 375.90 977.10 C 379.78 983.69 382.06 991.05 384.95 998.10 C 389.31 1009.16 395.49 1019.35 401.54 1029.54 C 406.36 1037.54 408.68 1046.73 409.99 1055.90 C 415.98 1103.74 407.55 1151.72 400.15 1198.90 C 395.28 1225.00 393.00 1251.48 390.39 1277.87 C 388.09 1302.22 386.11 1326.60 384.11 1350.97 C 382.35 1376.29 379.42 1401.54 378.62 1426.92 C 377.19 1438.63 379.00 1450.35 379.15 1462.07 C 380.42 1474.75 381.45 1487.53 384.22 1500.00 L 0.00 1500.00 L 0.00 652.15 Z" />
<path fill="#c54d59" stroke="#c54d59" stroke-width="0.09375" opacity="1.00" d=" M 484.34 652.15 C 643.23 652.14 802.11 652.15 961.00 652.14 L 961.00 1500.00 L 545.76 1500.00 C 548.04 1483.92 549.81 1467.76 550.25 1451.53 C 551.43 1442.74 550.57 1433.86 551.60 1425.07 C 552.49 1414.04 551.64 1402.96 552.25 1391.92 C 552.94 1377.93 552.02 1363.94 551.95 1349.95 C 548.74 1305.28 546.17 1260.54 541.76 1215.96 C 540.84 1205.56 538.20 1195.42 536.44 1185.15 C 526.43 1149.63 515.21 1114.00 512.74 1076.96 C 511.83 1067.77 512.45 1058.12 517.03 1049.90 C 525.30 1034.62 528.96 1017.28 530.04 1000.05 C 530.73 985.34 530.82 970.51 528.54 955.92 C 526.00 938.82 521.10 922.14 514.98 906.00 C 513.51 902.50 513.22 898.71 512.97 894.97 C 512.69 889.71 509.36 885.25 508.81 880.04 C 506.85 866.66 505.26 853.23 504.17 839.75 C 510.63 838.26 517.56 836.15 521.70 830.58 C 527.32 823.44 527.27 813.80 526.18 805.23 C 521.86 803.89 517.52 802.61 513.17 801.34 C 518.64 789.00 517.47 773.72 509.08 762.96 C 503.17 754.98 493.93 750.09 484.25 748.46 C 484.37 716.36 484.22 684.25 484.34 652.15 Z" />
<path fill="#c54d59" stroke="#c54d59" stroke-width="0.09375" opacity="1.00" d=" M 455.98 774.04 C 460.37 764.68 470.71 758.46 481.06 759.21 C 492.22 759.66 502.41 768.13 504.99 778.99 C 506.69 785.09 505.72 791.72 502.71 797.27 C 501.53 790.97 500.21 784.21 495.55 779.47 C 488.03 771.56 474.20 770.78 465.92 777.93 C 462.81 780.64 460.47 784.17 458.99 788.01 C 457.94 790.40 457.46 793.35 454.86 794.63 C 452.95 787.90 452.74 780.41 455.98 774.04 Z" />
</g>
<g id="#ffffffff">
<path fill="#ffffff" stroke="#ffffff" stroke-width="0.09375" opacity="1.00" d=" M 477.97 652.14 C 479.47 652.50 480.92 653.03 482.40 653.52 C 481.77 655.04 480.83 656.30 479.56 657.29 C 480.41 657.83 481.28 658.33 482.16 658.85 C 480.92 661.05 479.11 662.81 477.18 664.40 C 477.30 662.01 478.24 660.00 480.00 658.37 C 478.93 658.41 477.86 658.53 476.81 658.71 C 477.46 657.06 478.44 655.65 479.75 654.49 C 478.93 654.03 477.95 654.20 477.08 654.20 C 477.30 653.69 477.75 652.65 477.97 652.14 Z" />
<path fill="#ffffff" stroke="#ffffff" stroke-width="0.09375" opacity="1.00" d=" M 477.24 669.05 C 476.76 665.74 479.51 663.91 481.74 662.13 C 482.16 665.38 479.44 667.24 477.24 669.05 Z" />
<path fill="#ffffff" stroke="#ffffff" stroke-width="0.09375" opacity="1.00" d=" M 477.54 670.36 C 478.98 669.20 480.42 668.02 481.96 666.97 C 481.88 669.98 479.58 671.90 477.54 673.78 C 477.54 672.93 477.54 671.22 477.54 670.36 Z" />
<path fill="#ffffff" stroke="#ffffff" stroke-width="0.09375" opacity="1.00" d=" M 477.09 676.27 C 478.20 674.22 480.09 672.81 481.84 671.37 C 482.12 674.10 480.45 675.88 478.33 677.20 C 479.01 677.61 479.70 678.03 480.40 678.45 L 479.97 677.22 L 482.08 676.62 C 481.76 679.61 479.34 681.41 477.18 683.14 C 477.40 681.69 477.79 680.30 478.37 678.98 C 477.91 678.31 477.49 677.63 477.10 676.94 L 477.09 676.27 Z" />
<path fill="#ffffff" stroke="#ffffff" stroke-width="0.09375" opacity="1.00" d=" M 477.27 687.83 C 476.72 684.40 479.53 682.55 481.96 680.86 C 481.94 684.01 479.47 685.98 477.27 687.83 Z" />
<path fill="#ffffff" stroke="#ffffff" stroke-width="0.09375" opacity="1.00" d=" M 477.49 689.29 C 478.91 688.00 480.35 686.73 481.86 685.55 C 482.16 688.77 479.50 690.54 477.50 692.49 C 477.49 691.69 477.49 690.09 477.49 689.29 Z" />
<path fill="#ffffff" stroke="#ffffff" stroke-width="0.09375" opacity="1.00" d=" M 477.24 697.25 C 476.76 693.93 479.53 692.08 481.77 690.31 C 482.18 693.57 479.45 695.43 477.24 697.25 Z" />
<path fill="#ffffff" stroke="#ffffff" stroke-width="0.09375" opacity="1.00" d=" M 477.23 701.95 C 476.81 698.62 479.53 696.78 481.84 695.06 C 482.05 698.26 479.50 700.20 477.23 701.95 Z" />
<path fill="#ffffff" stroke="#ffffff" stroke-width="0.09375" opacity="1.00" d=" M 476.92 705.12 C 477.94 702.83 479.79 701.13 481.72 699.60 L 481.49 702.22 C 480.98 702.73 479.97 703.75 479.46 704.26 C 480.34 704.81 481.23 705.33 482.14 705.86 C 480.97 708.06 479.18 709.80 477.35 711.44 L 477.55 708.55 C 478.04 708.10 479.02 707.20 479.51 706.75 C 478.65 706.18 477.78 705.63 476.92 705.12 Z" />
<path fill="#ffffff" stroke="#ffffff" stroke-width="0.09375" opacity="1.00" d=" M 477.27 715.94 C 476.76 712.61 479.49 710.72 481.83 709.01 C 482.06 712.21 479.43 714.10 477.27 715.94 Z" />
<path fill="#ffffff" stroke="#ffffff" stroke-width="0.09375" opacity="1.00" d=" M 477.62 717.26 C 479.02 716.07 480.43 714.88 481.90 713.77 C 481.66 714.67 481.19 716.46 480.96 717.35 L 479.44 718.23 C 480.33 718.78 481.23 719.31 482.16 719.84 C 480.98 722.03 479.20 723.78 477.35 725.41 C 477.51 724.47 477.82 722.57 477.98 721.62 L 479.60 720.78 C 478.87 720.36 478.14 719.95 477.41 719.56 C 477.46 718.99 477.57 717.84 477.62 717.26 Z" />
<path fill="#ffffff" stroke="#ffffff" stroke-width="0.09375" opacity="1.00" d=" M 477.48 726.84 C 478.92 725.59 480.37 724.35 481.91 723.22 C 481.99 726.32 479.50 728.14 477.53 730.10 C 477.52 729.29 477.49 727.66 477.48 726.84 Z" />
<path fill="#ffffff" stroke="#ffffff" stroke-width="0.09375" opacity="1.00" d=" M 481.80 727.73 C 481.43 729.39 481.70 731.73 479.48 732.23 C 480.35 732.80 481.24 733.34 482.15 733.90 C 481.01 736.10 479.24 737.85 477.36 739.43 C 477.38 737.50 477.40 735.48 479.56 734.73 C 478.85 734.32 478.14 733.94 477.43 733.57 C 477.47 733.01 477.55 731.88 477.59 731.32 C 478.98 730.10 480.36 728.88 481.80 727.73 Z" />
<path fill="#ffffff" stroke="#ffffff" stroke-width="0.09375" opacity="1.00" d=" M 477.16 743.98 C 476.84 740.75 479.44 738.95 481.57 737.12 C 481.53 738.18 481.50 739.25 481.47 740.34 C 480.05 741.57 478.62 742.79 477.16 743.98 Z" />
<path fill="#ffffff" stroke="#ffffff" stroke-width="0.09375" opacity="1.00" d=" M 477.48 745.57 C 478.84 744.37 480.17 743.13 481.57 741.97 C 481.29 744.36 482.75 747.70 479.89 749.08 C 480.09 748.24 480.50 746.55 480.70 745.71 C 479.92 746.41 478.35 747.82 477.56 748.52 C 477.51 747.53 477.49 746.55 477.48 745.57 Z" />
<path fill="#ffffff" stroke="#ffffff" stroke-width="0.09375" opacity="1.00" d=" M 455.20 760.61 C 460.80 752.98 470.82 750.03 479.91 749.84 C 488.82 750.15 498.50 753.16 504.08 760.51 C 496.60 756.51 488.80 752.05 480.03 752.26 C 470.99 751.87 462.81 756.28 455.20 760.61 Z" />
<path fill="#ffffff" stroke="#ffffff" stroke-width="0.09375" opacity="1.00" d=" M 472.78 778.80 C 479.07 776.49 486.85 777.42 491.90 782.04 C 495.91 785.86 497.68 791.45 498.14 796.85 C 486.48 794.12 474.87 787.94 462.64 791.18 C 464.39 786.04 467.50 780.86 472.78 778.80 Z" />
<path fill="#ffffff" stroke="#ffffff" stroke-width="0.09375" opacity="1.00" d=" M 461.99 796.51 C 473.53 792.91 484.79 798.70 495.75 801.64 C 495.51 805.01 495.43 808.65 497.25 811.66 C 499.47 815.72 504.11 817.31 508.14 818.97 C 505.17 816.63 501.73 814.47 500.22 810.83 C 499.05 808.34 499.53 805.54 499.69 802.92 C 507.27 805.02 514.78 807.39 522.30 809.69 C 523.09 815.91 522.87 822.79 518.93 828.00 C 515.05 833.32 508.48 835.73 502.18 836.61 C 493.38 837.69 484.42 836.34 476.02 833.68 C 473.31 832.89 471.35 830.81 469.33 828.98 C 470.19 831.11 471.19 833.19 472.25 835.24 C 469.92 836.58 467.68 840.22 464.74 838.30 C 456.44 834.43 446.60 835.35 438.58 839.47 C 430.05 843.87 422.82 850.35 415.70 856.72 C 401.79 869.48 388.78 883.49 372.67 893.57 C 373.78 882.28 383.45 875.11 389.03 866.03 C 398.12 851.82 405.51 836.60 414.17 822.14 C 417.43 816.69 422.77 812.83 428.60 810.51 C 439.76 805.93 450.76 800.94 461.99 796.51 Z" />
<path fill="#ffffff" stroke="#ffffff" stroke-width="0.09375" opacity="1.00" d=" M 470.20 841.02 C 471.89 839.69 473.60 838.40 475.30 837.08 C 483.69 839.22 492.34 840.41 501.01 840.10 C 501.74 851.91 503.26 863.66 504.17 875.45 C 499.62 870.38 496.05 864.52 491.40 859.53 C 487.73 855.10 483.29 851.44 479.24 847.39 C 483.03 847.03 486.84 846.88 490.63 846.47 C 486.06 845.96 481.47 845.60 476.93 844.89 C 474.20 844.69 472.28 842.51 470.20 841.02 Z" />
<path fill="#ffffff" stroke="#ffffff" stroke-width="0.09375" opacity="1.00" d=" M 420.44 859.38 C 429.11 851.94 438.09 843.58 449.80 841.65 C 456.90 840.23 464.30 842.67 469.78 847.24 C 481.37 856.98 492.16 867.86 500.69 880.43 C 503.71 884.89 507.08 889.45 507.52 895.02 C 508.85 899.63 506.90 904.29 504.12 907.93 C 499.45 901.26 494.61 894.73 489.40 888.48 C 485.65 883.94 481.91 878.84 476.14 876.78 C 468.07 873.60 459.15 875.48 451.22 878.16 C 433.56 883.85 417.50 893.65 403.07 905.18 C 397.74 909.52 392.73 914.26 387.01 918.10 C 381.63 921.64 375.44 924.18 371.00 929.01 C 368.22 932.00 367.04 935.98 365.55 939.69 C 360.12 931.01 359.59 919.39 364.53 910.39 C 368.93 902.70 376.62 897.87 383.18 892.24 C 396.15 881.91 407.96 870.26 420.44 859.38 Z" />
<path fill="#ffffff" stroke="#ffffff" stroke-width="0.09375" opacity="1.00" d=" M 451.14 883.31 C 458.29 881.17 466.05 878.72 473.43 881.29 C 478.27 882.70 481.22 887.01 484.35 890.64 C 489.09 896.27 493.71 902.01 498.22 907.84 C 502.45 913.30 503.02 920.42 504.65 926.90 C 505.82 933.12 507.64 940.49 503.38 945.97 C 498.26 938.12 493.88 929.49 486.70 923.25 C 483.28 920.20 478.53 919.38 474.10 919.77 C 457.93 920.98 442.39 927.10 428.88 935.91 C 425.21 938.23 421.73 940.82 418.06 943.13 C 413.95 945.71 409.16 946.72 404.59 948.15 C 410.24 948.13 415.85 946.65 420.75 943.84 C 430.33 938.48 439.92 933.07 450.20 929.15 C 458.76 926.05 467.89 923.38 477.08 924.29 C 482.33 924.83 486.11 928.89 488.98 932.97 C 492.67 937.99 496.75 942.79 499.73 948.30 C 503.19 956.06 501.76 965.33 497.67 972.58 C 493.55 979.95 486.71 985.16 479.94 989.93 C 477.22 988.84 474.40 988.05 471.52 987.56 C 471.67 984.90 471.68 982.24 471.54 979.59 C 473.90 978.32 476.19 976.93 478.40 975.40 C 480.92 975.97 483.47 976.47 486.03 976.92 C 484.03 975.95 482.02 974.97 480.03 974.01 C 482.87 970.50 485.23 966.64 487.28 962.62 C 482.45 967.15 477.58 971.83 471.59 974.81 C 464.63 978.50 456.70 979.36 449.02 980.45 C 455.01 981.41 461.06 981.36 467.09 981.14 C 470.31 984.93 469.03 990.81 469.07 995.49 C 469.70 993.68 470.31 991.87 470.93 990.07 C 475.86 990.18 480.58 991.78 484.77 994.33 C 483.73 993.30 482.71 992.31 481.71 991.28 C 484.93 989.70 488.11 988.04 491.18 986.19 C 495.14 988.64 498.94 991.52 501.60 995.41 C 506.06 1001.41 507.52 1008.91 508.86 1016.09 C 508.44 1010.29 508.29 1004.37 506.36 998.82 C 504.38 992.51 500.18 987.17 495.17 982.95 C 499.63 978.47 503.64 973.27 505.45 967.13 C 507.00 962.08 506.31 956.72 505.24 951.65 C 508.17 947.69 510.52 943.08 510.49 938.03 C 510.50 930.04 507.91 922.36 505.99 914.69 C 507.53 912.34 509.06 910.00 510.66 907.70 C 522.02 935.57 525.00 966.14 523.66 995.99 C 522.69 1011.05 520.77 1026.26 515.47 1040.47 C 513.22 1046.70 509.13 1052.24 507.98 1058.87 C 506.83 1065.54 507.71 1072.33 507.99 1079.05 C 510.90 1115.89 520.05 1151.80 527.02 1187.99 C 527.79 1192.19 529.31 1196.19 530.47 1200.30 C 533.55 1229.23 539.11 1257.95 540.15 1287.08 C 541.33 1295.36 540.70 1303.74 541.70 1312.04 C 542.32 1319.32 541.73 1326.64 542.45 1333.92 C 543.09 1342.62 543.04 1351.34 543.06 1360.06 C 543.80 1384.99 544.33 1409.96 543.27 1434.90 C 543.14 1447.31 541.07 1459.58 539.80 1471.91 C 538.48 1481.26 537.73 1490.71 536.04 1500.00 L 393.11 1500.00 C 392.51 1495.35 391.84 1490.70 391.94 1486.01 C 392.18 1470.65 390.65 1455.34 390.93 1439.99 C 390.36 1429.01 390.10 1418.01 390.91 1407.04 C 390.60 1396.01 392.06 1385.06 392.07 1374.05 C 393.15 1359.36 393.66 1344.65 394.95 1329.99 C 396.60 1305.92 399.32 1281.94 401.95 1257.96 C 404.18 1237.23 406.68 1216.53 410.09 1195.96 C 412.53 1180.72 413.71 1165.32 415.11 1149.96 C 417.30 1123.88 418.78 1097.63 416.86 1071.48 C 415.71 1059.55 414.37 1047.54 411.00 1036.00 C 406.82 1024.33 398.95 1014.49 393.73 1003.31 C 388.40 993.22 385.80 981.92 380.02 972.05 C 376.80 966.08 372.97 960.32 371.17 953.72 C 369.40 947.17 370.03 939.68 374.14 934.09 C 376.98 930.14 381.48 927.99 385.45 925.38 C 390.45 922.18 394.39 917.68 399.05 914.05 C 414.74 901.33 431.67 889.41 451.14 883.31 Z" />
</g>
</svg>
