<?xml version="1.0" encoding="UTF-8" ?>
<!DOCTYPE svg PUBLIC "-//W3C//DTD SVG 1.1//EN" "http://www.w3.org/Graphics/SVG/1.1/DTD/svg11.dtd">
<svg width="400pt" height="400pt" viewBox="0 0 400 400" version="1.1" xmlns="http://www.w3.org/2000/svg">
<g id="#315861ff">
<path fill="#315861" stroke="#315861" stroke-width="0.09375" opacity="1.00" d=" M 0.00 0.00 L 20.03 0.00 C 20.06 9.03 19.77 18.12 17.94 26.99 C 17.25 30.58 15.64 33.99 15.36 37.67 C 15.55 40.84 17.23 43.70 17.55 46.87 C 18.09 52.63 18.96 58.87 15.86 64.11 C 21.88 69.11 22.98 77.61 21.60 84.89 C 20.70 88.41 18.21 91.17 16.12 94.02 C 17.17 95.57 18.23 97.11 19.27 98.67 C 17.32 103.35 17.78 108.52 16.57 113.37 C 16.01 115.47 17.05 117.49 17.61 119.47 C 16.36 119.48 15.10 119.50 13.85 119.52 C 13.53 122.56 14.38 125.40 16.85 127.33 C 16.56 130.39 16.88 133.44 17.33 136.46 C 17.91 139.78 16.01 143.00 16.80 146.30 C 17.85 151.55 18.14 156.92 19.44 162.12 C 20.66 167.19 20.01 172.46 18.48 177.39 C 17.40 180.07 18.61 182.79 19.22 185.42 C 20.43 190.03 19.85 194.83 19.69 199.53 C 18.21 199.62 16.73 199.70 15.24 199.80 C 14.28 202.83 12.82 205.66 10.89 208.19 C 9.33 210.25 10.51 212.89 10.90 215.15 C 13.53 224.55 10.83 234.41 12.31 243.91 C 14.30 248.13 18.09 251.87 17.72 256.89 C 16.72 258.81 15.17 260.39 14.21 262.34 C 14.30 264.76 15.28 267.06 15.37 269.49 C 14.15 271.60 12.00 273.31 11.94 275.94 C 11.38 281.37 10.01 286.66 9.21 292.05 C 8.33 290.49 7.43 288.93 6.53 287.40 C 5.61 291.25 5.00 295.65 8.33 298.60 C 5.86 300.56 2.91 301.72 0.00 302.85 L 0.00 204.96 C 2.70 202.81 5.51 200.79 8.09 198.48 C 8.32 195.61 9.50 193.00 11.43 190.87 C 10.62 189.06 9.34 187.30 9.45 185.23 C 9.85 175.32 11.50 164.96 7.80 155.46 C 7.90 148.27 11.25 141.32 10.27 134.01 C 10.39 129.29 7.10 125.72 4.83 121.93 C 3.21 122.61 1.59 123.28 0.00 124.04 L 0.00 0.00 Z" />
</g>
<g id="#365157ff">
<path fill="#365157" stroke="#365157" stroke-width="0.09375" opacity="1.00" d=" M 20.03 0.00 L 40.63 0.00 C 39.27 2.80 37.66 5.49 36.49 8.37 C 37.80 14.82 39.66 21.47 38.64 28.12 C 38.49 32.14 40.11 35.97 40.17 39.98 C 40.33 46.53 40.11 53.11 39.34 59.62 C 38.71 63.70 40.98 67.55 40.56 71.63 C 38.44 86.32 40.75 101.15 40.43 115.90 C 39.94 119.29 38.02 122.44 38.45 125.96 C 39.00 131.84 38.27 137.76 39.07 143.63 C 40.03 151.12 37.91 158.60 38.81 166.10 C 39.52 172.08 38.14 178.06 38.83 184.04 C 39.38 189.96 39.44 195.93 38.75 201.84 C 37.37 213.86 38.75 225.95 38.16 238.00 C 37.91 242.66 37.04 247.30 37.33 251.98 C 38.22 261.08 37.51 270.27 36.53 279.33 C 36.14 281.07 35.65 282.77 35.18 284.49 C 29.17 285.75 22.48 286.36 17.74 290.68 C 14.78 293.53 11.67 296.20 8.33 298.60 C 5.00 295.65 5.61 291.25 6.53 287.40 C 7.43 288.93 8.33 290.49 9.21 292.05 C 10.01 286.66 11.38 281.37 11.94 275.94 C 12.00 273.31 14.15 271.60 15.37 269.49 C 15.28 267.06 14.30 264.76 14.21 262.34 C 15.17 260.39 16.72 258.81 17.72 256.89 C 18.09 251.87 14.30 248.13 12.31 243.91 C 10.83 234.41 13.53 224.55 10.90 215.15 C 10.51 212.89 9.33 210.25 10.89 208.19 C 12.82 205.66 14.28 202.83 15.24 199.80 C 16.73 199.70 18.21 199.62 19.69 199.53 C 19.85 194.83 20.43 190.03 19.22 185.42 C 18.61 182.79 17.40 180.07 18.48 177.39 C 20.01 172.46 20.66 167.19 19.44 162.12 C 18.14 156.92 17.85 151.55 16.80 146.30 C 16.01 143.00 17.91 139.78 17.33 136.46 C 16.88 133.44 16.56 130.39 16.85 127.33 C 14.38 125.40 13.53 122.56 13.85 119.52 C 15.10 119.50 16.36 119.48 17.61 119.47 C 17.05 117.49 16.01 115.47 16.57 113.37 C 17.78 108.52 17.32 103.35 19.27 98.67 C 18.23 97.11 17.17 95.57 16.12 94.02 C 18.21 91.17 20.70 88.41 21.60 84.89 C 22.98 77.61 21.88 69.11 15.86 64.11 C 18.96 58.87 18.09 52.63 17.55 46.87 C 17.23 43.70 15.55 40.84 15.36 37.67 C 15.64 33.99 17.25 30.58 17.94 26.99 C 19.77 18.12 20.06 9.03 20.03 0.00 Z" />
</g>
<g id="#445e5fff">
<path fill="#445e5f" stroke="#445e5f" stroke-width="0.09375" opacity="1.00" d=" M 40.63 0.00 L 46.12 0.00 C 45.13 3.26 44.27 6.64 44.73 10.08 C 45.64 18.02 44.66 26.07 46.08 33.97 C 46.85 36.81 45.79 39.51 44.94 42.17 C 43.68 46.09 45.19 50.09 45.77 53.98 C 46.38 57.51 44.36 60.84 44.64 64.37 C 44.80 66.49 45.24 68.57 45.62 70.66 C 44.93 71.49 44.23 72.32 43.54 73.16 C 44.60 75.92 46.04 78.75 45.59 81.80 C 45.12 85.88 44.03 89.88 43.93 94.00 C 43.55 101.05 45.56 108.11 44.25 115.13 C 43.67 119.04 42.40 122.98 43.04 126.98 C 45.30 136.81 44.35 147.00 43.95 156.98 C 43.97 161.95 45.25 167.01 43.77 171.91 C 41.75 179.12 42.30 186.68 42.63 194.07 C 43.08 200.38 42.00 206.73 43.05 213.02 C 43.99 219.19 44.43 225.47 43.52 231.68 C 42.26 240.73 43.30 249.88 42.57 258.96 C 42.24 262.69 42.79 266.40 43.54 270.04 C 44.29 273.41 43.55 276.84 43.16 280.20 C 48.09 279.13 53.04 277.79 57.49 275.32 C 58.69 274.66 59.85 273.71 60.15 272.30 C 61.99 264.72 61.73 256.85 61.33 249.12 C 61.02 246.87 62.61 245.20 64.23 243.92 C 61.89 240.33 63.80 236.09 63.56 232.16 C 63.28 225.75 64.40 219.41 65.47 213.11 C 64.28 211.77 63.09 210.42 61.90 209.08 C 62.33 208.69 63.19 207.92 63.61 207.53 C 66.29 210.24 69.22 212.69 71.97 215.33 C 70.52 215.69 69.06 216.07 67.60 216.43 C 68.70 217.91 69.80 219.40 70.91 220.88 C 69.59 221.70 68.27 222.52 66.95 223.34 C 67.90 224.76 69.30 226.11 69.27 227.96 C 69.57 233.22 67.57 238.24 67.04 243.42 C 66.57 248.60 66.61 253.81 66.96 259.00 C 67.25 261.46 66.03 263.70 65.07 265.88 C 63.30 269.60 61.85 273.54 59.21 276.77 C 52.97 279.83 46.26 281.80 39.39 282.79 C 38.44 281.63 37.49 280.48 36.53 279.33 C 37.51 270.27 38.22 261.08 37.33 251.98 C 37.04 247.30 37.91 242.66 38.16 238.00 C 38.75 225.95 37.37 213.86 38.75 201.84 C 39.44 195.93 39.38 189.96 38.83 184.04 C 38.14 178.06 39.52 172.08 38.81 166.10 C 37.91 158.60 40.03 151.12 39.07 143.63 C 38.27 137.76 39.00 131.84 38.45 125.96 C 38.02 122.44 39.94 119.29 40.43 115.90 C 40.75 101.15 38.44 86.32 40.56 71.63 C 40.98 67.55 38.71 63.70 39.34 59.62 C 40.11 53.11 40.33 46.53 40.17 39.98 C 40.11 35.97 38.49 32.14 38.64 28.12 C 39.66 21.47 37.80 14.82 36.49 8.37 C 37.66 5.49 39.27 2.80 40.63 0.00 Z" />
</g>
<g id="#4f6a6bff">
<path fill="#4f6a6b" stroke="#4f6a6b" stroke-width="0.09375" opacity="1.00" d=" M 46.12 0.00 L 72.05 0.00 C 74.44 3.54 75.84 7.85 75.15 12.14 C 73.78 22.04 74.12 32.07 72.96 41.99 C 72.22 45.98 74.79 49.61 74.18 53.58 C 73.84 58.22 73.28 62.84 72.53 67.43 C 71.94 71.21 72.86 74.96 73.44 78.68 C 69.23 81.72 67.26 86.68 65.44 91.36 C 63.78 96.23 65.67 101.21 67.04 105.89 C 68.44 110.45 68.09 115.27 68.95 119.92 C 70.73 129.16 69.20 138.61 67.51 147.74 C 64.45 158.71 66.30 170.17 65.63 181.38 C 66.10 186.01 62.87 190.09 63.82 194.73 C 62.31 195.72 60.76 196.65 59.22 197.59 C 60.34 201.03 61.59 204.49 63.61 207.53 C 63.19 207.92 62.33 208.69 61.90 209.08 C 63.09 210.42 64.28 211.77 65.47 213.11 C 64.40 219.41 63.28 225.75 63.56 232.16 C 63.80 236.09 61.89 240.33 64.23 243.92 C 62.61 245.20 61.02 246.87 61.33 249.12 C 61.73 256.85 61.99 264.72 60.15 272.30 C 59.85 273.71 58.69 274.66 57.49 275.32 C 53.04 277.79 48.09 279.13 43.16 280.20 C 43.55 276.84 44.29 273.41 43.54 270.04 C 42.79 266.40 42.24 262.69 42.57 258.96 C 43.30 249.88 42.26 240.73 43.52 231.68 C 44.43 225.47 43.99 219.19 43.05 213.02 C 42.00 206.73 43.08 200.38 42.63 194.07 C 42.30 186.68 41.75 179.12 43.77 171.91 C 45.25 167.01 43.97 161.95 43.95 156.98 C 44.35 147.00 45.30 136.81 43.04 126.98 C 42.40 122.98 43.67 119.04 44.25 115.13 C 45.56 108.11 43.55 101.05 43.93 94.00 C 44.03 89.88 45.12 85.88 45.59 81.80 C 46.04 78.75 44.60 75.92 43.54 73.16 C 44.23 72.32 44.93 71.49 45.62 70.66 C 45.24 68.57 44.80 66.49 44.64 64.37 C 44.36 60.84 46.38 57.51 45.77 53.98 C 45.19 50.09 43.68 46.09 44.94 42.17 C 45.79 39.51 46.85 36.81 46.08 33.97 C 44.66 26.07 45.64 18.02 44.73 10.08 C 44.27 6.64 45.13 3.26 46.12 0.00 Z" />
</g>
<g id="#49635dff">
<path fill="#49635d" stroke="#49635d" stroke-width="0.09375" opacity="1.00" d=" M 72.05 0.00 L 159.92 0.00 C 160.25 3.23 160.57 6.45 160.83 9.69 C 163.16 9.87 165.49 10.06 167.83 10.25 C 167.86 11.40 167.89 12.54 167.92 13.69 C 165.19 13.96 162.45 14.25 159.73 14.60 C 164.77 17.90 171.51 17.94 175.98 22.07 C 176.07 24.68 175.55 27.26 175.08 29.82 C 173.47 30.25 171.87 30.68 170.25 31.08 C 168.31 30.86 166.36 30.71 164.42 30.62 C 163.03 30.58 161.64 30.56 160.26 30.69 C 151.67 30.82 145.96 37.83 140.59 43.56 C 136.52 48.38 130.20 50.39 126.01 55.09 C 123.99 57.44 120.97 58.20 118.23 59.37 C 114.62 61.91 112.58 66.04 110.79 69.96 C 112.20 69.84 113.61 69.69 115.02 69.83 C 114.75 71.94 114.11 73.98 113.48 76.00 C 111.24 76.38 108.90 76.56 106.86 77.65 C 103.54 79.56 101.22 82.81 97.79 84.56 C 95.16 85.91 92.39 87.01 89.92 88.65 C 86.65 84.61 84.51 79.49 79.86 76.75 C 79.93 78.60 80.02 80.45 80.13 82.29 C 78.65 82.09 77.16 81.89 75.67 81.69 C 72.54 85.18 69.92 89.42 65.44 91.36 C 67.26 86.68 69.23 81.72 73.44 78.68 C 72.86 74.96 71.94 71.21 72.53 67.43 C 73.28 62.84 73.84 58.22 74.18 53.58 C 74.79 49.61 72.22 45.98 72.96 41.99 C 74.12 32.07 73.78 22.04 75.15 12.14 C 75.84 7.85 74.44 3.54 72.05 0.00 Z" />
</g>
<g id="#455d57ff">
<path fill="#455d57" stroke="#455d57" stroke-width="0.09375" opacity="1.00" d=" M 159.92 0.00 L 247.45 0.00 C 247.71 1.85 247.97 3.69 248.24 5.54 C 251.28 6.10 254.31 6.72 257.32 7.44 C 257.82 6.71 258.32 5.98 258.82 5.24 C 258.11 12.86 261.07 20.11 261.27 27.66 C 261.48 30.76 261.31 33.91 262.01 36.96 C 262.86 39.96 264.63 42.58 266.09 45.32 C 264.39 45.82 262.70 46.34 261.00 46.84 C 261.00 47.57 261.00 48.29 261.00 49.01 C 258.33 48.64 255.02 49.23 253.04 46.95 C 251.18 45.05 250.13 42.56 248.99 40.20 C 246.84 39.66 244.71 38.96 242.49 38.84 C 240.57 40.21 239.63 42.52 238.35 44.43 C 236.40 42.82 234.27 41.34 232.74 39.29 C 232.17 36.93 232.67 34.47 232.76 32.08 C 229.64 31.01 226.43 29.95 223.08 30.17 C 216.76 30.45 210.43 30.76 204.11 30.48 C 201.34 30.37 198.99 28.72 196.37 28.05 C 192.58 27.59 188.91 29.15 185.13 29.08 C 183.28 28.98 181.45 28.54 179.60 28.53 C 178.03 29.37 176.97 31.46 174.97 31.22 C 173.39 31.22 171.82 31.18 170.25 31.08 C 171.87 30.68 173.47 30.25 175.08 29.82 C 175.55 27.26 176.07 24.68 175.98 22.07 C 171.51 17.94 164.77 17.90 159.73 14.60 C 162.45 14.25 165.19 13.96 167.92 13.69 C 167.89 12.54 167.86 11.40 167.83 10.25 C 165.49 10.06 163.16 9.87 160.83 9.69 C 160.57 6.45 160.25 3.23 159.92 0.00 Z" />
</g>
<g id="#3b5150ff">
<path fill="#3b5150" stroke="#3b5150" stroke-width="0.09375" opacity="1.00" d=" M 247.45 0.00 L 266.17 0.00 C 266.71 11.14 267.47 22.26 268.26 33.39 C 268.51 37.31 268.12 41.41 269.87 45.07 C 272.74 37.73 274.04 29.85 274.10 21.98 C 274.11 14.63 275.08 7.34 275.22 0.00 L 279.24 0.00 C 277.66 7.89 280.11 15.81 278.77 23.69 C 278.01 30.10 278.80 36.56 278.16 42.98 C 277.36 50.27 277.45 57.62 277.54 64.94 C 277.74 67.56 277.78 70.39 279.09 72.72 C 282.66 75.53 286.46 78.15 289.12 81.92 C 294.03 87.03 296.58 93.77 299.00 100.29 C 300.19 103.42 300.61 106.82 299.68 110.07 C 299.15 110.67 298.09 111.87 297.56 112.47 C 296.89 109.18 296.50 105.54 294.24 102.89 C 289.34 97.41 287.73 89.97 284.27 83.64 C 282.85 82.28 280.61 83.11 278.85 83.03 C 277.85 79.76 277.06 76.39 275.50 73.32 C 273.88 70.20 270.63 68.42 268.75 65.49 C 266.28 61.06 264.70 56.19 262.27 51.73 C 261.64 50.47 260.11 50.24 258.99 49.60 C 258.71 51.17 258.44 52.75 258.17 54.33 C 256.91 54.15 255.65 53.97 254.40 53.78 C 252.59 50.24 251.28 46.25 248.36 43.43 C 246.32 42.58 243.98 42.96 241.83 42.81 C 242.68 46.72 244.77 50.13 246.55 53.65 C 247.63 55.64 245.11 57.04 244.24 58.57 C 243.12 57.44 241.88 56.41 240.98 55.08 C 240.13 52.85 240.22 50.24 238.67 48.30 C 236.00 44.70 232.34 41.91 230.16 37.95 C 228.69 35.92 227.72 32.72 224.85 32.40 C 214.99 31.15 204.75 33.80 195.15 30.57 C 191.36 32.04 187.43 34.61 183.21 33.50 C 178.95 32.35 174.45 32.53 170.25 31.08 C 171.82 31.18 173.39 31.22 174.97 31.22 C 176.97 31.46 178.03 29.37 179.60 28.53 C 181.45 28.54 183.28 28.98 185.13 29.08 C 188.91 29.15 192.58 27.59 196.37 28.05 C 198.99 28.72 201.34 30.37 204.11 30.48 C 210.43 30.76 216.76 30.45 223.08 30.17 C 226.43 29.95 229.64 31.01 232.76 32.08 C 232.67 34.47 232.17 36.93 232.74 39.29 C 234.27 41.34 236.40 42.82 238.35 44.43 C 239.63 42.52 240.57 40.21 242.49 38.84 C 244.71 38.96 246.84 39.66 248.99 40.20 C 250.13 42.56 251.18 45.05 253.04 46.95 C 255.02 49.23 258.33 48.64 261.00 49.01 C 261.00 48.29 261.00 47.57 261.00 46.84 C 262.70 46.34 264.39 45.82 266.09 45.32 C 264.63 42.58 262.86 39.96 262.01 36.96 C 261.31 33.91 261.48 30.76 261.27 27.66 C 261.07 20.11 258.11 12.86 258.82 5.24 C 258.32 5.98 257.82 6.71 257.32 7.44 C 254.31 6.72 251.28 6.10 248.24 5.54 C 247.97 3.69 247.71 1.85 247.45 0.00 Z" />
</g>
<g id="#2f4340ff">
<path fill="#2f4340" stroke="#2f4340" stroke-width="0.09375" opacity="1.00" d=" M 266.17 0.00 L 275.22 0.00 C 275.08 7.34 274.11 14.63 274.10 21.98 C 274.04 29.85 272.74 37.73 269.87 45.07 C 268.12 41.41 268.51 37.31 268.26 33.39 C 267.47 22.26 266.71 11.14 266.17 0.00 Z" />
</g>
<g id="#547270ff">
<path fill="#547270" stroke="#547270" stroke-width="0.09375" opacity="1.00" d=" M 279.24 0.00 L 400.00 0.00 L 400.00 103.81 C 398.13 105.41 396.13 106.84 394.13 108.27 C 393.03 106.90 391.92 105.54 390.84 104.17 C 390.57 105.45 390.38 106.76 389.95 108.00 C 388.17 108.60 386.30 108.78 384.46 109.05 C 382.91 111.95 380.94 114.80 380.45 118.13 C 380.55 120.29 381.37 122.34 381.97 124.41 C 380.89 124.09 379.81 123.78 378.73 123.46 C 376.71 127.27 375.90 131.70 373.08 135.06 C 371.78 136.55 371.29 138.46 370.85 140.33 C 373.92 140.26 377.03 140.68 379.60 142.49 C 376.86 146.07 372.72 147.63 368.30 147.60 C 368.28 148.72 368.26 149.85 368.25 150.98 C 371.49 150.78 374.69 150.02 377.94 149.88 C 378.96 150.93 379.79 152.14 380.69 153.30 C 379.37 153.19 378.06 153.07 376.75 152.95 C 376.15 153.57 375.56 154.20 374.97 154.83 C 373.51 153.82 372.05 152.82 370.58 151.83 C 369.63 159.51 369.70 167.30 368.10 174.91 C 369.40 175.91 371.67 176.17 372.13 177.99 C 371.91 180.24 370.06 181.84 368.82 183.60 C 369.73 183.92 370.65 184.24 371.57 184.57 C 371.88 186.70 372.21 188.82 372.56 190.94 C 373.88 192.11 376.21 192.79 376.11 194.92 C 376.88 198.59 373.25 200.60 371.66 203.37 C 371.74 204.60 372.05 205.80 372.29 207.02 C 371.21 208.02 370.05 208.96 369.14 210.13 C 368.66 214.60 368.20 219.39 370.25 223.58 C 370.89 223.74 372.16 224.07 372.79 224.24 C 373.82 222.50 374.85 220.76 375.91 219.04 C 376.26 222.35 376.27 225.67 375.86 228.97 C 373.44 228.97 371.02 228.98 368.61 228.99 C 368.21 227.36 367.80 225.74 367.41 224.11 C 364.23 226.77 361.63 231.97 356.75 230.69 C 355.96 234.30 353.46 236.99 350.97 239.54 C 349.41 237.59 348.00 235.43 345.87 234.06 C 343.63 232.64 340.91 232.68 338.37 232.47 C 337.52 235.52 336.25 238.61 336.62 241.84 C 336.73 244.12 337.49 246.43 336.96 248.71 C 336.02 251.45 333.70 253.36 331.77 255.40 C 333.04 255.90 334.31 256.40 335.59 256.91 C 333.50 263.95 330.88 272.15 335.24 278.89 C 332.59 284.61 336.73 290.27 335.76 296.17 C 335.26 294.00 334.80 291.82 334.38 289.64 C 333.63 294.69 331.23 299.22 328.34 303.36 C 329.10 304.14 329.86 304.91 330.62 305.69 C 331.59 305.22 332.56 304.75 333.53 304.28 C 333.96 306.78 335.04 309.45 334.01 311.94 C 332.46 316.16 329.57 319.67 326.81 323.14 C 328.41 323.31 330.01 323.48 331.61 323.65 C 330.64 326.67 329.32 329.57 327.46 332.15 C 322.17 328.43 316.44 325.45 310.48 322.97 C 303.88 317.42 297.09 312.11 290.42 306.65 C 287.93 304.64 284.63 303.69 282.53 301.23 C 282.40 299.25 282.55 297.26 282.68 295.29 C 283.81 285.02 286.12 274.86 290.20 265.33 C 293.95 257.81 295.30 249.33 295.94 241.02 C 296.41 235.30 298.36 229.78 298.40 224.01 C 298.45 219.50 299.35 215.02 299.07 210.50 C 298.33 202.65 300.59 194.72 298.80 186.92 C 297.67 182.58 297.69 178.08 298.28 173.65 C 299.00 173.53 300.44 173.28 301.15 173.15 C 303.03 166.83 305.69 160.81 308.34 154.81 C 308.47 148.93 301.86 145.85 300.59 140.40 C 299.04 134.18 299.58 127.73 299.53 121.39 C 299.56 117.62 299.22 113.83 299.68 110.07 C 300.61 106.82 300.19 103.42 299.00 100.29 C 296.58 93.77 294.03 87.03 289.12 81.92 C 286.46 78.15 282.66 75.53 279.09 72.72 C 277.78 70.39 277.74 67.56 277.54 64.94 C 277.45 57.62 277.36 50.27 278.16 42.98 C 278.80 36.56 278.01 30.10 278.77 23.69 C 280.11 15.81 277.66 7.89 279.24 0.00 Z" />
</g>
<g id="#2c4046ff">
<path fill="#2c4046" stroke="#2c4046" stroke-width="0.09375" opacity="1.00" d=" M 183.21 33.50 C 187.43 34.61 191.36 32.04 195.15 30.57 C 204.75 33.80 214.99 31.15 224.85 32.40 C 227.72 32.72 228.69 35.92 230.16 37.95 C 232.34 41.91 236.00 44.70 238.67 48.30 C 240.22 50.24 240.13 52.85 240.98 55.08 C 241.88 56.41 243.12 57.44 244.24 58.57 C 245.11 57.04 247.63 55.64 246.55 53.65 C 244.77 50.13 242.68 46.72 241.83 42.81 C 243.98 42.96 246.32 42.58 248.36 43.43 C 251.28 46.25 252.59 50.24 254.40 53.78 C 255.65 53.97 256.91 54.15 258.17 54.33 C 258.44 52.75 258.71 51.17 258.99 49.60 C 260.11 50.24 261.64 50.47 262.27 51.73 C 264.70 56.19 266.28 61.06 268.75 65.49 C 270.63 68.42 273.88 70.20 275.50 73.32 C 277.06 76.39 277.85 79.76 278.85 83.03 C 280.61 83.11 282.85 82.28 284.27 83.64 C 287.73 89.97 289.34 97.41 294.24 102.89 C 296.50 105.54 296.89 109.18 297.56 112.47 C 297.89 117.69 297.32 122.92 296.40 128.06 C 296.15 124.15 296.84 119.82 294.54 116.38 C 292.18 112.49 289.70 108.67 287.13 104.92 C 283.98 100.56 283.99 94.82 281.22 90.28 C 279.60 87.72 276.88 86.22 274.44 84.56 C 275.80 82.11 274.32 79.74 272.93 77.72 C 270.74 73.98 268.17 70.11 263.71 68.95 C 259.58 68.31 255.55 69.62 251.53 70.33 C 251.83 66.58 250.35 63.19 247.75 60.56 C 246.08 61.51 244.46 62.63 242.61 63.21 C 239.71 63.65 236.80 63.01 233.93 62.73 C 233.37 63.60 232.80 64.46 232.24 65.32 C 231.25 65.43 230.27 65.53 229.29 65.63 C 228.38 62.25 227.85 58.39 224.76 56.22 C 225.32 55.94 226.44 55.39 227.00 55.12 C 225.50 51.27 222.17 48.78 218.81 46.64 C 219.38 44.99 219.96 43.34 220.54 41.69 C 223.17 40.46 226.02 39.86 228.84 39.26 C 227.99 38.34 227.15 37.42 226.32 36.50 C 221.90 37.16 217.45 38.09 212.97 37.64 C 208.04 37.27 204.03 33.65 199.06 33.46 C 195.68 34.44 192.30 36.09 188.69 35.60 C 180.48 35.19 171.35 35.87 164.42 30.62 C 166.36 30.71 168.31 30.86 170.25 31.08 C 174.45 32.53 178.95 32.35 183.21 33.50 M 224.23 48.38 C 225.68 50.07 227.34 51.63 228.40 53.61 C 229.26 56.11 229.47 58.77 229.96 61.35 C 232.68 59.24 235.01 55.86 234.62 52.31 C 232.46 49.26 227.95 46.07 224.23 48.38 Z" />
</g>
<g id="#2b4046ff">
<path fill="#2b4046" stroke="#2b4046" stroke-width="0.09375" opacity="1.00" d=" M 140.59 43.56 C 145.96 37.83 151.67 30.82 160.26 30.69 C 155.78 32.81 151.92 35.98 148.41 39.43 C 150.44 39.71 152.48 40.00 154.52 40.30 C 149.96 43.77 144.33 45.31 139.55 48.42 C 140.33 48.95 141.11 49.49 141.89 50.02 C 141.82 51.55 141.75 53.08 141.69 54.61 C 138.66 55.56 135.43 56.09 132.66 57.70 C 129.37 60.50 127.36 64.45 125.04 68.03 C 125.87 68.21 126.69 68.38 127.52 68.56 C 131.87 63.26 138.51 60.52 145.11 59.35 C 148.96 59.35 152.35 61.89 156.21 61.85 C 158.18 61.22 159.69 59.68 161.59 58.91 C 163.60 58.35 165.73 58.58 167.79 58.45 C 167.75 60.50 165.87 60.66 164.19 60.77 C 164.66 62.92 165.13 65.08 165.59 67.24 C 163.81 67.78 162.04 68.33 160.26 68.88 C 160.93 67.63 161.60 66.39 162.27 65.14 C 155.26 64.11 148.15 60.93 141.03 62.85 C 137.97 63.53 135.75 65.88 133.55 67.93 C 134.28 71.18 135.32 74.36 136.71 77.39 C 138.42 76.62 140.14 75.85 141.85 75.07 C 142.00 72.60 140.35 68.77 143.40 67.54 C 145.22 66.67 147.59 66.22 149.23 67.71 C 151.86 69.60 154.76 71.05 157.80 72.15 C 157.03 75.54 156.57 79.06 155.09 82.23 C 152.96 83.87 150.24 84.44 148.01 85.91 C 147.64 86.97 147.46 88.09 147.23 89.19 C 145.90 89.04 144.48 88.48 143.18 89.10 C 139.42 90.75 136.06 93.17 132.53 95.23 C 132.00 94.01 131.48 92.80 130.96 91.58 C 128.97 94.64 127.46 98.15 124.66 100.58 C 121.93 102.38 118.70 100.83 115.90 100.10 C 115.44 100.31 114.51 100.75 114.04 100.97 C 115.72 104.41 117.24 107.92 118.51 111.53 C 121.55 112.33 124.75 112.49 127.76 111.43 C 128.90 113.30 129.90 115.24 130.92 117.18 C 129.76 118.25 128.59 119.32 127.42 120.38 C 125.43 120.03 123.43 119.78 121.41 119.85 C 122.79 121.82 124.39 123.61 126.05 125.34 C 124.34 127.09 122.61 128.83 120.86 130.54 C 119.18 125.41 118.24 119.72 114.19 115.81 C 113.10 117.23 112.02 118.65 110.94 120.07 C 110.70 119.09 110.47 118.09 110.23 117.11 C 103.75 118.77 98.63 123.17 93.95 127.73 C 92.05 126.25 90.08 124.84 88.02 123.60 C 88.66 127.03 90.19 130.17 91.68 133.29 C 93.64 137.14 91.21 141.91 93.60 145.57 C 95.38 146.70 97.84 146.23 99.72 147.27 C 100.51 148.59 100.77 150.14 101.18 151.61 C 97.69 153.10 94.45 158.11 90.30 155.88 C 86.67 154.35 86.10 150.01 84.64 146.81 C 84.42 151.33 83.77 155.98 84.91 160.43 C 86.49 163.98 90.87 165.82 91.28 169.99 C 92.54 174.23 88.98 177.54 87.01 180.86 C 87.21 181.27 87.62 182.08 87.82 182.49 C 89.03 182.02 90.24 181.55 91.45 181.09 C 94.44 183.81 97.09 187.05 98.23 191.00 C 99.38 194.24 96.71 197.12 95.57 199.97 C 96.83 203.30 97.46 206.80 97.61 210.34 C 96.50 208.12 95.61 205.77 94.22 203.71 C 92.50 202.87 90.58 202.54 88.86 201.70 C 86.62 199.74 85.28 196.81 82.63 195.30 C 80.54 194.57 78.30 194.50 76.13 194.21 C 76.31 193.34 76.49 192.47 76.68 191.60 C 77.90 190.84 79.12 190.08 80.33 189.31 C 80.55 186.72 79.91 183.76 81.54 181.52 C 83.38 178.93 85.18 176.30 86.66 173.48 C 84.38 173.57 82.05 173.86 79.80 173.33 C 79.53 172.13 79.38 170.91 79.21 169.70 C 81.44 169.61 83.68 169.53 85.91 169.44 C 84.68 164.62 82.33 160.03 82.35 154.96 C 82.34 147.98 80.84 141.15 80.21 134.23 C 81.95 132.82 83.68 131.41 85.41 129.99 C 84.17 126.54 82.22 123.06 82.78 119.26 C 83.52 113.52 84.08 107.72 83.53 101.94 C 83.33 98.55 80.63 96.11 79.62 93.00 C 79.16 90.54 79.46 88.02 79.54 85.54 C 80.37 85.54 81.20 85.55 82.04 85.56 C 83.35 87.62 84.67 89.68 85.99 91.74 C 87.29 90.70 88.57 89.63 89.92 88.65 C 92.39 87.01 95.16 85.91 97.79 84.56 C 101.22 82.81 103.54 79.56 106.86 77.65 C 108.90 76.56 111.24 76.38 113.48 76.00 C 114.11 73.98 114.75 71.94 115.02 69.83 C 113.61 69.69 112.20 69.84 110.79 69.96 C 112.58 66.04 114.62 61.91 118.23 59.37 C 120.97 58.20 123.99 57.44 126.01 55.09 C 130.20 50.39 136.52 48.38 140.59 43.56 M 120.17 64.66 C 118.70 65.42 117.59 66.69 116.35 67.75 C 116.45 70.32 116.58 72.88 116.84 75.43 C 120.39 73.10 122.10 69.05 124.66 65.81 C 123.18 65.38 121.71 64.86 120.17 64.66 M 120.41 84.47 C 119.06 83.72 117.86 82.72 116.63 81.80 C 113.59 83.73 111.89 87.10 108.96 89.15 C 107.16 88.70 105.46 87.93 103.75 87.22 C 102.80 91.09 104.12 94.97 104.49 98.82 C 105.03 102.09 105.09 105.91 107.70 108.32 C 109.00 109.28 110.49 108.15 111.83 107.89 C 111.63 106.50 111.85 104.99 111.28 103.67 C 109.97 102.00 108.07 100.81 107.00 98.95 C 107.53 96.37 110.27 96.40 112.34 96.39 C 112.50 95.12 112.37 93.75 113.00 92.59 C 114.61 93.38 115.92 94.62 117.26 95.79 C 117.82 95.71 118.93 95.55 119.49 95.48 C 119.43 93.71 119.37 91.94 119.30 90.17 C 121.64 88.18 124.41 86.82 127.52 86.59 C 127.06 87.73 126.60 88.86 126.22 90.02 C 128.02 90.05 129.29 88.66 130.66 87.72 C 130.72 86.27 130.80 84.83 130.87 83.39 C 129.97 83.82 129.08 84.25 128.18 84.68 C 127.93 83.49 127.69 82.31 127.44 81.13 C 125.15 82.33 122.98 83.97 120.41 84.47 Z" />
</g>
<g id="#213239ff">
<path fill="#213239" stroke="#213239" stroke-width="0.09375" opacity="1.00" d=" M 160.26 30.69 C 161.64 30.56 163.03 30.58 164.42 30.62 C 171.35 35.87 180.48 35.19 188.69 35.60 C 192.30 36.09 195.68 34.44 199.06 33.46 C 198.91 34.28 198.59 35.92 198.43 36.74 C 195.24 37.92 192.08 39.56 188.61 39.66 C 185.70 39.35 182.99 38.12 180.23 37.22 C 181.80 39.08 183.21 41.09 184.37 43.24 C 180.97 44.46 177.34 45.33 174.34 47.43 C 171.56 49.32 171.22 53.95 173.96 56.03 C 176.00 57.45 178.61 57.35 180.97 57.74 C 178.87 60.29 177.41 63.27 176.96 66.56 C 176.65 66.52 176.03 66.42 175.72 66.38 C 174.60 65.15 173.48 63.93 172.37 62.70 C 171.39 64.55 170.63 66.57 169.27 68.18 C 166.57 70.35 161.48 70.86 162.02 75.36 C 167.11 76.08 172.45 76.45 176.91 79.26 C 172.51 79.91 168.06 79.27 163.65 79.71 C 156.11 83.03 151.80 90.66 148.83 97.97 C 156.29 99.17 161.93 92.20 163.52 85.61 C 167.13 85.39 170.75 85.26 174.34 84.76 C 175.11 85.84 175.87 86.93 176.64 88.02 C 174.05 89.21 171.37 90.17 168.72 91.21 C 169.31 92.11 169.91 93.02 170.51 93.92 C 169.32 94.34 168.13 94.76 166.94 95.19 C 166.75 95.55 166.38 96.26 166.19 96.62 C 167.52 97.91 168.85 99.20 170.17 100.49 C 168.03 102.91 165.58 105.14 164.01 108.00 C 162.98 110.90 163.27 114.06 163.12 117.08 C 161.06 119.89 158.83 122.72 157.92 126.14 C 157.08 129.35 157.36 132.70 157.34 135.97 C 155.92 135.38 154.16 135.19 153.13 133.94 C 151.99 131.17 152.23 127.95 150.77 125.30 C 148.91 123.33 146.50 122.01 144.25 120.55 C 148.12 119.89 150.42 116.71 153.19 114.30 C 155.78 113.28 158.63 113.37 161.38 113.24 C 159.99 111.10 159.05 108.74 158.25 106.34 C 151.08 107.04 143.89 105.89 136.72 106.64 C 136.13 104.83 135.82 102.89 134.81 101.26 C 133.39 99.80 131.57 98.85 129.88 97.77 C 129.68 99.62 129.49 101.47 129.31 103.32 C 126.77 104.22 124.28 105.25 121.89 106.48 C 121.22 105.71 120.56 104.95 119.90 104.18 C 120.05 105.72 120.21 107.26 120.36 108.81 C 122.64 109.35 124.93 109.87 127.18 110.57 L 127.76 111.43 C 124.75 112.49 121.55 112.33 118.51 111.53 C 117.24 107.92 115.72 104.41 114.04 100.97 C 114.51 100.75 115.44 100.31 115.90 100.10 C 118.70 100.83 121.93 102.38 124.66 100.58 C 127.46 98.15 128.97 94.64 130.96 91.58 C 131.48 92.80 132.00 94.01 132.53 95.23 C 136.06 93.17 139.42 90.75 143.18 89.10 C 144.48 88.48 145.90 89.04 147.23 89.19 C 147.46 88.09 147.64 86.97 148.01 85.91 C 150.24 84.44 152.96 83.87 155.09 82.23 C 156.57 79.06 157.03 75.54 157.80 72.15 C 154.76 71.05 151.86 69.60 149.23 67.71 C 147.59 66.22 145.22 66.67 143.40 67.54 C 140.35 68.77 142.00 72.60 141.85 75.07 C 140.14 75.85 138.42 76.62 136.71 77.39 C 135.32 74.36 134.28 71.18 133.55 67.93 C 135.75 65.88 137.97 63.53 141.03 62.85 C 148.15 60.93 155.26 64.11 162.27 65.14 C 161.60 66.39 160.93 67.63 160.26 68.88 C 162.04 68.33 163.81 67.78 165.59 67.24 C 165.13 65.08 164.66 62.92 164.19 60.77 C 165.87 60.66 167.75 60.50 167.79 58.45 C 165.73 58.58 163.60 58.35 161.59 58.91 C 159.69 59.68 158.18 61.22 156.21 61.85 C 152.35 61.89 148.96 59.35 145.11 59.35 C 138.51 60.52 131.87 63.26 127.52 68.56 C 126.69 68.38 125.87 68.21 125.04 68.03 C 127.36 64.45 129.37 60.50 132.66 57.70 C 135.43 56.09 138.66 55.56 141.69 54.61 C 141.75 53.08 141.82 51.55 141.89 50.02 C 141.11 49.49 140.33 48.95 139.55 48.42 C 144.33 45.31 149.96 43.77 154.52 40.30 C 152.48 40.00 150.44 39.71 148.41 39.43 C 151.92 35.98 155.78 32.81 160.26 30.69 Z" />
</g>
<g id="#1c282eff">
<path fill="#1c282e" stroke="#1c282e" stroke-width="0.09375" opacity="1.00" d=" M 199.06 33.46 C 204.03 33.65 208.04 37.27 212.97 37.64 C 217.45 38.09 221.90 37.16 226.32 36.50 C 227.15 37.42 227.99 38.34 228.84 39.26 C 226.02 39.86 223.17 40.46 220.54 41.69 C 216.90 43.39 213.28 45.24 209.33 46.11 C 206.01 46.83 202.67 45.60 199.35 45.81 C 194.92 48.40 191.97 52.85 189.55 57.25 C 192.24 58.69 195.10 59.81 197.67 61.46 C 199.18 63.15 199.96 65.35 201.04 67.31 C 198.70 68.81 196.58 70.62 194.43 72.38 C 194.40 74.12 194.37 75.86 194.35 77.60 C 190.76 80.21 186.59 81.73 182.47 83.27 C 179.97 84.08 178.45 86.28 176.64 88.02 C 175.87 86.93 175.11 85.84 174.34 84.76 C 175.41 83.85 176.43 82.88 177.45 81.91 C 172.82 81.38 168.17 80.88 163.65 79.71 C 168.06 79.27 172.51 79.91 176.91 79.26 C 172.45 76.45 167.11 76.08 162.02 75.36 C 161.48 70.86 166.57 70.35 169.27 68.18 C 170.63 66.57 171.39 64.55 172.37 62.70 C 173.48 63.93 174.60 65.15 175.72 66.38 C 176.03 66.42 176.65 66.52 176.96 66.56 C 177.41 63.27 178.87 60.29 180.97 57.74 C 178.61 57.35 176.00 57.45 173.96 56.03 C 171.22 53.95 171.56 49.32 174.34 47.43 C 177.34 45.33 180.97 44.46 184.37 43.24 C 183.21 41.09 181.80 39.08 180.23 37.22 C 182.99 38.12 185.70 39.35 188.61 39.66 C 192.08 39.56 195.24 37.92 198.43 36.74 C 198.59 35.92 198.91 34.28 199.06 33.46 Z" />
</g>
<g id="#22333aff">
<path fill="#22333a" stroke="#22333a" stroke-width="0.09375" opacity="1.00" d=" M 209.33 46.11 C 213.28 45.24 216.90 43.39 220.54 41.69 C 219.96 43.34 219.38 44.99 218.81 46.64 C 222.17 48.78 225.50 51.27 227.00 55.12 C 226.44 55.39 225.32 55.94 224.76 56.22 C 227.85 58.39 228.38 62.25 229.29 65.63 C 230.27 65.53 231.25 65.43 232.24 65.32 C 231.99 65.67 231.49 66.37 231.24 66.72 C 228.40 67.14 225.53 67.32 222.67 67.54 C 222.48 68.08 222.10 69.18 221.91 69.73 C 222.82 70.30 223.73 70.87 224.65 71.44 C 223.58 71.83 222.51 72.22 221.45 72.61 C 220.77 75.09 220.09 77.59 219.42 80.08 C 217.86 74.15 215.51 68.48 212.65 63.06 C 210.48 63.62 208.30 64.18 206.19 64.92 C 204.43 65.62 202.71 66.41 201.04 67.31 C 199.96 65.35 199.18 63.15 197.67 61.46 C 195.10 59.81 192.24 58.69 189.55 57.25 C 191.97 52.85 194.92 48.40 199.35 45.81 C 202.67 45.60 206.01 46.83 209.33 46.11 M 199.78 49.31 C 198.74 52.12 197.83 54.98 197.08 57.89 C 198.76 56.65 200.37 55.24 202.28 54.35 C 203.57 54.57 204.79 55.06 206.03 55.48 C 208.26 53.98 210.14 51.98 209.97 49.09 C 207.62 49.36 205.30 49.80 203.05 50.54 C 201.95 50.14 200.87 49.72 199.78 49.31 M 216.92 62.96 C 216.01 64.98 216.53 67.26 216.51 69.40 C 217.06 69.50 218.15 69.71 218.70 69.82 C 220.02 66.99 221.02 64.04 221.76 61.01 C 220.10 61.51 217.54 60.86 216.92 62.96 Z" />
</g>
<g id="#3e575eff">
<path fill="#3e575e" stroke="#3e575e" stroke-width="0.09375" opacity="1.00" d=" M 224.23 48.38 C 227.95 46.07 232.46 49.26 234.62 52.31 C 235.01 55.86 232.68 59.24 229.96 61.35 C 229.47 58.77 229.26 56.11 228.40 53.61 C 227.34 51.63 225.68 50.07 224.23 48.38 Z" />
</g>
<g id="#3a4d53ff">
<path fill="#3a4d53" stroke="#3a4d53" stroke-width="0.09375" opacity="1.00" d=" M 199.78 49.31 C 200.87 49.72 201.95 50.14 203.05 50.54 C 205.30 49.80 207.62 49.36 209.97 49.09 C 210.14 51.98 208.26 53.98 206.03 55.48 C 204.79 55.06 203.57 54.57 202.28 54.35 C 200.37 55.24 198.76 56.65 197.08 57.89 C 197.83 54.98 198.74 52.12 199.78 49.31 Z" />
</g>
<g id="#1e2b31ff">
<path fill="#1e2b31" stroke="#1e2b31" stroke-width="0.09375" opacity="1.00" d=" M 242.61 63.21 C 244.46 62.63 246.08 61.51 247.75 60.56 C 250.35 63.19 251.83 66.58 251.53 70.33 C 255.55 69.62 259.58 68.31 263.71 68.95 C 264.36 69.98 265.02 71.01 265.69 72.04 C 264.55 72.48 263.44 73.04 262.25 73.27 C 260.55 72.74 259.00 71.85 257.31 71.34 C 255.01 72.88 253.41 75.55 250.59 76.20 C 248.39 76.79 246.15 77.13 243.93 77.55 C 244.71 82.04 249.15 83.71 253.07 84.62 C 252.73 84.96 252.04 85.63 251.70 85.97 C 248.75 86.10 245.80 86.24 242.85 86.38 C 243.95 88.55 245.05 90.72 246.14 92.90 C 239.86 94.00 233.68 92.25 227.56 91.10 C 228.33 93.16 229.05 95.25 229.70 97.36 C 227.93 96.71 226.24 95.59 224.33 95.51 C 220.86 96.01 217.63 97.78 214.08 97.78 C 209.66 97.62 205.82 94.88 201.44 94.58 C 197.57 94.65 193.84 95.85 190.08 96.63 C 188.57 96.94 187.04 97.19 185.51 97.44 C 185.94 96.21 186.32 94.96 186.88 93.78 C 188.80 92.31 191.38 92.18 193.65 91.51 C 192.53 89.97 191.42 88.43 190.32 86.89 C 191.94 85.61 193.45 84.08 195.40 83.33 C 197.43 83.17 199.40 83.92 201.35 84.36 C 201.87 82.82 203.28 81.17 202.64 79.51 C 201.11 78.34 199.34 77.51 197.66 76.58 C 199.85 74.78 202.16 73.09 204.11 71.01 C 205.66 69.39 205.65 66.98 206.19 64.92 C 208.30 64.18 210.48 63.62 212.65 63.06 C 215.51 68.48 217.86 74.15 219.42 80.08 C 220.09 77.59 220.77 75.09 221.45 72.61 C 222.51 72.22 223.58 71.83 224.65 71.44 C 223.73 70.87 222.82 70.30 221.91 69.73 C 222.10 69.18 222.48 68.08 222.67 67.54 C 225.53 67.32 228.40 67.14 231.24 66.72 C 231.49 66.37 231.99 65.67 232.24 65.32 C 232.80 64.46 233.37 63.60 233.93 62.73 C 236.80 63.01 239.71 63.65 242.61 63.21 M 224.14 79.11 C 223.70 80.95 224.08 82.86 224.16 84.72 C 226.77 86.16 229.27 87.90 232.17 88.72 C 235.00 89.36 237.92 88.93 240.79 88.84 C 239.61 87.81 238.33 86.86 237.36 85.62 C 236.40 83.13 237.17 79.94 235.06 77.97 C 233.51 76.22 231.81 74.61 230.17 72.93 C 228.40 75.23 225.99 76.91 224.14 79.11 Z" />
</g>
<g id="#3c4f57ff">
<path fill="#3c4f57" stroke="#3c4f57" stroke-width="0.09375" opacity="1.00" d=" M 216.92 62.96 C 217.54 60.86 220.10 61.51 221.76 61.01 C 221.02 64.04 220.02 66.99 218.70 69.82 C 218.15 69.71 217.06 69.50 216.51 69.40 C 216.53 67.26 216.01 64.98 216.92 62.96 Z" />
</g>
<g id="#465e67ff">
<path fill="#465e67" stroke="#465e67" stroke-width="0.09375" opacity="1.00" d=" M 120.17 64.66 C 121.71 64.86 123.18 65.38 124.66 65.81 C 122.10 69.05 120.39 73.10 116.84 75.43 C 116.58 72.88 116.45 70.32 116.35 67.75 C 117.59 66.69 118.70 65.42 120.17 64.66 Z" />
</g>
<g id="#272e34ff">
<path fill="#272e34" stroke="#272e34" stroke-width="0.09375" opacity="1.00" d=" M 201.04 67.31 C 202.71 66.41 204.43 65.62 206.19 64.92 C 205.65 66.98 205.66 69.39 204.11 71.01 C 202.16 73.09 199.85 74.78 197.66 76.58 C 199.34 77.51 201.11 78.34 202.64 79.51 C 203.28 81.17 201.87 82.82 201.35 84.36 C 199.40 83.92 197.43 83.17 195.40 83.33 C 193.45 84.08 191.94 85.61 190.32 86.89 C 191.42 88.43 192.53 89.97 193.65 91.51 C 191.38 92.18 188.80 92.31 186.88 93.78 C 186.32 94.96 185.94 96.21 185.51 97.44 C 187.04 97.19 188.57 96.94 190.08 96.63 C 189.53 97.49 188.98 98.36 188.40 99.21 C 187.69 100.08 186.97 100.96 186.25 101.83 C 185.53 101.76 184.80 101.71 184.08 101.66 C 181.36 101.20 180.08 103.99 178.67 105.78 C 175.72 109.50 174.44 114.11 172.34 118.29 C 171.10 120.66 171.57 123.45 170.81 125.96 C 170.12 127.82 169.03 129.51 168.04 131.23 C 172.44 127.54 178.19 127.22 183.66 127.70 C 183.26 128.55 182.87 129.40 182.48 130.26 C 182.88 131.92 183.43 133.58 183.49 135.32 C 181.96 136.59 180.21 137.58 178.55 138.67 C 180.07 139.28 181.58 139.90 183.13 140.44 C 181.52 140.72 179.92 141.10 178.33 141.46 C 173.80 143.44 169.51 140.36 165.87 137.99 C 163.83 136.69 163.57 133.95 163.60 131.75 C 164.22 128.63 166.35 126.05 167.04 122.94 C 167.16 120.36 164.55 118.88 163.12 117.08 C 163.27 114.06 162.98 110.90 164.01 108.00 C 165.58 105.14 168.03 102.91 170.17 100.49 C 168.85 99.20 167.52 97.91 166.19 96.62 C 166.38 96.26 166.75 95.55 166.94 95.19 C 168.13 94.76 169.32 94.34 170.51 93.92 C 169.91 93.02 169.31 92.11 168.72 91.21 C 171.37 90.17 174.05 89.21 176.64 88.02 C 178.45 86.28 179.97 84.08 182.47 83.27 C 186.59 81.73 190.76 80.21 194.35 77.60 C 194.37 75.86 194.40 74.12 194.43 72.38 C 196.58 70.62 198.70 68.81 201.04 67.31 Z" />
</g>
<g id="#27363dff">
<path fill="#27363d" stroke="#27363d" stroke-width="0.09375" opacity="1.00" d=" M 263.71 68.95 C 268.17 70.11 270.74 73.98 272.93 77.72 C 271.26 79.13 269.55 80.51 267.96 82.01 C 263.49 79.03 258.00 79.51 252.99 78.23 C 250.61 77.67 248.22 78.45 245.91 78.98 C 248.31 80.85 250.72 82.69 253.07 84.62 C 249.15 83.71 244.71 82.04 243.93 77.55 C 246.15 77.13 248.39 76.79 250.59 76.20 C 253.41 75.55 255.01 72.88 257.31 71.34 C 259.00 71.85 260.55 72.74 262.25 73.27 C 263.44 73.04 264.55 72.48 265.69 72.04 C 265.02 71.01 264.36 69.98 263.71 68.95 Z" />
</g>
<g id="#141e22ff">
<path fill="#141e22" stroke="#141e22" stroke-width="0.09375" opacity="1.00" d=" M 224.14 79.11 C 225.99 76.91 228.40 75.23 230.17 72.93 C 231.81 74.61 233.51 76.22 235.06 77.97 C 237.17 79.94 236.40 83.13 237.36 85.62 C 238.33 86.86 239.61 87.81 240.79 88.84 C 237.92 88.93 235.00 89.36 232.17 88.72 C 229.27 87.90 226.77 86.16 224.16 84.72 C 224.08 82.86 223.70 80.95 224.14 79.11 Z" />
</g>
<g id="#445d59ff">
<path fill="#445d59" stroke="#445d59" stroke-width="0.09375" opacity="1.00" d=" M 79.86 76.75 C 84.51 79.49 86.65 84.61 89.92 88.65 C 88.57 89.63 87.29 90.70 85.99 91.74 C 84.67 89.68 83.35 87.62 82.04 85.56 C 81.20 85.55 80.37 85.54 79.54 85.54 C 79.46 88.02 79.16 90.54 79.62 93.00 C 80.63 96.11 83.33 98.55 83.53 101.94 C 84.08 107.72 83.52 113.52 82.78 119.26 C 82.22 123.06 84.17 126.54 85.41 129.99 C 83.68 131.41 81.95 132.82 80.21 134.23 C 80.84 141.15 82.34 147.98 82.35 154.96 C 82.33 160.03 84.68 164.62 85.91 169.44 C 83.68 169.53 81.44 169.61 79.21 169.70 C 79.38 170.91 79.53 172.13 79.80 173.33 C 82.05 173.86 84.38 173.57 86.66 173.48 C 85.18 176.30 83.38 178.93 81.54 181.52 C 79.91 183.76 80.55 186.72 80.33 189.31 C 79.12 190.08 77.90 190.84 76.68 191.60 C 76.84 190.81 77.01 190.02 77.17 189.23 C 75.86 188.99 74.56 188.76 73.25 188.53 C 72.68 187.55 72.11 186.58 71.55 185.60 C 69.95 189.35 67.44 192.71 63.82 194.73 C 62.87 190.09 66.10 186.01 65.63 181.38 C 66.30 170.17 64.45 158.71 67.51 147.74 C 69.20 138.61 70.73 129.16 68.95 119.92 C 68.09 115.27 68.44 110.45 67.04 105.89 C 65.67 101.21 63.78 96.23 65.44 91.36 C 69.92 89.42 72.54 85.18 75.67 81.69 C 77.16 81.89 78.65 82.09 80.13 82.29 C 80.02 80.45 79.93 78.60 79.86 76.75 Z" />
</g>
<g id="#30454fff">
<path fill="#30454f" stroke="#30454f" stroke-width="0.09375" opacity="1.00" d=" M 245.91 78.98 C 248.22 78.45 250.61 77.67 252.99 78.23 C 258.00 79.51 263.49 79.03 267.96 82.01 C 265.88 84.43 264.43 87.52 265.37 90.76 C 259.79 92.47 253.00 93.35 247.99 89.69 C 249.22 88.44 250.45 87.20 251.70 85.97 C 252.04 85.63 252.73 84.96 253.07 84.62 C 250.72 82.69 248.31 80.85 245.91 78.98 Z" />
</g>
<g id="#333b3fff">
<path fill="#333b3f" stroke="#333b3f" stroke-width="0.09375" opacity="1.00" d=" M 272.93 77.72 C 274.32 79.74 275.80 82.11 274.44 84.56 C 273.61 86.54 272.72 88.49 271.85 90.44 C 270.65 90.08 269.46 89.72 268.28 89.36 C 268.75 91.18 269.23 93.00 269.71 94.82 C 267.19 97.85 264.92 101.07 262.90 104.46 C 259.81 104.13 256.74 103.61 253.75 102.81 C 255.67 101.25 257.43 99.50 259.15 97.72 C 255.71 96.45 252.41 94.67 248.77 94.03 C 244.16 94.26 239.62 95.37 235.01 95.67 C 235.13 98.52 237.57 99.90 239.78 101.17 C 241.16 102.84 242.37 104.64 243.63 106.41 C 242.02 109.77 238.15 109.62 235.02 110.18 C 231.68 110.46 228.01 112.09 224.88 110.23 C 219.25 107.22 212.94 105.60 206.57 105.31 C 206.92 103.11 207.27 100.92 207.62 98.73 C 202.55 97.47 197.26 96.33 192.05 97.51 C 190.81 98.03 189.59 98.60 188.40 99.21 C 188.98 98.36 189.53 97.49 190.08 96.63 C 193.84 95.85 197.57 94.65 201.44 94.58 C 205.82 94.88 209.66 97.62 214.08 97.78 C 217.63 97.78 220.86 96.01 224.33 95.51 C 226.24 95.59 227.93 96.71 229.70 97.36 C 229.05 95.25 228.33 93.16 227.56 91.10 C 233.68 92.25 239.86 94.00 246.14 92.90 C 245.05 90.72 243.95 88.55 242.85 86.38 C 245.80 86.24 248.75 86.10 251.70 85.97 C 250.45 87.20 249.22 88.44 247.99 89.69 C 253.00 93.35 259.79 92.47 265.37 90.76 C 264.43 87.52 265.88 84.43 267.96 82.01 C 269.55 80.51 271.26 79.13 272.93 77.72 Z" />
</g>
<g id="#111f25ff">
<path fill="#111f25" stroke="#111f25" stroke-width="0.09375" opacity="1.00" d=" M 148.83 97.97 C 151.80 90.66 156.11 83.03 163.65 79.71 C 168.17 80.88 172.82 81.38 177.45 81.91 C 176.43 82.88 175.41 83.85 174.34 84.76 C 170.75 85.26 167.13 85.39 163.52 85.61 C 161.93 92.20 156.29 99.17 148.83 97.97 Z" />
</g>
<g id="#3d555bff">
<path fill="#3d555b" stroke="#3d555b" stroke-width="0.09375" opacity="1.00" d=" M 120.41 84.47 C 122.98 83.97 125.15 82.33 127.44 81.13 C 127.69 82.31 127.93 83.49 128.18 84.68 C 129.08 84.25 129.97 83.82 130.87 83.39 C 130.80 84.83 130.72 86.27 130.66 87.72 C 129.29 88.66 128.02 90.05 126.22 90.02 C 126.60 88.86 127.06 87.73 127.52 86.59 C 124.41 86.82 121.64 88.18 119.30 90.17 C 119.37 91.94 119.43 93.71 119.49 95.48 C 118.93 95.55 117.82 95.71 117.26 95.79 C 115.92 94.62 114.61 93.38 113.00 92.59 C 112.37 93.75 112.50 95.12 112.34 96.39 C 110.27 96.40 107.53 96.37 107.00 98.95 C 108.07 100.81 109.97 102.00 111.28 103.67 C 111.85 104.99 111.63 106.50 111.83 107.89 C 110.49 108.15 109.00 109.28 107.70 108.32 C 105.09 105.91 105.03 102.09 104.49 98.82 C 104.12 94.97 102.80 91.09 103.75 87.22 C 105.46 87.93 107.16 88.70 108.96 89.15 C 111.89 87.10 113.59 83.73 116.63 81.80 C 117.86 82.72 119.06 83.72 120.41 84.47 Z" />
</g>
<g id="#434748ff">
<path fill="#434748" stroke="#434748" stroke-width="0.09375" opacity="1.00" d=" M 274.44 84.56 C 276.88 86.22 279.60 87.72 281.22 90.28 C 283.99 94.82 283.98 100.56 287.13 104.92 C 289.70 108.67 292.18 112.49 294.54 116.38 C 296.84 119.82 296.15 124.15 296.40 128.06 C 297.32 122.92 297.89 117.69 297.56 112.47 C 298.09 111.87 299.15 110.67 299.68 110.07 C 299.22 113.83 299.56 117.62 299.53 121.39 C 299.58 127.73 299.04 134.18 300.59 140.40 C 301.86 145.85 308.47 148.93 308.34 154.81 C 305.69 160.81 303.03 166.83 301.15 173.15 C 300.44 173.28 299.00 173.53 298.28 173.65 C 298.89 172.44 299.47 171.21 300.07 169.99 C 302.48 165.14 305.16 160.26 306.18 154.89 C 305.86 151.48 303.58 148.40 300.50 146.92 C 298.07 149.33 295.72 152.11 292.38 153.23 C 287.14 154.99 281.54 154.78 276.12 154.41 C 275.13 155.54 274.16 156.67 273.19 157.81 C 271.74 156.02 270.30 154.24 268.86 152.46 C 268.24 157.00 268.05 163.14 263.00 165.05 C 256.81 166.77 250.25 165.89 243.92 165.70 C 241.18 165.83 239.00 164.15 236.95 162.59 C 234.13 163.16 231.28 163.94 228.37 163.71 C 225.19 163.28 222.13 162.25 219.06 161.36 C 220.38 159.54 221.69 157.73 223.16 156.04 C 227.76 154.29 230.77 150.34 233.56 146.51 C 241.17 147.92 248.39 144.85 255.56 142.82 C 256.59 144.74 257.65 146.66 259.01 148.37 C 259.80 147.18 260.44 145.91 261.12 144.66 C 266.89 145.07 271.92 141.93 277.33 140.54 C 281.38 139.43 285.44 137.89 289.71 138.11 C 291.60 138.46 293.01 136.68 293.35 135.01 C 293.81 132.38 293.58 129.69 293.55 127.04 C 291.03 126.92 288.36 127.07 286.26 128.61 C 280.85 132.42 275.39 136.19 269.55 139.30 C 267.49 140.26 264.98 141.58 262.82 140.17 C 259.97 138.70 256.80 138.16 253.64 137.91 C 253.54 136.75 253.45 135.60 253.36 134.45 C 249.96 135.57 246.33 135.92 242.83 135.04 C 237.76 133.86 232.55 134.25 227.40 134.50 C 223.40 134.73 219.89 132.51 216.15 131.51 C 212.95 130.49 209.37 130.52 206.51 128.60 C 202.27 125.90 198.90 122.09 194.77 119.26 C 189.75 115.80 184.74 112.34 179.93 108.60 C 181.23 106.23 182.62 103.93 184.08 101.66 C 184.80 101.71 185.53 101.76 186.25 101.83 C 186.40 104.28 186.74 106.72 187.26 109.13 C 190.49 109.27 193.64 110.10 196.41 111.81 C 197.08 109.09 197.75 106.38 198.40 103.65 C 197.74 103.40 197.08 103.15 196.42 102.90 C 195.95 101.53 195.49 100.16 195.02 98.79 C 194.03 98.36 193.04 97.93 192.05 97.51 C 197.26 96.33 202.55 97.47 207.62 98.73 C 207.27 100.92 206.92 103.11 206.57 105.31 C 212.94 105.60 219.25 107.22 224.88 110.23 C 228.01 112.09 231.68 110.46 235.02 110.18 C 238.15 109.62 242.02 109.77 243.63 106.41 C 242.37 104.64 241.16 102.84 239.78 101.17 C 244.03 103.61 249.05 104.57 253.75 102.81 C 256.74 103.61 259.81 104.13 262.90 104.46 C 264.92 101.07 267.19 97.85 269.71 94.82 C 269.23 93.00 268.75 91.18 268.28 89.36 C 269.46 89.72 270.65 90.08 271.85 90.44 C 272.72 88.49 273.61 86.54 274.44 84.56 M 235.83 115.67 C 236.15 118.56 235.74 121.55 236.43 124.39 C 238.03 127.57 241.44 129.95 244.95 130.39 C 247.78 129.60 250.47 128.38 253.21 127.35 C 251.70 126.54 250.13 125.86 248.55 125.21 C 249.31 123.75 250.07 122.29 250.83 120.83 C 247.24 118.45 242.87 118.54 238.76 118.11 C 241.70 117.14 244.84 116.79 247.73 115.67 C 248.69 114.50 249.36 113.14 250.10 111.83 C 245.20 112.30 239.93 112.65 235.83 115.67 Z" />
</g>
<g id="#3b494fff">
<path fill="#3b494f" stroke="#3b494f" stroke-width="0.09375" opacity="1.00" d=" M 235.01 95.67 C 239.62 95.37 244.16 94.26 248.77 94.03 C 252.41 94.67 255.71 96.45 259.15 97.72 C 257.43 99.50 255.67 101.25 253.75 102.81 C 249.05 104.57 244.03 103.61 239.78 101.17 C 237.57 99.90 235.13 98.52 235.01 95.67 Z" />
</g>
<g id="#1b2a31ff">
<path fill="#1b2a31" stroke="#1b2a31" stroke-width="0.09375" opacity="1.00" d=" M 129.88 97.77 C 131.57 98.85 133.39 99.80 134.81 101.26 C 135.82 102.89 136.13 104.83 136.72 106.64 C 143.89 105.89 151.08 107.04 158.25 106.34 C 159.05 108.74 159.99 111.10 161.38 113.24 C 158.63 113.37 155.78 113.28 153.19 114.30 C 150.42 116.71 148.12 119.89 144.25 120.55 C 146.50 122.01 148.91 123.33 150.77 125.30 C 152.23 127.95 151.99 131.17 153.13 133.94 C 154.16 135.19 155.92 135.38 157.34 135.97 C 157.36 132.70 157.08 129.35 157.92 126.14 C 158.83 122.72 161.06 119.89 163.12 117.08 C 164.55 118.88 167.16 120.36 167.04 122.94 C 166.35 126.05 164.22 128.63 163.60 131.75 C 163.57 133.95 163.83 136.69 165.87 137.99 C 169.51 140.36 173.80 143.44 178.33 141.46 C 178.97 144.73 181.08 147.34 182.77 150.11 C 183.16 153.18 179.55 153.85 177.33 154.41 C 175.42 154.28 173.53 154.08 171.63 153.89 C 171.58 152.39 171.54 150.89 171.50 149.39 C 168.85 147.21 166.57 144.40 163.41 142.95 C 159.36 142.23 155.25 141.90 151.19 141.22 C 150.53 143.61 149.67 146.36 151.20 148.62 C 152.32 151.26 155.15 152.15 157.54 153.26 C 157.01 153.85 156.48 154.45 155.95 155.04 C 151.74 155.22 147.53 155.53 143.32 155.42 C 138.99 155.34 135.31 152.71 131.18 151.78 C 126.18 151.13 121.23 152.95 116.22 152.41 C 112.75 152.17 109.26 150.86 105.79 151.73 C 105.68 153.39 105.87 155.05 106.01 156.71 C 104.31 159.29 101.78 161.69 101.45 164.90 C 102.16 166.63 103.29 168.14 104.29 169.71 C 106.78 168.04 109.28 166.37 111.98 165.07 L 112.30 166.08 C 109.07 168.90 105.24 170.89 101.68 173.24 C 101.82 176.41 99.93 179.09 98.68 181.85 C 100.16 181.70 101.65 181.55 103.14 181.39 C 101.87 183.28 100.35 185.01 99.27 187.03 C 100.49 189.05 103.01 190.31 103.23 192.90 C 105.48 201.15 101.12 209.23 102.27 217.53 C 103.46 218.41 104.65 219.31 105.84 220.21 C 106.48 222.07 107.11 223.94 107.74 225.81 C 109.98 226.51 112.47 227.03 113.98 229.00 C 118.04 233.72 121.71 238.95 127.02 242.38 C 127.42 243.79 127.82 245.21 128.20 246.63 C 128.15 247.57 128.06 249.45 128.02 250.39 C 127.75 249.72 127.21 248.38 126.94 247.71 C 126.02 244.72 123.95 242.35 121.28 240.78 C 117.87 238.77 116.42 234.93 113.97 232.03 C 112.19 229.93 109.43 229.16 107.26 227.58 C 106.25 226.16 105.74 224.47 104.94 222.94 C 103.74 220.38 101.27 218.70 99.96 216.21 C 99.00 214.33 98.32 212.32 97.61 210.34 C 97.46 206.80 96.83 203.30 95.57 199.97 C 96.71 197.12 99.38 194.24 98.23 191.00 C 97.09 187.05 94.44 183.81 91.45 181.09 C 90.24 181.55 89.03 182.02 87.82 182.49 C 87.62 182.08 87.21 181.27 87.01 180.86 C 88.98 177.54 92.54 174.23 91.28 169.99 C 90.87 165.82 86.49 163.98 84.91 160.43 C 83.77 155.98 84.42 151.33 84.64 146.81 C 86.10 150.01 86.67 154.35 90.30 155.88 C 94.45 158.11 97.69 153.10 101.18 151.61 C 100.77 150.14 100.51 148.59 99.72 147.27 C 97.84 146.23 95.38 146.70 93.60 145.57 C 91.21 141.91 93.64 137.14 91.68 133.29 C 90.19 130.17 88.66 127.03 88.02 123.60 C 90.08 124.84 92.05 126.25 93.95 127.73 C 98.63 123.17 103.75 118.77 110.23 117.11 C 110.47 118.09 110.70 119.09 110.94 120.07 C 112.02 118.65 113.10 117.23 114.19 115.81 C 118.24 119.72 119.18 125.41 120.86 130.54 C 122.61 128.83 124.34 127.09 126.05 125.34 C 124.39 123.61 122.79 121.82 121.41 119.85 C 123.43 119.78 125.43 120.03 127.42 120.38 C 128.59 119.32 129.76 118.25 130.92 117.18 C 129.90 115.24 128.90 113.30 127.76 111.43 L 127.18 110.57 C 124.93 109.87 122.64 109.35 120.36 108.81 C 120.21 107.26 120.05 105.72 119.90 104.18 C 120.56 104.95 121.22 105.71 121.89 106.48 C 124.28 105.25 126.77 104.22 129.31 103.32 C 129.49 101.47 129.68 99.62 129.88 97.77 M 129.64 134.57 C 126.84 134.34 124.12 133.52 121.33 133.14 C 120.97 136.16 120.29 139.46 121.79 142.29 C 124.50 145.19 128.48 146.31 132.03 147.82 C 133.35 145.95 134.55 143.99 135.54 141.93 C 134.92 140.35 133.97 138.82 133.93 137.09 C 135.21 135.40 137.59 135.10 139.41 134.16 C 139.44 133.70 139.51 132.76 139.55 132.29 C 136.01 131.87 132.96 133.84 129.64 134.57 Z" />
</g>
<g id="#4c555bff">
<path fill="#4c555b" stroke="#4c555b" stroke-width="0.09375" opacity="1.00" d=" M 188.40 99.21 C 189.59 98.60 190.81 98.03 192.05 97.51 C 193.04 97.93 194.03 98.36 195.02 98.79 C 195.49 100.16 195.95 101.53 196.42 102.90 C 197.08 103.15 197.74 103.40 198.40 103.65 C 197.75 106.38 197.08 109.09 196.41 111.81 C 193.64 110.10 190.49 109.27 187.26 109.13 C 186.74 106.72 186.40 104.28 186.25 101.83 C 186.97 100.96 187.69 100.08 188.40 99.21 Z" />
</g>
<g id="#303132ff">
<path fill="#303132" stroke="#303132" stroke-width="0.09375" opacity="1.00" d=" M 178.67 105.78 C 180.08 103.99 181.36 101.20 184.08 101.66 C 182.62 103.93 181.23 106.23 179.93 108.60 C 184.74 112.34 189.75 115.80 194.77 119.26 C 198.90 122.09 202.27 125.90 206.51 128.60 C 209.37 130.52 212.95 130.49 216.15 131.51 C 219.89 132.51 223.40 134.73 227.40 134.50 C 232.55 134.25 237.76 133.86 242.83 135.04 C 246.33 135.92 249.96 135.57 253.36 134.45 C 253.45 135.60 253.54 136.75 253.64 137.91 C 256.80 138.16 259.97 138.70 262.82 140.17 C 264.98 141.58 267.49 140.26 269.55 139.30 C 275.39 136.19 280.85 132.42 286.26 128.61 C 288.36 127.07 291.03 126.92 293.55 127.04 C 293.58 129.69 293.81 132.38 293.35 135.01 C 293.01 136.68 291.60 138.46 289.71 138.11 C 285.44 137.89 281.38 139.43 277.33 140.54 C 271.92 141.93 266.89 145.07 261.12 144.66 C 260.44 145.91 259.80 147.18 259.01 148.37 C 257.65 146.66 256.59 144.74 255.56 142.82 C 248.39 144.85 241.17 147.92 233.56 146.51 C 230.77 150.34 227.76 154.29 223.16 156.04 C 218.79 157.52 215.57 160.79 212.27 163.83 C 208.15 166.18 204.02 168.82 201.92 173.29 C 204.45 173.87 207.06 174.48 209.66 174.01 C 215.26 173.36 219.42 168.70 225.02 168.09 C 228.32 167.68 231.65 167.86 234.97 167.90 C 241.24 168.12 247.53 166.96 253.77 168.02 C 259.77 168.93 266.39 167.40 270.09 162.25 C 271.70 165.44 272.27 168.98 272.59 172.50 C 273.67 173.20 274.75 173.90 275.84 174.60 C 275.61 176.73 275.49 178.90 275.83 181.02 C 277.24 182.52 279.32 183.00 281.14 183.82 C 282.07 182.00 283.01 180.19 283.96 178.37 C 286.22 178.89 288.47 179.58 290.81 179.67 C 294.45 177.05 296.57 172.82 300.07 169.99 C 299.47 171.21 298.89 172.44 298.28 173.65 C 295.38 178.22 294.45 183.56 293.91 188.85 C 293.50 193.30 291.31 197.26 288.91 200.93 C 285.03 199.62 281.29 197.07 279.95 193.03 C 278.04 188.47 277.04 182.23 271.44 180.83 C 270.30 184.44 269.15 188.14 269.36 191.98 C 269.34 196.39 271.02 200.55 271.52 204.90 C 269.63 205.81 267.40 204.85 265.41 204.69 C 260.85 209.14 263.17 215.75 262.03 221.34 C 267.13 222.75 271.49 226.50 276.95 226.53 C 282.89 226.77 288.82 227.21 294.76 227.51 C 295.30 231.66 294.89 235.84 294.20 239.95 C 292.93 247.88 293.24 256.29 289.56 263.64 C 286.96 268.71 285.19 274.13 283.61 279.60 C 282.99 279.81 281.76 280.22 281.14 280.43 C 281.43 278.72 281.67 277.02 281.93 275.31 C 276.60 275.42 271.29 276.51 265.97 275.93 C 263.52 275.73 262.14 273.44 260.52 271.91 C 268.19 268.10 276.91 266.55 283.87 261.33 C 285.14 262.08 286.41 262.82 287.68 263.57 C 288.83 261.74 290.36 260.01 290.75 257.83 C 290.89 254.90 287.79 252.77 285.06 253.01 C 280.37 253.12 275.71 253.74 271.02 253.97 C 265.74 254.18 260.92 257.30 255.56 256.75 C 251.09 256.56 248.37 252.06 244.00 251.60 C 238.93 250.97 233.83 250.54 228.74 250.17 C 228.92 249.81 229.28 249.08 229.47 248.72 C 231.17 248.05 232.89 247.38 234.59 246.70 C 228.78 245.00 222.35 244.60 217.42 240.70 C 214.23 238.83 213.44 235.04 212.02 231.93 C 210.96 229.14 208.26 227.64 206.04 225.90 C 202.99 223.67 200.30 221.02 197.48 218.53 C 193.87 215.17 188.98 213.89 184.84 211.36 C 185.69 209.91 186.54 208.47 187.39 207.04 C 185.61 203.48 183.42 200.14 180.67 197.26 C 181.77 196.43 182.86 195.61 183.96 194.78 C 183.40 194.10 182.86 193.40 182.32 192.71 C 182.41 188.91 177.85 186.79 178.61 182.87 C 179.06 178.46 178.81 173.79 180.58 169.66 C 187.61 164.31 197.46 164.95 204.23 159.17 C 202.89 158.06 201.55 156.95 200.21 155.84 C 200.46 152.43 200.37 148.99 199.86 145.61 C 193.61 145.91 189.31 140.45 183.13 140.44 C 181.58 139.90 180.07 139.28 178.55 138.67 C 180.21 137.58 181.96 136.59 183.49 135.32 C 183.43 133.58 182.88 131.92 182.48 130.26 C 182.87 129.40 183.26 128.55 183.66 127.70 C 178.19 127.22 172.44 127.54 168.04 131.23 C 169.03 129.51 170.12 127.82 170.81 125.96 C 171.57 123.45 171.10 120.66 172.34 118.29 C 174.44 114.11 175.72 109.50 178.67 105.78 M 231.72 169.71 C 225.22 171.10 217.48 171.50 212.89 176.95 C 208.78 177.74 204.66 179.01 201.18 181.40 C 199.50 182.99 198.10 184.87 196.13 186.12 C 195.42 186.81 193.61 187.42 194.35 188.73 C 195.62 192.41 199.90 193.52 203.11 194.96 C 206.84 196.96 210.32 193.25 214.11 193.73 C 218.41 194.24 222.72 194.42 227.05 194.34 C 231.84 194.09 235.79 198.01 240.56 197.62 C 242.90 195.49 244.70 192.44 248.17 192.13 C 249.15 193.75 249.37 196.97 251.96 196.53 C 255.62 196.19 259.34 195.95 262.91 195.06 C 264.77 190.74 262.86 185.02 266.23 181.13 C 268.66 178.02 270.42 174.14 268.78 170.22 C 261.83 170.24 254.87 170.74 247.98 169.53 C 242.56 169.81 237.14 169.94 231.72 169.71 M 202.93 202.58 C 200.87 202.54 200.25 205.30 201.16 206.80 C 202.32 209.23 203.66 211.63 205.44 213.68 C 206.65 214.39 207.89 212.92 209.08 212.62 C 209.46 213.91 208.95 215.99 210.69 216.30 C 211.42 215.38 212.14 214.43 212.83 213.47 C 213.82 213.80 214.81 214.14 215.80 214.49 C 216.98 213.33 218.15 212.18 219.33 211.03 C 218.37 209.61 217.40 208.19 216.44 206.78 C 216.10 208.06 215.78 209.36 215.45 210.65 C 214.38 209.37 213.22 208.16 212.38 206.73 C 212.14 204.45 212.47 202.16 212.65 199.90 C 209.46 200.97 206.27 202.10 202.93 202.58 M 240.38 209.32 C 235.57 210.67 231.19 213.34 227.01 216.00 C 223.50 218.34 225.86 222.84 227.01 225.86 C 227.95 228.71 231.15 229.87 233.92 229.86 C 236.49 227.83 238.70 225.31 241.30 223.28 C 243.93 220.05 245.52 215.33 243.69 211.33 C 243.18 210.02 241.87 208.87 240.38 209.32 M 247.55 232.76 C 248.00 236.31 252.39 236.25 254.55 238.31 C 256.79 240.83 258.14 244.13 260.85 246.23 C 264.49 247.13 268.32 246.67 272.04 246.80 C 274.00 246.66 276.16 247.01 277.96 246.07 C 281.03 242.94 282.93 238.32 281.51 233.98 C 276.43 233.00 272.17 229.64 267.04 228.87 C 262.11 227.93 257.39 230.10 252.75 231.43 C 250.37 227.90 250.22 223.64 251.55 219.68 C 247.43 222.59 247.04 228.16 247.55 232.76 Z" />
</g>
<g id="#4e6a67ff">
<path fill="#4e6a67" stroke="#4e6a67" stroke-width="0.09375" opacity="1.00" d=" M 390.84 104.17 C 391.92 105.54 393.03 106.90 394.13 108.27 C 396.13 106.84 398.13 105.41 400.00 103.81 L 400.00 400.00 L 382.42 400.00 C 381.24 390.36 376.78 381.62 372.92 372.85 C 366.11 360.81 357.69 348.92 345.54 341.81 C 335.78 335.71 324.04 333.96 314.46 327.55 C 312.78 326.36 311.74 324.53 310.48 322.97 C 316.44 325.45 322.17 328.43 327.46 332.15 C 329.32 329.57 330.64 326.67 331.61 323.65 C 330.01 323.48 328.41 323.31 326.81 323.14 C 329.57 319.67 332.46 316.16 334.01 311.94 C 335.04 309.45 333.96 306.78 333.53 304.28 C 332.56 304.75 331.59 305.22 330.62 305.69 C 329.86 304.91 329.10 304.14 328.34 303.36 C 331.23 299.22 333.63 294.69 334.38 289.64 C 334.80 291.82 335.26 294.00 335.76 296.17 C 336.73 290.27 332.59 284.61 335.24 278.89 C 330.88 272.15 333.50 263.95 335.59 256.91 C 334.31 256.40 333.04 255.90 331.77 255.40 C 333.70 253.36 336.02 251.45 336.96 248.71 C 337.49 246.43 336.73 244.12 336.62 241.84 C 336.25 238.61 337.52 235.52 338.37 232.47 C 340.91 232.68 343.63 232.64 345.87 234.06 C 348.00 235.43 349.41 237.59 350.97 239.54 C 353.46 236.99 355.96 234.30 356.75 230.69 C 361.63 231.97 364.23 226.77 367.41 224.11 C 367.80 225.74 368.21 227.36 368.61 228.99 C 371.02 228.98 373.44 228.97 375.86 228.97 C 376.27 225.67 376.26 222.35 375.91 219.04 C 374.85 220.76 373.82 222.50 372.79 224.24 C 372.16 224.07 370.89 223.74 370.25 223.58 C 368.20 219.39 368.66 214.60 369.14 210.13 C 370.05 208.96 371.21 208.02 372.29 207.02 C 372.05 205.80 371.74 204.60 371.66 203.37 C 373.25 200.60 376.88 198.59 376.11 194.92 C 376.21 192.79 373.88 192.11 372.56 190.94 C 372.21 188.82 371.88 186.70 371.57 184.57 C 370.65 184.24 369.73 183.92 368.82 183.60 C 370.06 181.84 371.91 180.24 372.13 177.99 C 371.67 176.17 369.40 175.91 368.10 174.91 C 369.70 167.30 369.63 159.51 370.58 151.83 C 372.05 152.82 373.51 153.82 374.97 154.83 C 375.56 154.20 376.15 153.57 376.75 152.95 C 378.06 153.07 379.37 153.19 380.69 153.30 C 379.79 152.14 378.96 150.93 377.94 149.88 C 374.69 150.02 371.49 150.78 368.25 150.98 C 368.26 149.85 368.28 148.72 368.30 147.60 C 372.72 147.63 376.86 146.07 379.60 142.49 C 377.03 140.68 373.92 140.26 370.85 140.33 C 371.29 138.46 371.78 136.55 373.08 135.06 C 375.90 131.70 376.71 127.27 378.73 123.46 C 379.81 123.78 380.89 124.09 381.97 124.41 C 381.37 122.34 380.55 120.29 380.45 118.13 C 380.94 114.80 382.91 111.95 384.46 109.05 C 386.30 108.78 388.17 108.60 389.95 108.00 C 390.38 106.76 390.57 105.45 390.84 104.17 Z" />
</g>
<g id="#51555bff">
<path fill="#51555b" stroke="#51555b" stroke-width="0.09375" opacity="1.00" d=" M 235.83 115.67 C 239.93 112.65 245.20 112.30 250.10 111.83 C 249.36 113.14 248.69 114.50 247.73 115.67 C 244.84 116.79 241.70 117.14 238.76 118.11 C 242.87 118.54 247.24 118.45 250.83 120.83 C 250.07 122.29 249.31 123.75 248.55 125.21 C 250.13 125.86 251.70 126.54 253.21 127.35 C 250.47 128.38 247.78 129.60 244.95 130.39 C 241.44 129.95 238.03 127.57 236.43 124.39 C 235.74 121.55 236.15 118.56 235.83 115.67 Z" />
</g>
<g id="#355f69ff">
<path fill="#355f69" stroke="#355f69" stroke-width="0.09375" opacity="1.00" d=" M 0.00 124.04 C 1.59 123.28 3.21 122.61 4.83 121.93 C 7.10 125.72 10.39 129.29 10.27 134.01 C 11.25 141.32 7.90 148.27 7.80 155.46 C 11.50 164.96 9.85 175.32 9.45 185.23 C 9.34 187.30 10.62 189.06 11.43 190.87 C 9.50 193.00 8.32 195.61 8.09 198.48 C 5.51 200.79 2.70 202.81 0.00 204.96 L 0.00 124.04 Z" />
</g>
<g id="#283b42ff">
<path fill="#283b42" stroke="#283b42" stroke-width="0.09375" opacity="1.00" d=" M 129.64 134.57 C 132.96 133.84 136.01 131.87 139.55 132.29 C 139.51 132.76 139.44 133.70 139.41 134.16 C 137.59 135.10 135.21 135.40 133.93 137.09 C 133.97 138.82 134.92 140.35 135.54 141.93 C 134.55 143.99 133.35 145.95 132.03 147.82 C 128.48 146.31 124.50 145.19 121.79 142.29 C 120.29 139.46 120.97 136.16 121.33 133.14 C 124.12 133.52 126.84 134.34 129.64 134.57 Z" />
</g>
<g id="#252628ff">
<path fill="#252628" stroke="#252628" stroke-width="0.09375" opacity="1.00" d=" M 183.13 140.44 C 189.31 140.45 193.61 145.91 199.86 145.61 C 200.37 148.99 200.46 152.43 200.21 155.84 C 201.55 156.95 202.89 158.06 204.23 159.17 C 197.46 164.95 187.61 164.31 180.58 169.66 C 178.81 173.79 179.06 178.46 178.61 182.87 C 177.85 186.79 182.41 188.91 182.32 192.71 C 182.86 193.40 183.40 194.10 183.96 194.78 C 182.86 195.61 181.77 196.43 180.67 197.26 C 183.42 200.14 185.61 203.48 187.39 207.04 C 186.54 208.47 185.69 209.91 184.84 211.36 C 188.98 213.89 193.87 215.17 197.48 218.53 C 200.30 221.02 202.99 223.67 206.04 225.90 C 208.26 227.64 210.96 229.14 212.02 231.93 C 213.44 235.04 214.23 238.83 217.42 240.70 C 222.35 244.60 228.78 245.00 234.59 246.70 C 232.89 247.38 231.17 248.05 229.47 248.72 C 229.28 249.08 228.92 249.81 228.74 250.17 C 233.83 250.54 238.93 250.97 244.00 251.60 C 248.37 252.06 251.09 256.56 255.56 256.75 C 260.92 257.30 265.74 254.18 271.02 253.97 C 275.71 253.74 280.37 253.12 285.06 253.01 C 287.79 252.77 290.89 254.90 290.75 257.83 C 290.36 260.01 288.83 261.74 287.68 263.57 C 286.41 262.82 285.14 262.08 283.87 261.33 C 276.91 266.55 268.19 268.10 260.52 271.91 C 262.14 273.44 263.52 275.73 265.97 275.93 C 271.29 276.51 276.60 275.42 281.93 275.31 C 281.67 277.02 281.43 278.72 281.14 280.43 C 280.22 285.51 275.45 288.26 271.07 290.03 C 264.23 291.75 257.02 289.50 250.18 291.19 C 248.42 291.84 246.71 294.16 247.85 295.99 C 250.59 297.97 253.86 299.22 257.19 299.72 C 261.18 300.01 264.98 298.42 268.88 297.81 C 272.50 297.03 276.23 297.46 279.83 298.14 C 279.30 300.79 278.76 303.45 278.25 306.11 C 277.28 306.91 276.30 307.67 275.30 308.43 C 269.77 310.51 264.08 312.15 258.28 313.25 C 258.29 312.88 258.32 312.15 258.33 311.78 C 255.41 310.19 252.60 308.41 249.84 306.57 C 247.27 307.13 244.57 308.01 241.95 307.16 C 237.91 305.90 234.30 303.51 230.89 301.06 C 227.95 299.07 227.49 295.24 225.24 292.71 C 223.57 291.17 221.11 291.29 219.03 290.79 C 214.87 290.36 211.22 287.86 206.99 287.88 C 203.44 287.86 199.94 287.19 196.70 285.75 C 197.47 283.48 199.09 281.69 200.26 279.65 C 200.34 278.01 200.12 276.38 200.01 274.76 C 197.39 274.45 194.91 275.26 192.67 276.56 C 192.25 275.25 191.83 273.94 191.40 272.64 C 190.02 272.20 188.63 271.76 187.26 271.32 C 187.77 269.04 188.58 266.76 188.47 264.40 C 187.94 261.76 186.26 259.55 184.94 257.27 C 179.33 258.20 173.67 258.80 168.08 259.88 C 169.69 258.78 171.29 257.67 172.89 256.56 C 171.34 256.22 169.79 255.88 168.24 255.55 C 168.41 250.07 167.69 243.81 162.61 240.63 C 161.25 240.26 159.84 240.11 158.46 239.89 C 158.78 241.71 160.71 243.86 159.00 245.47 C 155.98 245.71 155.15 242.63 153.94 240.55 C 153.28 240.36 152.63 240.17 151.98 239.99 C 151.62 241.54 151.26 243.10 150.89 244.66 C 147.18 240.26 149.07 234.35 147.85 229.19 C 146.78 224.28 147.64 219.31 148.44 214.44 C 144.89 215.50 141.95 218.05 140.07 221.19 C 138.91 223.63 139.24 227.16 136.43 228.47 C 132.75 230.52 128.40 228.88 124.52 228.39 C 116.10 224.83 112.02 215.99 105.96 209.69 C 103.30 212.85 104.46 216.78 105.84 220.21 C 104.65 219.31 103.46 218.41 102.27 217.53 C 101.12 209.23 105.48 201.15 103.23 192.90 C 103.01 190.31 100.49 189.05 99.27 187.03 C 100.35 185.01 101.87 183.28 103.14 181.39 C 105.16 178.42 106.31 174.32 109.94 172.91 C 113.70 171.51 117.74 171.11 121.67 170.40 C 121.66 169.35 121.65 168.30 121.65 167.25 C 118.54 166.74 115.41 166.44 112.30 166.08 L 111.98 165.07 C 117.88 164.81 124.56 165.08 129.20 169.22 C 129.36 172.76 130.83 175.98 132.99 178.74 C 127.79 176.01 122.06 173.54 116.07 173.93 C 112.89 174.89 108.87 177.10 109.12 180.97 C 109.28 186.53 108.16 192.74 111.59 197.58 C 112.54 193.17 112.80 188.53 114.75 184.40 C 115.39 182.70 117.43 182.51 118.85 181.78 C 120.55 186.67 118.85 191.60 116.69 196.03 C 118.24 197.99 119.59 200.60 122.27 201.15 C 125.34 201.90 128.15 199.95 130.99 199.11 C 132.86 198.34 134.87 199.07 136.77 199.33 C 137.10 195.85 138.64 192.75 141.23 190.41 C 142.37 191.37 143.50 192.33 144.65 193.30 C 144.65 193.50 144.64 193.89 144.64 194.09 C 144.73 195.60 144.78 197.16 145.37 198.58 C 147.13 199.91 149.20 200.74 151.17 201.72 C 151.13 204.91 151.67 208.06 152.86 211.02 C 154.46 214.56 151.79 218.27 152.58 221.83 C 155.07 226.34 159.51 229.34 162.32 233.63 C 164.75 237.43 167.83 240.76 171.42 243.49 C 172.81 241.18 173.65 238.59 173.92 235.91 C 175.26 235.26 176.62 234.62 177.97 233.98 C 175.38 229.47 174.99 224.26 175.75 219.21 C 172.89 217.09 169.76 214.56 165.94 215.24 C 167.14 211.59 169.59 208.54 170.94 204.98 C 171.99 202.41 169.76 200.39 168.45 198.47 C 169.63 194.69 170.72 190.67 169.73 186.70 C 169.43 183.67 167.33 180.65 168.54 177.60 C 170.72 171.78 172.47 165.46 177.32 161.20 C 179.55 159.44 177.77 156.60 177.33 154.41 C 179.55 153.85 183.16 153.18 182.77 150.11 C 181.08 147.34 178.97 144.73 178.33 141.46 C 179.92 141.10 181.52 140.72 183.13 140.44 M 120.97 217.91 C 119.89 218.40 118.40 218.56 118.07 219.92 C 121.24 222.47 125.54 222.50 129.29 223.65 C 132.43 221.74 132.63 217.03 129.19 215.31 C 126.33 215.71 123.69 216.99 120.97 217.91 M 262.96 258.12 C 255.28 260.40 247.22 260.96 239.43 262.71 C 236.71 263.25 237.62 266.50 237.32 268.49 C 242.66 268.67 248.02 268.90 253.33 268.28 C 259.71 267.46 266.32 267.71 272.39 265.28 C 276.79 263.94 279.66 260.04 283.83 258.24 C 280.04 255.60 275.19 256.18 270.84 255.45 C 267.81 254.69 265.63 257.29 262.96 258.12 Z" />
</g>
<g id="#171c1fff">
<path fill="#171c1f" stroke="#171c1f" stroke-width="0.09375" opacity="1.00" d=" M 151.19 141.22 C 155.25 141.90 159.36 142.23 163.41 142.95 C 166.57 144.40 168.85 147.21 171.50 149.39 C 171.54 150.89 171.58 152.39 171.63 153.89 C 173.53 154.08 175.42 154.28 177.33 154.41 C 177.77 156.60 179.55 159.44 177.32 161.20 C 172.47 165.46 170.72 171.78 168.54 177.60 C 167.33 180.65 169.43 183.67 169.73 186.70 C 170.72 190.67 169.63 194.69 168.45 198.47 C 169.76 200.39 171.99 202.41 170.94 204.98 C 169.59 208.54 167.14 211.59 165.94 215.24 C 169.76 214.56 172.89 217.09 175.75 219.21 C 174.99 224.26 175.38 229.47 177.97 233.98 C 176.62 234.62 175.26 235.26 173.92 235.91 C 173.65 238.59 172.81 241.18 171.42 243.49 C 167.83 240.76 164.75 237.43 162.32 233.63 C 159.51 229.34 155.07 226.34 152.58 221.83 C 151.79 218.27 154.46 214.56 152.86 211.02 C 151.67 208.06 151.13 204.91 151.17 201.72 C 149.20 200.74 147.13 199.91 145.37 198.58 C 144.78 197.16 144.73 195.60 144.64 194.09 C 145.43 194.17 147.00 194.33 147.78 194.42 C 148.45 195.81 149.12 197.20 149.79 198.60 C 153.74 197.85 158.02 197.67 161.54 195.53 C 163.99 191.73 163.08 186.80 163.40 182.47 C 161.14 181.90 158.87 180.84 156.50 181.18 C 154.68 182.90 153.07 186.76 149.97 185.19 C 146.75 182.59 147.52 177.74 147.24 174.04 C 150.71 174.97 154.21 175.82 157.74 176.56 C 158.15 175.44 158.56 174.31 158.98 173.19 C 162.94 172.41 166.80 169.97 168.02 165.94 C 167.85 163.56 165.18 162.11 164.91 159.72 C 164.66 157.00 164.73 154.27 164.66 151.54 C 163.81 151.35 162.95 151.17 162.10 150.99 C 161.64 152.25 161.19 153.50 160.74 154.76 C 159.14 154.86 157.54 154.95 155.95 155.04 C 156.48 154.45 157.01 153.85 157.54 153.26 C 155.15 152.15 152.32 151.26 151.20 148.62 C 149.67 146.36 150.53 143.61 151.19 141.22 Z" />
</g>
<g id="#373a3cff">
<path fill="#373a3c" stroke="#373a3c" stroke-width="0.09375" opacity="1.00" d=" M 292.38 153.23 C 295.72 152.11 298.07 149.33 300.50 146.92 C 303.58 148.40 305.86 151.48 306.18 154.89 C 305.16 160.26 302.48 165.14 300.07 169.99 C 300.68 165.31 302.90 161.03 303.62 156.39 C 303.91 154.94 303.00 152.92 301.26 153.35 C 297.59 153.72 294.20 155.31 290.70 156.38 C 287.86 157.42 284.46 158.08 282.77 160.88 C 279.94 165.16 277.89 169.91 275.84 174.60 C 274.75 173.90 273.67 173.20 272.59 172.50 C 272.27 168.98 271.70 165.44 270.09 162.25 C 266.39 167.40 259.77 168.93 253.77 168.02 C 247.53 166.96 241.24 168.12 234.97 167.90 C 231.65 167.86 228.32 167.68 225.02 168.09 C 219.42 168.70 215.26 173.36 209.66 174.01 C 207.06 174.48 204.45 173.87 201.92 173.29 C 204.02 168.82 208.15 166.18 212.27 163.83 C 215.57 160.79 218.79 157.52 223.16 156.04 C 221.69 157.73 220.38 159.54 219.06 161.36 C 222.13 162.25 225.19 163.28 228.37 163.71 C 231.28 163.94 234.13 163.16 236.95 162.59 C 239.00 164.15 241.18 165.83 243.92 165.70 C 250.25 165.89 256.81 166.77 263.00 165.05 C 268.05 163.14 268.24 157.00 268.86 152.46 C 270.30 154.24 271.74 156.02 273.19 157.81 C 274.16 156.67 275.13 155.54 276.12 154.41 C 281.54 154.78 287.14 154.99 292.38 153.23 Z" />
</g>
<g id="#0f1519ff">
<path fill="#0f1519" stroke="#0f1519" stroke-width="0.09375" opacity="1.00" d=" M 105.79 151.73 C 109.26 150.86 112.75 152.17 116.22 152.41 C 121.23 152.95 126.18 151.13 131.18 151.78 C 135.31 152.71 138.99 155.34 143.32 155.42 C 147.53 155.53 151.74 155.22 155.95 155.04 C 157.54 154.95 159.14 154.86 160.74 154.76 C 161.19 153.50 161.64 152.25 162.10 150.99 C 162.95 151.17 163.81 151.35 164.66 151.54 C 164.73 154.27 164.66 157.00 164.91 159.72 C 165.18 162.11 167.85 163.56 168.02 165.94 C 166.80 169.97 162.94 172.41 158.98 173.19 C 158.56 174.31 158.15 175.44 157.74 176.56 C 154.21 175.82 150.71 174.97 147.24 174.04 C 147.52 177.74 146.75 182.59 149.97 185.19 C 153.07 186.76 154.68 182.90 156.50 181.18 C 158.87 180.84 161.14 181.90 163.40 182.47 C 163.08 186.80 163.99 191.73 161.54 195.53 C 158.02 197.67 153.74 197.85 149.79 198.60 C 149.12 197.20 148.45 195.81 147.78 194.42 C 147.00 194.33 145.43 194.17 144.64 194.09 C 144.64 193.89 144.65 193.50 144.65 193.30 C 144.96 191.32 144.44 189.36 143.26 187.76 C 138.92 181.33 135.17 174.34 129.20 169.22 C 124.56 165.08 117.88 164.81 111.98 165.07 C 109.28 166.37 106.78 168.04 104.29 169.71 C 103.29 168.14 102.16 166.63 101.45 164.90 C 101.78 161.69 104.31 159.29 106.01 156.71 C 105.87 155.05 105.68 153.39 105.79 151.73 M 124.36 157.95 C 125.72 159.59 128.79 161.99 130.13 159.03 C 131.44 157.50 129.72 156.02 128.94 154.79 C 127.33 155.72 125.80 156.78 124.36 157.95 Z" />
</g>
<g id="#1e2428ff">
<path fill="#1e2428" stroke="#1e2428" stroke-width="0.09375" opacity="1.00" d=" M 301.26 153.35 C 303.00 152.92 303.91 154.94 303.62 156.39 C 302.90 161.03 300.68 165.31 300.07 169.99 C 296.57 172.82 294.45 177.05 290.81 179.67 C 288.47 179.58 286.22 178.89 283.96 178.37 C 283.01 180.19 282.07 182.00 281.14 183.82 C 279.32 183.00 277.24 182.52 275.83 181.02 C 275.49 178.90 275.61 176.73 275.84 174.60 C 277.89 169.91 279.94 165.16 282.77 160.88 C 284.46 158.08 287.86 157.42 290.70 156.38 C 294.20 155.31 297.59 153.72 301.26 153.35 M 287.40 162.37 C 285.36 166.22 282.85 169.76 279.40 172.48 C 277.24 173.97 277.25 176.64 277.07 178.99 C 279.06 177.01 281.12 175.01 283.80 173.98 C 285.81 175.41 287.89 176.76 289.99 178.07 C 292.54 175.25 295.23 172.55 297.69 169.64 C 298.85 168.51 298.67 166.80 298.96 165.33 C 298.12 164.93 297.30 164.53 296.47 164.13 C 295.99 162.74 295.81 161.19 294.96 159.96 C 292.41 158.33 289.24 160.60 287.40 162.37 Z" />
</g>
<g id="#212e32ff">
<path fill="#212e32" stroke="#212e32" stroke-width="0.09375" opacity="1.00" d=" M 124.36 157.95 C 125.80 156.78 127.33 155.72 128.94 154.79 C 129.72 156.02 131.44 157.50 130.13 159.03 C 128.79 161.99 125.72 159.59 124.36 157.95 Z" />
</g>
<g id="#14181aff">
<path fill="#14181a" stroke="#14181a" stroke-width="0.09375" opacity="1.00" d=" M 287.40 162.37 C 289.24 160.60 292.41 158.33 294.96 159.96 C 295.81 161.19 295.99 162.74 296.47 164.13 C 297.30 164.53 298.12 164.93 298.96 165.33 C 298.67 166.80 298.85 168.51 297.69 169.64 C 295.23 172.55 292.54 175.25 289.99 178.07 C 287.89 176.76 285.81 175.41 283.80 173.98 C 281.12 175.01 279.06 177.01 277.07 178.99 C 277.25 176.64 277.24 173.97 279.40 172.48 C 282.85 169.76 285.36 166.22 287.40 162.37 Z" />
</g>
<g id="#3a3b3dff">
<path fill="#3a3b3d" stroke="#3a3b3d" stroke-width="0.09375" opacity="1.00" d=" M 112.30 166.08 C 115.41 166.44 118.54 166.74 121.65 167.25 C 121.65 168.30 121.66 169.35 121.67 170.40 C 117.74 171.11 113.70 171.51 109.94 172.91 C 106.31 174.32 105.16 178.42 103.14 181.39 C 101.65 181.55 100.16 181.70 98.68 181.85 C 99.93 179.09 101.82 176.41 101.68 173.24 C 105.24 170.89 109.07 168.90 112.30 166.08 Z" />
</g>
<g id="#1d1f21ff">
<path fill="#1d1f21" stroke="#1d1f21" stroke-width="0.09375" opacity="1.00" d=" M 231.72 169.71 C 237.14 169.94 242.56 169.81 247.98 169.53 C 254.87 170.74 261.83 170.24 268.78 170.22 C 270.42 174.14 268.66 178.02 266.23 181.13 C 262.86 185.02 264.77 190.74 262.91 195.06 C 259.34 195.95 255.62 196.19 251.96 196.53 C 249.37 196.97 249.15 193.75 248.17 192.13 C 244.70 192.44 242.90 195.49 240.56 197.62 C 235.79 198.01 231.84 194.09 227.05 194.34 C 222.72 194.42 218.41 194.24 214.11 193.73 C 210.32 193.25 206.84 196.96 203.11 194.96 C 199.90 193.52 195.62 192.41 194.35 188.73 C 193.61 187.42 195.42 186.81 196.13 186.12 C 198.10 184.87 199.50 182.99 201.18 181.40 C 204.66 179.01 208.78 177.74 212.89 176.95 C 217.48 171.50 225.22 171.10 231.72 169.71 M 240.76 180.08 C 235.77 178.35 230.42 179.97 226.77 183.67 C 230.52 188.02 236.46 189.37 241.98 188.98 C 244.38 188.00 245.76 185.62 247.40 183.75 C 247.10 182.84 246.80 181.94 246.52 181.04 C 247.10 180.19 247.68 179.34 248.27 178.50 C 245.54 177.05 242.66 177.69 240.76 180.08 Z" />
</g>
<g id="#1a1717ff">
<path fill="#1a1717" stroke="#1a1717" stroke-width="0.09375" opacity="1.00" d=" M 129.20 169.22 C 135.17 174.34 138.92 181.33 143.26 187.76 C 144.44 189.36 144.96 191.32 144.65 193.30 C 143.50 192.33 142.37 191.37 141.23 190.41 C 138.64 192.75 137.10 195.85 136.77 199.33 C 134.87 199.07 132.86 198.34 130.99 199.11 C 128.15 199.95 125.34 201.90 122.27 201.15 C 119.59 200.60 118.24 197.99 116.69 196.03 C 118.85 191.60 120.55 186.67 118.85 181.78 C 117.43 182.51 115.39 182.70 114.75 184.40 C 112.80 188.53 112.54 193.17 111.59 197.58 C 108.16 192.74 109.28 186.53 109.12 180.97 C 108.87 177.10 112.89 174.89 116.07 173.93 C 122.06 173.54 127.79 176.01 132.99 178.74 C 130.83 175.98 129.36 172.76 129.20 169.22 Z" />
</g>
<g id="#3f4143ff">
<path fill="#3f4143" stroke="#3f4143" stroke-width="0.09375" opacity="1.00" d=" M 293.91 188.85 C 294.45 183.56 295.38 178.22 298.28 173.65 C 297.69 178.08 297.67 182.58 298.80 186.92 C 300.59 194.72 298.33 202.65 299.07 210.50 C 299.35 215.02 298.45 219.50 298.40 224.01 C 298.36 229.78 296.41 235.30 295.94 241.02 C 295.30 249.33 293.95 257.81 290.20 265.33 C 286.12 274.86 283.81 285.02 282.68 295.29 L 282.14 296.76 C 280.89 290.98 282.29 285.21 283.61 279.60 C 285.19 274.13 286.96 268.71 289.56 263.64 C 293.24 256.29 292.93 247.88 294.20 239.95 C 294.89 235.84 295.30 231.66 294.76 227.51 C 288.82 227.21 282.89 226.77 276.95 226.53 C 271.49 226.50 267.13 222.75 262.03 221.34 C 263.17 215.75 260.85 209.14 265.41 204.69 C 267.40 204.85 269.63 205.81 271.52 204.90 C 271.02 200.55 269.34 196.39 269.36 191.98 C 269.15 188.14 270.30 184.44 271.44 180.83 C 277.04 182.23 278.04 188.47 279.95 193.03 C 281.29 197.07 285.03 199.62 288.91 200.93 C 291.31 197.26 293.50 193.30 293.91 188.85 Z" />
</g>
<g id="#0f1013ff">
<path fill="#0f1013" stroke="#0f1013" stroke-width="0.09375" opacity="1.00" d=" M 240.76 180.08 C 242.66 177.69 245.54 177.05 248.27 178.50 C 247.68 179.34 247.10 180.19 246.52 181.04 C 246.80 181.94 247.10 182.84 247.40 183.75 C 245.76 185.62 244.38 188.00 241.98 188.98 C 236.46 189.37 230.52 188.02 226.77 183.67 C 230.42 179.97 235.77 178.35 240.76 180.08 Z" />
</g>
<g id="#435952ff">
<path fill="#435952" stroke="#435952" stroke-width="0.09375" opacity="1.00" d=" M 71.55 185.60 C 72.11 186.58 72.68 187.55 73.25 188.53 C 74.56 188.76 75.86 188.99 77.17 189.23 C 77.01 190.02 76.84 190.81 76.68 191.60 C 76.49 192.47 76.31 193.34 76.13 194.21 C 78.30 194.50 80.54 194.57 82.63 195.30 C 85.28 196.81 86.62 199.74 88.86 201.70 C 90.58 202.54 92.50 202.87 94.22 203.71 C 95.61 205.77 96.50 208.12 97.61 210.34 C 98.32 212.32 99.00 214.33 99.96 216.21 C 101.27 218.70 103.74 220.38 104.94 222.94 C 105.74 224.47 106.25 226.16 107.26 227.58 C 109.43 229.16 112.19 229.93 113.97 232.03 C 116.42 234.93 117.87 238.77 121.28 240.78 C 123.95 242.35 126.02 244.72 126.94 247.71 C 124.10 250.78 121.55 254.10 119.12 257.51 C 115.93 258.12 112.96 259.46 110.34 261.37 C 106.53 264.17 101.62 262.58 97.31 263.24 C 96.41 264.24 95.69 265.38 94.90 266.47 C 87.38 267.25 80.46 270.36 73.17 272.10 C 70.56 273.31 68.82 275.87 66.19 277.04 C 63.86 277.21 61.54 276.74 59.21 276.77 C 61.85 273.54 63.30 269.60 65.07 265.88 C 66.03 263.70 67.25 261.46 66.96 259.00 C 66.61 253.81 66.57 248.60 67.04 243.42 C 67.57 238.24 69.57 233.22 69.27 227.96 C 69.30 226.11 67.90 224.76 66.95 223.34 C 68.27 222.52 69.59 221.70 70.91 220.88 C 69.80 219.40 68.70 217.91 67.60 216.43 C 69.06 216.07 70.52 215.69 71.97 215.33 C 69.22 212.69 66.29 210.24 63.61 207.53 C 61.59 204.49 60.34 201.03 59.22 197.59 C 60.76 196.65 62.31 195.72 63.82 194.73 C 67.44 192.71 69.95 189.35 71.55 185.60 Z" />
</g>
<g id="#3b3c3bff">
<path fill="#3b3c3b" stroke="#3b3c3b" stroke-width="0.09375" opacity="1.00" d=" M 202.93 202.58 C 206.27 202.10 209.46 200.97 212.65 199.90 C 212.47 202.16 212.14 204.45 212.38 206.73 C 213.22 208.16 214.38 209.37 215.45 210.65 C 215.78 209.36 216.10 208.06 216.44 206.78 C 217.40 208.19 218.37 209.61 219.33 211.03 C 218.15 212.18 216.98 213.33 215.80 214.49 C 214.81 214.14 213.82 213.80 212.83 213.47 C 212.14 214.43 211.42 215.38 210.69 216.30 C 208.95 215.99 209.46 213.91 209.08 212.62 C 207.89 212.92 206.65 214.39 205.44 213.68 C 203.66 211.63 202.32 209.23 201.16 206.80 C 200.25 205.30 200.87 202.54 202.93 202.58 Z" />
</g>
<g id="#3e3e40ff">
<path fill="#3e3e40" stroke="#3e3e40" stroke-width="0.09375" opacity="1.00" d=" M 240.38 209.32 C 241.87 208.87 243.18 210.02 243.69 211.33 C 245.52 215.33 243.93 220.05 241.30 223.28 C 238.70 225.31 236.49 227.83 233.92 229.86 C 231.15 229.87 227.95 228.71 227.01 225.86 C 225.86 222.84 223.50 218.34 227.01 216.00 C 231.19 213.34 235.57 210.67 240.38 209.32 Z" />
</g>
<g id="#121619ff">
<path fill="#121619" stroke="#121619" stroke-width="0.09375" opacity="1.00" d=" M 105.96 209.69 C 112.02 215.99 116.10 224.83 124.52 228.39 C 127.05 229.70 129.78 230.97 131.67 233.18 C 133.01 237.65 131.87 242.34 131.69 246.89 C 130.24 245.29 128.79 243.65 127.02 242.38 C 121.71 238.95 118.04 233.72 113.98 229.00 C 112.47 227.03 109.98 226.51 107.74 225.81 C 107.11 223.94 106.48 222.07 105.84 220.21 C 104.46 216.78 103.30 212.85 105.96 209.69 Z" />
</g>
<g id="#1f1d1dff">
<path fill="#1f1d1d" stroke="#1f1d1d" stroke-width="0.09375" opacity="1.00" d=" M 140.07 221.19 C 141.95 218.05 144.89 215.50 148.44 214.44 C 147.64 219.31 146.78 224.28 147.85 229.19 C 149.07 234.35 147.18 240.26 150.89 244.66 C 151.26 243.10 151.62 241.54 151.98 239.99 C 152.63 240.17 153.28 240.36 153.94 240.55 C 155.15 242.63 155.98 245.71 159.00 245.47 C 160.71 243.86 158.78 241.71 158.46 239.89 C 159.84 240.11 161.25 240.26 162.61 240.63 C 167.69 243.81 168.41 250.07 168.24 255.55 C 169.79 255.88 171.34 256.22 172.89 256.56 C 171.29 257.67 169.69 258.78 168.08 259.88 C 173.67 258.80 179.33 258.20 184.94 257.27 C 186.26 259.55 187.94 261.76 188.47 264.40 C 188.58 266.76 187.77 269.04 187.26 271.32 C 188.63 271.76 190.02 272.20 191.40 272.64 C 191.83 273.94 192.25 275.25 192.67 276.56 C 194.91 275.26 197.39 274.45 200.01 274.76 C 200.12 276.38 200.34 278.01 200.26 279.65 C 199.09 281.69 197.47 283.48 196.70 285.75 C 199.94 287.19 203.44 287.86 206.99 287.88 C 211.22 287.86 214.87 290.36 219.03 290.79 C 221.11 291.29 223.57 291.17 225.24 292.71 C 227.49 295.24 227.95 299.07 230.89 301.06 C 234.30 303.51 237.91 305.90 241.95 307.16 C 244.57 308.01 247.27 307.13 249.84 306.57 C 252.60 308.41 255.41 310.19 258.33 311.78 C 258.32 312.15 258.29 312.88 258.28 313.25 C 255.05 313.89 251.91 314.87 248.80 315.90 C 247.34 319.80 246.80 323.94 246.91 328.10 C 247.06 331.78 244.54 334.72 242.87 337.78 C 240.86 340.98 240.51 344.84 240.19 348.53 C 237.30 352.79 234.81 357.34 231.63 361.41 C 226.79 360.45 221.39 359.00 216.81 361.63 C 211.80 364.66 206.68 367.71 200.98 369.23 C 197.07 369.70 193.47 367.22 191.73 363.83 C 194.38 362.96 197.04 362.12 199.71 361.30 C 198.28 359.70 196.72 358.17 195.63 356.30 C 194.40 353.76 194.74 350.79 193.73 348.19 C 191.68 347.26 189.25 347.84 187.06 347.53 C 182.00 347.42 178.49 343.30 174.59 340.67 C 169.09 337.03 164.68 332.09 160.31 327.23 C 162.70 324.67 164.85 321.91 166.75 318.98 C 167.77 319.11 168.79 319.24 169.82 319.39 C 170.75 318.14 171.75 316.94 172.47 315.55 C 172.87 312.50 171.73 309.43 172.40 306.38 C 173.10 302.18 173.85 297.43 171.54 293.58 C 169.25 291.25 165.62 291.13 163.14 289.13 C 161.34 286.60 160.49 283.58 159.05 280.87 C 157.51 277.39 153.17 276.36 151.72 272.82 C 153.51 272.34 155.30 271.87 157.09 271.41 C 153.10 268.86 148.94 266.59 144.82 264.25 C 141.29 262.37 140.35 258.00 137.28 255.59 C 133.96 252.91 129.98 250.73 128.20 246.63 C 127.82 245.21 127.42 243.79 127.02 242.38 C 128.79 243.65 130.24 245.29 131.69 246.89 C 131.87 242.34 133.01 237.65 131.67 233.18 C 129.78 230.97 127.05 229.70 124.52 228.39 C 128.40 228.88 132.75 230.52 136.43 228.47 C 139.24 227.16 138.91 223.63 140.07 221.19 Z" />
</g>
<g id="#464645ff">
<path fill="#464645" stroke="#464645" stroke-width="0.09375" opacity="1.00" d=" M 120.97 217.91 C 123.69 216.99 126.33 215.71 129.19 215.31 C 132.63 217.03 132.43 221.74 129.29 223.65 C 125.54 222.50 121.24 222.47 118.07 219.92 C 118.40 218.56 119.89 218.40 120.97 217.91 Z" />
</g>
<g id="#1a1b1eff">
<path fill="#1a1b1e" stroke="#1a1b1e" stroke-width="0.09375" opacity="1.00" d=" M 247.55 232.76 C 247.04 228.16 247.43 222.59 251.55 219.68 C 250.22 223.64 250.37 227.90 252.75 231.43 C 257.39 230.10 262.11 227.93 267.04 228.87 C 272.17 229.64 276.43 233.00 281.51 233.98 C 282.93 238.32 281.03 242.94 277.96 246.07 C 276.16 247.01 274.00 246.66 272.04 246.80 C 268.32 246.67 264.49 247.13 260.85 246.23 C 258.14 244.13 256.79 240.83 254.55 238.31 C 252.39 236.25 248.00 236.31 247.55 232.76 Z" />
</g>
<g id="#2c2a2aff">
<path fill="#2c2a2a" stroke="#2c2a2a" stroke-width="0.09375" opacity="1.00" d=" M 128.20 246.63 C 129.98 250.73 133.96 252.91 137.28 255.59 C 140.35 258.00 141.29 262.37 144.82 264.25 C 148.94 266.59 153.10 268.86 157.09 271.41 C 155.30 271.87 153.51 272.34 151.72 272.82 C 153.17 276.36 157.51 277.39 159.05 280.87 C 160.49 283.58 161.34 286.60 163.14 289.13 C 165.62 291.13 169.25 291.25 171.54 293.58 C 173.85 297.43 173.10 302.18 172.40 306.38 C 171.73 309.43 172.87 312.50 172.47 315.55 C 171.75 316.94 170.75 318.14 169.82 319.39 C 168.79 319.24 167.77 319.11 166.75 318.98 C 164.85 321.91 162.70 324.67 160.31 327.23 C 164.68 332.09 169.09 337.03 174.59 340.67 C 178.49 343.30 182.00 347.42 187.06 347.53 C 189.25 347.84 191.68 347.26 193.73 348.19 C 194.74 350.79 194.40 353.76 195.63 356.30 C 196.72 358.17 198.28 359.70 199.71 361.30 C 197.04 362.12 194.38 362.96 191.73 363.83 C 193.47 367.22 197.07 369.70 200.98 369.23 C 206.68 367.71 211.80 364.66 216.81 361.63 C 221.39 359.00 226.79 360.45 231.63 361.41 C 234.81 357.34 237.30 352.79 240.19 348.53 C 239.38 354.38 239.95 361.78 234.64 365.70 C 230.89 368.57 228.46 373.05 224.16 375.17 C 218.97 375.39 213.80 373.96 208.59 373.87 C 211.12 373.06 213.66 372.26 216.18 371.43 C 213.92 371.45 211.61 371.20 209.39 371.74 C 206.19 372.95 203.61 375.44 200.32 376.43 C 197.65 376.58 195.05 375.19 192.40 375.68 C 190.27 376.86 188.63 378.73 186.85 380.36 C 184.93 379.62 183.02 378.87 181.11 378.12 C 182.45 377.57 183.81 377.04 185.16 376.51 C 182.75 372.11 181.07 367.38 179.05 362.81 C 178.13 360.11 175.09 359.46 172.88 358.20 C 171.50 354.78 170.04 351.23 167.18 348.76 C 164.94 346.61 161.68 346.32 159.03 344.90 C 156.97 343.08 155.75 340.38 153.23 339.08 C 151.76 338.06 149.96 337.41 148.82 335.99 C 147.89 333.53 148.33 330.83 148.32 328.26 C 146.97 328.70 145.62 329.14 144.27 329.58 C 143.98 327.61 143.68 325.64 143.39 323.67 C 146.64 323.72 149.96 324.00 153.12 323.11 C 156.20 322.25 158.42 319.79 160.48 317.50 C 164.09 313.84 162.72 307.57 167.14 304.45 C 165.00 303.56 162.35 303.26 160.76 301.47 C 158.17 295.95 156.45 289.98 153.10 284.83 C 150.65 281.41 145.61 281.16 143.37 277.51 C 139.96 272.38 138.03 266.46 134.73 261.27 C 132.47 257.65 129.45 254.47 128.02 250.39 C 128.06 249.45 128.15 247.57 128.20 246.63 Z" />
</g>
<g id="#3b3b3bff">
<path fill="#3b3b3b" stroke="#3b3b3b" stroke-width="0.09375" opacity="1.00" d=" M 119.12 257.51 C 121.55 254.10 124.10 250.78 126.94 247.71 C 127.21 248.38 127.75 249.72 128.02 250.39 C 129.45 254.47 132.47 257.65 134.73 261.27 C 138.03 266.46 139.96 272.38 143.37 277.51 C 145.61 281.16 150.65 281.41 153.10 284.83 C 156.45 289.98 158.17 295.95 160.76 301.47 C 162.35 303.26 165.00 303.56 167.14 304.45 C 162.72 307.57 164.09 313.84 160.48 317.50 C 158.42 319.79 156.20 322.25 153.12 323.11 C 149.96 324.00 146.64 323.72 143.39 323.67 C 143.68 325.64 143.98 327.61 144.27 329.58 C 145.62 329.14 146.97 328.70 148.32 328.26 C 148.33 330.83 147.89 333.53 148.82 335.99 C 149.96 337.41 151.76 338.06 153.23 339.08 C 155.75 340.38 156.97 343.08 159.03 344.90 C 161.68 346.32 164.94 346.61 167.18 348.76 C 170.04 351.23 171.50 354.78 172.88 358.20 C 175.09 359.46 178.13 360.11 179.05 362.81 C 181.07 367.38 182.75 372.11 185.16 376.51 C 183.81 377.04 182.45 377.57 181.11 378.12 C 183.02 378.87 184.93 379.62 186.85 380.36 C 188.63 378.73 190.27 376.86 192.40 375.68 C 195.05 375.19 197.65 376.58 200.32 376.43 C 203.61 375.44 206.19 372.95 209.39 371.74 C 211.61 371.20 213.92 371.45 216.18 371.43 C 213.66 372.26 211.12 373.06 208.59 373.87 C 213.80 373.96 218.97 375.39 224.16 375.17 C 228.46 373.05 230.89 368.57 234.64 365.70 C 239.95 361.78 239.38 354.38 240.19 348.53 C 240.51 344.84 240.86 340.98 242.87 337.78 C 244.54 334.72 247.06 331.78 246.91 328.10 C 246.80 323.94 247.34 319.80 248.80 315.90 C 251.91 314.87 255.05 313.89 258.28 313.25 C 264.08 312.15 269.77 310.51 275.30 308.43 C 273.78 309.89 271.83 311.44 271.97 313.79 C 274.01 316.11 277.29 316.26 280.03 317.21 C 282.52 317.80 284.64 319.27 286.75 320.64 C 285.25 320.85 283.75 321.05 282.25 321.26 C 283.53 323.72 284.87 326.14 286.27 328.53 C 281.43 331.91 281.88 338.31 278.88 342.89 C 276.09 347.61 274.27 352.85 270.96 357.26 C 272.73 357.71 274.49 358.16 276.26 358.62 C 276.05 360.36 275.47 362.18 276.01 363.91 C 278.06 365.93 280.67 367.32 282.47 369.62 C 283.68 370.84 284.63 372.49 286.21 373.28 C 289.15 372.98 292.06 372.35 295.02 372.16 C 295.56 373.25 296.11 374.34 296.66 375.44 C 303.39 377.33 310.36 378.56 317.38 378.21 C 319.66 378.03 320.96 375.86 322.35 374.32 C 324.04 372.03 326.19 370.15 328.54 368.56 C 329.79 369.92 331.05 371.29 332.31 372.65 C 335.38 370.24 339.45 368.00 339.92 363.70 C 340.88 359.47 336.85 356.60 334.70 353.53 C 335.53 350.77 336.04 347.94 336.34 345.08 C 334.26 344.91 332.22 344.51 330.19 344.06 C 329.53 344.87 328.88 345.68 328.23 346.50 C 327.65 345.15 327.06 343.81 326.48 342.47 C 330.15 342.46 333.92 342.46 337.36 340.99 C 340.05 341.57 342.79 341.84 345.54 341.81 C 357.69 348.92 366.11 360.81 372.92 372.85 C 376.78 381.62 381.24 390.36 382.42 400.00 L 379.67 400.00 C 379.35 398.72 379.05 397.44 378.76 396.16 C 376.62 394.97 374.07 394.19 372.49 392.26 C 371.14 389.29 371.53 385.83 370.24 382.84 C 368.30 379.78 365.59 377.31 363.26 374.56 C 362.38 376.07 361.51 377.58 360.64 379.09 C 359.21 379.21 357.78 379.34 356.36 379.47 C 353.10 383.06 349.26 386.09 346.32 389.97 C 344.30 388.93 341.94 387.15 339.65 388.58 C 337.92 392.31 339.08 396.49 340.75 400.00 L 155.21 400.00 C 156.30 397.30 157.93 394.90 160.02 392.88 C 157.47 392.04 154.95 391.09 152.49 390.00 C 152.00 390.50 151.52 391.00 151.04 391.51 C 149.60 387.44 147.94 383.33 147.92 378.96 C 147.86 376.15 149.40 373.70 150.56 371.25 C 148.94 370.47 147.32 369.73 145.69 368.99 C 145.57 368.46 145.33 367.42 145.21 366.89 C 146.94 366.31 148.69 365.82 150.44 365.33 C 149.29 363.69 148.15 362.05 147.01 360.42 C 145.98 360.73 144.95 361.04 143.92 361.36 C 143.70 360.41 143.49 359.46 143.27 358.52 C 142.39 358.92 141.51 359.32 140.64 359.74 C 138.36 357.49 136.40 354.94 135.12 352.00 C 137.13 350.60 138.94 348.88 140.04 346.66 C 138.70 346.09 137.37 345.54 136.03 344.98 C 135.81 342.87 135.58 340.76 135.37 338.65 C 130.45 335.84 124.79 335.59 119.28 335.42 C 120.58 334.55 121.90 333.68 123.21 332.82 C 120.09 329.08 120.48 323.76 122.67 319.70 C 124.52 317.24 127.85 316.77 130.39 315.27 C 132.69 314.51 132.36 311.18 134.20 310.16 C 136.82 311.88 140.53 313.63 143.37 311.39 C 145.41 308.36 146.80 304.93 148.75 301.84 C 150.08 299.78 149.54 297.26 149.51 294.97 C 148.35 294.37 147.19 293.79 146.03 293.20 C 145.48 291.74 144.94 290.29 144.39 288.84 C 142.00 288.53 139.60 288.22 137.21 287.92 C 135.28 284.84 133.23 281.72 132.54 278.09 C 131.43 273.66 131.44 268.80 128.99 264.82 C 126.09 261.91 122.30 260.09 119.12 257.51 Z" />
</g>
<g id="#110f13ff">
<path fill="#110f13" stroke="#110f13" stroke-width="0.09375" opacity="1.00" d=" M 262.96 258.12 C 265.63 257.29 267.81 254.69 270.84 255.45 C 275.19 256.18 280.04 255.60 283.83 258.24 C 279.66 260.04 276.79 263.94 272.39 265.28 C 266.32 267.71 259.71 267.46 253.33 268.28 C 248.02 268.90 242.66 268.67 237.32 268.49 C 237.62 266.50 236.71 263.25 239.43 262.71 C 247.22 260.96 255.28 260.40 262.96 258.12 Z" />
</g>
<g id="#4a4d4dff">
<path fill="#4a4d4d" stroke="#4a4d4d" stroke-width="0.09375" opacity="1.00" d=" M 110.34 261.37 C 112.96 259.46 115.93 258.12 119.12 257.51 C 122.30 260.09 126.09 261.91 128.99 264.82 C 131.44 268.80 131.43 273.66 132.54 278.09 C 133.23 281.72 135.28 284.84 137.21 287.92 C 139.60 288.22 142.00 288.53 144.39 288.84 C 144.94 290.29 145.48 291.74 146.03 293.20 C 147.19 293.79 148.35 294.37 149.51 294.97 C 149.54 297.26 150.08 299.78 148.75 301.84 C 146.80 304.93 145.41 308.36 143.37 311.39 C 140.53 313.63 136.82 311.88 134.20 310.16 C 132.36 311.18 132.69 314.51 130.39 315.27 C 127.85 316.77 124.52 317.24 122.67 319.70 C 120.48 323.76 120.09 329.08 123.21 332.82 C 121.90 333.68 120.58 334.55 119.28 335.42 C 124.79 335.59 130.45 335.84 135.37 338.65 C 135.58 340.76 135.81 342.87 136.03 344.98 C 137.37 345.54 138.70 346.09 140.04 346.66 C 138.94 348.88 137.13 350.60 135.12 352.00 C 136.40 354.94 138.36 357.49 140.64 359.74 C 141.51 359.32 142.39 358.92 143.27 358.52 C 143.49 359.46 143.70 360.41 143.92 361.36 C 144.95 361.04 145.98 360.73 147.01 360.42 C 148.15 362.05 149.29 363.69 150.44 365.33 C 148.69 365.82 146.94 366.31 145.21 366.89 C 145.33 367.42 145.57 368.46 145.69 368.99 C 142.30 367.67 139.18 365.75 135.77 364.50 C 134.54 365.98 133.73 367.78 132.45 369.24 C 130.37 370.21 128.07 370.50 125.84 370.97 C 125.58 371.85 125.31 372.74 125.05 373.64 C 124.43 373.59 123.82 373.55 123.20 373.52 C 121.98 371.54 121.10 369.03 118.87 367.99 C 115.45 368.18 112.04 369.11 108.65 368.08 C 107.04 371.36 105.36 374.61 103.79 377.92 C 101.99 381.10 103.01 384.83 102.44 388.28 C 108.29 389.38 109.19 395.81 112.07 400.00 L 0.00 400.00 L 0.00 334.73 C 0.99 334.15 1.99 333.57 3.00 333.01 C 3.88 330.49 5.03 327.97 7.63 326.85 C 10.01 331.45 8.12 336.40 7.77 341.20 C 10.70 340.49 13.82 340.04 16.39 338.36 C 17.05 336.31 17.23 334.16 17.55 332.05 C 18.78 331.48 20.02 330.92 21.26 330.35 C 20.31 329.66 19.36 328.96 18.42 328.28 C 20.26 327.61 22.11 326.95 23.95 326.29 C 23.21 325.38 22.47 324.48 21.73 323.58 C 22.51 322.64 23.29 321.71 24.06 320.78 C 22.41 320.58 20.76 320.38 19.11 320.19 C 19.24 318.99 19.35 317.79 19.64 316.62 C 20.55 315.61 22.03 315.38 23.20 314.78 C 24.67 312.56 26.85 311.15 29.40 310.49 C 29.13 311.48 28.86 312.48 28.59 313.48 C 32.95 313.57 36.45 310.93 39.10 307.70 C 42.05 309.37 46.35 313.04 49.04 309.00 C 52.04 307.01 50.77 303.74 50.75 300.87 C 53.03 298.79 56.00 297.70 58.60 296.10 C 56.40 294.49 54.19 292.90 51.97 291.32 C 53.39 290.76 54.81 290.19 56.25 289.68 C 58.95 289.65 61.64 289.61 64.33 289.58 C 62.38 290.45 60.43 291.31 58.48 292.19 C 64.01 295.34 70.24 296.75 76.21 298.81 C 76.44 300.33 76.68 301.84 76.92 303.36 C 80.70 305.64 83.44 309.19 84.91 313.32 C 85.84 313.47 86.77 313.62 87.71 313.78 C 88.07 315.47 88.44 317.16 88.81 318.85 C 86.57 319.64 84.32 320.40 82.07 321.15 C 81.82 319.46 81.57 317.76 81.33 316.07 C 80.35 315.70 79.37 315.34 78.39 314.98 C 79.67 320.78 76.64 326.90 79.77 332.39 C 81.23 331.98 82.70 331.60 84.17 331.19 C 86.30 335.34 85.85 340.11 86.46 344.60 C 88.66 342.12 88.06 338.60 88.36 335.56 C 91.97 335.31 95.69 335.33 98.99 337.02 C 100.63 338.06 102.39 337.23 104.05 336.74 C 102.41 334.44 100.41 332.30 99.47 329.59 C 99.90 327.64 101.15 325.99 102.05 324.24 C 99.21 323.48 96.30 322.99 93.37 322.90 C 94.29 322.16 95.21 321.43 96.14 320.69 C 95.50 318.77 94.88 316.85 94.25 314.93 C 95.51 313.46 96.79 311.99 98.06 310.53 C 96.48 308.28 94.83 306.08 93.12 303.93 C 91.95 305.77 90.78 307.62 89.62 309.47 C 89.11 307.81 88.61 306.15 88.11 304.49 C 86.89 304.07 85.68 303.66 84.47 303.25 C 84.27 300.09 83.77 296.96 82.86 293.93 C 81.73 294.52 80.59 295.11 79.46 295.71 C 78.57 294.81 77.67 293.91 76.77 293.02 C 78.28 291.18 79.79 289.33 81.26 287.46 C 79.85 283.65 81.62 279.88 81.99 276.08 C 81.33 275.03 80.53 274.08 79.75 273.12 C 75.70 274.92 71.28 275.90 67.60 278.47 C 62.36 282.60 54.84 280.42 49.82 285.06 C 50.69 286.16 51.56 287.26 52.42 288.38 C 48.87 288.65 45.32 289.68 41.76 289.03 C 38.66 288.44 35.44 288.37 32.43 289.41 C 29.56 290.12 27.71 292.61 25.27 294.07 C 22.57 295.09 19.60 295.01 16.88 295.96 C 14.74 296.95 13.06 298.67 11.17 300.05 C 7.80 302.76 3.72 304.31 0.00 306.46 L 0.00 302.85 C 2.91 301.72 5.86 300.56 8.33 298.60 C 11.67 296.20 14.78 293.53 17.74 290.68 C 22.48 286.36 29.17 285.75 35.18 284.49 C 35.65 282.77 36.14 281.07 36.53 279.33 C 37.49 280.48 38.44 281.63 39.39 282.79 C 46.26 281.80 52.97 279.83 59.21 276.77 C 61.54 276.74 63.86 277.21 66.19 277.04 C 68.82 275.87 70.56 273.31 73.17 272.10 C 80.46 270.36 87.38 267.25 94.90 266.47 C 95.69 265.38 96.41 264.24 97.31 263.24 C 101.62 262.58 106.53 264.17 110.34 261.37 Z" />
</g>
<g id="#525756ff">
<path fill="#525756" stroke="#525756" stroke-width="0.09375" opacity="1.00" d=" M 67.60 278.47 C 71.28 275.90 75.70 274.92 79.75 273.12 C 80.53 274.08 81.33 275.03 81.99 276.08 C 81.62 279.88 79.85 283.65 81.26 287.46 C 79.79 289.33 78.28 291.18 76.77 293.02 C 77.67 293.91 78.57 294.81 79.46 295.71 C 80.59 295.11 81.73 294.52 82.86 293.93 C 83.77 296.96 84.27 300.09 84.47 303.25 C 85.68 303.66 86.89 304.07 88.11 304.49 C 88.61 306.15 89.11 307.81 89.62 309.47 C 90.78 307.62 91.95 305.77 93.12 303.93 C 94.83 306.08 96.48 308.28 98.06 310.53 C 96.79 311.99 95.51 313.46 94.25 314.93 C 94.88 316.85 95.50 318.77 96.14 320.69 C 95.21 321.43 94.29 322.16 93.37 322.90 C 96.30 322.99 99.21 323.48 102.05 324.24 C 101.15 325.99 99.90 327.64 99.47 329.59 C 100.41 332.30 102.41 334.44 104.05 336.74 C 102.39 337.23 100.63 338.06 98.99 337.02 C 95.69 335.33 91.97 335.31 88.36 335.56 C 88.06 338.60 88.66 342.12 86.46 344.60 C 85.85 340.11 86.30 335.34 84.17 331.19 C 82.70 331.60 81.23 331.98 79.77 332.39 C 76.64 326.90 79.67 320.78 78.39 314.98 C 79.37 315.34 80.35 315.70 81.33 316.07 C 81.57 317.76 81.82 319.46 82.07 321.15 C 84.32 320.40 86.57 319.64 88.81 318.85 C 88.44 317.16 88.07 315.47 87.71 313.78 C 86.77 313.62 85.84 313.47 84.91 313.32 C 83.44 309.19 80.70 305.64 76.92 303.36 C 76.68 301.84 76.44 300.33 76.21 298.81 C 70.24 296.75 64.01 295.34 58.48 292.19 C 60.43 291.31 62.38 290.45 64.33 289.58 C 61.64 289.61 58.95 289.65 56.25 289.68 C 54.97 289.26 53.71 288.78 52.42 288.38 C 51.56 287.26 50.69 286.16 49.82 285.06 C 54.84 280.42 62.36 282.60 67.60 278.47 Z" />
</g>
<g id="#303438ff">
<path fill="#303438" stroke="#303438" stroke-width="0.09375" opacity="1.00" d=" M 281.14 280.43 C 281.76 280.22 282.99 279.81 283.61 279.60 C 282.29 285.21 280.89 290.98 282.14 296.76 C 281.07 299.95 280.28 303.35 278.25 306.11 C 278.76 303.45 279.30 300.79 279.83 298.14 C 276.23 297.46 272.50 297.03 268.88 297.81 C 264.98 298.42 261.18 300.01 257.19 299.72 C 253.86 299.22 250.59 297.97 247.85 295.99 C 246.71 294.16 248.42 291.84 250.18 291.19 C 257.02 289.50 264.23 291.75 271.07 290.03 C 275.45 288.26 280.22 285.51 281.14 280.43 Z" />
</g>
<g id="#545552ff">
<path fill="#545552" stroke="#545552" stroke-width="0.09375" opacity="1.00" d=" M 32.43 289.41 C 35.44 288.37 38.66 288.44 41.76 289.03 C 45.32 289.68 48.87 288.65 52.42 288.38 C 53.71 288.78 54.97 289.26 56.25 289.68 C 54.81 290.19 53.39 290.76 51.97 291.32 C 54.19 292.90 56.40 294.49 58.60 296.10 C 56.00 297.70 53.03 298.79 50.75 300.87 C 50.77 303.74 52.04 307.01 49.04 309.00 C 46.35 313.04 42.05 309.37 39.10 307.70 C 36.45 310.93 32.95 313.57 28.59 313.48 C 28.86 312.48 29.13 311.48 29.40 310.49 C 26.85 311.15 24.67 312.56 23.20 314.78 C 22.03 315.38 20.55 315.61 19.64 316.62 C 19.35 317.79 19.24 318.99 19.11 320.19 C 20.76 320.38 22.41 320.58 24.06 320.78 C 23.29 321.71 22.51 322.64 21.73 323.58 C 22.47 324.48 23.21 325.38 23.95 326.29 C 22.11 326.95 20.26 327.61 18.42 328.28 C 19.36 328.96 20.31 329.66 21.26 330.35 C 20.02 330.92 18.78 331.48 17.55 332.05 C 17.23 334.16 17.05 336.31 16.39 338.36 C 13.82 340.04 10.70 340.49 7.77 341.20 C 8.12 336.40 10.01 331.45 7.63 326.85 C 5.03 327.97 3.88 330.49 3.00 333.01 C 1.99 333.57 0.99 334.15 0.00 334.73 L 0.00 306.46 C 3.72 304.31 7.80 302.76 11.17 300.05 C 13.06 298.67 14.74 296.95 16.88 295.96 C 19.60 295.01 22.57 295.09 25.27 294.07 C 27.71 292.61 29.56 290.12 32.43 289.41 Z" />
</g>
<g id="#45494aff">
<path fill="#45494a" stroke="#45494a" stroke-width="0.09375" opacity="1.00" d=" M 282.14 296.76 L 282.68 295.29 C 282.55 297.26 282.40 299.25 282.53 301.23 C 284.63 303.69 287.93 304.64 290.42 306.65 C 297.09 312.11 303.88 317.42 310.48 322.97 C 311.74 324.53 312.78 326.36 314.46 327.55 C 324.04 333.96 335.78 335.71 345.54 341.81 C 342.79 341.84 340.05 341.57 337.36 340.99 C 333.92 342.46 330.15 342.46 326.48 342.47 C 327.06 343.81 327.65 345.15 328.23 346.50 C 328.88 345.68 329.53 344.87 330.19 344.06 C 332.22 344.51 334.26 344.91 336.34 345.08 C 336.04 347.94 335.53 350.77 334.70 353.53 C 336.85 356.60 340.88 359.47 339.92 363.70 C 339.45 368.00 335.38 370.24 332.31 372.65 C 331.05 371.29 329.79 369.92 328.54 368.56 C 326.19 370.15 324.04 372.03 322.35 374.32 C 320.96 375.86 319.66 378.03 317.38 378.21 C 310.36 378.56 303.39 377.33 296.66 375.44 C 296.11 374.34 295.56 373.25 295.02 372.16 C 292.06 372.35 289.15 372.98 286.21 373.28 C 284.63 372.49 283.68 370.84 282.47 369.62 C 280.67 367.32 278.06 365.93 276.01 363.91 C 275.47 362.18 276.05 360.36 276.26 358.62 C 274.49 358.16 272.73 357.71 270.96 357.26 C 274.27 352.85 276.09 347.61 278.88 342.89 C 281.88 338.31 281.43 331.91 286.27 328.53 C 284.87 326.14 283.53 323.72 282.25 321.26 C 283.75 321.05 285.25 320.85 286.75 320.64 C 284.64 319.27 282.52 317.80 280.03 317.21 C 277.29 316.26 274.01 316.11 271.97 313.79 C 271.83 311.44 273.78 309.89 275.30 308.43 C 276.30 307.67 277.28 306.91 278.25 306.11 C 280.28 303.35 281.07 299.95 282.14 296.76 Z" />
</g>
<g id="#404243ff">
<path fill="#404243" stroke="#404243" stroke-width="0.09375" opacity="1.00" d=" M 132.45 369.24 C 133.73 367.78 134.54 365.98 135.77 364.50 C 139.18 365.75 142.30 367.67 145.69 368.99 C 147.32 369.73 148.94 370.47 150.56 371.25 C 149.40 373.70 147.86 376.15 147.92 378.96 C 147.94 383.33 149.60 387.44 151.04 391.51 C 151.52 391.00 152.00 390.50 152.49 390.00 C 154.95 391.09 157.47 392.04 160.02 392.88 C 157.93 394.90 156.30 397.30 155.21 400.00 L 112.07 400.00 C 109.19 395.81 108.29 389.38 102.44 388.28 C 103.01 384.83 101.99 381.10 103.79 377.92 C 105.36 374.61 107.04 371.36 108.65 368.08 C 112.04 369.11 115.45 368.18 118.87 367.99 C 121.10 369.03 121.98 371.54 123.20 373.52 C 123.82 373.55 124.43 373.59 125.05 373.64 C 125.31 372.74 125.58 371.85 125.84 370.97 C 128.07 370.50 130.37 370.21 132.45 369.24 Z" />
</g>
<g id="#363330ff">
<path fill="#363330" stroke="#363330" stroke-width="0.09375" opacity="1.00" d=" M 360.64 379.09 C 361.51 377.58 362.38 376.07 363.26 374.56 C 365.59 377.31 368.30 379.78 370.24 382.84 C 371.53 385.83 371.14 389.29 372.49 392.26 C 374.07 394.19 376.62 394.97 378.76 396.16 C 379.05 397.44 379.35 398.72 379.67 400.00 L 340.75 400.00 C 339.08 396.49 337.92 392.31 339.65 388.58 C 341.94 387.15 344.30 388.93 346.32 389.97 C 349.26 386.09 353.10 383.06 356.36 379.47 C 357.78 379.34 359.21 379.21 360.64 379.09 Z" />
</g>
</svg>
