<?xml version="1.0" standalone="no"?>
<!DOCTYPE svg PUBLIC "-//W3C//DTD SVG 20010904//EN"
 "http://www.w3.org/TR/2001/REC-SVG-20010904/DTD/svg10.dtd">
<svg version="1.0" xmlns="http://www.w3.org/2000/svg"
 width="800.000000pt" height="800.000000pt" viewBox="0 0 800.000000 800.000000"
 preserveAspectRatio="xMidYMid meet">

<g transform="translate(0.000000,800.000000) scale(0.100000,-0.100000)"
fill="#000000" stroke="none">
<path d="M2943 4352 c-56 -35 -55 -48 2 -20 24 12 42 25 39 29 -2 4 2 10 8 12
7 3 9 6 3 6 -5 0 -29 -12 -52 -27z"/>
<path d="M3340 4350 c-15 -21 -17 -30 -8 -30 7 0 21 14 30 30 22 39 6 39 -22
0z"/>
<path d="M3408 4373 c24 -10 11 -31 -30 -49 -24 -9 -47 -18 -53 -18 -5 -1 -20
-7 -32 -14 -20 -11 -23 -9 -39 24 -17 36 -18 36 -66 31 -31 -4 -63 -1 -89 9
-34 11 -45 12 -57 2 -13 -10 -14 -10 -8 0 4 8 1 12 -9 12 -10 0 -15 -6 -12
-13 7 -19 -61 -50 -158 -73 -76 -17 -99 -29 -89 -45 2 -4 -10 -6 -28 -3 -58 8
-66 -8 -72 -148 -2 -35 -9 -62 -18 -72 -15 -14 -17 -14 -22 0 -4 9 -12 14 -21
10 -8 -3 -22 -9 -30 -12 -19 -8 -21 42 -3 81 13 29 5 43 -16 26 -7 -6 -17 -37
-21 -67 -5 -39 -10 -53 -17 -46 -7 7 -7 20 0 41 6 17 9 31 6 31 -10 0 -44 -67
-44 -87 0 -13 -5 -23 -11 -23 -5 0 -8 -4 -5 -9 3 -5 -2 -8 -12 -7 -13 1 -17
-7 -17 -31 -1 -18 2 -33 5 -33 6 0 21 -36 55 -131 26 -76 53 -131 69 -141 16
-11 38 -10 31 2 -8 14 53 6 67 -8 8 -8 4 -13 -16 -18 -14 -3 -32 -4 -40 -1
-19 7 -10 -23 12 -40 9 -8 12 -19 7 -30 -4 -10 -9 -31 -11 -46 -3 -25 -1 -28
19 -21 12 3 34 13 48 20 15 7 29 10 32 7 4 -3 13 0 22 7 20 17 26 10 51 -63
40 -115 69 -177 81 -173 6 3 27 -11 47 -30 38 -37 46 -41 46 -21 0 20 56 47
70 33 10 -8 12 -7 7 7 -5 14 -1 17 22 17 20 0 36 9 49 28 15 20 24 24 32 16 8
-8 6 -20 -9 -45 -12 -19 -21 -47 -21 -62 0 -15 -10 -41 -22 -57 -11 -16 -25
-48 -29 -72 -4 -24 -13 -68 -20 -98 -13 -62 -7 -167 16 -298 23 -129 24 -132
40 -132 12 0 15 -13 15 -57 0 -44 3 -54 11 -43 8 11 9 5 5 -25 -3 -22 -9 -103
-12 -181 l-7 -141 33 -6 c18 -4 52 -7 77 -7 27 0 42 -4 38 -10 -3 -5 -19 -10
-35 -10 -16 0 -41 -10 -57 -23 -15 -13 -45 -35 -65 -49 l-38 -25 25 -23 c14
-13 25 -32 25 -42 0 -10 5 -18 10 -18 6 0 10 -4 10 -10 0 -5 -7 -10 -15 -10
-8 0 -15 -5 -15 -11 0 -5 4 -8 9 -4 6 3 13 -14 16 -38 6 -38 14 -50 56 -82 27
-21 47 -40 44 -43 -3 -3 -13 2 -22 10 -30 26 -102 62 -110 55 -3 -4 1 -7 10
-7 9 0 15 -6 13 -13 -1 -6 -1 -9 1 -4 7 11 23 -2 23 -18 0 -10 -7 -12 -30 -5
-38 11 -47 -3 -20 -32 11 -12 19 -27 16 -33 -4 -11 -9 -11 -41 0 -16 6 -17 5
-5 -4 13 -9 13 -11 0 -11 -12 -1 -12 -3 2 -11 10 -6 15 -16 11 -26 -4 -10 1
-22 13 -30 18 -14 18 -16 -14 -42 -31 -27 -35 -45 -6 -34 23 9 16 -2 -32 -51
-37 -37 -45 -51 -41 -72 4 -24 2 -26 -24 -22 -36 6 -38 -5 -4 -20 32 -15 55
-15 55 -2 0 6 6 10 14 10 8 0 17 8 20 18 4 11 17 25 30 32 13 7 29 22 34 34 9
17 11 18 11 4 1 -21 -28 -58 -45 -58 -6 0 -14 -9 -17 -20 -3 -11 -12 -20 -22
-20 -9 0 -15 -6 -14 -12 3 -26 -1 -38 -15 -38 -8 0 -16 6 -19 13 -8 20 -36
-24 -37 -56 0 -19 -4 -26 -11 -21 -8 5 -10 -2 -6 -22 6 -31 -24 -188 -41 -220
-6 -10 -25 -32 -41 -47 -17 -16 -31 -33 -31 -39 0 -6 -11 -8 -24 -6 -28 6 -45
-20 -24 -34 10 -8 10 -11 1 -15 -7 -2 -13 -11 -13 -19 0 -11 7 -13 26 -8 17 4
29 2 34 -6 8 -13 74 -40 98 -40 6 0 12 7 12 15 0 8 3 15 8 15 16 0 83 73 78
86 -3 7 3 15 12 18 25 8 37 3 34 -14 -2 -11 23 -25 85 -48 49 -18 93 -32 99
-32 6 0 19 -9 29 -20 10 -11 22 -20 28 -20 5 0 19 -10 29 -22 18 -21 20 -34
16 -133 -4 -69 -2 -93 2 -65 5 25 6 -28 3 -120 -3 -91 -5 -201 -4 -244 0 -44
-3 -82 -8 -85 -5 -3 -12 -21 -15 -38 l-7 -33 750 0 751 0 0 28 c0 16 -3 31 -6
35 -3 3 -8 61 -10 129 -2 68 -6 142 -9 165 -6 43 1 53 22 32 6 -6 16 -9 21 -5
13 8 22 46 11 46 -5 0 -9 -4 -9 -10 0 -5 -11 -10 -25 -10 -17 0 -25 5 -25 18
0 14 9 17 55 18 30 0 59 4 64 9 6 7 -28 335 -39 371 0 1 -19 10 -42 19 -36 15
-40 19 -23 24 15 5 21 16 22 46 l2 40 -12 -32 c-17 -43 -27 -51 -27 -20 0 14
4 28 9 31 16 10 20 90 9 168 -11 74 -12 78 -37 78 l-26 0 25 23 c14 12 91 69
173 125 81 57 147 105 147 108 0 3 -10 2 -21 -1 -16 -5 -5 15 43 77 35 46 75
101 88 123 13 22 28 42 32 43 4 2 8 8 8 14 0 5 11 24 25 42 14 19 25 46 25 64
0 33 15 51 24 30 3 -7 3 -1 0 13 -3 16 5 50 22 90 77 183 142 466 174 753 6
54 13 102 16 107 3 5 7 138 9 296 4 334 -7 452 -18 188 -13 -308 -30 -488 -47
-493 -12 -4 -13 -39 -1 -44 22 -8 -30 -334 -83 -518 l-24 -85 -1 53 c-1 45 -4
52 -21 52 -11 0 -20 -7 -20 -15 0 -8 4 -15 9 -15 6 0 5 -15 -1 -37 -5 -21 -8
-63 -6 -95 4 -50 2 -58 -13 -58 -22 0 -33 -29 -14 -36 12 -5 11 -14 -6 -57
-11 -29 -25 -56 -30 -61 -5 -6 -9 -16 -9 -23 0 -30 -85 -187 -137 -254 -31
-40 -50 -69 -43 -65 10 5 10 3 -1 -6 -9 -7 -21 -23 -28 -36 -7 -12 -16 -20
-20 -18 -4 3 -21 -9 -37 -27 -16 -18 -19 -24 -6 -13 12 11 22 14 22 8 0 -7 -4
-12 -8 -12 -5 0 -30 -21 -58 -46 -27 -25 -62 -53 -79 -61 -16 -9 -35 -22 -43
-29 -7 -8 -19 -14 -25 -13 -9 0 -8 2 1 6 6 2 12 9 12 14 0 4 -6 6 -13 3 -10
-3 -20 34 -41 153 -40 237 -45 253 -66 253 -10 0 -21 -6 -23 -12 -3 -7 -6 1
-6 19 -1 17 -6 33 -12 35 -12 4 -28 74 -29 126 0 31 2 32 38 32 21 0 42 3 45
7 4 3 41 5 84 4 88 -3 203 17 210 36 3 8 23 13 52 13 25 0 70 9 100 21 30 11
71 19 90 17 27 -2 37 1 39 14 2 11 -5 19 -20 23 -132 30 -148 31 -148 10 0
-22 -38 -18 -45 4 -7 23 -52 55 -57 40 -7 -20 -38 3 -38 27 0 30 -27 74 -46
74 -8 0 -14 -4 -14 -10 0 -5 5 -10 12 -10 6 0 8 -3 5 -6 -3 -4 0 -16 8 -28 19
-26 19 -52 1 -59 -7 -3 -18 -23 -23 -43 -10 -43 -27 -51 -106 -53 l-48 -1 20
27 c12 14 19 34 16 43 -3 9 -26 115 -51 236 -84 405 -92 440 -93 405 -2 -57
-10 -30 -31 95 -12 65 -27 155 -35 199 -8 44 -19 114 -25 155 -31 216 -37 240
-55 240 -14 0 -55 136 -55 182 0 14 -9 36 -19 49 -10 14 -22 50 -26 82 -4 31
-11 54 -16 51 -5 -3 -9 0 -9 5 0 18 -18 12 -24 -6 -3 -10 -4 -3 -2 14 2 30 1
32 -14 18 -9 -8 -28 -13 -46 -10 -16 2 -51 7 -79 11 -33 5 -70 20 -108 46 -62
40 -82 46 -90 26 -4 -10 -6 -10 -6 -1 -1 7 -7 10 -15 7 -12 -5 -13 -11 -4 -30
8 -17 19 -24 40 -24 35 0 71 -17 63 -30 -3 -5 -12 -7 -20 -4 -8 4 -12 10 -9
15 3 5 -2 9 -11 9 -12 0 -15 -6 -10 -19 4 -13 -1 -24 -16 -34 -25 -18 -47 -13
-45 11 1 11 -8 18 -24 21 -14 1 -28 8 -32 14 -5 8 -9 6 -14 -6 -7 -20 -30 -23
-37 -4 -4 7 -6 6 -6 -5 -1 -9 -9 -19 -18 -21 -10 -3 0 -6 22 -7 22 -1 54 -5
70 -9 29 -7 29 -7 7 -15 -14 -5 -21 -13 -18 -22 3 -9 -3 -16 -17 -19 -12 -2
-31 -6 -42 -8 -12 -3 -6 -6 15 -7 34 -3 34 -3 -10 -11 -25 -4 -67 -12 -95 -19
-67 -14 -92 -7 -100 30 -6 27 -10 30 -43 29 -30 -1 -32 -2 -14 -8 l24 -6 -26
-28 c-25 -27 -27 -27 -113 -22 -48 2 -89 5 -90 5 -1 0 3 14 8 30 11 31 24 35
69 20 21 -7 18 -8 -19 -9 -24 -1 -42 -4 -38 -7 7 -8 157 6 157 15 0 6 -19 7
-138 13 -35 2 -40 5 -28 14 9 6 16 16 16 23 0 19 97 14 110 -6 11 -17 11 -17
6 0 -3 10 -6 22 -6 26 0 4 -11 13 -25 19 -21 10 -32 9 -58 -5 -38 -19 -51 -34
-79 -93 -33 -66 -55 -84 -99 -81 -34 2 -41 -2 -68 -40 -34 -46 -43 -42 -12 5
11 17 18 33 15 38 -3 4 0 8 6 8 6 0 9 4 6 8 -3 5 16 27 42 50 26 23 61 53 77
68 l30 26 -38 -7 c-21 -3 -46 -9 -55 -12 -9 -3 -14 -3 -11 1 3 3 30 14 59 24
30 9 58 26 64 37 6 11 15 23 20 26 5 4 6 14 3 23 -4 10 -1 16 8 16 8 0 29 18
46 40 l32 40 73 0 c40 0 76 5 79 10 3 6 12 10 18 10 9 0 9 -2 0 -8 -7 -5 5 -8
29 -9 23 -1 44 -7 48 -14 6 -8 13 -8 28 0 11 6 32 11 46 11 25 0 26 2 26 69 0
51 -4 70 -14 74 -10 4 -14 0 -11 -14 2 -10 7 -24 10 -29 3 -6 -1 -7 -9 -4 -10
4 -16 18 -16 38 0 24 -10 41 -38 69 -21 20 -46 37 -56 37 -10 0 -74 -36 -143
-80 -69 -44 -127 -79 -129 -77 -3 3 77 68 109 89 7 4 4 16 -7 32 -14 22 -20
25 -37 16 -11 -6 -38 -18 -60 -25 -38 -14 -39 -13 -29 5 6 10 14 21 18 24 4 2
9 18 10 35 2 26 -1 31 -20 31 -45 0 -50 12 -29 72 19 55 15 79 -13 77 -6 0 -5
-3 2 -6z m-714 -263 c4 -25 3 -31 -4 -20 -5 8 -10 26 -10 39 0 32 6 24 14 -19z
m-110 -124 c-21 -15 -30 -14 -19 3 3 6 14 11 23 11 13 0 13 -2 -4 -14z m-57
-18 c-3 -8 -6 -5 -6 6 -1 11 2 17 5 13 3 -3 4 -12 1 -19z m1130 6 c-3 -3 -12
-4 -19 -1 -8 3 -5 6 6 6 11 1 17 -2 13 -5z m101 -1 c-10 -2 -18 -9 -18 -15 0
-7 -4 -7 -12 0 -7 5 -22 12 -33 15 -11 2 3 5 30 5 28 0 42 -2 33 -5z m-1120
-55 c-2 -6 -10 -14 -18 -16 -7 -3 -10 0 -6 6 3 6 0 13 -6 15 -7 3 -2 6 10 6
14 1 22 -4 20 -11z m88 -3 c10 -26 -1 -35 -13 -10 -6 14 -7 25 -2 25 5 0 12
-7 15 -15z m-49 -37 c-3 -7 -5 -2 -5 12 0 14 2 19 5 13 2 -7 2 -19 0 -25z m25
-3 c3 -14 1 -28 -3 -31 -5 -3 -9 9 -9 25 0 38 6 40 12 6z m-137 -35 c3 -5 1
-10 -4 -10 -6 0 -11 5 -11 10 0 6 2 10 4 10 3 0 8 -4 11 -10z m175 -10 c0 -5
-8 -10 -17 -10 -15 0 -16 2 -3 10 19 12 20 12 20 0z m1300 -16 c0 -2 -7 -4
-15 -4 -8 0 -15 4 -15 10 0 5 7 7 15 4 8 -4 15 -8 15 -10z m350 -99 c0 -8 -9
-15 -20 -15 -17 0 -19 2 -8 15 17 19 28 19 28 0z m-1280 -580 c0 -8 -4 -15
-10 -15 -5 0 -7 7 -4 15 4 8 8 15 10 15 2 0 4 -7 4 -15z m2427 -217 c-3 -8 -6
-5 -6 6 -1 11 2 17 5 13 3 -3 4 -12 1 -19z m-2292 -248 c3 -5 -1 -10 -10 -10
-9 0 -13 5 -10 10 3 6 8 10 10 10 2 0 7 -4 10 -10z m39 -50 c3 0 2 7 -1 17 -8
20 -1 16 77 -41 63 -45 110 -91 110 -106 0 -12 1 -13 -95 52 -92 62 -123 90
-117 108 4 10 7 8 13 -8 5 -12 11 -22 13 -22z m116 -264 c0 -2 -9 -6 -20 -9
-11 -3 -20 -1 -20 4 0 5 9 9 20 9 11 0 20 -2 20 -4z m-55 -33 c-2 -10 -4 -22
-5 -28 -1 -5 -5 -1 -9 10 -9 21 -5 35 9 35 4 0 7 -8 5 -17z m122 11 c-3 -3
-12 -4 -19 -1 -8 3 -5 6 6 6 11 1 17 -2 13 -5z m-328 -86 c0 -10 -2 -18 -6
-18 -5 0 -9 21 -10 48 -1 40 0 42 7 17 4 -16 8 -38 9 -47z m178 36 c-3 -20 -9
-39 -12 -42 -11 -12 -16 8 -10 42 9 48 29 48 22 0z m-167 -124 c0 -41 -3 -50
-17 -49 -11 0 -13 3 -5 6 6 2 12 11 12 19 0 8 -6 14 -12 15 -10 0 -10 2 0 6
14 6 16 33 2 33 -5 0 -10 5 -10 10 0 6 7 10 15 10 11 0 15 -12 15 -50z m2207
-162 c-3 -8 -6 -5 -6 6 -1 11 2 17 5 13 3 -3 4 -12 1 -19z m-79 -189 c-6 -16
-12 -28 -14 -26 -5 5 13 57 20 57 3 0 0 -14 -6 -31z m-391 -1241 c-3 -8 -6 -5
-6 6 -1 11 2 17 5 13 3 -3 4 -12 1 -19z m-100 -450 c-3 -8 -6 -5 -6 6 -1 11 2
17 5 13 3 -3 4 -12 1 -19z"/>
<path d="M2651 4184 c0 -11 3 -14 6 -6 3 7 2 16 -1 19 -3 4 -6 -2 -5 -13z"/>
<path d="M2600 4159 c0 -5 5 -7 10 -4 6 3 10 8 10 11 0 2 -4 4 -10 4 -5 0 -10
-5 -10 -11z"/>
<path d="M2640 4040 c0 -5 5 -10 10 -10 6 0 10 5 10 10 0 6 -4 10 -10 10 -5 0
-10 -4 -10 -10z"/>
<path d="M3881 3983 c-1 -14 5 -23 14 -23 8 0 15 8 15 18 0 14 -2 14 -9 3 -7
-11 -10 -10 -14 5 -4 16 -5 16 -6 -3z"/>
<path d="M3663 3897 c-74 -45 -75 -51 -5 -20 34 14 59 30 55 36 -3 5 3 6 17 2
15 -5 20 -4 16 4 -11 17 -26 13 -83 -22z"/>
<path d="M3780 3900 c0 -5 5 -10 11 -10 5 0 7 5 4 10 -3 6 -8 10 -11 10 -2 0
-4 -4 -4 -10z"/>
<path d="M3860 3859 c-25 -4 -58 -12 -75 -18 -26 -8 -27 -9 -7 -10 13 -1 33
-6 45 -13 12 -7 27 -13 32 -13 6 -1 18 -5 27 -9 11 -5 27 0 47 15 27 19 29 24
15 32 -8 5 -18 6 -21 3 -4 -3 0 -6 8 -6 12 0 12 -2 0 -9 -9 -6 -21 -5 -32 2
-18 11 -17 12 4 24 25 14 21 14 -43 2z"/>
<path d="M3992 3768 c5 -15 28 -18 29 -3 0 6 -7 12 -17 13 -10 3 -15 -1 -12
-10z"/>
<path d="M5470 3717 c0 -34 4 -77 9 -95 6 -20 6 -30 0 -27 -5 4 -9 1 -9 -4 0
-6 9 -11 20 -11 23 0 24 12 10 91 -5 30 -11 66 -12 82 -4 53 -18 26 -18 -36z"/>
<path d="M3761 3726 c2 -2 18 -6 34 -10 22 -5 26 -4 15 4 -14 9 -59 15 -49 6z"/>
<path d="M3900 3720 c-13 -8 -12 -10 3 -10 9 0 17 5 17 10 0 12 -1 12 -20 0z"/>
<path d="M3483 3713 c9 -2 23 -2 30 0 6 3 -1 5 -18 5 -16 0 -22 -2 -12 -5z"/>
<path d="M3707 3703 c-12 -11 -8 -23 7 -23 8 0 16 7 20 15 5 15 -14 21 -27 8z"/>
<path d="M3538 3643 c12 -2 32 -2 45 0 12 2 2 4 -23 4 -25 0 -35 -2 -22 -4z"/>
<path d="M5474 3037 c-2 -7 -3 -58 -2 -113 l3 -99 5 113 c3 61 4 112 2 112 -1
0 -5 -6 -8 -13z"/>
<path d="M3090 1806 c0 -2 7 -7 16 -10 8 -3 12 -2 9 4 -6 10 -25 14 -25 6z"/>
<path d="M5035 1489 c-4 -6 -5 -12 -2 -15 2 -3 7 2 10 11 7 17 1 20 -8 4z"/>
<path d="M391 1250 l-2 -130 85 0 86 0 0 120 0 119 -80 4 -80 3 82 0 83 -1 0
-125 0 -125 -90 -6 -90 -5 85 -2 c119 -2 120 -1 120 135 0 139 -3 143 -117
143 l-80 0 -2 -130z"/>
<path d="M5360 849 c0 -5 5 -7 10 -4 6 3 10 8 10 11 0 2 -4 4 -10 4 -5 0 -10
-5 -10 -11z"/>
<path d="M5105 830 c3 -5 8 -10 11 -10 2 0 4 5 4 10 0 6 -5 10 -11 10 -5 0 -7
-4 -4 -10z"/>
<path d="M4956 754 c-10 -26 -7 -34 12 -34 14 0 14 2 3 9 -12 8 -12 12 -2 25
8 9 9 16 3 16 -5 0 -13 -7 -16 -16z"/>
<path d="M5624 600 c0 -69 1 -97 3 -62 2 34 2 90 0 125 -2 34 -3 6 -3 -63z"/>
<path d="M4942 620 c0 -14 2 -19 5 -12 2 6 2 18 0 25 -3 6 -5 1 -5 -13z"/>
<path d="M4951 574 c0 -11 3 -14 6 -6 3 7 2 16 -1 19 -3 4 -6 -2 -5 -13z"/>
<path d="M5243 463 c9 -2 23 -2 30 0 6 3 -1 5 -18 5 -16 0 -22 -2 -12 -5z"/>
<path d="M5528 453 c7 -3 16 -2 19 1 4 3 -2 6 -13 5 -11 0 -14 -3 -6 -6z"/>
<path d="M3353 360 c0 -25 2 -35 4 -22 2 12 2 32 0 45 -2 12 -4 2 -4 -23z"/>
</g>
</svg>
